<svg width="197" height="283" viewBox="0 0 197 283" fill="none" xmlns="http://www.w3.org/2000/svg">
<path fill-rule="evenodd" clip-rule="evenodd" d="M194.638 277.481C194.234 269.933 193.737 262.391 193.141 254.855C191.957 239.844 190.405 224.823 187.821 209.985C185.273 195.344 181.706 181.109 176.568 167.159C174.184 160.686 171.602 155.165 167.857 149.346C164.316 143.846 159.797 140.118 154.167 136.797C149.095 133.805 143.202 128.615 138.337 125.263C136.306 123.865 132.128 123.958 130.736 121.89C128.911 119.179 130.093 115.032 128.256 112.333C126.154 109.245 123.209 106.846 119.889 105.104C116.265 102.64 111.998 101.524 107.718 101.677C101.408 101.292 95.053 103.311 91.0007 108.469C88.9793 111.044 87.7994 114.014 87.6361 117.304C87.5929 118.159 87.8666 118.834 88.3167 119.32C88.0502 119.68 87.7838 120.039 87.5197 120.399C86.6915 119.166 84.7541 118.512 83.4637 119.442C79.2409 122.486 74.6772 124.908 69.86 126.682C68.733 126.147 67.3687 126.394 66.4033 127.269C66.0115 127.623 65.5958 127.927 65.1614 128.185C63.3753 128.67 61.5617 129.076 59.7211 129.391C59.1449 129.489 58.6568 129.818 58.2865 130.26C57.738 129.745 56.9841 129.498 56.1422 129.82C46.4206 133.543 37.24 139.325 30.2619 147.159C22.5308 155.837 18.4703 166.633 15.3791 177.695C12.0326 189.668 9.8941 201.939 8.0979 214.232C6.27783 226.686 4.48512 239.19 3.23292 251.717C2.5282 258.766 2.25933 265.88 2.57838 272.96C2.73742 276.499 3.05923 280.026 3.57178 283.531C3.69121 284.35 3.81617 285.295 4.01758 286.238C3.40565 286.118 2.6768 286.638 2.8008 287.47C3.66457 293.262 10.6369 294.949 15.4454 295.617C23.3112 296.707 31.2177 297.312 39.159 297.359C46.9628 297.404 54.7654 296.901 62.553 296.451C70.5371 295.989 78.5207 295.525 86.5054 295.055C118.493 293.171 150.482 291.308 182.47 289.423C185.393 289.251 188.73 289.018 191.234 287.315C194.665 284.981 194.841 281.272 194.638 277.481Z" fill="white"/>
<path fill-rule="evenodd" clip-rule="evenodd" d="M38.7039 212.692C38.5928 212.482 38.8504 212.296 39.0214 212.446C42.9047 215.869 44.9377 221.366 45.364 226.447C45.8156 231.835 45.1754 237.413 44.9306 242.799C44.6583 248.798 44.4135 254.799 44.081 260.796C43.7435 266.879 43.3799 272.961 43.0682 279.046L42.3671 292.733C42.2925 294.192 42.454 295.986 41.8967 297.348C41.0329 299.458 38.4672 299.131 37.928 297.368L37.9112 297.309L37.8619 297.348C37.3862 295.758 37.7423 293.869 37.8229 292.227L38.5575 277.272C39.0766 266.701 39.5395 256.129 40.097 245.561L40.2865 242.038C40.5472 237.296 40.7471 232.566 40.9076 227.824L40.9595 226.244C41.112 221.484 40.991 216.99 38.7039 212.692ZM132.84 124.939C135.004 124.732 136.638 125.453 138.602 126.212C139.458 126.542 140.268 126.924 141.088 127.32C142.116 127.815 142.776 128.69 143.409 129.614L143.748 130.113C146.384 133.991 148.155 138.465 150.156 142.687C152.496 147.626 154.858 152.554 157.148 157.515L158.278 159.961C158.843 161.183 159.406 162.406 159.961 163.633L160.92 165.768C161.882 167.934 162.747 170.225 161.373 172.46C160.097 174.537 157.835 176.145 156.043 177.752C154.548 179.092 153.053 180.432 151.557 181.772C154.649 184.881 156.723 188.796 157.944 192.993C159.676 192.269 161.792 192.129 163.583 191.816C166.092 191.376 166.399 195.19 164.032 195.145C162.283 195.11 160.233 195.289 158.44 194.919C158.751 196.299 158.978 197.7 159.122 199.104C159.874 206.464 158.227 213.866 156.511 220.987L156.369 221.572C154.504 229.28 152.736 237.008 151.152 244.779C149.567 252.568 148.141 260.388 146.874 268.235C145.586 276.222 144.674 284.253 143.694 292.283C143.546 293.498 142.784 294.539 141.448 294.539C140.334 294.539 139.06 293.496 139.201 292.283C140.211 283.54 141.646 274.841 143.071 266.157C145.525 251.202 148.615 236.377 152.168 221.649L152.789 219.084C154.387 212.433 155.839 205.579 155.037 198.718C154.383 193.131 152.058 187.174 147.46 183.704L147.321 183.599C146.247 182.808 145.834 181.296 146.891 180.255C147.565 179.592 148.238 178.929 148.913 178.267L152.959 174.3L153.774 173.498C154.455 172.831 155.138 172.168 155.842 171.526C156.268 171.137 157.423 170.396 157.507 169.756C157.562 169.339 157.07 168.607 156.871 168.222L155.957 166.37C155.439 165.314 154.937 164.251 154.431 163.189C153.38 160.99 152.317 158.796 151.289 156.586L145.122 143.312C143.383 139.567 141.832 135.614 139.557 132.151L139.109 131.477C138.735 130.909 138.404 130.361 138.167 129.666C137.94 128.998 137.655 128.264 137.233 127.693C136.249 126.354 134.366 125.595 132.79 125.314C132.562 125.273 132.644 124.957 132.84 124.939ZM85.405 121.453C85.5418 121.453 85.5622 121.649 85.4362 121.687C83.5348 122.261 81.7187 123.187 80.2375 124.525C79.5281 125.165 78.8139 125.891 78.3757 126.752C78.2089 127.082 78.1165 127.43 78.0481 127.791L78.0265 127.913C77.9136 128.565 77.7516 128.927 77.4215 129.449L77.3651 129.538C75.4817 132.46 74.1618 135.704 72.955 138.953L70.3267 146.037L67.7003 153.122C66.854 155.405 66.0073 157.688 65.1607 159.97C64.6932 161.231 64.2123 162.486 63.7318 163.741C63.5238 164.285 63.3002 164.825 63.1099 165.376C63.0839 165.45 63.0007 165.903 62.9383 166.013L62.9595 166.05C63.4894 166.946 64.9022 167.694 65.7029 168.344L68.4606 170.583C70.4266 172.18 72.4432 173.732 74.3498 175.4C75.5478 176.448 74.8023 178.323 73.4669 178.76C71.2282 179.493 69.0349 180.37 66.8297 181.198C65.9389 181.533 65.0113 181.825 64.1309 182.194L63.595 182.426C63.3856 182.522 63.4862 182.52 63.4946 182.908C63.503 183.315 63.6179 183.739 63.6838 184.139C64.4266 188.65 65.214 193.154 66.045 197.649C68.9848 213.547 72.4967 229.327 76.502 244.986C78.5258 252.894 80.6948 260.764 82.763 268.661C84.8252 276.535 87.5392 284.298 90.1295 292.011C90.8617 294.186 87.4275 295.123 86.7145 292.957C83.7281 283.886 80.9961 274.735 78.1741 265.612C73.1622 249.402 69.2122 232.839 65.7186 216.238C63.9871 208.009 62.4034 199.75 60.9691 191.464C60.6975 189.895 60.4312 188.326 60.1704 186.754L59.7903 184.445C59.5297 182.798 59.3812 181.083 60.6555 179.78C61.8996 178.508 64.0356 178.058 65.6728 177.461L65.7917 177.416C66.8335 177.026 67.8829 176.65 68.9281 176.262C67.3883 175.045 65.8675 173.8 64.3315 172.584C63.0924 171.602 61.8338 170.64 60.6126 169.636C59.6055 168.808 58.7844 167.744 58.6795 166.398C58.5723 165.02 59.1596 163.744 59.6334 162.481L59.6789 162.359C60.1439 161.098 60.6103 159.838 61.0886 158.582L64.048 150.809C65.9287 145.868 67.7299 140.889 69.708 135.988C70.4906 134.048 71.3434 132.139 72.3511 130.306C72.837 129.421 73.3582 128.556 73.9244 127.722C74.5587 126.786 75.1348 126.33 76.1179 125.814C77.6904 124.989 78.9243 123.604 80.5028 122.753C82.0524 121.918 83.6465 121.472 85.405 121.453ZM90.5076 112.639C90.5688 112.536 90.7273 112.583 90.7297 112.701C90.7705 115.156 90.1895 117.664 89.833 120.091C89.4741 122.528 89.3589 125.098 88.8391 127.509C88.8283 127.621 88.8067 127.732 88.7767 127.84L88.7515 127.923C88.533 128.598 87.9629 129.171 87.2643 129.349C87.4839 130.574 87.6904 131.799 87.8644 133.031C88.1645 135.15 88.437 137.271 88.7059 139.392L89.0276 141.938C89.3313 144.339 89.6266 146.74 89.9182 149.141C90.66 149.453 91.4175 149.711 92.1941 149.932C93.9802 150.447 95.8095 150.655 97.6532 150.837C101.408 151.206 105.191 151.379 108.959 151.588L109.767 151.634C114.003 151.878 118.262 151.921 122.487 151.485C124.582 151.268 126.661 150.905 128.704 150.39C129.742 150.129 130.751 149.737 131.787 149.482C132.131 149.397 132.438 149.201 132.782 148.992C132.936 148.798 133.15 148.651 133.429 148.595L133.505 148.581L133.581 148.571L133.606 148.558L133.605 148.567C133.816 148.538 134.018 148.538 134.207 148.564C134.283 146.692 134.364 144.82 134.468 142.948C134.744 137.922 135.505 132.678 134.488 127.694C134.455 127.527 134.681 127.468 134.74 127.624C136.734 132.9 136.51 138.668 136.61 144.22C136.709 149.65 136.649 155.083 136.622 160.515C137.01 160.68 137.355 160.904 137.628 161.22C138.176 161.849 138.333 162.942 137.628 163.55C137.316 163.818 136.972 164.006 136.606 164.135C136.586 168.854 136.553 173.572 136.506 178.29C137.399 178.983 137.482 180.629 136.472 181.313C136.303 196.593 136.027 211.874 135.798 227.151L135.318 259.204C135.254 263.475 135.148 267.745 135.11 272.015L135.14 272.027L135.247 272.076C135.426 272.16 135.692 272.297 135.747 272.436C135.762 272.474 135.765 272.498 135.763 272.517C136.056 272.558 136.346 272.698 136.598 272.937C137.219 273.53 137.093 274.421 136.598 275.024L136.466 275.185C136.158 275.561 135.573 275.706 135.095 275.629C135.1 278.295 135.117 280.961 135.109 283.625C135.105 284.439 135.093 285.254 135.08 286.067L135.046 288.019C135.023 289.133 134.925 290.548 133.79 291.049C132.509 291.613 131.359 291.15 130.84 289.844C130.7 289.49 130.73 289.16 130.781 288.81C130.766 288.283 130.683 287.675 130.694 287.187L130.736 285.151C130.743 284.838 130.755 284.524 130.765 284.21L130.727 284.215C126.173 284.436 121.589 284.328 117.028 284.326L115.001 284.328C113.308 284.329 111.612 284.321 109.922 284.256L109.288 284.228C108.023 284.169 106.693 284.15 105.381 284.036C105.548 285.389 105.704 286.742 105.843 288.097C105.975 289.381 104.655 290.472 103.478 290.472C102.08 290.472 101.279 289.368 101.113 288.097C100.323 282.096 99.9987 276.04 99.2437 270.036C98.5679 264.658 97.9809 259.269 97.3856 253.882L97.1863 252.085C95.0053 232.478 92.8879 212.863 90.8629 193.239L89.9194 184.067C88.9676 174.821 88.0085 165.573 87.2007 156.314C86.7385 151.019 86.3136 145.725 85.9127 140.426C85.6186 136.533 85.4338 132.661 85.3137 128.775C84.8396 128.286 84.6019 127.57 84.812 126.831C84.9344 126.401 85.0773 125.972 85.2285 125.544C85.2189 125.124 85.2093 124.703 85.2009 124.283C85.1937 123.885 85.5958 123.679 85.9187 123.745C86.5045 122.32 87.149 120.908 87.688 119.497C88.5594 117.213 89.2773 114.753 90.5076 112.639ZM41.8448 137.321C50.9536 131.588 61.7963 127.463 72.6559 127.907C72.9029 127.917 72.9724 128.295 72.716 128.352C66.9234 129.652 61.0672 131.234 55.5832 133.536C50.0832 135.846 44.8537 138.957 40.1959 142.694C31.6022 149.589 24.9225 158.559 20.5242 168.669C17.9479 174.592 16.1421 180.844 14.5652 187.099C12.8966 193.719 11.5214 200.41 10.378 207.141C8.1194 220.438 6.80454 233.88 6.10487 247.347C5.39306 261.045 5.68643 274.753 5.1788 288.453C5.09106 290.826 1.71318 290.78 1.54141 288.453C0.39112 272.876 1.02838 257.052 2.09225 241.487C3.0488 227.494 4.71919 213.531 7.40916 199.764L7.64334 198.571C10.1581 185.833 13.1911 172.787 19.2702 161.251C24.4603 151.404 32.4728 143.222 41.8448 137.321ZM168.334 198.199C168.382 198.061 168.561 198.064 168.609 198.199C169.647 201.118 169.685 204.413 169.961 207.489L169.982 207.726C170.248 210.534 170.447 213.344 170.632 216.157L170.701 217.212C171.444 228.686 172.375 240.148 173.775 251.563C175.171 262.935 177.059 274.227 179.1 285.497C179.328 286.752 178.775 288.029 177.464 288.391C176.309 288.71 174.827 287.995 174.583 286.748C173.316 280.279 172.29 273.802 171.377 267.277C169.767 255.787 168.566 244.245 167.794 232.668C167.406 226.854 167.167 221.042 167.073 215.215C167.029 212.511 167.099 209.801 167.243 207.101L167.277 206.478C167.435 203.717 167.42 200.831 168.334 198.199ZM69.9078 271.287C70.0295 271.22 70.1802 271.357 70.1031 271.483C68.3393 274.362 65.9533 276.844 63.6471 279.292C61.2362 281.849 58.8848 284.483 56.4253 286.991C54.6481 288.802 51.7894 285.88 53.6649 284.218C56.3021 281.883 59.0583 279.661 61.7424 277.378L62.9162 276.379C65.1169 274.511 67.3828 272.661 69.9078 271.287ZM153.68 269.845C153.548 269.593 153.85 269.389 154.054 269.555C155.476 270.718 156.752 272.104 158.125 273.33C159.485 274.544 160.897 275.677 162.347 276.782C163.803 277.892 165.29 278.958 166.818 279.965C168.086 280.802 169.392 281.47 170.718 282.165C171.333 282.244 171.902 282.547 172.358 283.122C173.078 284.03 173.154 285.743 172.155 286.531L171.976 286.672C170.81 287.593 169.426 287.705 168.279 286.672C166.997 285.52 165.786 284.252 164.555 283.034L164.186 282.67C162.864 281.379 161.574 280.047 160.358 278.654L159.256 277.396C157.214 275.057 155.087 272.535 153.68 269.845ZM147.127 134.964C146.89 134.807 147.036 134.383 147.328 134.484L147.864 134.67C150.103 135.452 152.407 136.319 154.439 137.521C156.624 138.815 158.64 140.354 160.568 142.006C164.555 145.426 167.949 149.631 170.832 154.014C176.618 162.809 180.196 172.881 183.085 182.959C186.166 193.706 188.537 204.682 190.474 215.691C192.442 226.878 193.959 238.166 194.958 249.484C195.449 255.058 195.779 260.635 195.944 266.23C196.03 269.108 196.027 271.983 196.003 274.862C195.997 275.602 196.002 276.342 196.01 277.082L196.038 279.302C196.054 280.706 196.22 282.182 195.889 283.553C195.354 285.761 191.72 285.349 191.839 283.093C191.73 282.342 191.725 281.566 191.754 280.788C191.737 280.688 191.718 280.586 191.698 280.482C191.638 280.183 191.688 279.907 191.804 279.67C191.824 279.298 191.84 278.926 191.846 278.562C191.87 277.08 191.869 275.604 191.828 274.123C191.742 270.997 191.618 267.874 191.494 264.751C191.244 258.511 190.896 252.267 190.393 246.042C188.64 224.373 184.94 202.581 178.724 181.735C175.839 172.053 171.858 162.551 166.152 154.185C163.618 150.471 160.76 147.041 157.591 143.857C154.403 140.654 150.888 137.467 147.127 134.964ZM104.121 274.65L104.552 277.779C104.766 279.345 104.98 280.91 105.182 282.476C106.557 282.286 107.963 282.208 109.288 282.09C111.607 281.884 113.942 281.784 116.268 281.687C121.078 281.487 125.912 281.143 130.726 281.167C130.777 281.167 130.823 281.17 130.869 281.174L131.108 275L127.725 274.995C124.859 274.99 121.994 274.965 119.127 274.941C116.547 274.918 113.965 274.914 111.383 274.861L110.277 274.835C108.321 274.782 106.159 274.891 104.121 274.65ZM131.392 265.689C131.254 265.704 131.114 265.719 130.964 265.725C130.294 265.754 129.62 265.733 128.949 265.739C127.521 265.751 126.093 265.761 124.666 265.761C121.81 265.761 118.954 265.778 116.1 265.813C113.16 265.849 110.223 265.9 107.284 265.906C105.86 265.908 104.44 265.871 103.016 265.83C103.247 267.863 103.488 269.892 103.753 271.918C105.964 271.618 108.342 271.77 110.503 271.75L110.784 271.746C113.732 271.695 116.683 271.733 119.634 271.736C122.668 271.74 125.703 271.75 128.737 271.774L131.23 271.795L131.235 271.669C131.308 269.678 131.355 267.683 131.392 265.689ZM101.92 255.968C102.197 258.366 102.456 260.769 102.72 263.171C102.896 263.143 103.074 263.12 103.255 263.101C104.681 262.951 106.105 262.823 107.536 262.734C110.389 262.556 113.242 262.462 116.1 262.385C119.039 262.306 121.978 262.245 124.918 262.203C126.346 262.184 127.772 262.185 129.201 262.196C129.87 262.2 130.547 262.179 131.216 262.224C131.296 262.23 131.372 262.238 131.448 262.247L131.498 258.64C131.506 258.039 131.516 257.438 131.526 256.838C129.318 256.974 127.074 256.922 124.869 256.922L124.36 256.923C121.588 256.937 118.816 256.898 116.045 256.84C113.186 256.781 110.334 256.687 107.479 256.503C106.323 256.429 105.176 256.33 104.026 256.203L103.451 256.136C102.95 256.077 102.435 256.029 101.92 255.968ZM131.754 245.79C126.437 246.214 121.15 246.391 115.819 246.443L115.02 246.45C110.31 246.487 105.56 246.682 100.839 246.556C101.121 249.015 101.403 251.472 101.686 253.931C102.362 253.9 103.042 253.898 103.703 253.874C105.047 253.826 106.387 253.814 107.731 253.81C110.503 253.804 113.273 253.828 116.045 253.824C118.902 253.816 121.756 253.768 124.612 253.715C126.927 253.671 129.267 253.496 131.588 253.502L131.754 245.79ZM131.978 235.302C131.362 235.509 130.635 235.522 129.838 235.558L127.779 235.66C126.826 235.707 125.872 235.752 124.918 235.787C121.737 235.904 118.557 236.014 115.376 236.115C112.116 236.218 108.842 236.279 105.581 236.176C103.985 236.126 102.402 236.041 100.809 235.907C100.415 235.875 100.014 235.853 99.6122 235.824C99.9831 239.082 100.355 242.338 100.729 245.595C105.427 245.015 110.162 244.655 114.855 244.056L119.099 243.511C123.341 242.967 127.578 242.434 131.835 241.984L131.978 235.302ZM132.205 224.699C131.301 224.923 130.271 224.913 129.402 224.967L129.243 224.979C127.597 225.104 125.949 225.166 124.301 225.207C121.07 225.287 117.837 225.327 114.604 225.346L112.661 225.359C110.071 225.374 107.482 225.381 104.89 225.32C103.228 225.281 101.569 225.199 99.9087 225.116C99.4105 225.091 98.9016 225.074 98.3914 225.049C98.7383 228.132 99.09 231.214 99.4393 234.299C99.9855 234.211 100.534 234.144 101.056 234.056C102.395 233.829 103.731 233.648 105.08 233.485C108 233.134 110.935 232.881 113.87 232.668C116.882 232.449 119.897 232.263 122.91 232.051L125.043 231.899C125.754 231.85 126.465 231.801 127.177 231.758C128.392 231.683 129.804 231.768 131.01 231.503C131.336 231.365 131.699 231.334 132.061 231.412L132.205 224.699ZM132.479 212.287C132.165 212.686 131.699 212.896 131.142 212.968C128.24 213.345 125.265 213.407 122.339 213.585L121.825 213.618C118.803 213.818 115.781 213.974 112.758 214.136C109.653 214.301 106.548 214.436 103.44 214.544C102.121 214.591 100.796 214.596 99.4742 214.579L98.9076 214.571C98.365 214.561 97.7973 214.563 97.2271 214.544C97.5428 217.427 97.8609 220.311 98.1838 223.193C98.7647 223.13 99.3445 223.082 99.9075 223.022C101.568 222.846 103.226 222.671 104.89 222.54C108.042 222.29 111.198 222.139 114.356 221.983C117.587 221.823 120.821 221.715 124.052 221.563C125.62 221.49 127.186 221.398 128.748 221.254C129.844 221.152 131.144 220.779 132.287 220.916C132.349 218.039 132.414 215.164 132.479 212.287ZM132.733 201.169C132.684 201.246 132.626 201.321 132.556 201.39C131.278 202.658 129.705 202.559 128.012 202.693L127.908 202.701C126.25 202.841 124.59 202.975 122.93 203.094C119.61 203.335 116.285 203.504 112.96 203.653C109.558 203.808 106.135 203.912 102.729 203.844C100.548 203.798 98.2654 203.806 96.0412 203.593C96.3821 206.769 96.7254 209.943 97.0723 213.119C97.6977 213.001 98.3266 212.909 98.9232 212.815C100.426 212.578 101.93 212.339 103.441 212.164C106.46 211.815 109.481 211.488 112.506 211.194C115.094 210.942 117.681 210.687 120.27 210.455L121.825 210.322C124.914 210.06 128.042 209.63 131.142 209.566C131.653 209.555 132.23 209.835 132.523 210.276C132.592 207.24 132.662 204.204 132.733 201.169ZM132.948 192.168C132.159 192.264 131.308 192.21 130.581 192.234C128.74 192.294 126.898 192.35 125.058 192.405L114.011 192.732C110.25 192.844 106.476 192.927 102.713 192.874C101.057 192.85 99.3961 192.848 97.7409 192.757L97.1899 192.723C96.5093 192.678 95.6739 192.672 94.8576 192.588L95.8203 201.551C98.0338 201.23 100.316 201.11 102.51 200.921L102.979 200.88C106.215 200.584 109.468 200.387 112.71 200.167C116.038 199.941 119.359 199.667 122.68 199.386C124.34 199.246 126.001 199.106 127.659 198.952L127.865 198.931C129.432 198.767 130.905 198.418 132.294 199.346C132.497 199.481 132.655 199.663 132.764 199.865C132.826 197.3 132.884 194.734 132.948 192.168ZM133.205 181.708C126.477 181.981 119.749 182.187 113.016 182.278C109.227 182.329 105.442 182.293 101.653 182.213C100.01 182.178 98.353 182.1 96.711 181.973L96.0964 181.924C95.315 181.858 94.4951 181.809 93.6789 181.731C94.0162 184.813 94.3511 187.894 94.6836 190.977C95.4866 190.827 96.3257 190.758 97.0303 190.667L97.1899 190.646C98.9388 190.405 100.705 190.264 102.462 190.108C105.884 189.806 109.324 189.61 112.756 189.444C116.269 189.274 119.785 189.131 123.3 188.973L126.814 188.815C127.4 188.79 127.987 188.763 128.573 188.739C129.409 188.703 130.246 188.669 131.083 188.634C131.496 188.617 131.925 188.562 132.338 188.582L132.456 188.567C132.51 188.56 132.558 188.555 132.602 188.55C132.714 188.463 132.835 188.392 132.964 188.338L133.042 188.308L133.205 181.708ZM92.5758 171.796C92.8879 174.57 93.1976 177.345 93.5025 180.12C94.4615 180.01 95.4326 179.95 96.3485 179.867C98.1958 179.7 100.053 179.554 101.905 179.469L105.609 179.297C108.077 179.181 110.546 179.07 113.016 178.98C119.778 178.733 126.539 178.448 133.296 178.101C133.344 176.22 133.393 174.337 133.443 172.455C133.119 172.804 132.65 173.033 132.035 173.032C124.941 173.013 117.841 173.055 110.748 172.937C107.197 172.878 103.65 172.792 100.104 172.609C98.3686 172.52 96.6234 172.338 94.9021 172.098C94.1674 171.996 93.3632 171.922 92.5758 171.796ZM91.4403 161.911C91.774 164.752 92.1017 167.595 92.4233 170.439C93.3044 170.281 94.2143 170.196 95.0365 170.084C96.8022 169.843 98.5787 169.65 100.358 169.55C103.818 169.353 107.281 169.254 110.748 169.18C117.841 169.028 124.941 169.03 132.035 168.973C132.701 168.968 133.195 169.233 133.521 169.629C133.57 167.853 133.621 166.079 133.675 164.304C132.99 164.232 132.311 164.129 131.682 164.085C129.75 163.95 127.817 163.826 125.883 163.714C121.849 163.482 117.809 163.283 113.771 163.106C109.732 162.93 105.692 162.758 101.652 162.607L99.8847 162.542C97.0747 162.437 94.2179 162.305 91.4403 161.911ZM90.1703 151.209C90.5172 154.087 90.8593 156.965 91.2002 159.844L91.3034 160.736C94.6824 160.075 98.2438 159.882 101.652 159.737C105.692 159.564 109.726 159.475 113.771 159.487C117.812 159.5 121.846 159.596 125.883 159.763C127.901 159.847 129.917 159.944 131.934 160.053C132.488 160.084 133.138 160.068 133.806 160.078C133.822 159.626 133.834 159.172 133.85 158.721C133.911 156.889 133.971 155.056 134.033 153.224C132.67 153.928 130.897 154.211 129.526 154.511L129.37 154.546C127.107 155.056 124.797 155.387 122.487 155.588C117.951 155.986 113.368 155.838 108.837 155.453L108.043 155.385C104.064 155.038 99.9387 154.599 96.0808 153.609C94.2431 153.139 92.3441 152.48 90.6973 151.524C90.5256 151.424 90.3492 151.32 90.1703 151.209ZM128.484 117.007C128.524 116.85 128.755 116.815 128.832 116.961C129.367 117.983 129.568 119.21 129.939 120.305C130.34 121.484 130.713 122.67 131.155 123.834C132.078 126.265 133.167 128.601 134.464 130.853C135.75 133.083 132.151 134.674 131.205 132.233C130.228 129.714 129.425 127.109 128.94 124.448C128.702 123.148 128.491 121.831 128.423 120.512C128.364 119.379 128.206 118.112 128.484 117.007Z" fill="#282828"/>
<path fill-rule="evenodd" clip-rule="evenodd" d="M154.749 67.5489C154.649 61.8427 154.537 56.0225 153.693 50.3719C152.867 44.8476 150.595 39.8542 146.692 35.8427C138.402 27.3218 126.384 25.2404 115.197 23.3331L96.072 20.072C90.2359 19.0774 84.0109 17.4874 78.1161 18.898C75.2112 19.5932 72.7444 21.208 70.4897 23.1187C68.3164 24.9602 65.9798 26.9379 64.5072 29.4155C63.032 31.8966 62.5246 34.7971 62.045 37.6033C61.5041 40.7671 61.0839 43.9557 60.7854 47.1518C60.1872 53.5554 60.1055 60.007 60.5395 66.4238C60.7496 69.5362 61.0842 72.6399 61.5113 75.7288C61.723 77.2618 61.9623 78.7899 62.2327 80.3121C62.3124 80.7616 62.3729 81.2593 62.4546 81.7607C61.8513 83.4841 61.5084 85.269 61.5361 87.0466C61.6175 92.2819 66.0165 95.5769 70.4514 97.3473C73.0228 98.3729 75.7106 99.0695 78.2373 100.216C80.896 101.422 82.705 103.376 84.5223 105.605C87.9877 109.858 91.8996 113.68 96.3649 116.868C105.833 123.629 117.827 126.826 129.315 124.399C132.071 123.817 134.853 122.913 137.331 121.55C139.947 120.112 141.914 118.027 143.566 115.562C146.633 110.988 148.833 105.837 150.497 100.594C152.194 95.2467 153.399 89.8896 154.056 84.3133C154.711 78.755 154.849 73.1412 154.749 67.5489Z" fill="white"/>
<path fill-rule="evenodd" clip-rule="evenodd" d="M93.7147 0.194674C101.63 -0.898785 112.554 2.65516 116.495 9.8214C135.314 5.36537 159.048 5.21943 174.558 20.0533C190.742 37.6495 170.414 60.8503 156.934 66.081C157.916 70.8716 156.386 101.56 145.559 115.25C136.965 126.849 116.956 132.202 107.696 118.347L107.624 118.234C106.632 116.633 107.486 116.685 108.504 117.875C117.571 125.883 129.9 126.021 139.4 117.569C157.203 102.121 155.368 64.2415 146.896 42.3281C122.771 39.6668 96.9424 47.0111 80.2793 65.251L81.4064 72.0635C81.5984 73.2253 81.8169 74.3847 81.9825 75.5489C82.0894 76.2961 82.1014 77.0373 81.5864 77.6423C79.8867 79.6369 77.0215 76.6396 74.6653 75.4476C73.9688 75.3488 73.2717 75.3115 72.5881 75.3597C61.2631 76.8252 63.4944 98.8908 75.9412 95.0234C76.9867 94.369 77.8858 94.5678 78.2915 95.5175C81.2575 98.2472 83.2141 103.115 88.1439 107.804C89.882 109.563 91.4652 111.034 93.4218 112.445C94.5705 113.612 98.0371 114.803 96.9388 116.8C94.8598 121.344 82.6031 107.069 80.4365 103.121C73.6472 105.813 66.1231 104.899 59.0872 104.241C21.9688 102.303 26.924 63.0026 57.3491 38.1905C63.0762 33.9556 69.395 30.501 75.9628 27.8425C76.8595 27.4795 76.4682 26.0006 75.5583 26.3686C71.2127 28.128 66.976 30.222 62.9373 32.6456L62.9312 31.1967C62.9252 28.7562 62.9634 26.2153 63.3854 23.9855C63.5963 22.4405 63.9511 20.7902 64.4974 19.5486C65.1727 15.7425 75.7516 2.67758 93.7147 0.194674ZM72.0923 80.425C72.6655 79.8791 73.7354 80.5311 74.2456 80.5142C75.5499 80.6938 76.7899 81.247 77.7561 81.9303C78.3947 82.2895 78.8424 82.6269 79.2158 82.9366L79.2266 82.9342C79.223 82.9342 79.2194 82.9366 79.217 82.9378L79.2518 82.9619C79.7967 83.35 81.7893 85.5374 80.5301 84.9493C80.4365 84.8276 80.3405 84.7094 80.2432 84.5938C80.2324 84.6094 80.218 84.6251 80.2012 84.6408L80.272 84.7456C81.3416 86.3618 79.4942 84.6588 79.2098 84.2069C79.1965 84.2177 79.1821 84.225 79.1665 84.2334L79.5362 84.6853C79.5879 84.7492 79.6287 84.801 79.6623 84.8444L79.7415 84.9204C80.9779 86.1412 81.0163 87.2403 79.5795 85.435C79.6359 85.5193 79.6815 85.6097 79.6875 85.6905L79.7727 85.7989C80.901 87.2596 79.984 86.7414 79.4222 86.1171L79.3754 86.0629L79.385 86.0785C79.9071 86.8848 78.8725 86.3184 78.6888 85.8869L78.6816 85.8676C78.4823 85.7037 78.3599 85.5205 78.3179 85.4747L78.3095 85.4663C77.3396 84.4684 75.9328 83.6236 74.7385 83.2391C74.5656 83.2066 74.3904 83.1801 74.2128 83.1608C73.4944 83.0005 72.7681 82.8896 72.0342 82.8306C71.9444 82.8197 71.8535 82.7534 71.7855 82.6679C70.6757 82.6305 71.0183 82.1738 71.4787 82.0882L71.4868 82.087L71.3954 82.0798C70.6832 82.0098 70.1969 81.7532 70.917 81.5953L71.0082 81.5772C70.9971 81.5591 70.9872 81.5422 70.9776 81.5242C70.3608 81.4567 70.7633 80.8541 71.1056 80.9999C70.9616 80.5275 71.6199 80.7625 71.7021 80.6926C71.7648 80.6227 71.8425 80.5612 71.8874 80.5576C72.0857 80.4178 71.9897 80.4299 72.0923 80.425ZM75.8668 72.7673L75.7216 72.8517C75.6051 72.9204 75.4851 72.9662 75.3639 72.9927C75.5343 73.0662 75.7036 73.1445 75.8692 73.2289C75.8668 73.1265 75.8656 73.0228 75.8656 72.9204L75.8668 72.7673Z" fill="#282828"/>
<path fill-rule="evenodd" clip-rule="evenodd" d="M132.306 103.966C130.438 104.509 128.433 104.557 126.528 103.996C124.801 103.487 123.028 102.366 121.757 100.884C120.627 99.5667 119.896 97.9662 119.925 96.2585C119.928 96.0632 119.997 95.9005 120.104 95.774C120.219 95.6378 120.38 95.5438 120.552 95.504C120.729 95.4618 120.917 95.4763 121.076 95.5498C121.22 95.6149 121.344 95.727 121.421 95.8897C121.617 96.1476 121.811 96.4019 122.007 96.6489C123.577 98.5965 125.098 100.052 127.46 100.575C128.742 100.859 130.021 100.733 131.195 100.301C132.453 99.8378 133.589 99.0243 134.479 97.9831C134.883 97.5118 135.357 97.3202 135.821 97.3166C136.348 97.313 136.869 97.5588 137.261 97.9517C137.646 98.3374 137.904 98.8616 137.928 99.4112C137.948 99.8921 137.791 100.396 137.376 100.844C136.005 102.323 134.228 103.406 132.306 103.966ZM132.249 79.5655C134.164 80.7345 137.082 83.4606 135.022 86.3591C132.597 88.9153 129.105 85.9843 127.385 84.6598C125.79 83.633 123.997 86.2735 125.478 87.4727C137.91 96.7176 142.955 79.8716 133.218 78.1904C132.146 78.006 131.747 79.204 132.249 79.5655ZM114.335 74.4206C113.719 74.0253 112.996 73.8903 112.194 74.2567C111.566 74.5435 110.467 75.498 109.702 76.7526C109.177 77.6119 108.806 78.6194 108.883 79.6679C108.901 79.9126 108.812 80.0922 108.671 80.2247C108.559 80.3296 108.397 80.4067 108.209 80.4308C108.048 80.4513 107.868 80.4332 107.721 80.3862C107.443 80.2995 107.295 80.1175 107.24 79.9705C106.703 78.5399 106.934 76.9455 107.535 75.5065C108.346 73.5637 109.817 71.9367 110.782 71.4125C112.433 70.5146 114.38 70.4736 116.031 71.3884C117.438 72.1669 118.318 73.4239 119.193 74.705C119.379 74.9774 119.564 75.2474 119.755 75.5125C120.136 76.0452 120.175 76.5731 120.027 77.025C119.863 77.5276 119.445 77.9506 118.922 78.1711C118.438 78.376 117.877 78.4049 117.381 78.1952C116.962 78.0169 116.576 77.671 116.333 77.0828C115.923 76.0934 115.239 75.0015 114.335 74.4206ZM145.595 76.6225C145.172 76.843 144.843 76.9105 144.375 76.7695C144.117 76.6912 143.861 76.5417 143.661 76.3405C143.463 76.1416 143.32 75.8933 143.263 75.6186C143.127 74.9412 142.758 74.3061 142.231 73.8927C141.781 73.5384 141.213 73.3516 140.583 73.4565C139.904 73.5709 139.257 74.0084 138.81 74.5254C138.661 74.6978 138.544 74.8942 138.427 75.0895C138.206 75.4534 137.994 75.7921 137.69 76.0596C137.575 76.1621 137.402 76.232 137.234 76.232C137.167 76.232 137.097 76.2211 137.031 76.2006C136.354 75.5185 136.225 75.0003 136.246 74.4881C136.269 73.9494 136.48 73.4046 136.822 72.896C137.623 71.7041 139.143 70.7255 140.169 70.5038C141.575 70.2013 142.969 70.5652 144.088 71.3534C145.239 72.1645 146.093 73.4239 146.358 74.8424C146.423 75.1847 146.395 75.5535 146.266 75.8728C146.138 76.1862 145.919 76.4537 145.595 76.6225ZM117.433 61.7062C116.591 62.5314 115.593 62.6593 114.583 62.7729C114.022 62.8367 113.574 62.888 113.134 62.9879C111.923 63.2626 110.725 63.6762 109.632 64.2718C108.491 64.8946 107.246 65.6456 106.352 66.6077C106.138 66.8366 105.938 67.0768 105.737 67.3175C105.554 67.5371 105.377 67.7485 105.191 67.9523C104.977 68.1863 104.775 68.4316 104.573 68.6764C104.448 68.8828 104.423 68.9335 104.398 68.9864C104.36 69.0659 104.316 69.1547 104.266 69.2501C104.197 69.3807 104.117 69.5237 104.033 69.6533C103.892 69.8902 103.817 69.9555 103.752 69.9847C103.644 70.033 103.541 70.0568 103.442 70.0439C103.349 70.0318 103.261 69.9869 103.173 69.9132C102.741 69.5459 102.613 68.9429 102.626 68.303C102.646 67.3319 103.003 66.2566 103.332 65.5956C104.096 64.0598 105.156 62.4632 106.431 61.3168C107.886 60.0083 109.477 59.0178 111.304 58.3352C112.441 57.9108 113.755 57.5215 114.993 57.5706C115.885 57.6061 116.735 57.8719 117.437 58.5362C117.868 58.9439 118.075 59.5239 118.075 60.1033C118.075 60.6945 117.861 61.289 117.433 61.7062ZM147.31 69.2623C147.256 69.3507 147.181 69.4115 147.099 69.448C147.012 69.4864 146.916 69.4973 146.822 69.4817C146.73 69.466 146.642 69.4239 146.573 69.3597C146.507 69.2981 146.455 69.2165 146.432 69.1164C145.873 66.6468 144.786 64.8094 142.466 63.6245C141.325 63.0417 140.012 62.6713 138.769 62.376C138.409 62.2902 138.028 62.2347 137.643 62.1783C136.44 62.0017 135.226 61.7995 134.442 60.822C133.969 60.2331 133.77 59.4801 133.883 58.7914C133.988 58.143 134.365 57.5483 135.051 57.192C136.759 56.3053 138.88 57.1754 140.605 57.9165C140.732 57.9715 140.858 58.0255 140.98 58.0775C142.667 58.7924 144.205 59.736 145.468 61.0854C146.471 62.156 147.401 63.7385 147.774 65.3666C148.086 66.7211 148.013 68.1038 147.31 69.2623Z" fill="#282828"/>
<path fill-rule="evenodd" clip-rule="evenodd" d="M132.522 89.4888C129.701 88.2126 124.637 89.3261 122.799 89.7684C118.525 90.7977 114.224 93.0224 112.895 96.509C111.398 100.437 114.386 101.674 114.825 101.472C117.784 101.682 121.308 99.8124 124.409 99.3303C126.926 98.9362 129.581 98.5916 131.94 97.2478C133.661 98.1987 137.55 98.7133 140.689 99.5449C143.362 100.254 144.521 101.789 146.999 101.462C149.969 101.072 148.753 94.7965 145.442 92.2547C141.82 89.4732 135.693 88.3451 132.522 89.4888ZM138.106 116.316C135.638 116.92 135.472 111.488 135.196 109.57C134.98 108.07 133.763 104.204 130.675 104.37C127.587 104.538 126.427 107.777 126.583 109.791C126.685 111.098 127.884 117.717 124.057 118.553C121.618 118.545 118.796 118.379 116.231 117.905C113.212 117.218 109.287 114.813 108.25 119.548C107.877 121.253 121.175 126.316 127.076 126.773C133.06 127.992 140.061 126.118 144.323 121.52C145.292 120.474 148.022 116.132 148.216 115.068C148.625 112.833 147.679 111.394 144.925 112.182C142.981 113.226 139.693 115.928 138.106 116.316Z" fill="#282828"/>
<path fill-rule="evenodd" clip-rule="evenodd" d="M150.043 83.9012C146.236 85.7427 140.926 83.0263 138.367 80.182C137.435 79.1468 136.718 76.1833 137.075 74.3044C138.046 69.2148 141.693 66.1603 145.542 65.1172C150.879 63.671 156.25 67.3347 155.624 71.6578C155.03 75.7554 154.131 81.6994 150.043 83.9012ZM124.137 74.1248C123.832 79.671 119.398 84.5255 114.097 85.9645C105.558 88.358 101.338 82.3285 99.4266 75.8325C99.2357 75.1878 98.7892 73.2173 99.9883 71.5276C104.701 64.8808 116.167 66.0138 121.893 67.8386C123.569 69.4486 124.254 71.7723 124.137 74.1248ZM154.178 64.5586C154.175 64.562 154.172 64.5647 154.169 64.5681C154.15 64.5561 154.131 64.5439 154.111 64.5322C154.132 64.5413 154.156 64.5492 154.178 64.5586ZM161.322 65.1997C160.826 59.5526 143.185 61.715 141.123 62.1778C135.494 63.8405 130.633 68.3643 124.34 66.3758C117.818 59.0748 95.8604 61.1685 91.2571 64.8876C90.3856 64.5442 89.3257 64.7285 88.2034 65.0525C82.4382 64.8434 56.1195 66.8395 61.5028 74.2297C62.3198 74.7997 63.1362 74.22 63.1587 73.0474C91.2222 62.8723 88.5023 72.4026 91.8296 71.2902C92.3386 71.4373 92.8679 71.5301 93.3324 71.6277C95.9084 72.4605 96.7834 72.2026 97.1219 75.107C99.453 97.5354 129.189 89.7946 126.75 71.3975C129.165 71.2649 131.276 70.2152 133.83 71.2396C135.602 88.5701 149.488 89.2691 153.666 83.2613C156.817 79.0926 155.568 72.7991 159.899 69.5193C161.608 70.9564 161.718 66.1062 161.322 65.1997Z" fill="#282828"/>
</svg>
