<svg width="345" height="306" viewBox="0 0 345 306" fill="none" xmlns="http://www.w3.org/2000/svg">
<g clip-path="url(#clip0_5182_1791)">
<path fill-rule="evenodd" clip-rule="evenodd" d="M220.527 383.595C226.98 383.739 224.212 323.626 219.905 312.548C219.3 310.304 218.803 307.236 218.903 304.481C224.232 305.013 223.658 301.371 223.384 296.979C223.475 293.492 223.717 286.297 218.372 289.099C202.347 257.065 219.672 174.258 177.484 166.459C172.4 165.226 167.146 163.95 162.866 160.43C158.337 152.07 156.03 151.003 148.525 150.462C147.135 142.932 144.538 134.887 136.797 131.957C129.71 129.183 121.461 128.962 114.072 130.442C107.955 132.434 107.395 143.787 106.037 149.385C97.7986 147.203 87.646 142.615 83.2108 153.016C81.0627 152.375 79.0722 152.791 76.8894 153.505C58.5942 156.448 40.8438 164.713 34.058 181.957C29.8665 192.306 32.8411 203.571 34.4132 214.288C35.8792 225.958 32.0133 236.77 30.2213 247.995C27.5529 263.453 27.0705 275.851 28.8116 287.34C24.2094 288.386 23.8698 292.566 25.7319 296.94C26.2787 298.42 26.8295 299.981 28.0385 300.818C30.4981 302.364 33.677 300.582 36.3501 300.309C36.9062 306.482 37.9826 312.539 39.7642 319.422C39.2482 321.482 38.6566 323.784 38.1252 325.853L37.9459 325.658C31.8433 351.184 13.6934 375.978 19.3344 403.107C19.6661 404.01 20.2955 403.822 20.7788 403.805C23.579 404.869 26.1511 404.195 28.975 404.303C35.6732 404.308 42.1442 405.165 48.1473 405.909C49.2446 413.067 52.8123 424.786 59.1746 427.516C59.2816 427.552 61.1675 427.159 61.3253 427.149C44.388 495.728 13.9131 559.141 1.80794 629.101C1.73616 629.956 3.12743 629.504 3.58383 629.607C3.52136 631.55 4.7774 632.016 6.53639 632.707C4.26979 637.439 2.22809 642.163 -0.0284691 646.909C-1.07455 649.255 -2.77989 651.574 -3.09053 654.086C-5.5884 655.678 -7.27095 658.796 -7.22637 661.704C-13.9625 664.548 -12.1317 678.591 -13.6685 685.544C-15.2224 695.907 -22.6139 703.141 -27.6821 711.637C-28.7147 713.344 -29.8147 715.578 -29.8635 717.719C-33.0054 719.191 -34.1768 722.404 -33.9689 727.812C-33.9801 734.137 -32.1928 736.547 -27.3734 736.701C-14.2832 738.007 0.991894 737.475 14.1581 735.99C24.0075 734.738 32.7353 735.775 30.5334 723.959C30.0802 721.098 30.9506 717.245 29.2548 714.931C28.2095 708.036 28.8178 701.091 31.0721 694.281C32.4426 688.547 34.7582 676.703 33.7988 669.011C33.3549 665.451 26.0798 663.493 24.7993 663.32C25.2067 660.642 25.0274 655.959 23.5839 654.099C26.2344 653.728 26.9008 653.029 27.4527 650.09C28.7719 645.329 28.9474 640.158 32.2142 636.147C38.09 636.223 43.9458 634.734 49.8181 634.553L50.1104 633.879C53.5838 633.835 57.0376 633.222 60.3343 632.021C61.0654 632.365 62.0005 632.663 62.4113 631.557L64.3724 625.434C87.2013 552.888 112.506 480.169 137.179 408.155C138.619 404.654 140.351 400.934 142.604 397.814C143.367 441.876 152.61 485.892 153.404 529.932C154.477 560.23 154.201 590.207 157.054 620.613C157.789 627.048 158.57 626.833 159.532 626.438C159.917 626.499 160.824 626.692 161.218 626.775C160.575 633.169 159.834 643.549 157.088 650.09C151.018 651.025 152.105 655.676 153.451 659.531C152.003 660.766 152.209 663.644 152.639 665.239C146.928 665.244 145.682 669.882 146.075 672.81C146.619 677.707 146.315 685.324 149.586 689.506C151.513 694.836 154.648 699.867 155.873 705.612C156.643 709.838 156.346 715.995 157.088 720.187C155.22 721.049 156.012 722.399 155.697 725.011C154.08 736.974 159.771 734.94 169.833 735.766C175.865 737.094 221.779 739.74 219.797 731.781C220.135 728.542 218.626 727.118 217.98 723.927C217.688 723.08 211.968 713.28 208.555 709.57C197.112 698.832 197.612 684.418 197.974 667.814C197.3 663.312 193.834 659.003 189.412 659.489C190.681 654.682 188.327 650.503 183.407 649.113C183.899 643.671 184.416 636.277 186.215 631.57L184.521 629.848L186.789 630.117L187.543 628.225L188.363 630.3C192.256 630.3 196.651 629.436 200.38 629.03C200.975 629.065 200.711 628.257 200.809 627.944C204.329 627.216 204.716 625.346 204.094 620.893C204.915 548.589 204.557 476.961 203.437 404.52C208.942 404.764 214.31 402.76 219.719 401.424C221.64 402.628 222.186 398.338 221.961 397.413C221.654 392.621 221.062 387.945 220.527 383.595Z" fill="white"/>
<path fill-rule="evenodd" clip-rule="evenodd" d="M107.481 139.302C108.299 139.947 108.213 141.735 108.294 142.736L108.299 142.801C108.557 145.825 108.209 148.862 107.47 151.798L107.408 152.042C107.036 153.483 106.707 155.283 105.549 156.293C104.296 157.386 102.304 156.678 102.259 154.916C102.236 154.096 102.51 153.308 102.856 152.539C100.428 153.475 97.9989 154.401 95.5598 155.303C94.002 168.168 112 183.918 122.42 189.432C137.595 197.819 150.362 184.972 152.305 169.87C152.631 167.864 152.85 165.802 152.892 163.769C152.928 162.069 152.581 159.698 153.722 158.245C152.914 158.226 152.196 158.34 151.406 158.463L151.444 158.529C151.892 159.329 152.525 161.32 151.107 161.471C148.044 161.149 146.619 155.788 145.872 153.216C145.387 151.466 144.717 144.2 146.199 143.344C146.645 145.07 146.47 146.944 147.013 148.675C148.249 149.172 150.602 149.306 151.147 149.398C157.512 149.471 161.121 154.033 163.7 159.374C171.263 165.572 182.134 164.507 190.301 169.611C215.29 187.698 207.129 258.112 219.577 288.068C222.068 287.038 224.609 289.099 224.942 291.615C225.285 293.55 225.182 295.622 225.209 297.582L225.221 297.827C225.425 301.837 226.12 306.343 220.696 306.43C220.706 308.669 221.128 310.835 221.669 312.996C224.672 326.074 225.983 339.545 226.277 352.952L226.292 353.937C226.39 360.984 226.476 382.784 222.419 385.365L222.61 386.9C223.078 390.741 223.521 394.591 223.768 398.451C224.158 400.452 222.833 405.255 220.128 403.983C215.17 405.208 210.282 407.015 205.13 407.022C206.377 448.489 205.757 489.998 205.941 531.482C205.544 562.06 207.2 592.893 205.752 623.354L205.804 623.784C206.213 627.204 206.335 630.178 202.376 631.35C202.32 632.187 201.673 632.634 200.909 632.731C198.738 633.024 196.568 633.3 194.397 633.566C192.371 633.718 190.208 634.221 188.189 633.979C188.385 634.177 187.856 634.206 187.797 634.064C185.959 638.671 185.425 643.693 184.97 648.61C189.434 650.309 191.869 654.13 191.141 658.92C195.644 659.103 198.934 664.101 199.566 668.312C199.971 671.217 199.645 674.103 199.515 677.016C198.893 686.964 200.358 697.682 206.789 705.617L207.058 705.934C211.193 710.792 216.439 715.243 218.222 721.591C218.717 721.823 219.124 722.269 219.302 722.965L220.459 727.494L221.032 729.76C221.453 731.41 221.828 733.099 221.603 734.808L221.578 734.974C220.451 745.799 176.003 740.582 167.327 739.803C163.84 739.259 160.014 739.557 156.874 737.714C153.022 735.175 152.54 730.026 153.202 725.809L153.256 725.414C153.524 723.527 153.916 721.552 155.708 720.497C155.105 716.588 155.338 712.592 154.621 708.698C153.537 703.192 150.259 698.412 148.585 693.127C146.144 690.414 146.061 686.191 145.551 682.724C145.164 679.36 144.848 675.976 144.717 672.592C144.363 668.119 146.306 664.433 151.016 663.849C150.798 663 151.396 662.267 151.991 661.725C150.587 656.747 150.199 649.911 156.291 648.212C158.598 642.499 159.269 636.308 159.883 630.217C159.81 630.202 159.737 630.187 159.664 630.175C156.63 631.437 155.999 625.461 155.796 623.122C152.924 592.8 153.188 562.302 152.109 531.887L152.004 529.69C151.058 509.651 150.495 489.434 147.025 469.663C143.532 447.627 142.618 425.23 141.424 402.962C140.018 405.145 139.262 407.65 138.123 409.976C123.356 453.296 108.203 496.487 93.6034 539.868C83.0215 571.277 72.9117 602.851 62.7718 634.406C62.2544 636.022 60.6243 636.357 59.4312 635.839C56.3943 636.892 53.2071 637.487 49.9997 637.592C49.8064 638.034 49.4096 638.359 48.8292 638.295C47.1138 638.107 45.1395 638.644 43.4241 638.845C39.4987 639.23 35.6882 639.831 31.7271 639.889C29.273 642.988 29.1185 647.187 27.9874 650.873C27.336 652.753 27.4381 656.97 25.1889 657.499C25.9952 658.737 26.1007 660.226 25.9702 661.762C26.6696 661.921 27.3791 662.221 28.0373 662.526C28.6782 662.851 29.5246 662.824 29.9666 663.476C42.5294 665.749 33.3486 689.569 31.1648 697.448C29.0217 703.888 28.3504 710.614 29.3284 717.338C30.8236 719.401 30.3226 722.467 30.5514 724.911C30.6722 727.091 30.8931 729.306 30.8733 731.488C30.6293 740.56 19.4146 739.083 13.0874 740.26C9.13652 740.719 5.16801 741.039 1.1995 741.288C-8.86546 741.913 -18.987 741.959 -29.0314 740.988C-35.5166 740.782 -36.9111 736.559 -36.9008 730.783L-36.9107 730.543C-37.0569 726.62 -36.4236 721.886 -32.6937 719.848C-32.5077 717.775 -31.4553 715.683 -30.3805 713.871C-25.3826 705.482 -17.8787 698.129 -16.4029 688.061C-14.955 681.469 -16.5955 666.96 -9.88484 663.525C-9.72927 660.556 -7.90316 657.531 -5.64244 655.927C-5.20612 653.454 -3.56227 651.181 -2.54558 648.908C-0.471294 644.572 1.44743 640.165 3.51044 635.825C2.43031 635.368 1.2823 634.528 1.13164 633.337C0.0943718 633.349 -0.930397 632.68 -0.804966 631.418C-0.438469 627.761 0.363365 624.162 1.12037 620.566L1.21493 620.117C14.6862 555.095 42.5047 494.292 58.7807 430.103C56.5908 430.499 54.5435 427.999 53.3328 426.37C49.4221 421.112 47.1124 414.752 46.0966 408.297L44.2583 408.07C38.1278 407.318 31.9674 406.658 25.7857 406.837L24.2959 406.886C22.6406 406.937 20.9828 406.922 19.4095 406.329C18.3119 406.429 17.1691 405.841 16.8981 404.613C12.3194 381.827 23.5735 360.206 31.634 339.618C33.5328 334.556 34.8842 329.421 36.173 324.179C36.2154 324.01 36.4817 324.045 36.4741 324.22C36.223 330.048 34.7761 335.923 33.3067 341.54C28.4813 360.586 18.4285 379.264 20.8865 399.427C28.5263 393.421 37.6001 389.246 47.1315 387.481C47.6814 385.096 48.2893 382.726 48.7464 380.326C48.2969 376.632 47.9904 372.923 47.5986 369.213C46.4281 358.115 44.64 347.046 42.2563 336.144C38.5587 325.174 35.3303 314.056 34.1759 302.489L33.9657 302.531C31.402 303.05 28.5775 304.178 26.199 302.548C24.6891 301.503 24.036 299.771 23.426 298.107C21.6839 294.074 21.3615 288.773 26.2916 287.086C24.4537 274.263 25.648 260.876 27.869 248.172C29.6481 237.037 33.55 226.067 32.0891 214.667C30.4673 203.713 27.444 192.241 31.815 181.518C38.9982 163.623 57.1893 155.132 75.0793 152.4L75.3691 152.315C77.5823 151.661 79.5976 150.971 81.9036 151.467C87.3428 141.389 96.164 145.487 104.778 147.734C105.359 146.025 105.844 144.277 106.3 142.53C106.584 141.64 106.49 139.587 107.481 139.302ZM157.338 725.385L157.316 725.824C157.088 730.543 157.345 734.586 163.203 734.555C167.235 734.984 171.267 735.404 175.305 735.768L176.819 735.902C188.804 736.969 200.933 737.491 212.894 735.887L213.393 735.822C214.393 735.678 216.243 735.707 217.034 734.97C217.989 733.688 216.884 731.242 216.652 729.755C197.989 729.537 179.3 728.851 160.624 729.088C158.659 729.098 157.773 727.421 157.954 725.895C157.733 725.746 157.524 725.573 157.338 725.385ZM-32.1586 723.019C-33.0763 726.242 -32.8502 729.286 -32.3318 732.513C-32.0726 735.892 -30.4628 736.11 -27.5497 736.188C-16.1775 737.235 -4.72301 737.015 6.65237 736.139C12.7491 735.482 19.0146 735.507 24.9981 734.159C27.8526 732.897 26.2046 728.925 26.3016 726.488C12.8642 735.135 -7.45851 734.037 -22.1118 729.035L-22.3467 728.934C-25.8128 727.479 -30.2441 726.566 -32.1586 723.019ZM-9.89978 664.838C-11.5074 666.647 -11.477 671.94 -11.5498 673.41C-11.7232 676.952 -11.6958 680.502 -11.8494 684.045C-11.7362 698.964 -20.3636 706.403 -26.7709 718.4C-28.5233 721.31 -25.9737 721.723 -23.9002 722.667C-10.4723 728.908 5.41104 729.86 19.4394 725.084C26.4908 723.036 24.951 718.3 24.3525 712.504C23.7631 700.658 30.0041 689.987 31.8503 678.532L31.9172 678.129C32.4694 674.694 33.3464 666.269 28.0347 668.092C26.8668 668.81 25.7693 667.912 25.6311 666.811C25.4922 666.833 25.3491 666.845 25.2117 666.847C24.5911 670.678 23.9481 674.501 23.3302 678.332C23.8503 678.661 24.3376 679.032 24.7695 679.46C25.2945 679.98 24.9278 681.071 24.1365 681.003C23.73 680.968 23.3278 680.907 22.9284 680.832C22.6117 684.159 17.3178 682.292 18.847 679.623C11.2348 676.999 2.84874 677.206 -4.88127 679.22L-4.91336 679.235C-5.51186 679.472 -9.81453 680.334 -8.43037 681.003C-7.85343 681.073 -9.16703 681.828 -9.39757 680.661C-9.4718 679.198 -6.12726 678.478 -5.10249 677.873C-7.68708 674.179 -9.45293 669.391 -9.89978 664.838ZM185.11 653.141C177.94 649.264 169.128 650.702 161.35 651.388L161.023 651.425C159.043 651.64 156.285 651.769 155.376 653.805C154.061 657.067 156.241 664.365 156.926 667.992L157.237 669.259C157.776 671.476 158.275 673.678 158.461 675.971C158.466 676.047 158.393 676.1 158.325 676.1C155.601 673.193 154.377 669.284 153.104 665.556C152.561 665.864 152.031 666.198 151.531 666.567C149.579 673.268 148.925 680.402 150.471 687.238L150.527 687.477C152.436 695.924 158.383 702.833 158.948 711.662C159.326 715.228 159.242 718.886 160.269 722.352C160.854 722.482 161.364 722.911 161.593 723.453L164.945 723.456C181.148 723.485 197.357 723.632 213.548 724.298C213.026 719.75 209.008 715.717 206.176 712.599C197.491 703.715 193.733 690.956 195.164 678.659C195.919 672.507 199.356 662.839 190.945 660.566C190.33 665.58 189.5 670.578 189.042 675.612C190.629 676.376 190.531 678.393 188.591 678.354C187.721 681.278 184.803 680.097 185.118 677.338C174.444 673.4 168.32 672.079 157.921 678.012C157.63 677.968 158.72 676.803 158.858 676.596C162.144 673.058 167.191 671.393 171.926 671.335C176.62 671.335 181.034 673.1 185.462 674.467C186.128 669.716 186.576 664.936 187.104 660.17L187.217 659.15C187.494 656.647 187.393 654.579 185.11 653.141ZM13.5698 714.484C15.132 714.135 16.5686 713.607 18.1561 713.966C23.7423 718.156 0.917519 719.337 -1.02594 719.039C-5.97317 718.895 -10.9226 718.268 -15.6839 716.872L-16.0501 716.764C-16.678 716.588 -21.2122 715.311 -20.3307 714.733C-13.8908 715.304 -7.58664 716.486 -1.02594 716.178C2.24681 716.11 5.5323 715.878 8.76978 715.387C10.3798 715.141 11.9823 714.84 13.5698 714.484ZM164.474 709.291C163.451 707.763 168.437 709.794 169.086 709.811C173.214 710.829 177.416 711.601 181.657 711.92C184.5 712.135 187.374 712.182 190.223 712.04C192.332 711.969 194.417 711.657 196.514 711.442L196.59 711.439C197.834 711.395 200.331 712.167 198.792 713.646C196.401 715.499 192.861 714.935 189.995 715.206C181.291 715.177 172.074 713.778 164.474 709.291ZM0.833004 698.168C3.34238 697.714 17.1541 697.565 15.7776 701.798C15.4434 702.602 14.6798 702.868 13.8762 702.743C5.32774 700.666 -3.89324 699.579 -12.4141 702.443C-12.5522 702.492 -12.6475 702.265 -12.5121 702.204C-8.32257 700.109 -3.83984 698.642 0.833004 698.168ZM180.115 694.027C182.369 693.856 184.638 693.917 186.894 694.086L187.628 694.145C188.64 694.223 189.681 694.315 190.651 694.611L190.833 694.667C192.072 695.067 194.863 697.191 192.744 698.214C190.468 698.952 188.545 698.075 186.349 697.514C180.23 696.066 173.797 696.554 167.734 698.036L168.588 698.31C168.641 698.271 168.709 698.361 168.659 698.402C168.046 698.937 167.204 698.747 166.77 698.083C166.695 697.97 166.742 697.787 166.863 697.724C170.972 695.57 175.503 694.379 180.115 694.027ZM-10.4726 693.488C-3.56178 690.434 4.44506 690.097 11.8566 690.981L12.3845 691.046C14.6967 691.317 17.7122 691.442 19.0354 693.593C19.4925 694.337 19.0202 695.192 18.2818 695.461C16.1066 696.254 13.5497 694.665 11.46 694.074C5.28094 692.384 -1.31845 692.206 -7.60158 693.373C-7.55773 693.607 -8.59818 693.505 -8.82479 693.588C-9.10873 693.571 -10.9936 694.193 -10.4726 693.488ZM163.801 688.717C169.83 685.79 176.8 685.092 183.309 686.603L183.58 686.681C186.464 687.489 191.107 688.444 192.141 691.493C192.364 692.179 191.879 693.107 191.154 693.246C188.694 693.717 186.462 691.923 184.236 691.061C177.689 688.603 170.278 688.017 163.507 689.823C163.462 690.089 163.417 690.353 163.369 690.619C163.485 690.544 163.605 690.714 163.512 690.807C162.432 691.564 161.308 689.655 163.801 688.717ZM5.06242 683.571C9.94081 683.246 14.8599 683.866 19.5692 685.151L20.4548 685.395C21.742 685.756 23.4093 686.322 23.5965 687.712C23.6693 688.263 23.5313 688.644 23.0816 688.988C21.4421 690.211 17.8764 687.646 15.8381 687.343C8.43782 685.124 0.494186 685.155 -7.0021 686.855L-7.25738 686.913L-7.07658 688.197C-6.89872 688.813 -8.54673 687.365 -7.92055 686.703C-3.96331 684.691 0.654167 683.932 5.06242 683.571ZM168.4 681.274C172.315 680.568 176.354 680.434 180.312 680.788L180.78 680.832C183.144 681.039 190.803 681.344 188.99 685.336C188.687 686.003 187.805 686.088 187.236 685.8C185.321 684.831 183.229 684.482 181.117 684.162C173.658 683.124 166.039 683.549 158.757 685.556C158.916 685.805 158.589 686.098 158.28 686.156C157.512 686.298 157.512 685.382 157.841 684.897C158.233 684.32 159.014 684.11 159.617 683.857C162.42 682.636 165.394 681.811 168.4 681.274ZM20.1153 659.064L19.6694 658.959C12.1981 657.204 -4.36655 654.055 -6.08194 664.335C-6.69073 668.862 -4.68234 673.278 -4.8308 677.763C2.9166 674.616 11.4837 674.648 19.5327 676.728C20.2458 672.074 20.9267 667.416 21.655 662.765L21.7726 662.209C22.0967 660.641 22.207 659.413 20.1153 659.064ZM3.47516 660.937C5.10333 659.543 7.81825 659.562 9.41531 661.083C10.8757 661.391 11.9061 662.939 11.9296 664.267C14.1501 668.166 11.4722 673.551 7.23274 674.526C-2.34029 676.54 -6.61993 663.405 3.47516 660.937ZM169.334 654.716C177.344 653.288 180.254 663.437 173.68 667.553C164.393 672.206 158.205 657.577 169.334 654.716ZM7.43853 632.172C7.55636 632.949 7.17468 633.5 6.71778 634.023C5.07565 640.746 2.604 647.004 0.167133 653.451C8.09484 652.138 15.5853 653.283 22.5997 655.434C22.6834 653.466 23.5811 651.428 24.2043 649.575C25.4185 646.052 26.8857 642.621 28.578 639.308L28.7907 638.893C29.3987 637.714 29.9837 636.484 30.7023 635.353C22.9431 634.296 15.1842 633.342 7.43853 632.172ZM163.703 630.739L163.497 631.674C162.606 635.734 161.761 639.831 160.435 643.774L160.417 643.854C160.214 644.85 159.758 649.457 159.471 646.205C159.25 646.696 159.014 647.18 158.762 647.656L160.133 647.492C167.466 646.623 175.145 645.871 182.353 647.714C181.623 642.072 182.697 636.679 184.264 631.342C177.395 631.186 170.587 631.235 163.703 630.739ZM33.6232 637.753C33.3721 637.99 33.1259 638.229 32.8925 638.481C33.209 638.4 33.5257 638.322 33.8192 638.254C33.8072 638.068 33.6764 637.929 33.6232 637.753ZM188.415 632.578L188.265 632.929C188.241 632.988 188.216 633.044 188.192 633.102C188.307 633.034 188.437 632.968 188.574 632.91C188.51 632.807 188.459 632.7 188.415 632.578ZM62.9401 298.617C62.237 298.957 61.5035 299.043 60.5338 299.084C52.6566 299.41 44.8046 300.321 37.0694 301.876C37.4965 308.127 39.4002 314.183 41.2119 320.142L41.5877 321.448C47.7094 342.801 53.0527 365.115 51.9765 387.45C52.0368 387.472 52.0946 387.501 52.1497 387.53C52.052 387.804 51.9819 388.084 51.8837 388.355L51.8207 388.516L51.4532 389.427C51.2499 389.935 51.0527 390.443 50.8814 390.963C50.5808 391.073 50.2112 391.151 49.8591 391.202C48.072 403.026 49.7712 416.285 57.8238 425.53C54.482 418.548 53.1988 409.864 54.5763 402.237C55.324 403.048 55.3774 404.913 55.6638 406.124C56.45 410.262 57.0017 414.459 58.1827 418.511L58.3109 418.917C59.635 423.067 61.8506 428.419 65.6908 430.562C66.4152 430.779 67.5355 430.508 67.8783 431.397C68.0762 432.188 67.7073 433.167 66.8934 433.414L66.8358 433.431C64.4975 434.092 62.5131 432.332 61.0138 430.477L60.9388 431.446C60.7948 433.279 60.5939 435.042 59.5267 436.551C59.401 437.076 59.2781 437.603 59.1504 438.13C56.262 455.931 51.9172 474.334 44.0067 490.403L43.0868 493.174C28.0484 538.423 12.4735 583.645 3.40975 630.595C12.9333 629.592 22.5367 630.078 32.0409 631.02C41.0034 631.95 50.4833 634.426 59.0696 630.473C82.3321 559.487 106.329 488.711 132.628 418.807C135.798 407.713 141.751 397.013 144.696 385.638L144.881 385.038C145.573 382.757 145.898 381.278 145.39 378.729L145.368 378.419C145.264 376.825 145.227 374.408 147.048 373.966C147.357 373.888 147.761 373.946 147.975 374.212C149.101 375.655 148.047 377.494 148.371 379.168C149.317 385.577 146.785 391.62 143.825 397.147C144.019 397.379 144.152 397.667 144.174 397.979C144.433 401.385 144.4 404.827 144.549 408.24C144.97 418.055 145.583 427.86 146.36 437.652C148.792 455.586 152.24 473.335 154.113 491.348C158.379 533.303 157.612 575.581 160.709 617.622C160.734 621.313 161.894 625.151 160.719 628.735C161.46 628.249 162.513 628.359 163.163 628.947C175.79 628.073 188.437 628.5 201.061 627.751C201.073 627.185 201.115 626.652 201.137 626.245C200.784 625.407 201.372 624.475 201.355 623.583C199.814 614.858 201.08 605.483 200.764 596.562C200.779 588.12 200.821 579.68 200.88 571.238C201.357 518.484 200.715 465.718 201.681 412.969C201.757 410.377 201.874 407.789 202.041 405.203C201.347 404.429 201.81 403.333 201.81 402.406L201.852 401.58C202.063 397.41 202.303 393.58 200.676 389.471C200.713 388.983 200.826 388.524 201.083 388.148C193.469 384.581 185.518 381.881 177.658 378.944C176.332 379.271 174.672 378.446 174.393 377.02C171.432 361.841 169.098 346.564 167.081 331.234C153.883 339.892 137.79 341.261 122.802 344.768L119.965 345.503C112.97 347.324 105.633 349.444 100.312 354.408C99.7743 362.243 103.77 384.823 91.7623 384.234C87.8284 385.433 83.7846 386.395 79.7588 386.912C84.4461 395.802 92.9965 407.645 86.2364 417.486C85.2558 418.524 83.9377 417.471 83.0416 416.827C83.1526 422.581 83.3064 428.306 83.3128 434.056C83.3128 434.822 82.5215 435.516 81.7581 435.254C77.428 433.763 76.8927 428.585 76.2222 424.676C75.622 421.187 75.0191 417.696 74.4262 414.205C74.0484 420.472 75.5578 426.922 74.3285 433.116C73.1484 436.658 69.4817 435.604 68.3827 432.632L68.3501 432.542C66.1766 426.522 65.1178 420.091 64.6783 413.714L64.655 413.341C64.5283 411.405 64.3223 409.356 64.8015 407.481C65.7736 409.307 65.5318 412.288 65.9843 414.498C66.743 419.217 67.7687 423.907 69.2097 428.465L69.2472 428.626C69.8984 431.299 72.4492 436.509 72.4198 429.964C72.5173 426.639 72.2311 423.323 72.0501 420.006L72.0251 419.529C71.7889 414.998 71.8142 410.423 73.1756 406.055C73.522 404.937 75.4059 404.725 75.6345 406.055C76.549 411.37 77.4229 416.69 78.2967 422.01C78.9342 425.259 78.9077 428.926 80.8438 431.729C80.8664 425.609 80.5268 419.508 80.2333 413.397L80.1748 413.206C79.9364 412.427 79.6784 411.387 80.2257 410.714C80.4394 409.32 82.4789 409.478 82.6521 410.938C82.6898 411.243 82.7175 411.553 82.7476 411.859C83.4233 412.706 84.0512 413.57 84.8498 414.3C90.1831 403.419 72.7339 384.63 70.3249 372.344C63.2299 348.419 67.3092 323.334 69.3727 298.97C67.2388 298.717 65.0871 298.65 62.9401 298.617ZM3.19392 631.425C3.11283 631.728 3.05085 632.058 2.90484 632.331C3.02047 632.353 3.13855 632.375 3.25664 632.399C3.39971 632.111 3.55037 631.831 3.71378 631.552C3.54033 631.513 3.36713 631.472 3.19392 631.425ZM91.7672 519.373C91.9909 519.336 92.0813 519.644 91.8628 519.714C84.511 522.158 78.3146 526.702 72.1182 531.211C71.2389 531.851 70.4178 530.515 71.0329 529.793C73.6246 526.76 76.7984 524.668 80.3316 522.908L80.5398 522.805C84.0744 521.025 87.8661 519.893 91.7672 519.373ZM162.169 514.832C162.083 514.666 162.309 514.539 162.412 514.688C164.05 516.992 166.217 519.138 168.37 520.947C170.55 522.783 172.929 524.233 175.262 525.845C176.52 526.711 175.44 528.562 174.074 527.896C171.416 526.606 169.031 524.473 167.079 522.253C165.067 519.963 163.577 517.515 162.169 514.832ZM116.523 434.922C108.409 448.543 96.4285 462.259 87.4873 476.226C81.4492 485.181 75.9872 494.519 69.3702 503.069C68.0465 504.871 65.4945 503.367 66.4012 501.316C68.918 495.642 71.7238 490.191 75.1016 484.988L76.1913 483.372C87.955 465.957 100.423 448.509 116.523 434.922ZM150.325 414.134C150.255 413.907 150.588 413.807 150.678 414.007L150.687 414.031C156.778 430.721 166.169 445.892 174.385 461.539C175.021 462.82 173.328 464.363 172.316 463.152C166.516 456.204 162.45 448.03 158.843 439.756C155.04 431.558 152.707 422.823 150.325 414.134ZM164.479 160.918C168.209 168.399 170.947 176.316 172.843 184.464C173.428 186.98 170.051 188.524 168.687 186.32L168.646 186.252C166.969 183.455 164.469 180.992 161.304 180.029C159.148 189.061 160.199 198.606 161.319 207.727C163.305 220.433 164.886 233.193 165.123 246.07L165.134 246.76C165.826 290.732 172.293 334.506 179.376 377.56C190.7 379.376 201.066 384.503 211.505 389.01C213.317 389.718 215.17 390.335 217.071 390.76C211.825 341.95 191.881 296.175 185.718 247.543C184.089 234.895 184.013 222.051 186.263 209.476C186.301 209.235 186.643 209.317 186.658 209.529C186.905 214.695 187.79 219.793 188.312 224.93C188.669 221.996 189.493 219.024 190.159 216.212C190.972 213.46 191.274 209.043 193.657 207.25L193.809 206.73C193.871 206.507 194.204 206.601 194.15 206.824C194.125 206.93 194.101 207.034 194.076 207.141C195.61 207.548 194.179 209.363 193.799 210.232C191.34 216.824 190.61 223.959 188.932 230.753C191.359 251.962 195.732 272.903 201.117 293.517C206.066 292.212 211.032 290.956 215.993 289.68C204.927 253.627 211.397 213.392 194.819 178.967C188.606 167.414 173.31 168.983 164.479 160.918ZM80.4068 154.327C78.0858 154.203 75.6621 155.463 73.4343 155.897C70.4805 156.47 67.5416 156.924 64.6535 157.804C49.8679 161.86 35.6035 172.936 32.925 188.895C31.084 199.852 35.6427 210.529 35.4824 221.456C35.0015 232.282 31.4341 242.687 30.044 253.404C28.3717 264.363 27.7963 275.833 29.2304 286.845C42.4937 283.08 56.3451 282.844 69.9457 284.789C68.8114 268.098 70.2997 251.325 71.1233 234.646C71.7162 223.934 72.7309 213.174 72.3718 202.442C72.3642 202.203 72.751 202.145 72.7882 202.383C76.8672 224.303 74.4745 246.554 74.0626 268.66C73.8008 274.245 74.4921 279.884 74.2128 285.438C80.3962 286.77 80.1726 293.985 78.2818 298.741C77.9466 299.886 76.8089 299.687 75.888 299.548C74.8904 300.597 72.5102 299.228 71.1534 299.228C70.0914 326.667 63.6403 355.976 76.8601 381.622C82.3872 381.651 87.7076 379.745 93.0791 378.661L93.3721 378.602L93.3797 378.6C94.1693 377.572 94.5554 375.919 94.661 374.708C95.4118 353.577 93.0622 332.397 94.4371 311.264C96.1203 287.807 101.349 264.493 98.9306 240.876C97.2585 219.769 92.668 199.045 90.4553 178.001L90.3431 176.912C90.2052 175.615 90.1533 174.181 89.5116 173.192C85.7791 176.596 82.6467 180.643 80.4043 185.197C79.1627 187.397 75.8366 186.418 75.7854 183.934C75.3072 179.5 75.2364 175.049 75.721 170.614L75.765 170.222C76.3655 164.671 78.0419 159.371 80.4068 154.327ZM219.177 306.613C214.368 306.867 209.557 307.401 204.74 307.338L205.226 309.159C211.054 331.005 217.262 352.812 220.922 375.165L221.056 373.068C221.189 370.972 221.314 368.875 221.397 366.773C222.436 346.684 220.851 326.622 219.177 306.613ZM205.11 306.633L204.542 306.605L204.576 306.73C204.694 306.706 204.814 306.684 204.932 306.664L205.11 306.633ZM220.78 291.879C220.689 291.851 220.535 291.851 220.366 291.859C220.118 292.427 219.621 292.896 219.043 293.051L214.224 294.354C210.209 295.44 206.188 296.521 202.166 297.572C202.842 300.179 203.528 302.786 204.219 305.391C209.709 303.617 215.784 304.019 221.38 302.877C221.311 299.868 221.147 296.844 221.096 293.829C221.083 293.337 221.184 292.546 220.932 292.105C220.775 291.823 220.932 291.927 220.78 291.879ZM36.4242 302.008L36.2732 302.041C36.3235 302.178 36.3685 302.315 36.4114 302.454C36.4141 302.304 36.4163 302.157 36.4242 302.008ZM72.1535 287.527C61.8134 286.017 51.2982 285.125 40.8696 286.153C36.1527 286.793 31.3642 287.477 26.7411 288.352C25.1338 290.829 26.9124 296.857 28.9139 298.764C29.5141 298.992 30.5465 298.549 31.1217 298.419C35.4374 297.441 39.7954 296.653 44.175 296.038C44.3058 296.203 44.4967 296.309 44.7326 296.287L45.739 296.193C51.7796 295.641 57.8738 295.236 63.9276 295.581L63.9725 295.617C68.0568 295.916 72.127 296.562 76.1945 297.029C77.8004 292.815 77.5236 287.979 72.1535 287.527ZM147.387 150.072C147.786 151.43 148.267 152.75 148.864 154.033C149.487 153.86 150.347 153.999 150.805 154.393L151 154.358C151.536 154.256 152.18 154.099 152.348 154.081C159.736 153.055 159.173 162.978 159.2 167.966C159.245 170.466 159.295 172.969 159.37 175.469C161.484 174.746 164.312 176.046 166.16 177.196C164.713 172.36 163.012 167.603 161.116 162.929L160.684 161.836C159.209 158.125 157.557 154.387 154.435 151.804C152.021 151.17 149.684 151.055 147.387 150.072ZM93.8221 147.582C86.9552 145.123 84.2354 150.711 82.3306 156.285C80.0851 162.458 79.4724 169.254 79.8465 175.895L80.0778 175.588C82.6043 172.206 86.247 166.624 90.8529 167.522C90.8081 164.956 90.9005 162.137 91.3904 159.473C91.104 157.753 91.0313 156.016 91.23 154.279C91.3351 152.101 93.6977 152.431 95.2536 152.123C96.5998 151.223 98.2299 150.861 99.8676 151.495C101.103 151.33 102.339 151.172 103.575 151.015C103.764 150.597 103.918 150.176 104.077 149.747C100.657 149.037 97.2377 148.306 93.8221 147.582Z" fill="#282828"/>
</g>
<g clip-path="url(#clip1_5182_1791)">
<path fill-rule="evenodd" clip-rule="evenodd" d="M168.218 83.0947C167.636 75.5976 168.538 67.7397 165.635 60.6137C160.573 48.7904 146.38 44.8483 135.376 40.347C130.968 39.0499 116.134 38.8687 110.972 37.152C99.2903 33.2669 96.4991 28.638 87.2168 36.0354C85.6499 37.299 84.6695 38.6724 83.9544 40.5489L83.9838 40.5569C83.7795 41.3392 83.9985 42.1198 84.4586 42.716C80.4339 46.8123 78.7497 52.9535 80.8147 58.4064C87.5538 72.596 87.2368 80.2684 85.0655 95.523C82.23 109.764 88.7095 114.966 99.4402 122.715C99.0033 123.559 98.9127 124.68 99.4823 125.424C111.891 142.786 135.287 151.076 155.334 142.263C163.471 138.657 167.103 130.029 169.176 122.243C171.591 113.526 172.333 104.34 170.367 95.4594C169.574 91.3524 168.541 87.2751 168.218 83.0947Z" fill="white"/>
<path fill-rule="evenodd" clip-rule="evenodd" d="M96.6402 0.0317139C98.1464 -0.193488 99.284 0.736994 99.8249 2.04849L99.8534 2.11911C100.027 2.56536 100.221 2.99943 100.429 3.42617C104.198 1.58507 109.576 2.05815 111.961 5.78669C113.664 8.44958 112.625 11.6099 111.983 14.4338L111.562 16.2944C112.377 16.8103 112.991 17.7343 112.962 18.691L112.958 18.7646L112.787 21.3593C113.33 20.8106 113.828 20.2131 114.271 19.5767C114.577 19.0183 114.908 18.4696 115.263 17.938C117.352 14.8093 122.042 17.5283 120.318 20.8789C119.987 21.5251 119.615 22.1372 119.216 22.7273C118.765 23.5978 118.395 24.4927 118.111 25.4121C118.927 25.7657 119.553 26.5509 119.62 27.736C119.774 30.5038 118.314 32.8131 115.993 34.264C115.309 34.6908 114.604 34.7737 113.965 34.6152C113.852 34.7663 113.739 34.9175 113.632 35.0712C114.557 35.8198 115.393 36.6733 116.11 37.6194C118.27 37.2976 120.442 37.1464 122.615 37.1415C125.27 35.8466 128.448 35.8734 131.302 36.3587C133.138 36.6709 134.902 37.2781 136.709 37.7146C138.614 38.173 140.549 38.1901 142.477 38.5022C144.906 38.8948 147.037 40.0117 148.376 41.7942C149.848 41.8381 151.396 42.438 152.679 43.2525C155.667 45.1497 158.638 47.0737 161.618 48.9831C162.762 49.7161 163.19 50.8864 162.979 52.1917L162.965 52.2751L162.865 52.8165L163.101 53.1498C164.013 54.4323 165.005 55.7757 165.596 57.1912C166.688 58.7592 167.675 60.4028 168.549 62.0976C169.727 64.3752 170.699 66.7894 171.358 69.2669C171.522 69.8936 171.686 70.5252 171.794 71.1641C171.948 72.0664 171.711 72.7663 171.581 73.6319C171.419 74.7293 171.361 75.8413 171.189 76.941C171.074 77.6702 170.452 78.0286 169.801 78.0481C170.045 79.9039 170.222 81.7718 170.391 83.6251C170.628 86.2734 170.79 88.9289 170.93 91.5845C171.65 92.6258 173.121 93.45 174.184 93.7353C175.656 94.1279 177.199 93.7012 178.59 93.2013C179.465 92.8867 180.182 93.9816 179.756 94.7132C178.416 97.0103 175.551 97.0005 173.381 95.9837C172.463 95.5545 171.657 94.9327 171.059 94.1231C171.096 94.8936 171.135 95.6642 171.174 96.4372L171.211 97.1373C171.652 105.314 172.605 113.773 171.062 121.869C168.39 135.893 156.734 146.571 142.496 147.4C135.025 147.836 128.803 145.638 125.709 144.413C122.615 143.187 123.817 140.687 125.965 141.402C129.665 142.633 136.462 144.466 142.545 143.674C156.882 141.808 169.039 134.673 167.79 103.943C167.613 99.5854 167.067 95.2253 166.95 90.8676C166.837 86.6075 166.879 82.3449 166.69 78.0872L166.627 76.6345C166.554 74.937 166.475 73.2318 166.347 71.5323C166.193 70.8739 166.066 70.2058 165.877 69.5596C165.365 67.8014 164.697 66.0919 163.867 64.4605C163.683 64.5995 163.477 64.6995 163.254 64.7385C161.562 65.0409 159.975 64.9556 158.39 64.2533C157.651 63.929 156.999 63.4973 156.392 62.9633C156.103 62.7121 155.91 62.4683 155.758 62.2146C154.991 62.2268 154.225 61.9976 153.745 61.4489C153.197 60.8237 153.106 60.1777 153.32 59.5798L153.343 59.5201L153.289 59.5005C152.643 61.1661 151.354 62.6316 149.941 63.6217C147.708 65.1921 144.913 65.6457 142.234 65.6871C139.276 65.731 136.156 65.2775 133.236 64.8141C132.465 64.6922 131.698 64.5532 130.946 64.3654C130.917 64.3947 130.888 64.4289 130.856 64.4581C128.35 66.8455 124.826 67.46 121.647 66.0968C119.811 65.3092 118.27 64.0411 116.909 62.5877C116.889 63.3486 116.85 64.1094 116.784 64.8629L116.756 65.1621C116.621 66.5655 116.36 68.0542 115.295 69.067C113.573 70.7081 111.075 70.0497 109.089 68.9816C109.091 69.0328 109.091 69.0865 109.091 69.1401C109.627 70.9544 110.166 72.7711 110.705 74.5879L110.821 74.9748C111.213 76.2648 111.643 77.5565 111.761 78.9065C111.986 81.4865 110.262 84.0348 107.382 83.1691C105.871 82.7167 104.661 81.4519 103.499 80.4389L102.768 79.8088C104.661 85.971 105.974 92.3527 106.096 98.7831C106.103 99.1318 105.802 99.3952 105.469 99.4074C104.69 99.4391 103.853 99.2855 103.069 98.9758C103.025 98.9733 102.981 98.9709 102.934 98.9636C101.597 98.7709 100.355 98.2905 99.2607 97.5809C99.5129 98.3783 99.6256 99.2343 99.5595 100.129C99.5423 100.346 99.2019 100.422 99.1529 100.183C98.5211 97.0883 94.8842 94.7498 91.7495 95.3423C88.3845 95.9788 85.906 98.8612 85.2987 102.141C84.6472 105.665 85.8938 109.74 88.2032 112.459C89.2661 113.712 90.6645 114.758 92.325 115.021C93.0842 115.141 93.8728 115.099 94.6099 114.885C94.9234 114.792 95.2173 114.663 95.5161 114.541C95.952 114.365 96.4614 114.339 96.8729 114.153C97.806 113.736 98.7439 114.592 98.2713 115.546C97.8598 116.377 97.49 116.938 96.8067 117.367C97.3602 118.04 97.8623 118.977 98.0484 119.228C98.9986 120.506 99.9636 121.713 101.046 122.881C102.148 124.066 103.351 125.149 104.622 126.151L105.156 126.571C106.38 127.538 107.446 128.434 108.31 129.821C108.991 130.916 108.109 132.401 106.833 132.384C102.841 132.328 99.9391 128.836 97.8721 125.785C97.5782 125.349 97.3014 124.888 97.0443 124.415C96.9512 124.563 96.8484 124.702 96.7333 124.829L96.961 125.439C97.637 127.234 94.725 128.407 93.8801 126.731C93.2654 125.517 92.5527 124.361 91.7593 123.269C91.2915 123.203 90.8335 122.92 90.5788 122.554C89.9347 121.625 89.2122 120.686 88.6024 119.696C88.2645 119.377 87.9167 119.069 87.5616 118.769C87.4587 118.86 87.3534 118.95 87.253 119.045C86.8073 120.057 86.2562 120.981 85.573 121.852L85.4265 122.038C84.1175 123.68 82.4125 125.361 80.3026 125.763C79.6585 125.885 79.0389 125.088 79.6095 124.578C81.0863 123.256 82.8325 122.357 84.1941 120.881C84.8649 120.154 85.4811 119.354 86.0106 118.515L86.1313 118.321C86.2195 118.177 86.3101 118.033 86.4032 117.887C85.7885 117.47 85.1738 117.05 84.5591 116.631C82.8668 118.07 80.6631 118.729 78.7916 119.921L78.6054 120.042C76.9131 121.169 75.1302 118.677 76.487 117.309C77.9826 115.806 79.2312 114.015 80.5561 112.345C79.9331 111.202 79.6382 109.851 79.5277 108.485C79.4841 108.099 79.4501 107.712 79.4161 107.325C78.4658 107.34 77.5107 107.016 76.7025 106.457L76.3964 106.24C75.4143 106.552 74.3833 106.704 73.3963 106.677C71.0746 106.608 70.1244 103.967 71.5767 102.297C73.0583 100.59 75.6519 100.217 77.7066 101.046C77.7728 101.012 77.8413 100.975 77.9074 100.939C77.8095 100.49 77.8313 100.083 77.9427 99.7256L77.9104 99.5076C77.4585 98.8173 77.1615 98.0291 77.0488 97.1964C76.9597 96.5367 76.9778 95.883 77.1311 95.2316C77.182 95.0148 77.2881 94.7902 77.3692 94.5642C77.2021 94.1443 77.1039 93.7102 77.0735 93.2737C77.0268 93.2184 76.9802 93.1615 76.9362 93.1001C75.9166 91.6748 76.1226 89.9573 77.0929 88.8039C77.0973 88.7305 77.1042 88.6571 77.1142 88.5841C77.0574 88.4568 77.0052 88.3283 76.9577 88.1984C76.0097 87.2461 75.3137 86.1002 75.4435 84.6803C75.5196 83.8448 75.8645 83.0928 76.3863 82.5307C76.2938 82.2581 76.285 81.9423 76.3971 81.6786C75.5642 79.4727 75.6695 76.8159 76.269 74.3489C76.1368 73.9733 76.0682 73.5661 76.0829 73.1345C76.1515 71.3031 77.7434 69.6205 79.6291 69.6425C79.8562 69.6444 80.0687 69.6739 80.273 69.7171L80.2757 69.6734C80.3479 69.1238 80.4998 68.6158 80.7214 68.1601C80.6124 68.1208 80.5115 68.0645 80.4231 67.9896C79.2148 68.6314 77.9361 69.1221 76.5955 69.4564C75.6098 69.7022 74.6 68.5866 75.2128 67.6653C75.4971 67.2378 75.8108 66.854 76.1488 66.5033C75.6683 66.506 75.1804 66.5384 74.687 66.6016C73.8004 66.7162 72.811 66.1139 72.2355 65.2994C71.5203 65.992 70.8028 66.6821 70.0852 67.3722C68.268 69.1255 65.5226 67.8355 65.2361 65.5238C64.6949 65.3799 64.1904 65.136 63.7471 64.7873C60.8817 66.0261 57.7984 66.7065 54.6464 66.8357C52.3835 66.9284 51.061 64.3045 52.119 62.4512C52.8292 61.2075 53.7109 60.0907 54.7273 59.1201C53.1501 59.6005 51.5214 59.9468 49.8585 60.1687C48.9597 60.2882 47.6887 59.5469 47.3287 58.7251C45.9523 55.5647 46.0699 52.2702 47.6544 49.1952C47.7156 49.0733 47.7842 48.9563 47.8503 48.8392C48.0144 48.432 48.1932 48.0296 48.3867 47.6346C46.4372 45.6106 46.2683 42.6014 47.3189 40.0824C46.8977 39.402 46.736 38.5827 47.0226 37.8414C47.8381 35.7076 49.0136 33.7373 50.4977 32.0449C50.3557 31.7718 50.2308 31.4816 50.1255 31.1695C49.2904 28.6456 50.2577 25.5998 52.2096 23.8417C53.4366 22.7346 54.8473 22.0713 56.3534 21.647C56.9877 20.5302 57.8033 19.523 58.7535 18.6744C58.7902 18.5939 58.827 18.5135 58.8686 18.433C60.3478 15.6579 63.0418 14.1704 65.9292 13.8266C66.0418 12.7414 66.7766 11.705 67.8443 11.3685C68.1382 10.4297 68.5766 9.5323 69.1791 8.71782C70.1269 7.43514 71.7016 6.83039 73.1857 7.67168C73.9988 8.13257 74.7776 8.66174 75.5074 9.24699C75.8353 9.09392 76.2068 8.99489 76.6261 8.96329L76.7319 8.9568L79.1467 8.83487C80.1581 8.38862 81.1671 7.92042 82.1786 7.46441C82.7859 6.96451 83.4643 6.54751 84.2039 6.23782C85.0415 5.88911 85.8987 5.69158 86.7583 5.62574C87.4563 5.39896 88.1592 5.199 88.8743 5.04293C90.5543 4.67715 92.3127 4.47231 94.0565 4.48938C94.0922 4.04 94.1098 3.58524 94.1064 3.12508L94.103 2.89457C94.0638 1.41925 95.2467 0.241429 96.6402 0.0317139ZM94.9479 118.07C94.7079 118.121 94.4655 118.162 94.223 118.192C94.2965 118.372 94.3699 118.552 94.441 118.733C94.6369 118.843 94.8353 118.947 95.0336 119.045C94.9749 118.713 94.9406 118.379 94.9479 118.07ZM82.3654 114.347L82.2026 114.645C82.1764 114.694 82.1502 114.742 82.1247 114.79C82.47 114.763 82.8178 114.77 83.1607 114.809L83.1597 114.773C83.1156 114.758 83.0715 114.744 83.0294 114.724C82.7928 114.611 82.5729 114.484 82.3654 114.347ZM89.1657 100.727C91.3324 100.852 93.1682 101.183 95.1387 102.127L95.3079 102.209C97.0492 103.07 99.9293 104.66 99.6868 106.94C99.6182 107.589 99.1456 108.272 98.4011 108.22C96.361 108.081 95.1953 106.033 93.814 104.755C92.4205 103.468 90.7086 102.143 89.0212 101.258C88.7827 101.134 88.8767 100.739 89.1363 100.727H89.1657ZM79.3401 70.6862C78.8209 70.7032 78.9948 71.2056 79.2618 70.7861C79.2838 70.752 79.3108 70.7179 79.3401 70.6862ZM107.366 37.1508C102.449 37.2795 97.5001 40.1704 93.8165 43.0925C90.6119 45.6347 87.8447 48.6585 85.3944 51.9176C84.764 53.5407 84.2228 55.1977 83.7656 56.8669C83.4643 57.9691 83.2758 59.0836 83.0235 60.1955L82.9451 60.5364C82.747 60.9052 82.5998 61.3019 82.4926 61.7118C82.939 62.1576 83.5182 62.4768 84.1559 62.6282C84.3614 62.677 84.5321 62.7826 84.6671 62.9226C85.1804 62.0696 85.629 61.1692 85.8901 60.2148L85.8997 60.1707C86.8864 58.5615 87.9581 57.0023 89.1069 55.4965C92.276 51.3387 95.7659 47.5492 99.9611 44.3962C103.142 42.0064 106.698 40.1336 110.48 38.9168C109.554 38.1732 108.503 37.5851 107.366 37.1508Z" fill="#282828"/>
<path fill-rule="evenodd" clip-rule="evenodd" d="M150.348 118.596C151.188 117.12 153.695 117.36 154.079 119.082C154.856 122.572 150.676 125.795 147.501 125.876C144.346 125.956 140.806 123.282 141.263 119.904C141.375 119.069 142.496 119.17 142.878 119.694L143.026 119.895C144.064 121.283 145.433 122.72 147.359 122.381C148.157 122.241 148.882 121.745 149.365 121.106C149.947 120.335 149.883 119.413 150.348 118.596ZM130.285 93.0596C130.713 92.9423 131.145 92.9877 131.523 93.1481C132.369 93.3025 133.076 94.0048 133.324 94.8066C133.344 94.8758 133.366 94.9444 133.39 95.0121L133.428 95.1136L133.326 94.8566C133.373 95.1097 133.58 95.3757 133.654 95.6298C133.746 95.9422 133.768 96.297 133.737 96.6408C134.006 96.6435 134.275 96.6526 134.544 96.6757L134.803 96.6986C136.254 96.833 137.846 97.0793 138.706 98.3274C139.189 99.0287 138.736 100.291 137.848 100.426C136.483 100.634 135.306 99.8819 133.945 99.7312C132.658 99.5886 131.312 99.6703 130.041 99.9017C127.419 100.379 125.01 101.437 122.454 102.101L122.107 102.189L122.107 102.188C121.669 102.293 121.172 101.687 121.605 101.332C123.652 99.6576 126.273 98.3005 128.855 97.4741C128.479 96.8784 128.363 96.0936 128.62 95.454C128.66 95.3213 128.709 95.1924 128.761 95.0641L128.87 94.7997C128.881 94.6751 128.905 94.552 128.939 94.4313L128.945 94.3945L128.948 94.3967C129.14 93.7746 129.643 93.2361 130.285 93.0596ZM156.403 93.1557C156.963 92.598 157.75 92.6804 158.334 93.1193L158.412 93.1798C158.963 93.4234 159.418 93.9558 159.718 94.4491C160.028 94.9614 160.235 95.4833 160.243 96.0473C161.598 96.0517 162.896 96.4565 163.892 97.546C164.213 97.8977 164.432 98.44 164.255 98.9167L164.15 99.2004C163.816 100.101 162.314 100.619 161.803 99.5603L161.78 99.5086C161.237 98.2513 159.155 98.3832 158.048 98.5117C157.277 98.6017 156.515 98.7926 155.77 99.0065C155.507 99.0818 155.247 99.1638 154.987 99.2472L154.727 99.3311C154.589 99.3757 153.867 99.7661 154.316 99.6737C154.437 99.6488 154.528 99.8239 154.404 99.8827C153.869 100.137 153.298 99.63 153.334 99.0575C153.396 98.0637 154.981 97.5187 155.743 97.1759L155.789 97.1551C156.082 97.0205 156.388 96.8915 156.704 96.7718C156.526 96.5084 156.379 96.2158 156.257 95.9017C156.142 95.6052 156.064 95.317 156.022 95.0017C155.98 94.8475 155.98 94.6934 156.022 94.5391L156.028 94.4949C156.007 94.393 155.997 94.2876 155.998 94.1816L155.994 94.1404H155.998C156.013 93.769 156.161 93.3968 156.403 93.1557ZM147.457 103.74C149.608 104.402 153.157 106.205 152.036 108.987C150.471 111.543 146.32 109.665 144.309 108.839C142.502 108.243 141.561 110.765 143.308 111.525C157.747 117.213 157.694 102.201 147.981 102.422C146.912 102.446 146.878 103.52 147.457 103.74ZM128.354 84.1667L128.72 84.0601C130.627 83.5102 132.573 82.5606 134.266 84.0423C134.931 84.6241 135.068 85.8331 134.592 86.5588C133.509 88.2124 131.902 87.9598 130.152 88.1007C128.82 88.208 127.507 88.5977 126.264 89.0847C125.247 89.4829 124.305 90.0435 123.415 90.6688C122.54 91.2835 121.943 92.2446 121.046 92.7979C120.718 93.0008 120.338 92.792 120.22 92.4631C119.802 91.2962 120.508 89.8426 121.106 88.8484C121.836 87.6355 122.945 86.6435 124.138 85.8929C125.444 85.0708 126.888 84.5962 128.354 84.1667ZM156.135 82.9111C159.358 82.9102 162.459 84.6949 164.261 87.3113C164.874 88.2001 164.425 89.5169 163.545 90.0288C162.559 90.6033 161.505 90.1896 160.855 89.3664L160.816 89.3165C159.782 87.9458 158.45 86.8662 156.87 86.1634C156.099 85.8203 155.247 85.5421 154.413 85.4009L154.144 85.3549C153.766 85.2919 153.329 85.2318 152.987 85.2907C152.804 85.3146 152.636 85.3748 152.481 85.4665C152.556 85.6284 152.363 85.8235 152.186 85.7264C151.385 85.2885 151.483 84.5072 152.145 83.9C153.08 83.0409 154.926 82.9114 156.135 82.9111Z" fill="#282828"/>
</g>
<defs>
<clipPath id="clip0_5182_1791">
<rect width="403" height="618.893" fill="white" transform="translate(-58 129.536)"/>
</clipPath>
<clipPath id="clip1_5182_1791">
<rect width="140.33" height="161.92" fill="white" transform="translate(46.375)"/>
</clipPath>
</defs>
</svg>
