<svg width="242" height="188" viewBox="0 0 242 188" fill="none" xmlns="http://www.w3.org/2000/svg">
<g clip-path="url(#clip0_5154_1216)">
<mask id="mask0_5154_1216" style="mask-type:luminance" maskUnits="userSpaceOnUse" x="0" y="0" width="242" height="188">
<path d="M242 0H0V188H242V0Z" fill="white"/>
</mask>
<g mask="url(#mask0_5154_1216)">
<path fill-rule="evenodd" clip-rule="evenodd" d="M31.036 199.638L29.2367 199.459C28.3371 184.509 30.8561 169.827 33.8248 155.413L35.6241 155.503C36.2538 163.829 40.572 171.707 38.5929 180.211C36.7036 187.015 32.7453 192.834 31.036 199.638ZM240.11 124.438L239.03 124.707C241.009 120.947 239.21 119.693 236.871 116.56L236.601 117.097L235.701 115.217C235.521 114.769 235.342 114.322 234.892 114.143C234.442 111.815 233.003 109.667 231.203 108.503L230.843 108.861C230.124 108.234 229.224 107.966 228.414 107.697C230.214 105.011 231.383 101.43 232.553 98.5656C233.542 95.5218 235.072 92.5676 235.342 89.4342C235.072 86.4799 232.283 88.3599 230.933 89.8818C226.705 93.5523 223.107 99.3714 220.408 106.444C215.73 105.28 213.031 106.533 211.771 112.889C210.602 117.187 209.342 121.573 209.162 126.049C208.533 125.87 207.453 125.065 206.823 125.691C196.478 136.971 184.243 145.655 172.368 155.145C163.461 148.609 158.783 135.629 153.835 125.96C145.289 109.309 136.652 84.8685 114.611 84.958C111.643 84.6895 108.854 84.3314 106.065 83.4361C104.985 83.1676 103.636 82.8095 103.276 82.1828C102.646 80.1237 102.466 77.8857 101.387 75.9161C98.2382 70.8133 91.401 70.4552 86.0033 71.5295C76.917 73.2304 77.0969 72.2457 76.4672 81.7352C76.2873 83.9733 74.488 84.3314 72.5988 84.779C70.4397 85.4056 68.2806 86.0323 66.1215 86.4799C66.3914 86.3904 66.5713 86.3904 66.8412 86.3009C31.2159 86.838 7.55568 127.929 2.87761 157.025C-2.61012 186.747 4.49694 219.87 15.6523 244.848C15.2025 253.979 17.0018 263.11 18.0813 272.063C18.801 274.301 21.23 274.569 21.9497 271.884L22.8494 268.482L23.749 271.884C24.3787 274.032 25.2784 274.211 26.178 274.211C27.2575 274.211 27.7973 273.674 27.8873 270.989L29.5966 270.541C30.3163 271.794 30.946 272.958 32.0256 273.764C34.1847 289.162 35.5341 305.276 40.662 320.227C42.7311 325.777 45.8798 330.79 48.2189 336.251C37.2434 360.96 35.3542 388.265 32.7453 414.674C32.9252 414.674 34.0047 414.764 34.2746 414.764L33.6449 416.375C32.8352 416.733 32.2955 417.449 32.1155 418.255C31.5758 418.255 29.2367 418.255 29.4166 418.792C29.6865 421.926 30.5862 424.074 32.2055 425.686C32.2055 426.223 32.2955 426.67 32.2955 427.118C28.9668 438.577 26.6278 450.663 25.0984 463.286C23.2092 465.076 22.7594 470.895 25.5482 472.507C33.1951 477.789 43.5408 480.295 53.1668 479.31C63.6925 478.326 76.1973 474.208 71.1594 462.301C71.0694 461.943 70.6196 461.943 70.1698 462.032C69.2702 461.137 68.2806 460.51 67.291 460.152C65.2218 454.96 63.3326 449.589 61.7133 444.217C60.9036 441.71 60.094 439.204 60.1839 436.428C60.5438 429.804 61.2635 427.029 65.9416 421.747C68.8204 423.089 74.3081 413.152 75.5676 411.004C78.1765 404.827 78.0865 414.585 78.0865 414.585C79.1661 418.434 79.6159 424.79 82.4047 427.655C83.9341 437.592 73.6784 442.158 80.2456 453.169C77.9966 453.349 77.8166 454.244 77.8166 456.929C77.8166 458.899 77.7267 460.869 78.0865 462.749C78.5363 464.987 80.6055 465.613 83.6642 466.24C86.1832 466.777 88.6122 467.404 91.1311 468.03C93.6501 468.836 96.349 468.836 97.3386 466.24C109.843 470.448 145.918 470 157.794 464.36C161.122 463.017 163.371 462.301 160.403 458.63C158.693 448.067 128.646 459.973 124.867 448.425C124.327 446.903 117.13 437.503 115.151 436.428C115.961 435.265 115.151 426.044 115.151 425.686C115.691 420.314 124.867 396.053 125.857 385.31C126.936 367.137 125.947 351.739 131.524 333.208C139.351 303.933 154.465 276.36 154.735 245.385C154.465 240.282 155.904 234.731 154.645 229.718L156.264 228.912C156.534 229.181 156.894 229.181 156.984 228.823C158.063 227.122 156.894 225.063 156.624 223.183C157.164 222.556 156.894 222.019 156.264 221.75C149.067 196.594 137.102 192.924 140.431 161.411C145.829 172.781 157.794 184.24 170.928 182.539C184.153 184.509 215.1 152.369 221.037 142.074C222.117 142.164 222.117 141.358 222.297 140.642C227.785 141.269 232.823 137.061 232.913 131.779C237.681 134.733 242.808 130.526 240.29 125.333C240.29 124.975 240.2 124.707 240.11 124.438Z" fill="white"/>
</g>
<mask id="mask1_5154_1216" style="mask-type:luminance" maskUnits="userSpaceOnUse" x="0" y="0" width="242" height="188">
<path d="M242 0H0V188H242V0Z" fill="white"/>
</mask>
<g mask="url(#mask1_5154_1216)">
<path fill-rule="evenodd" clip-rule="evenodd" d="M101.836 74.5735C101.836 74.484 102.016 74.484 102.016 74.5735C102.196 76.7221 102.646 78.8706 103.456 80.9297C103.725 80.9297 103.995 81.1087 104.175 81.4668C104.445 81.9144 105.705 82.183 106.334 82.3621H106.424C109.123 83.1678 111.912 83.5259 114.701 83.7944C127.836 84.5106 132.694 88.6287 140.07 99.0135C148.887 110.652 153.835 124.528 160.492 137.419C162.111 140.553 163.911 143.596 165.8 146.551L166.07 146.998C167.779 149.594 169.668 152.191 172.277 153.892C178.665 148.52 185.502 143.775 191.889 138.314L192.519 137.777C197.287 133.659 201.785 129.362 206.193 124.796C206.733 124.259 207.633 124.08 208.352 124.438C208.622 120.32 209.792 116.381 210.871 112.353C211.951 107.25 213.93 103.848 219.867 105.101L220.047 104.743C222.386 98.924 225.535 93.284 230.213 89.0763L230.483 88.8078C231.473 87.9125 232.822 86.5697 234.262 86.6592C235.611 86.7487 236.241 87.9125 236.331 89.1659C236.421 90.5982 235.791 92.0306 235.341 93.3735V93.463C234.801 95.164 234.172 96.9544 233.452 98.6554C232.822 100.267 232.192 101.968 231.473 103.579C230.753 104.922 230.213 107.16 228.954 107.966C228.234 108.324 227.604 107.787 227.514 107.16C227.424 106.265 227.964 105.459 228.324 104.653C228.684 103.937 229.044 103.221 229.404 102.505C230.753 99.5506 232.012 96.5963 233.002 93.5525V93.463C233.362 92.3887 234.531 89.7925 234.082 88.8973C233.632 88.8973 232.732 89.7925 232.372 90.0611C227.334 94.1792 224.006 99.9983 220.317 105.191C222.656 105.817 225.265 106.175 227.154 107.787C231.203 111.278 227.964 118.172 222.566 116.918C224.096 120.141 225.355 125.244 222.656 128.109C221.847 128.825 220.317 128.646 220.047 127.393C219.778 126.139 220.137 125.065 220.407 123.812C220.947 121.305 221.217 118.798 220.857 116.202L220.767 116.113C219.867 115.575 219.238 114.949 219.328 113.785C219.238 112.979 220.137 111.815 220.947 112.532C221.217 112.711 221.577 112.8 221.847 112.979C222.386 113.427 223.016 113.874 223.736 113.874H223.826C224.725 113.874 225.445 113.337 225.715 112.442C226.525 110.025 223.826 109.219 222.027 108.772L221.577 108.593C216.719 107.16 215.01 107.071 213.75 112.711L213.57 113.158C212.311 117.187 211.141 121.394 208.982 125.065L209.342 125.871C211.591 131.153 214.38 137.061 220.317 138.673C220.497 136.882 222.476 136.882 223.826 136.882C225.625 136.793 227.424 135.897 228.684 134.554C229.763 133.48 230.393 131.869 231.563 130.884C231.023 129.631 232.282 128.288 233.542 129.004C234.441 129.452 234.981 130.168 236.061 130.347C236.96 130.436 237.86 130.168 238.58 129.541C240.469 127.93 239.569 125.692 240.019 123.633C239.389 124.707 238.4 125.423 237.32 126.05C230.123 130.078 230.213 122.111 234.172 123.453C238.49 122.469 238.4 120.947 236.781 117.276V117.187C236.511 116.381 235.971 115.128 236.511 114.322C236.511 114.322 236.601 114.233 236.601 114.322C237.05 114.77 237.32 115.575 237.68 116.202L238.04 116.65C239.569 118.44 241.279 120.678 240.199 123.095C240.289 123.095 240.379 123.095 240.469 123.274C240.919 124.975 241.818 126.587 241.639 128.377C241.279 132.316 236.96 134.465 233.452 132.764C232.732 137.777 227.784 141.448 222.746 141.179C222.566 141.895 222.117 142.433 221.307 142.522C213.93 154.25 184.962 184.419 170.838 183.166C169.488 183.793 167.779 183.434 166.34 183.255C155.274 181.823 146.098 173.855 140.97 164.276C139.081 195.341 149.786 194.983 156.894 220.766C157.613 221.214 158.063 222.198 157.433 223.004C157.703 224.526 158.333 226.137 158.153 227.749C158.063 228.196 157.793 228.644 157.613 229.002C157.163 229.897 155.994 229.718 155.454 229.092C156.354 232.493 155.994 235.985 155.724 239.476C155.544 241.535 155.634 243.505 155.544 245.474C155.274 276.271 140.16 304.023 132.334 333.208C130.175 341.354 128.465 349.77 127.746 358.185C127.026 367.137 127.566 376.269 126.666 385.221C125.676 395.874 122.798 406.17 119.379 416.286C119.649 416.913 119.379 417.629 118.839 417.987C118.659 418.524 118.479 419.061 118.299 419.598C118.569 421.031 118.659 422.463 118.569 423.985C118.479 426.134 117.85 428.282 118.12 430.341C118.299 431.236 119.109 432.132 118.659 433.206L118.839 433.385C120.099 434.191 121.358 435.086 122.168 436.339C122.348 436.608 122.528 437.145 122.708 437.414C122.888 437.593 123.337 437.682 123.607 437.772C124.957 438.219 125.856 439.383 125.676 440.815C128.915 441.711 127.746 444.934 131.074 447.172C134.493 449.589 139.081 449.857 143.039 450.484L149.876 451.558L150.326 451.648C154.824 452.185 160.672 453.259 161.212 458.631C162.021 459.168 162.381 460.421 162.561 461.316C162.741 462.033 162.741 462.838 162.201 463.375C161.572 464.092 160.402 464.36 159.592 464.718C158.513 465.166 157.523 465.882 156.354 466.061C154.914 466.688 153.385 466.956 152.036 467.225C137.641 469.821 122.978 470.537 108.404 469.105C106.065 468.836 103.636 468.568 101.297 468.299H101.027C99.8571 468.12 98.5976 467.852 97.608 467.404C96.0787 469.911 93.1998 469.553 90.7709 468.926C88.8816 468.478 86.9924 468.031 85.0132 467.494C82.0445 466.688 77.7262 466.509 77.0065 462.928C76.6467 461.048 76.6467 459.078 76.6467 457.198V456.661C76.6467 455.05 76.7366 452.901 78.5359 452.543C76.017 447.977 76.5567 442.337 78.8958 437.772L78.9857 437.593C80.695 434.459 81.7746 431.863 81.2348 428.193C80.0653 427.118 79.5255 425.596 79.1656 424.074C77.9961 419.867 77.0065 415.57 76.1969 411.183C74.3976 414.495 72.3285 417.539 69.8995 420.404C68.9099 421.747 68.1902 422.194 66.6608 422.732C66.3909 422.821 66.211 422.821 65.9411 422.732C64.5017 424.612 62.7924 426.134 62.0727 428.461C61.263 430.968 60.9032 433.743 60.8132 436.429C60.7233 439.831 62.1627 443.143 63.0623 446.366C64.5017 450.842 66.0311 455.318 67.8303 459.705C68.9998 459.974 70.7091 459.884 71.159 461.227C71.4288 461.406 71.6088 461.674 71.7887 462.033L71.8787 462.391C72.6883 465.166 73.408 468.389 72.3285 471.164C69.2697 477.878 59.6437 479.579 52.9865 480.385C43.1805 481.28 32.8348 478.953 24.7381 473.402C23.5686 472.596 22.759 471.701 22.579 470.269V470C22.3091 467.673 22.3091 464.897 23.9285 463.017C25.3679 450.932 27.7069 438.846 31.0355 427.118C31.0355 426.76 30.9456 426.492 30.9456 426.134C29.0564 424.164 28.3366 421.478 28.1567 418.882C28.1567 417.36 30.1359 417.45 31.2155 417.181C34.0043 389.876 35.6236 361.676 46.869 336.162C44.6199 330.97 41.5612 326.135 39.582 320.854L39.4021 320.495C38.5924 318.347 38.0526 316.109 37.4229 313.871C36.9731 312.796 36.6132 311.722 36.4333 310.558C33.8244 298.562 32.295 286.297 30.7656 274.033C29.6861 273.137 29.0564 271.884 28.4266 270.81V271.078C28.3367 272.958 28.0668 275.017 25.7277 274.928C23.8385 274.838 22.9389 273.495 22.4891 271.884C21.6794 275.196 17.901 275.375 16.8214 272.153C16.3716 270.81 16.3716 269.377 16.1917 267.945C15.382 260.425 13.7627 252.815 14.2125 245.206C13.7627 245.027 13.3129 244.669 13.043 244.042C4.31658 216.29 -3.96 186.299 2.06751 156.667C8.09501 127.661 24.4682 95.2535 55.4155 87.0173C61.7129 85.4059 68.0103 84.8687 74.4876 84.5106C75.3872 82.7202 76.0169 80.6611 76.1069 78.6916C76.1069 78.1544 76.1069 77.5278 76.1069 76.9906C76.1069 76.4535 76.3768 75.8268 76.1969 75.2897C76.1969 75.2002 76.3768 75.1106 76.3768 75.2002C76.5567 75.5582 76.8266 75.7373 77.0065 76.0059C77.4564 76.8116 77.6363 77.8859 77.7262 78.7811C78.1761 82.4516 77.0965 86.3011 74.8474 89.2554L74.6675 89.524C73.9478 90.4192 72.6883 91.9411 71.4288 91.1354C70.1694 90.4192 71.069 88.9868 71.7887 88.1811C72.7783 87.1963 73.588 86.1221 74.2177 84.9583C71.3389 85.764 68.4601 86.5697 65.5813 87.3754L65.4013 87.4649C63.1523 88.7182 59.8236 89.9716 60.0935 93.0154C66.121 111.099 92.75 115.754 109.303 111.457C112.542 110.562 115.781 109.219 118.03 106.623L118.12 106.533C121.898 102.057 121.628 94.6268 116.86 90.9563C114.071 88.6287 110.113 87.4649 106.604 86.6592C107.594 88.3602 109.933 89.524 110.293 91.583C110.383 92.2992 110.023 92.9259 109.213 92.9259C107.234 92.9259 105.795 90.8668 104.805 89.524C102.646 86.6592 101.476 83.0783 101.207 79.5868C101.027 77.7963 101.386 76.1849 101.836 74.5735ZM70.2593 465.703C70.3493 466.777 69.8095 468.031 68.4601 467.941C67.4705 469.194 66.0311 470 64.7716 470.806C56.0452 475.551 44.9798 475.819 35.7136 472.328C33.1946 471.343 30.7656 470.179 28.5166 468.747L28.3367 468.568C27.1671 467.852 25.9077 467.046 25.098 465.972V466.867C25.098 468.12 25.188 469.284 25.6378 470.448C25.9077 470.985 26.3575 471.254 26.8073 471.522C27.7969 472.149 28.8764 472.775 29.956 473.313C41.1114 478.953 55.5054 479.848 66.7508 473.939C69.9894 472.149 71.4288 469.284 70.2593 465.703ZM80.695 453.796C80.695 453.975 80.5151 454.065 80.4251 453.975C79.3456 453.617 79.9753 456.124 80.0653 456.482C80.3352 457.735 80.4251 459.078 80.605 460.332V460.6C80.605 463.196 80.8749 463.196 83.4839 463.734C85.643 464.271 87.8021 464.897 89.9612 465.524L90.8608 465.793C91.7604 466.061 95.9887 467.493 95.9887 465.793V465.703C95.8987 464.539 97.4281 464.092 98.1478 464.718C99.6772 466.151 101.746 466.24 103.725 466.509H103.815C106.334 466.867 108.853 467.046 111.282 467.314C124.417 468.389 137.731 467.762 150.776 465.434L151.586 465.255C152.755 465.076 154.375 464.718 155.634 464.092C156.174 464.092 158.693 462.838 158.603 462.301C158.693 462.212 158.693 462.122 158.693 462.033C159.233 461.495 159.143 460.332 158.513 459.974C157.433 460.242 156.354 460.511 155.274 460.779C154.195 461.585 152.665 461.585 151.316 461.943C149.876 462.212 148.437 462.48 146.998 462.659C138.721 463.913 130.444 464.897 122.078 465.255C107.414 466.598 92.93 461.943 80.695 453.796ZM32.6549 225.332C33.5545 227.48 32.9248 230.255 32.295 232.494C33.2846 233.031 34.0043 234.015 34.814 234.732C37.7827 237.149 40.8415 239.476 43.8103 241.804L43.9002 241.894C44.7998 242.61 45.7894 243.236 46.0593 244.4C46.869 248.071 42.011 249.055 39.3121 248.787C38.7723 248.787 37.3329 248.429 36.9731 248.787C36.7932 248.966 36.8831 249.861 36.8831 250.13C36.7032 252.994 36.5233 255.949 36.3433 258.814L36.2534 259.888C36.0735 262.036 36.0735 264.543 35.1738 266.602C34.9939 267.855 34.4541 269.109 34.3642 270.362C34.2742 271.436 34.0043 272.69 33.2846 273.495L34.0043 278.867C35.2638 288.983 36.7032 299.099 38.7723 309.036C39.2221 311.274 39.9419 313.423 40.4816 315.661C42.2809 322.017 45.5196 327.747 48.4883 333.655L48.5783 333.924C49.5679 335.983 50.1976 337.863 50.0177 340.191C49.9277 341.623 47.6787 341.623 47.7686 340.191C47.8586 339.206 47.7686 338.311 47.4987 337.505C42.8207 355.947 39.492 374.747 37.7827 393.726C37.063 401.514 36.5233 409.303 35.6236 417.092C38.0526 417.092 40.3917 417.271 42.7307 417.718C46.6891 416.554 51.4571 416.913 55.0556 418.972C57.3047 419.24 59.4638 419.509 61.6229 419.867L62.0727 419.956C63.0623 420.135 64.5917 420.135 65.4013 420.941C65.6712 419.509 66.7508 418.434 67.7404 417.36C68.64 416.286 69.4497 415.301 70.1694 414.137C72.2385 411.183 74.0378 407.871 75.4772 404.558C75.4772 404.021 75.6571 403.574 76.0169 403.305C82.0445 389.608 85.7329 375.015 89.0616 360.423C96.6184 327.747 103.186 294.713 107.144 261.32C107.144 261.141 107.414 261.141 107.414 261.32C108.224 286.029 103.905 310.558 98.6876 334.64C93.3798 358.453 89.2415 382.804 79.4355 405.274C80.1552 409.84 81.0549 414.406 82.1344 418.972C93.0199 416.017 104.445 414.943 115.781 415.391C120.638 401.604 123.787 387.191 123.517 372.509C122.978 346.994 131.164 322.644 139.891 298.92C145.918 280.657 153.295 262.394 154.105 242.968C154.465 238.492 155.904 233.926 154.914 229.45C153.295 231.419 150.866 232.852 148.527 233.926C144.659 235.716 140.43 236.791 136.292 237.775C114.971 243.236 92.5701 243.147 71.2489 238.044L69.6296 237.686C57.1248 234.732 44.1701 231.509 32.6549 225.332ZM31.3054 235.179C28.5166 240.193 22.759 243.236 17.2712 244.4C17.0913 245.027 16.4616 245.474 15.7419 245.564C16.8214 253.89 18.5307 262.126 19.4303 270.541L19.5203 270.81C19.6103 271.347 19.7002 271.884 20.15 272.242C20.6898 272.063 20.6898 271.078 20.7798 270.631C20.9597 267.766 21.2296 264.812 21.4995 261.947C21.5894 260.693 23.6586 260.156 23.9285 261.589L24.8281 267.945V268.034C25.008 269.019 25.098 272.6 26.0876 272.779C26.7173 272.869 26.4474 271.615 26.4474 271.168L26.5374 267.855L26.6274 263.648C26.6274 262.932 26.6274 262.215 26.6274 261.499C26.6274 259.977 28.8764 259.977 29.0564 261.499L29.1463 262.126C29.4162 264.991 29.866 267.945 31.3054 270.452C31.5753 270.273 31.9352 270.273 32.295 270.362C32.385 268.482 32.8348 266.692 33.5545 264.991C33.3746 263.2 33.5545 261.231 33.6445 259.53V259.351C33.7344 257.113 33.9143 254.874 34.0043 252.636L34.0943 251.294C34.1842 249.324 34.0043 246.817 36.2534 246.012C38.4125 245.295 40.9314 246.459 43.0006 245.295C40.5716 243.147 38.0526 241.177 35.5337 239.029C34.634 238.313 33.7344 237.596 32.8348 236.791C32.295 236.253 31.8452 235.627 31.3054 235.179ZM34.724 155.593L34.0043 159.442C32.7448 165.798 31.5753 172.154 30.8556 178.6C30.0459 185.493 29.866 192.476 30.2259 199.459C31.9352 192.745 35.8935 186.747 37.7827 180.122C39.582 171.796 35.2638 163.739 34.724 155.593ZM230.393 107.16C230.303 107.071 230.303 106.892 230.483 106.981C235.791 109.13 237.95 116.918 233.902 121.215C232.552 122.558 230.573 123.364 228.774 122.648C226.615 122.29 225.265 120.141 224.995 118.082V117.993C224.995 117.903 225.085 117.813 225.175 117.903C225.985 118.888 227.334 119.604 228.504 120.141C228.864 119.962 229.224 119.783 229.583 119.693C230.123 119.604 230.663 119.962 230.573 120.499C233.092 120.052 234.082 117.097 234.172 114.859V114.77C234.352 111.815 232.912 108.951 230.393 107.16Z" fill="#282828"/>
</g>
<mask id="mask2_5154_1216" style="mask-type:luminance" maskUnits="userSpaceOnUse" x="0" y="0" width="242" height="188">
<path d="M242 0H0V188H242V0Z" fill="white"/>
</mask>
<g mask="url(#mask2_5154_1216)">
<path fill-rule="evenodd" clip-rule="evenodd" d="M125.137 17.6364C124.687 16.5621 123.967 15.3087 122.798 15.2192C121.808 12.3545 119.469 9.40017 116.23 9.48969C106.604 -0.178881 94.4592 0.268738 81.8644 2.32779C75.2072 3.58112 68.46 5.90874 63.4221 10.6535C57.4845 16.204 55.1455 25.9621 59.8235 33.0345C55.7752 35.183 55.7752 40.2859 57.4845 43.9564C55.4154 45.3887 55.3254 48.7906 57.6644 49.9545C57.5745 50.4916 57.6644 50.9392 57.8444 51.3868C56.6748 52.3716 55.1455 53.0878 53.976 53.6249C53.4362 53.8935 53.0763 54.3411 52.9864 54.7887C48.938 57.4745 38.6823 63.9202 38.8622 69.1125C38.7722 71.7983 40.8414 73.5887 43.2704 74.3049C41.831 77.1697 40.6615 80.5716 42.1009 83.7049C42.4607 84.6897 45.3395 87.4649 45.5195 87.4649C45.7893 87.644 49.9276 85.764 51.9068 84.8687C52.2667 87.3754 55.0555 88.7183 57.3945 87.823C59.6436 87.1964 60.9931 85.3164 62.3425 83.6154C64.2317 87.644 69.7195 87.7335 73.228 85.943C76.3767 84.5106 78.8057 81.8249 80.1551 78.6021C87.2622 82.0935 95.6287 83.0783 103.456 81.7354C103.995 82.6306 105.075 83.1678 106.064 82.8992C110.203 81.6459 114.791 81.5564 118.299 78.7811C125.586 73.5887 126.216 64.0097 125.676 55.863C125.227 47.7164 125.586 39.4802 124.147 31.423C124.777 29.0954 125.856 26.9468 126.846 24.7087C127.745 22.3811 127.745 18.8897 125.137 17.6364Z" fill="white"/>
</g>
<mask id="mask3_5154_1216" style="mask-type:luminance" maskUnits="userSpaceOnUse" x="0" y="0" width="242" height="188">
<path d="M242 0H0V188H242V0Z" fill="white"/>
</mask>
<g mask="url(#mask3_5154_1216)">
<path fill-rule="evenodd" clip-rule="evenodd" d="M57.3048 52.1923C57.7546 52.1027 57.9345 52.6399 57.5747 52.9085C55.2356 54.3408 52.8966 55.6837 50.6475 57.2951C48.4884 58.817 46.5093 60.518 44.71 62.398L44.5301 62.577C42.9107 64.278 41.0215 66.4266 41.0215 68.9332C41.0215 70.9027 42.5509 72.9618 44.62 72.7827C45.4297 72.6932 46.1494 73.678 45.8795 74.3942L45.6096 75.1104C44.4401 78.1542 43.2706 81.6456 44.1702 84.8685V84.958C44.3501 85.6742 44.62 86.3904 45.5197 86.3008C46.3293 86.3008 47.139 86.0323 47.9487 85.7637C49.478 85.2266 50.9174 84.3313 52.087 83.257C53.1665 82.2723 54.5159 83.257 54.336 84.5104C54.1561 85.9427 56.4052 86.5694 57.3948 86.3904C59.4639 86.0323 60.9033 83.9732 61.9829 82.4513C62.5226 81.7351 63.8721 81.4666 64.4119 82.4513C65.4014 84.5104 67.3806 86.0323 69.7197 86.1218C70.8892 86.1218 72.0587 85.8532 73.1383 85.137C73.5881 84.8685 73.9479 84.5999 74.3078 84.2418L74.3977 84.1523C74.9375 83.6151 75.2974 83.3465 75.9271 82.9885C76.5568 82.6304 77.3665 83.078 77.3665 83.7942C77.3665 84.7789 77.0966 85.4056 76.3769 86.1218C75.8371 86.6589 75.1174 87.1961 74.4877 87.6437C73.0483 88.4494 71.429 88.897 69.8096 88.897C67.2007 88.8075 64.7717 87.5542 63.2423 85.5846C61.623 87.4646 59.6438 89.2551 57.0349 89.2551C55.0557 89.2551 53.2565 88.1808 52.3568 86.6589C51.0974 87.4647 49.7479 88.1808 48.3085 88.6285H48.2185C46.1494 89.2551 43.8104 89.4342 42.4609 87.4646C41.2014 85.5846 41.1115 82.9885 41.3814 80.7504C41.6513 78.7808 42.191 76.9904 42.9107 75.1999C40.9316 74.6627 39.4022 72.7827 38.8624 70.8132C38.0527 67.8589 39.5821 64.9046 41.4713 62.7561C43.5405 60.3389 46.1494 58.2799 48.7583 56.5789C51.2773 54.6094 54.1561 52.998 57.3048 52.1923ZM124.327 28.9161C124.327 28.8266 124.507 28.8266 124.507 28.9161C125.407 35.3618 125.946 41.897 126.396 48.4323C126.576 51.7446 126.846 55.057 127.116 58.3694C127.386 61.5027 127.836 64.8151 127.746 67.9485C127.566 72.9618 125.137 76.9904 121.178 79.8551C117.31 82.6304 112.632 84.0627 107.954 84.5999C105.255 84.958 102.466 84.958 99.7672 84.5999C98.3278 84.4208 96.9784 84.2418 95.539 83.8837L94.9093 83.7046C93.8297 83.4361 92.5702 83.078 92.4803 81.8246C92.3903 81.198 92.7501 80.7504 93.2899 80.4818C94.0096 80.0342 94.8193 80.3027 95.539 80.4818C96.7085 80.7504 97.968 81.0189 99.2275 81.2875C101.926 81.6456 104.625 81.7351 107.234 81.4666C111.732 81.0189 116.41 79.5866 119.919 76.5427C121.448 75.2894 122.708 73.678 123.427 71.798C124.327 69.3808 124.147 66.7846 124.147 64.1885C124.057 58.2799 124.147 52.4608 124.057 46.5523C123.877 40.6437 123.967 34.8246 124.327 28.9161ZM79.1658 1.43226C84.3836 0.0894077 89.6914 -0.268688 95.0892 0.178932C100.127 0.537027 105.975 1.70084 110.113 4.74465C110.293 4.92369 110.203 5.19227 109.933 5.10274C107.144 4.65512 104.445 3.84941 101.656 3.31226C98.9576 2.77512 96.2587 2.41703 93.5598 2.3275C84.3836 2.05893 74.2178 4.11798 66.8409 9.75798C63.4223 12.4437 60.7234 16.0246 59.7338 20.2323C58.6542 24.6189 59.284 29.2742 61.4431 33.2132C61.713 33.7504 61.623 34.6456 60.9933 35.0037C59.0141 35.8989 57.5747 37.958 57.6646 40.1066C57.6646 41.1808 58.0245 42.1656 58.6542 43.0608C59.284 43.9561 60.2736 44.6723 60.9033 45.478C61.1732 45.8361 61.1732 46.2837 60.9933 46.6418C61.4431 46.8208 61.8029 46.9104 62.2527 47.0894C62.6126 47.2685 62.6126 47.8056 62.2527 47.9846C61.3531 48.4323 60.3635 47.9846 59.8238 47.2685C59.7338 47.1789 59.6438 46.9999 59.5539 46.9104C58.8342 46.7313 58.2044 46.3732 57.6646 45.9256C56.5851 46.5523 56.4052 47.9846 57.3948 49.0589C57.8446 49.5961 58.5643 49.9542 59.194 50.2227H59.284C59.9137 50.4913 60.5435 50.5808 60.9933 51.118C61.2632 50.4913 61.623 49.9542 61.9829 49.5065C63.3323 47.7161 65.3115 46.1046 67.7405 46.2837C69.6297 46.4627 71.249 47.8056 71.6089 49.5961C71.6089 49.7751 71.429 49.8646 71.339 49.6856C70.4394 47.6266 67.5606 47.537 65.9412 48.6113C63.962 49.8646 62.8825 52.2818 62.4327 54.5199C61.9829 56.758 62.2527 59.4437 63.8721 61.0551C64.5918 61.7713 65.4914 62.2189 66.481 62.3085C66.9308 62.398 67.3806 62.3085 67.8304 62.2189L68.1003 62.1294C68.2803 62.1294 68.5501 62.0399 68.7301 62.0399H69.0899L69.2698 62.1294C69.4498 62.2189 69.4498 62.2189 69.2698 62.0399C69.8096 62.0399 70.0795 62.398 70.1695 62.8456C70.1695 62.8456 70.1695 62.8456 70.2594 62.8456C72.3286 65.3523 73.858 68.3065 76.107 70.7237L76.7368 71.4399C78.4461 73.3199 80.3353 75.2894 82.5844 76.2742L82.8542 76.3637C83.484 76.6323 84.2037 76.9904 84.2936 77.7961C84.3836 78.5123 83.8438 79.0494 83.1241 79.2285C81.6847 79.5866 79.9754 78.3332 78.8959 77.438C76.5568 75.6475 74.6676 73.2304 73.0483 70.8132L72.8684 70.5446C71.5189 68.4856 70.2594 66.158 69.8996 63.7408L69.8096 63.8304C69.7197 63.9199 69.6297 64.0094 69.5397 64.0989C69.2699 64.3675 68.91 64.457 68.5501 64.5465C67.9204 64.7256 67.2007 64.7256 66.571 64.7256C65.2215 64.5466 63.962 64.0989 62.8825 63.2932C59.6438 60.7865 59.284 56.0418 60.5435 52.2818C59.4639 52.5504 58.2044 51.8342 57.3948 51.2075C56.4052 50.4913 55.5955 49.5066 55.4156 48.2532C55.2356 47.0894 55.9553 45.478 57.1249 45.0304C55.9553 43.598 55.2356 41.6285 55.2356 40.017C55.1457 37.2418 56.5851 34.6456 58.8342 33.1237C56.6751 28.558 56.3152 23.2761 57.7546 18.4418C60.3635 9.13131 69.9896 3.75988 79.1658 1.43226ZM70.9791 74.3942C71.249 73.5885 71.5189 72.0666 72.6884 72.6932C73.768 73.2304 73.0483 74.8418 72.6884 75.558C72.2386 76.4532 71.429 77.2589 70.4394 77.438C69.6297 77.617 68.6401 77.3485 68.1003 76.7218C67.9204 76.5427 67.8304 76.3637 67.7405 76.0951C67.7405 76.0056 67.6505 75.9161 67.6505 75.9161C67.6505 75.9161 67.6505 76.0056 67.5606 76.0951C67.1107 76.6323 66.6609 77.1694 66.3011 77.7961C66.2111 77.9751 65.9412 77.7961 66.0312 77.7066C66.391 76.7218 66.391 75.2894 67.2907 74.5732C68.1003 73.9466 68.82 74.4837 69.1799 75.1999C69.8096 76.2742 70.7093 75.1999 70.9791 74.3942ZM62.5226 70.9027L62.6126 70.8132C63.4223 69.6494 64.8617 68.3065 66.3011 69.3808C66.7509 69.7389 66.7509 70.2761 66.3011 70.6342L66.0312 70.7237C65.4014 71.1713 64.7717 71.5294 64.3219 72.1561C63.8721 72.8723 63.4223 73.5885 62.7026 74.0361C61.533 74.9313 59.6438 75.1999 58.6542 73.857L58.5643 73.7675C58.4743 73.678 58.3843 73.4989 58.2944 73.4094L58.2044 73.4989C57.7546 74.1256 57.3048 74.6627 56.5851 75.1104C55.3256 75.9161 53.9762 76.0056 52.5368 75.6475C52.3568 75.6475 52.4468 75.3789 52.5368 75.3789C54.2461 75.1999 55.8654 74.0361 56.4951 72.5142L56.5851 72.3351C56.855 71.7085 57.1249 71.1713 57.8446 70.9027C58.4743 70.6342 59.194 70.9027 59.6438 71.4399C60.0037 71.8875 60.0936 72.6932 60.8133 72.5142C61.713 72.4246 62.0728 71.4399 62.5226 70.9027ZM57.7546 60.7866C58.1145 60.518 58.7442 60.7866 58.8342 61.2342C59.284 63.0246 57.3948 65.2627 55.5055 65.2627C55.0557 65.2627 54.6059 65.1732 54.1561 64.9046C53.7962 64.7256 53.4364 64.278 53.0765 64.1885C52.6267 64.0989 52.1769 64.7256 51.907 64.9942C51.5472 65.3523 51.0974 65.7104 50.6475 66.0685C50.4676 66.158 50.1977 65.9789 50.2877 65.7999L50.4676 65.3523C51.0074 63.9199 51.997 61.7713 53.7962 62.398C54.6959 62.6665 55.3256 63.6513 56.2252 62.9351C56.855 62.4875 56.9449 61.4132 57.7546 60.7866ZM65.5814 53.4456C67.2007 51.5656 71.1591 52.5504 71.8788 54.878C72.0587 55.4151 71.8788 56.0418 71.429 56.3999C70.8892 56.8475 70.1695 57.0266 69.5397 56.6685C69 56.3104 68.7301 55.8627 68.3702 55.4151C67.7405 54.7885 66.9308 54.4304 66.1211 54.1618C65.9412 54.2513 65.7613 54.4304 65.5814 54.6094C65.4914 54.6989 65.3115 54.6094 65.4014 54.4304C65.4914 54.2513 65.6713 54.1618 65.7613 54.0723H65.6713C65.4914 53.8932 65.4914 53.6246 65.5814 53.4456ZM76.3769 32.497C76.7368 32.497 77.1866 32.8551 77.0966 33.2132V33.3027C77.0066 34.1085 76.7368 34.5561 75.9271 34.9142C75.2974 35.1827 74.5777 35.3618 73.858 35.4513C73.5881 35.4513 73.3182 35.4513 72.9583 35.4513L72.8684 35.8094C72.7784 36.5256 72.5985 37.2418 72.5985 37.958C72.5985 39.3008 73.0483 40.3751 73.5881 41.6285C74.6676 43.9561 74.7576 46.1942 73.5881 48.5218C73.4081 48.8799 72.9583 49.1485 72.5985 49.0589C72.1487 49.0589 71.8788 48.8799 71.6089 48.5218C71.339 48.1637 71.429 47.7161 71.6089 47.358C72.1487 46.2837 72.3286 45.0304 72.0587 43.8666C71.7888 42.7027 71.1591 41.718 70.8892 40.5542C70.4394 38.7637 70.8892 36.8837 71.8788 35.3618C71.1591 35.1827 70.5293 34.8246 70.0795 34.2875C69.8996 34.1085 69.9895 33.7504 70.2594 33.7504H70.6193C71.6089 33.8399 72.4185 33.9294 73.4081 33.6608C73.858 33.5713 74.3078 33.3027 74.7576 33.0342L74.8475 32.9446C75.4773 32.5866 75.8371 32.497 76.3769 32.497ZM78.7159 18.9789C81.055 18.8894 83.1241 20.4113 84.1137 22.4704C85.1933 24.7085 84.7435 27.3046 83.7539 29.4532L83.484 30.0799C83.0342 31.1542 82.4044 32.4075 81.4148 33.0342C80.3353 33.6608 79.4356 32.9446 79.7055 31.7808C79.8855 31.0646 80.4252 30.5275 80.7851 29.9008C81.1449 29.3637 81.5048 28.8266 81.8646 28.1999C82.4944 27.0361 82.9442 25.7827 82.9442 24.4399C82.9442 22.0227 81.3249 19.2475 78.626 19.2475C78.4461 19.2475 78.4461 18.9789 78.7159 18.9789ZM90.681 15.0399C90.5011 14.9504 90.681 14.6818 90.8609 14.7713C93.6498 16.4723 95.629 19.7846 96.0788 23.0075C96.3487 24.798 96.1687 26.678 95.3591 28.2894C94.9093 29.2742 94.1896 30.1694 93.11 30.3485C92.1204 30.617 91.1308 30.0799 90.8609 29.0951C90.771 28.737 90.9509 28.3789 91.2208 28.1999C92.2104 27.5732 93.02 26.7675 93.4698 25.6932C93.9197 24.5294 94.0996 23.3656 94.1895 22.1123C94.0996 19.2475 92.9301 16.8304 90.681 15.0399ZM124.237 16.2932C124.147 16.1142 124.237 15.9351 124.417 16.0246C126.396 17.0989 127.656 19.0685 128.016 21.217C128.375 23.3656 127.926 26.2304 126.216 27.7523C125.317 28.6475 123.607 27.4837 124.417 26.3199C124.957 25.5142 125.587 24.8875 125.856 23.9027C126.126 23.097 126.216 22.2018 126.216 21.3961C126.216 19.6056 125.497 17.7256 124.237 16.2932ZM99.9472 13.6075C103.366 13.4285 105.435 17.278 105.885 20.1427C106.155 21.9332 105.975 23.7237 104.985 25.2456L104.895 25.3351C104.085 26.5885 102.646 27.9313 101.027 27.3942C100.397 27.1256 100.217 26.4094 100.667 25.8723C101.387 25.0666 102.466 24.7085 103.096 23.8132C103.816 22.8285 104.085 21.5751 103.995 20.3218V20.2323C103.906 17.9942 102.826 13.697 100.037 13.7865C99.7672 13.8761 99.7672 13.6075 99.9472 13.6075ZM110.563 12.9808C113.801 12.5332 115.871 16.3827 116.5 19.0685C116.86 20.6799 116.95 22.5599 116.5 24.1713V24.2608C116.14 25.5142 114.881 27.5732 113.352 26.9466C112.902 26.7675 112.542 26.3199 112.722 25.7827C112.992 25.1561 113.352 24.977 113.891 24.5294C114.251 24.1713 114.521 23.7237 114.701 23.2761C115.241 22.1123 115.331 20.6799 115.241 19.4266V19.2475C115.061 16.7408 113.711 12.9808 110.653 13.0704C110.383 13.1599 110.383 12.9808 110.563 12.9808ZM116.59 9.39988C118.39 8.68369 119.919 10.4742 120.998 11.638C122.348 13.1599 123.517 14.8608 124.147 16.8304C124.777 18.5313 124.867 20.5008 124.327 22.2018C124.057 23.097 123.607 23.9027 123.068 24.6189L122.978 24.7085C122.348 25.4246 121.808 25.8723 120.819 25.6037C120.459 25.5142 120.279 25.0666 120.369 24.7085C120.549 23.9027 120.909 23.7237 121.448 23.1866C121.898 22.7389 122.258 22.1123 122.528 21.4856C122.978 20.1427 123.068 18.7999 122.708 17.457C122.348 15.9351 121.628 14.5923 120.819 13.2494L120.639 12.9808C119.739 11.638 118.48 9.48941 116.68 9.66846C116.41 9.66846 116.41 9.39988 116.59 9.39988Z" fill="#282828"/>
</g>
<mask id="mask4_5154_1216" style="mask-type:luminance" maskUnits="userSpaceOnUse" x="0" y="0" width="242" height="188">
<path d="M242 0H0V188H242V0Z" fill="white"/>
</mask>
<g mask="url(#mask4_5154_1216)">
<path fill-rule="evenodd" clip-rule="evenodd" d="M110.565 52.0133C112.004 52.819 114.073 54.878 112.634 56.9371C110.835 58.8171 108.316 56.6685 107.056 55.6837C105.887 54.9676 104.537 56.8476 105.617 57.7428C114.703 64.4571 118.482 52.1923 111.285 51.0285C110.475 50.8495 110.205 51.7447 110.565 52.0133ZM97.8801 35.8095L98.24 35.7199H98.4199C99.4995 35.5409 100.669 35.4514 101.389 36.2571C101.839 36.7047 101.928 37.5999 101.389 38.0475C100.399 38.8533 99.4095 38.4952 98.24 38.5847C97.2504 38.6742 96.3508 38.7637 95.4511 39.0323C93.472 39.5695 91.8526 40.6437 90.1433 41.8075C89.9634 41.9866 89.6935 41.6285 89.7835 41.4495C90.7731 39.5695 92.6623 37.958 94.6415 36.9733C95.6311 36.4361 96.7106 35.9885 97.8801 35.8095ZM107.146 62.3085C110.205 62.4876 116.862 61.0552 119.561 63.2933C129.907 76.1847 88.7939 79.4971 93.2021 65.2628C96.0809 60.6076 102.558 62.4876 107.146 62.3085ZM106.607 70.0971C105.887 70.0076 104.897 70.6342 104.717 71.0818C104.537 71.5295 104.537 72.5142 104.627 72.6933C105.977 72.7828 107.326 72.8723 108.586 72.7828C108.226 71.619 108.226 70.2761 106.607 70.0971ZM112.724 71.9771C112.544 70.5447 111.465 70.2761 110.655 70.4552C109.845 70.6342 109.305 71.619 109.395 72.5142C109.395 72.6037 109.395 72.6037 109.305 72.6933C110.475 72.5142 111.644 72.3352 112.724 71.9771ZM103.368 70.3656C102.918 69.6495 101.749 69.2914 101.029 69.3809C99.8593 69.6495 99.6794 71.1714 99.6794 71.4399C100.759 71.8876 101.928 72.1561 103.098 72.3352C103.278 72.3352 103.548 72.4247 103.728 72.4247V72.2456C103.728 71.9771 103.728 70.9923 103.368 70.3656ZM116.772 70.2761C115.513 68.3961 112.904 69.739 113.174 71.798C113.444 71.7085 113.624 71.619 113.894 71.5295C114.883 71.1714 115.873 70.8133 116.772 70.2761ZM107.236 63.7409C105.617 63.5618 104.268 63.6514 103.188 63.8304V64.1885C103.098 65.4418 102.918 66.6056 103.548 67.1428C104.088 67.5009 105.797 67.5009 107.056 67.2323C107.236 67.1428 107.596 64.6361 107.236 63.7409ZM109.755 63.6514C109.485 64.9047 109.395 66.3371 109.935 66.7847C110.475 67.2323 112.274 67.1428 112.724 66.8742C113.174 66.6056 113.084 65.3523 112.994 64.0095C112.004 63.7409 110.475 63.6514 109.755 63.6514ZM102.378 63.9199H101.839H101.569C100.759 63.9199 99.9493 64.0095 99.1396 64.1885C97.6103 67.5009 103.278 68.1276 102.378 64.099V63.9199ZM113.714 63.9199V64.099C113.624 65.0837 113.714 66.2476 114.253 66.6056C115.063 67.0533 116.502 66.9637 117.222 64.7256C116.952 64.099 114.163 64.0095 113.714 63.9199ZM98.5099 43.9561C98.8697 43.9561 99.1396 44.0456 99.4095 44.3142C99.6794 44.4933 99.9493 44.8514 100.129 45.2095C100.489 45.9256 100.759 46.9104 100.759 47.8952C100.759 48.9695 100.489 49.9542 100.129 50.5809C99.9493 50.939 99.6794 51.2076 99.4095 51.4761C99.1396 51.6552 98.7798 51.8342 98.5099 51.8342C98.15 51.8342 97.8801 51.7447 97.6103 51.4761C97.3404 51.2971 97.0705 50.939 96.8906 50.5809C96.5307 49.8647 96.2608 48.8799 96.2608 47.8952C96.2608 46.8209 96.5307 45.8361 96.8906 45.2095C97.0705 44.8514 97.3404 44.5828 97.6103 44.3142C97.8801 44.1352 98.24 43.9561 98.5099 43.9561ZM119.471 43.9561C119.831 43.9561 120.101 44.0456 120.371 44.3142C120.641 44.4933 120.911 44.8514 121.091 45.2095C121.45 45.9256 121.72 46.9104 121.72 47.8952C121.72 48.9695 121.45 49.9542 121.091 50.5809C120.911 50.939 120.641 51.2076 120.371 51.4761C120.101 51.6552 119.741 51.8342 119.471 51.8342C119.201 51.8342 118.841 51.7447 118.572 51.4761C118.302 51.2971 118.032 50.939 117.852 50.5809C117.492 49.8647 117.222 48.8799 117.222 47.8952C117.222 46.8209 117.492 45.8361 117.852 45.2095C118.032 44.8514 118.302 44.5828 118.572 44.3142C118.841 44.1352 119.111 43.9561 119.471 43.9561ZM116.592 35.0037L116.862 35.0933H117.042C119.921 35.7199 123.61 36.8837 124.959 39.7485C125.049 40.1066 124.959 40.1961 124.869 40.2856C124.869 40.3752 124.779 40.3752 124.599 40.4647C124.509 40.4647 124.509 40.4647 124.419 40.4647C123.789 40.2856 123.25 40.1066 122.8 39.838L122.26 39.5695C121.63 39.3009 121.001 39.0323 120.371 38.7637C119.021 38.3161 117.582 37.958 116.143 37.8685C115.873 37.8685 115.513 37.6895 115.243 37.5104C114.973 37.3314 114.883 37.0628 114.793 36.7942C114.703 36.3466 114.703 36.078 114.973 35.7199C115.153 35.4514 115.333 35.2723 115.693 35.1828C115.963 34.9142 116.323 34.9142 116.592 35.0037Z" fill="#282828"/>
</g>
</g>
<defs>
<clipPath id="clip0_5154_1216">
<rect width="242" height="188" fill="white"/>
</clipPath>
</defs>
</svg>
