<svg width="259" height="189" viewBox="0 0 259 189" fill="none" xmlns="http://www.w3.org/2000/svg">
<path fill-rule="evenodd" clip-rule="evenodd" d="M272.048 228.705C260.269 229.035 249.142 229.399 237.386 228.705C218.573 227.54 163.365 229.639 151.229 228.705C150.313 228.634 147.163 229.639 147.098 228.705C146.564 222.199 146.218 156.377 147.804 151.848C149.389 147.319 157.211 125.547 167.18 115.394C169.96 112.652 174.189 111.589 176.525 108.421C178.54 104.964 178.384 102.935 180.373 101.117C181.237 100.328 183.273 100.008 184.786 98.9127C186.306 97.4003 184.867 94.0714 185.491 91.9654C186.778 86.7061 191.519 83.3326 196.701 82.5377C203.903 80.814 211.507 82.4439 214.957 88.1038C216.242 90.2108 215.558 92.7712 217.138 96.1474C217.025 98.6979 220.003 99.3143 221.782 100.326L225.317 103.899C236.204 110.027 249.012 113.337 258.553 121.57C266.663 129.802 274.731 139.316 278.33 150.452C279.075 153.487 279.318 156.623 279.627 159.724C280.508 168.785 282.963 177.581 285.075 186.408C287.483 197.528 289.728 209.334 286.482 220.56C285.546 222.937 274.179 228.594 272.048 228.705Z" fill="white"/>
<path fill-rule="evenodd" clip-rule="evenodd" d="M215.586 89.0094C215.492 88.7008 215.085 88.7873 215.055 89.0805C214.749 91.9823 215.134 95.0153 215.503 97.8981C215.68 99.2894 215.782 100.736 216.051 102.108C216.086 102.255 216.119 102.402 216.15 102.549C216.062 102.707 215.799 102.884 215.675 103.005L215.132 103.533L214.044 104.587C211.914 106.65 209.784 108.715 207.655 110.779L204.529 113.809C203.457 114.848 202.24 115.843 201.299 117.002C200.789 117.631 200.673 118.402 201.176 119.076C201.424 119.409 201.87 119.652 202.322 119.702C202.146 119.948 202.009 120.227 201.923 120.537C201.745 121.168 202.383 121.944 203.063 121.679C203.834 121.384 204.471 120.853 205.256 120.599C206.048 120.34 206.911 120.291 207.732 120.429C208.109 120.492 208.479 120.587 208.838 120.706C204.988 122.479 200.824 123.497 196.576 123.643C195.711 123.672 194.847 123.66 193.987 123.603C192.541 123.508 191.104 123.288 189.691 122.935C188.582 122.656 187.483 122.305 186.417 121.882C185.895 121.674 185.376 121.445 184.877 121.185L184.833 121.16C184.72 121.089 182.629 119.903 182.593 119.725C182.557 119.547 182.557 119.484 182.625 119.329C182.693 119.175 182.882 119.067 182.882 119.067C183.527 118.791 184.196 118.534 184.901 118.53C186.526 118.52 188.297 119.721 189.64 120.539C191.115 121.437 192.471 122.488 193.891 123.462C193.924 123.485 193.96 123.495 193.995 123.495C194.145 123.495 194.283 123.309 194.187 123.165C193.17 121.667 191.797 120.419 190.36 119.329L189.781 118.895C188.465 117.913 186.926 116.826 185.326 116.59C183.367 116.301 181.32 117.523 179.571 118.239L176.474 119.507C175.922 119.732 175.321 119.925 174.766 120.181L176.063 116.119C176.712 114.087 177.359 112.055 177.999 110.022L178.124 109.623C178.761 107.56 179.348 105.413 180.41 103.527C180.664 103.074 180.954 102.649 181.241 102.22C181.539 101.776 181.651 101.285 182.026 100.888C182.768 100.102 183.832 99.639 184.847 99.3376C185.096 99.2639 185.022 98.937 184.79 98.9124C183.748 98.8022 182.754 99.0454 181.812 99.4851L181.42 99.6718C180.53 100.093 179.661 100.486 179 101.242C177.492 102.971 176.709 105.147 175.989 107.294L175.797 107.87C175.528 107.782 173.698 108.34 173.469 108.472C166.611 111.373 161.329 116.773 157.466 123.1C153.235 130.034 150.93 137.956 149.027 145.797C148.441 148.216 147.879 150.644 147.339 153.076C149.743 154.001 152.297 154.485 154.547 155.788C155.403 156.284 154.629 157.616 153.77 157.118C151.663 155.897 149.263 155.446 147.007 154.589C145.785 160.221 144.696 165.882 143.785 171.569C140.986 189.019 139.219 206.754 139.33 224.443C139.332 224.835 139.447 225.271 139.661 225.646C139.536 225.585 139.437 225.511 139.382 225.423C138.672 224.309 136.893 225.343 137.606 226.463L137.711 226.625C138.246 227.451 138.746 228.082 139.688 228.548C140.636 229.018 141.663 229.097 142.71 229.124C146.266 229.218 149.826 229.279 153.387 229.323C153.875 225.512 154.073 221.666 154.746 217.878C154.919 216.905 156.402 217.318 156.23 218.288C155.58 221.946 155.372 225.659 154.919 229.341C162.531 229.423 170.147 229.424 177.753 229.446C188.061 229.476 198.368 229.454 208.675 229.449L213.093 229.447C225 229.447 236.908 229.409 248.815 229.33L251.647 229.31C252.774 222.667 253.54 215.966 253.555 209.216C253.557 208.225 255.096 208.223 255.094 209.216C255.079 215.959 254.321 222.66 253.205 229.301C256.024 229.289 258.842 229.299 261.662 229.399L263.097 229.45C265.968 229.549 268.845 229.609 271.711 229.38C274.893 229.124 278.111 228.539 280.964 227.04C282.249 226.364 283.38 225.499 284.347 224.483C283.364 223.911 282.367 223.362 281.415 222.739C280.59 222.198 281.36 220.865 282.192 221.409C283.218 222.081 284.296 222.666 285.352 223.287C286.117 222.266 286.745 221.133 287.222 219.91C287.974 217.98 288.264 215.903 288.516 213.859C288.814 211.452 288.938 209.025 288.938 206.601C288.938 201.501 288.401 196.417 287.652 191.378C286.937 186.552 285.99 181.764 284.99 176.992L284.853 176.341C283.867 171.65 282.926 166.944 281.795 162.285C280.749 157.977 279.54 153.688 278.1 149.484C276.818 150.277 275.476 150.97 274.214 151.796C273.383 152.341 272.611 151.009 273.437 150.468C274.784 149.586 276.22 148.853 277.579 147.992C275.968 143.49 274.078 139.092 271.811 134.879C267.271 126.445 261.154 118.899 253.319 113.33C249.396 110.543 245.093 108.263 240.574 106.604C235.967 104.91 231.193 103.983 226.31 103.602C226.171 103.591 226.093 103.72 226.098 103.839L226.101 103.861L225.908 103.892C225.837 103.41 225.691 102.942 225.412 102.513C224.777 101.535 223.573 100.907 222.611 100.307L222.383 100.165C221.239 99.456 220.031 98.7567 218.7 98.5081C218.654 98.4999 218.626 98.5482 218.657 98.5846C219.534 99.5917 220.656 100.361 221.685 101.212L221.922 101.41C222.774 102.111 223.963 102.908 223.994 104.081C224.031 105.463 223.748 106.901 223.646 108.278C223.544 109.652 223.473 111.024 223.437 112.402C223.304 117.338 223.463 122.277 223.9 127.194L221.969 125.9C218.963 123.887 215.948 121.88 212.87 119.996C211.008 118.855 208.915 117.879 206.683 117.923C206.058 117.934 205.352 118.025 204.675 118.218C205.404 117.527 206.102 116.792 206.816 116.097C207.991 114.952 209.167 113.807 210.342 112.664L213.731 109.362L217.121 106.059C218.171 105.034 219.402 104.089 219.291 102.473C219.2 101.183 218.545 99.8994 218.097 98.6566C218.033 98.4772 217.975 98.3005 217.922 98.1248C217.018 95.1191 216.504 92.0033 215.586 89.0094ZM171.786 217.982C172.487 217.281 173.575 218.369 172.874 219.071L172.503 219.44C171.884 220.058 171.27 220.696 170.841 221.46L170.778 221.575C170.316 222.452 168.988 221.675 169.449 220.799C170.02 219.715 170.929 218.84 171.786 217.982ZM201.821 217.785C204.052 217.359 206.203 217.359 208.435 217.785C209.406 217.97 208.995 219.455 208.026 219.269C206.074 218.896 204.182 218.896 202.23 219.269C201.262 219.454 200.847 217.97 201.821 217.785ZM231.959 202.266C232.919 202.022 233.329 203.507 232.368 203.751L231.895 203.869C230.286 204.267 228.754 204.563 227.084 204.194C226.129 203.983 226.515 202.535 227.455 202.702L227.492 202.709C229.039 203.051 230.463 202.645 231.959 202.266ZM178.434 192.266C179.145 191.575 180.234 192.663 179.523 193.355C178.634 194.219 177.588 194.876 176.319 194.91C175.343 194.938 175.33 193.444 176.276 193.373L176.319 193.37C177.169 193.347 177.846 192.838 178.434 192.266ZM269.005 188.154C268.119 187.711 268.897 186.383 269.781 186.826L275.1 189.485C275.986 189.929 275.208 191.257 274.323 190.815L269.005 188.154ZM163.909 188.494C164.899 188.465 164.899 190.005 163.909 190.033C162.978 190.059 162.024 190.412 161.194 190.815C160.308 191.245 159.526 189.919 160.418 189.485C161.502 188.959 162.692 188.527 163.909 188.494ZM213.603 181.06C212.789 180.506 213.558 179.172 214.38 179.731C215.502 180.494 216.519 181.394 217.622 182.18L217.926 182.391C218.74 182.945 217.971 184.28 217.149 183.721C215.926 182.888 214.827 181.892 213.603 181.06ZM156.374 169.871C157.365 169.87 157.367 171.41 156.374 171.411L156.187 171.41C155.369 171.406 154.507 171.383 153.747 171.71L153.66 171.749C152.769 172.169 151.987 170.842 152.883 170.42C153.998 169.895 155.163 169.871 156.374 169.871ZM241.839 168.771L241.71 168.723C240.784 168.391 241.183 166.902 242.119 167.239C243.529 167.745 244.625 168.702 245.848 169.533C246.663 170.086 245.894 171.421 245.071 170.863C244.018 170.146 243.037 169.24 241.839 168.771ZM184.116 164.766L183.909 164.655C183.027 164.201 183.805 162.873 184.685 163.326C185.384 163.685 186.008 164.163 186.694 164.545L186.902 164.656C187.782 165.109 187.004 166.438 186.125 165.985C185.426 165.626 184.801 165.148 184.116 164.766ZM207.527 149.854L207.685 149.701C208.394 149.007 209.483 150.095 208.774 150.79C207.003 152.524 204.909 153.84 202.798 155.113L202.413 155.344C201.562 155.855 200.787 154.524 201.637 154.014L202.2 153.676C204.078 152.543 205.934 151.373 207.527 149.854ZM250.114 148.417C249.517 147.642 250.815 146.883 251.421 147.613L251.443 147.64C252.064 148.446 252.801 149.177 253.571 149.843L253.716 149.968C254.175 150.358 255.009 151.194 255.654 151.249C256.633 151.333 256.642 152.873 255.654 152.789C254.657 152.704 253.799 152.002 253.046 151.4C251.95 150.525 250.969 149.528 250.114 148.417ZM168.24 142.808C167.525 142.136 168.582 141.067 169.303 141.698L169.328 141.72C170.665 142.976 172.587 143.313 174.307 143.739C175.268 143.978 174.861 145.462 173.898 145.224L173.114 145.03C171.356 144.591 169.592 144.08 168.24 142.808ZM198.719 133.098C199.678 132.854 200.088 134.339 199.127 134.583C197.495 134.997 195.949 135.533 194.436 136.278C193.55 136.714 192.77 135.387 193.659 134.949C195.287 134.147 196.96 133.545 198.719 133.098ZM182.997 100.644C183.02 100.575 182.947 100.496 182.876 100.52C181.149 101.165 182.067 103.428 182.604 104.783L182.701 105.029C183.542 107.201 184.716 109.313 185.998 111.257C187.339 113.292 188.827 115.239 190.44 117.067C191.139 117.861 191.864 118.632 192.614 119.379L192.897 119.659C193.654 120.404 194.631 121.712 195.807 121.568C197.072 121.416 197.779 120.063 196.856 119.036C196.203 118.309 195.299 117.729 194.57 117.067C193.846 116.413 193.146 115.737 192.463 115.043C191.066 113.617 189.743 112.11 188.533 110.522C187.363 108.987 186.243 107.409 185.225 105.769L185.022 105.44C184.247 104.163 182.458 102.288 182.997 100.644ZM244.185 116.771C245.005 116.21 245.776 117.543 244.962 118.099C243.466 119.123 242.149 120.362 240.53 121.203C239.663 121.654 238.891 120.363 239.722 119.891L239.753 119.874C241.371 119.033 242.69 117.792 244.185 116.771Z" fill="#282828"/>
<path fill-rule="evenodd" clip-rule="evenodd" d="M209.796 19.8576C180.639 18.4231 167.482 38.9602 166.631 48.1331C166.04 54.5005 169.8 61.8396 169.8 67.5296C169.8 70.4342 166.246 76.6686 167.901 80.9017C171.584 90.3239 179.383 100.781 189.32 100.781C199.258 100.781 212.191 103.529 223.172 87.8008C224.202 86.3248 237.234 77.937 238.5 69.9671C241.654 50.1139 230.601 20.881 209.796 19.8576Z" fill="white"/>
<path fill-rule="evenodd" clip-rule="evenodd" d="M211.173 7.07692C210.13 5.88384 208.37 5.40654 206.807 5.49896C204.535 5.63363 202.559 7.03649 200.298 7.14047C197.929 7.2501 195.642 6.42843 193.266 6.8094C191.809 7.04423 190.367 7.71966 189.434 8.85893C186.202 7.93328 182.693 9.15913 180.635 11.836C178.096 11.4415 175.333 13.1237 174.557 15.5713C171.331 15.6753 168.285 18.2674 167.925 21.5158C166.637 21.8565 165.517 22.7458 164.83 23.9214C164.032 25.2839 163.899 26.8465 164.044 28.3822C162.526 29.1578 161.754 30.8242 161.552 32.587C160.166 33.6224 159.563 35.4833 159.846 37.2403C158.784 37.8388 158.235 39.232 158.242 40.4753C158.247 41.6357 158.555 42.6635 158.122 43.7833C157.736 44.7807 157.598 45.612 157.81 46.6567L157.832 46.7584C157.869 46.9288 157.901 47.0921 157.929 47.2532C157.643 47.5053 157.399 47.8213 157.216 48.1889C156.552 49.5321 156.651 51.0642 157.158 52.4264C156.936 53.294 156.964 54.2104 157.292 55.0442C156.677 55.9304 156.354 57.0173 156.449 58.145C156.555 59.4077 157.132 60.5384 158.006 61.3742C157.773 63.0988 158.474 64.9627 159.741 66.1764C159.562 67.209 159.717 68.2916 160.281 69.2695C160.684 69.9679 161.225 70.4869 161.851 70.8493C161.83 71.4257 161.908 72.0148 162.1 72.6048C162.365 73.4234 162.816 74.1782 163.409 74.7855C163.056 77.0482 164.41 79.5595 166.793 80.1941C166.994 80.2478 167.184 80.2724 167.367 80.2761C167.604 82.4522 168.121 84.5984 168.922 86.6361C170.957 91.8262 174.659 96.3643 179.484 99.1952C181.872 100.594 184.553 101.553 187.291 101.953C189.261 102.242 191.156 102.17 193.133 101.974C195.615 101.726 198.108 101.354 200.52 100.716L200.908 100.612C201.908 100.344 202.963 100.035 203.829 99.4956C204.798 98.891 205.302 97.9596 205.525 96.8624C205.65 96.2523 205.264 95.5958 204.595 95.5831H204.552C204.406 95.5858 204.261 95.5803 204.114 95.5712L204.003 95.5639H203.998C203.991 95.5621 203.986 95.5621 203.979 95.5621C203.913 95.5521 203.849 95.533 203.787 95.523C203.052 95.3991 202.409 95.5221 201.719 95.7515L201.632 95.7816C200.47 96.1813 199.318 96.5528 198.118 96.8278C196.877 97.111 195.62 97.3358 194.361 97.5134L194.235 97.5289L194.197 97.5344L194.178 97.5362C194.174 97.5362 194.17 97.5362 194.166 97.538L193.795 97.5844C193.502 97.619 193.21 97.65 192.918 97.6809C192.379 97.7347 191.84 97.7765 191.301 97.8075C182.005 98.3311 174.197 91.0085 171.84 82.2292C170.986 79.0523 170.93 75.8827 171.182 72.7113C171.263 72.48 171.311 72.2242 171.309 71.9437C171.309 71.7971 171.301 71.6524 171.291 71.5067C171.606 68.4391 172.149 65.3697 172.491 62.2902C172.889 58.6937 173.11 55.076 173.029 51.456C172.989 49.6682 172.798 47.8977 172.548 46.1274L172.458 45.4914C173.588 45.2707 174.639 44.7346 175.475 43.9584C177.291 45.0073 179.64 45.1002 181.432 43.9927C183.441 45.2526 186.247 45.3669 188.269 44.1351C189.491 45.008 191.031 45.3846 192.543 45.0533C193.223 44.9043 193.899 44.582 194.478 44.1357C194.892 44.2087 195.31 44.2369 195.727 44.2151L195.813 44.2633C196.773 44.7694 197.836 45.1025 198.931 45.0654C199.741 45.0381 200.575 44.8781 201.348 44.5756C202.174 45.074 203.077 45.4143 204.043 45.5363C205.455 45.7143 206.978 45.4019 208.152 44.601C210.297 45.8234 212.936 46.0116 215.251 45.1903C215.725 45.9937 216.381 46.6865 217.15 47.2205C217.012 47.7136 216.968 48.2393 217.016 48.7448C217.093 49.577 217.302 50.3231 217.643 50.9931C217.283 51.7413 217.175 52.6601 217.376 53.5822C217.663 54.8974 218.428 56.0415 219.419 56.9325C219.505 59.0313 220.656 60.9991 222.529 62.0927C222.624 62.1473 222.718 62.1928 222.812 62.2329C222.894 62.3467 222.993 62.4459 223.106 62.5297C224.297 63.6306 226.181 63.5431 227.675 62.9212C227.703 62.9222 227.732 62.9249 227.761 62.9258C228.294 62.9385 228.657 62.7309 228.873 62.425C229.09 62.4368 229.306 62.4596 229.523 62.5006C230.316 62.6481 231.185 62.9331 231.903 63.3028C233.765 64.2606 234.627 65.9542 234.884 67.9902C235.165 70.211 234.527 72.4746 232.809 73.9779C231.974 74.709 230.906 75.167 229.821 75.3592C228.623 75.5731 227.341 75.0478 226.457 76.0767C226.28 76.2806 226.158 76.5656 226.255 76.8406C226.555 77.6992 227.049 78.0279 227.823 78.1472C226.705 79.4739 225.558 80.755 224.289 81.9469C222.915 83.238 221.496 84.4882 220.256 85.9123C218.947 87.4192 217.763 89.0172 216.942 90.8447C216.473 91.8954 216.096 92.9789 215.69 94.0552L215.617 94.2428C215.165 95.3855 214.562 96.4872 215.259 97.6809C215.536 98.1499 216.164 98.6042 216.741 98.5296C218.366 98.3211 218.91 97.2229 219.41 95.7907C219.787 94.709 220.076 93.5972 220.481 92.5246C220.558 92.327 220.641 92.1303 220.727 91.9345C221.664 92.1959 222.695 91.9883 223.532 91.4538C224.425 91.8499 225.415 92.0484 226.372 92.0311C227.652 92.0083 228.822 91.6532 229.827 91.0113C229.907 90.9903 229.988 90.9694 230.068 90.9466C231.597 91.533 233.389 91.4283 234.774 90.4777C235.671 89.8631 236.285 89.0418 236.633 88.1276C237.792 88.1048 238.939 87.6942 239.769 86.872C240.532 86.1162 240.977 85.142 241.11 84.1294C242.107 83.9319 243.043 83.4493 243.776 82.6371C244.389 81.9578 244.761 81.0937 244.887 80.1959C246.102 79.849 247.197 79.0559 247.796 77.9496C248.353 76.9189 248.433 75.8017 248.161 74.7855L248.231 74.6835C249.483 74.028 250.438 72.9554 250.536 71.4229C250.564 70.9868 250.517 70.5506 250.399 70.1372C250.441 69.6756 250.414 69.2149 250.293 68.7678C251.976 67.1307 252.586 64.5001 251.672 62.3248C253.317 60.5548 253.752 57.7546 252.546 55.6534C253.373 54.6524 253.798 53.3766 253.727 52.014C253.638 50.3131 252.859 48.8272 251.926 47.4512C252.619 46.6853 252.988 45.6172 252.961 44.5858C252.923 43.0905 252.128 41.8031 251.133 40.737C252.001 38.1043 251.032 35.2485 248.902 33.582C249.333 32.8718 249.493 31.9924 249.352 31.1014C249.106 29.5446 247.938 28.4842 246.678 27.6451C246.942 26.787 246.873 25.8612 246.453 24.974C245.894 23.7905 244.837 23.04 243.735 22.405C243.45 19.7801 240.519 17.5381 238.06 18.8928C238.67 16.9396 236.914 14.8304 234.894 14.6072C233.905 11.6089 230.495 9.7192 227.429 10.4639C225.861 8.32007 222.942 7.49476 220.465 8.4144C217.741 6.32646 214.361 6.0166 211.173 7.07692ZM230.577 65.947C228.663 65.8432 227.228 67.4056 226.219 68.8352C225.273 70.1764 227.701 71.5932 228.409 70.1154C228.663 69.5882 228.952 69.03 229.338 68.5684C229.403 68.6585 229.461 68.7532 229.518 68.8497L229.575 68.9472C229.617 69.0182 229.661 69.091 229.698 69.1666C229.694 69.1803 229.752 69.3569 229.754 69.3651C229.912 69.844 230.256 70.1518 230.725 70.3175C231.331 70.5288 231.905 70.0726 232.099 69.5381C232.408 68.6831 231.689 67.9383 230.941 67.6005C231.676 67.4803 232.399 67.7307 232.93 68.297C233.003 68.3754 233.126 68.3125 233.13 68.2142C233.191 66.873 231.789 66.0125 230.577 65.947Z" fill="#282828"/>
<path fill-rule="evenodd" clip-rule="evenodd" d="M184.946 88.0558C186.525 88.513 188.219 88.5539 189.829 88.0817C191.288 87.6533 192.787 86.7104 193.862 85.463C194.816 84.3547 195.434 83.0081 195.41 81.5706C195.407 81.4064 195.348 81.2692 195.258 81.1629C195.161 81.0485 195.025 80.9698 194.88 80.9357C194.73 80.9006 194.572 80.913 194.437 80.9743C194.315 81.0296 194.211 81.1237 194.146 81.2611C193.98 81.478 193.816 81.6917 193.651 81.8994C192.323 83.5388 191.038 84.7637 189.041 85.2031C187.958 85.4416 186.877 85.3359 185.884 84.972C184.822 84.5826 183.861 83.898 183.109 83.0216C182.768 82.6257 182.367 82.4641 181.974 82.4613C181.529 82.4584 181.089 82.665 180.758 82.9955C180.432 83.3204 180.214 83.7617 180.195 84.2236C180.177 84.6289 180.309 85.0522 180.661 85.4298C181.82 86.6738 183.321 87.5853 184.946 88.0558ZM184.994 67.5247C183.376 68.5084 180.91 70.8024 182.651 73.2415C184.7 75.3919 187.651 72.9262 189.105 71.8111C190.454 70.9469 191.969 73.1695 190.718 74.1788C180.21 81.9579 175.946 67.7819 184.176 66.3679C185.082 66.2121 185.418 67.2203 184.994 67.5247ZM200.135 63.1958C200.655 62.8632 201.267 62.749 201.945 63.0576C202.475 63.2985 203.404 64.102 204.051 65.158C204.494 65.8808 204.808 66.7282 204.742 67.6113C204.727 67.8164 204.803 67.9675 204.922 68.0794C205.017 68.1677 205.153 68.2324 205.313 68.2528C205.449 68.2699 205.601 68.2545 205.725 68.2159C205.96 68.1424 206.085 67.9896 206.132 67.865C206.585 66.6622 206.39 65.3199 205.882 64.1089C205.197 62.4746 203.953 61.1057 203.138 60.6642C201.743 59.9087 200.098 59.8739 198.701 60.6436C197.512 61.2988 196.768 62.3563 196.029 63.4344C195.872 63.6637 195.716 63.8911 195.555 64.1147C195.232 64.5624 195.199 65.0067 195.325 65.3876C195.463 65.8094 195.817 66.1654 196.259 66.3519C196.667 66.5242 197.141 66.5484 197.561 66.3714C197.915 66.2218 198.241 65.9305 198.446 65.436C198.793 64.6031 199.371 63.6845 200.135 63.1958ZM173.715 65.0485C174.071 65.2341 174.35 65.2903 174.745 65.1718C174.964 65.1062 175.18 64.9804 175.349 64.8112C175.516 64.6436 175.637 64.4353 175.684 64.2041C175.8 63.6333 176.112 63.0992 176.557 62.7511C176.937 62.4534 177.417 62.2957 177.95 62.3846C178.524 62.4806 179.071 62.8491 179.448 63.2835C179.574 63.4288 179.673 63.5939 179.773 63.7578C179.958 64.0645 180.139 64.3496 180.395 64.5746C180.492 64.6604 180.638 64.7197 180.78 64.7197C180.838 64.7197 180.896 64.7103 180.952 64.6929C181.524 64.1192 181.634 63.6837 181.615 63.2518C181.596 62.7991 181.417 62.3404 181.129 61.9129C180.452 60.9094 179.167 60.0866 178.3 59.9001C177.112 59.645 175.933 59.9513 174.988 60.6144C174.015 61.2969 173.294 62.3565 173.069 63.5506C173.015 63.8382 173.038 64.1485 173.148 64.4177C173.255 64.6807 173.441 64.906 173.715 65.0485ZM197.516 52.497C198.228 53.1914 199.072 53.2989 199.925 53.3946C200.399 53.4482 200.778 53.4915 201.15 53.5755C202.174 53.8066 203.186 54.1546 204.109 54.6559C205.074 55.1798 206.126 55.8118 206.882 56.6213C207.062 56.814 207.232 57.0161 207.402 57.2187C207.556 57.4034 207.706 57.5813 207.863 57.7527C208.043 57.9497 208.215 58.1561 208.385 58.3621C208.491 58.5357 208.512 58.5785 208.533 58.6229C208.565 58.6898 208.602 58.7646 208.645 58.8447C208.703 58.9547 208.771 59.0749 208.842 59.184C208.961 59.3835 209.025 59.4384 209.08 59.4629C209.171 59.5036 209.257 59.5237 209.341 59.5128C209.42 59.5027 209.494 59.4648 209.568 59.4028C209.934 59.0938 210.042 58.5865 210.03 58.0478C210.014 57.2307 209.712 56.3259 209.434 55.7697C208.788 54.4774 207.892 53.1339 206.815 52.1694C205.586 51.0683 204.241 50.2348 202.696 49.6605C201.736 49.3034 200.624 48.9757 199.578 49.0171C198.825 49.0469 198.107 49.2707 197.513 49.8296C197.148 50.1726 196.974 50.6606 196.974 51.1483C196.974 51.6457 197.155 52.146 197.516 52.497ZM172.266 58.8552C172.311 58.9294 172.374 58.9806 172.443 59.0113C172.517 59.0436 172.598 59.0528 172.677 59.0395C172.755 59.0265 172.829 58.9911 172.888 58.9371C172.944 58.8852 172.987 58.8164 173.006 58.7324C173.479 56.6543 174.398 55.1082 176.359 54.1112C177.324 53.6207 178.433 53.3091 179.483 53.0606C179.788 52.9884 180.11 52.9416 180.435 52.8942C181.453 52.7456 182.478 52.5755 183.141 51.7529C183.541 51.2575 183.708 50.6238 183.614 50.0443C183.524 49.4986 183.205 48.9983 182.626 48.6985C181.183 47.9524 179.39 48.6845 177.932 49.3082C177.824 49.3544 177.718 49.3999 177.615 49.4437C176.19 50.0452 174.89 50.8391 173.821 51.9746C172.974 52.8754 172.188 54.2071 171.872 55.577C171.609 56.7167 171.671 57.8803 172.266 58.8552Z" fill="#282828"/>
<path fill-rule="evenodd" clip-rule="evenodd" d="M176.012 90.4936C176.683 90.2742 177.343 90.0183 178.005 89.7715C181.393 88.0697 185.485 87.7611 189.037 89.1943C190.781 89.8981 192.406 91.1619 194.157 91.9905C194.572 92.1453 194.991 92.2864 195.415 92.4048C195.674 92.3138 195.934 92.2182 196.192 92.1216C198.047 91.4223 199.793 90.5592 201.487 89.6095C201.668 89.3545 201.856 89.1069 202.057 88.8692C200.832 88.6953 199.631 88.4057 198.544 88.1071C195.209 87.1929 192.065 85.7042 188.742 84.749C185.646 83.8585 182.288 83.3714 179.179 84.4777C177.703 85.0031 176.405 85.9227 174.97 86.5428C174.228 86.8624 173.336 87.1756 172.469 87.222C173.028 88.5633 173.737 89.8162 174.704 90.8596C175.146 90.7649 175.585 90.632 176.012 90.4936ZM168.794 79.9878C169.092 80.2346 170.318 81.0313 170.715 81.5066C170.818 81.4675 170.92 81.4274 171.022 81.3864C171.196 81.1715 171.454 81.0768 171.716 81.0832C173.549 80.23 175.182 79.0245 176.638 77.5139C177.673 76.4413 178.733 75.3195 180.116 74.6976C181.745 73.9628 183.348 74.3015 185.059 74.4135C186.881 74.5346 188.68 74.0165 190.5 74.2651C191.831 74.4481 193.078 75.0118 194.155 75.8067C196.354 77.4292 197.87 79.7074 199.727 81.6723C201.836 83.9004 204.429 85.3245 207.313 86.052C207.347 86.0292 207.384 86.0056 207.42 85.9846C209.546 84.0607 211.466 81.8881 213.164 79.5726C214.823 77.3118 219.195 67.1329 220.252 66.2406C220.69 65.8691 221.17 65.7088 221.63 65.7225C222.463 65.7416 223.233 66.3207 223.577 67.2331C224.162 68.7846 223.87 70.7896 223.824 72.4122C223.765 74.3981 223.635 76.3821 223.428 78.358C223.222 80.312 222.949 82.2587 222.608 84.1927C222.437 85.1706 222.246 86.1467 222.036 87.1182C221.971 87.4242 221.888 87.6973 221.789 87.9514C221.687 88.4303 221.576 88.9084 221.459 89.3809C220.693 92.4813 219.486 95.5853 217.179 97.8735C214.778 100.258 211.516 101.842 208.486 103.258C205.6 104.608 202.576 105.806 199.474 106.746C196.779 107.968 193.893 108.934 190.996 109.442C187.806 110.002 184.454 110.036 181.374 108.927C179.86 108.383 178.429 107.623 177.13 106.677C175.289 105.72 173.633 104.406 172.277 102.666C169.848 99.548 168.689 95.7647 168.181 91.863C168.051 90.8642 167.563 87.0372 167.524 86.4408C167.4 84.5169 167.277 82.5929 167.153 80.668C167.095 79.7602 168.208 79.5007 168.794 79.9878Z" fill="#282828"/>
<g clip-path="url(#clip0_5216_1514)">
<path fill-rule="evenodd" clip-rule="evenodd" d="M134.04 218.196C133.723 212.311 133.334 206.431 132.868 200.556C131.94 188.854 130.724 177.142 128.702 165.574C126.706 154.161 123.913 143.062 119.889 132.186C118.023 127.14 116.001 122.835 113.069 118.299C110.296 114.01 106.757 111.104 102.349 108.516C98.3765 106.183 93.7621 102.136 89.9525 99.5237C88.362 98.4333 85.0898 98.5059 83.9992 96.8929C82.571 94.7805 83.4969 91.5474 82.0572 89.4421C80.4116 87.0348 78.106 85.1648 75.5062 83.8063C72.6687 81.8848 69.3265 81.015 65.9755 81.1348C61.034 80.8351 56.0571 82.4083 52.8846 86.4304C51.3015 88.4377 50.3771 90.7535 50.2492 93.3178C50.2158 93.9848 50.4301 94.5107 50.7828 94.8904C50.5737 95.17 50.3655 95.4498 50.1588 95.7311C49.5098 94.77 47.9931 94.2593 46.9823 94.9847C43.6755 97.3583 40.1016 99.2456 36.3296 100.629C35.4471 100.212 34.3787 100.405 33.6227 101.087C33.3159 101.363 32.9904 101.6 32.6503 101.8C31.2516 102.18 29.8314 102.496 28.3901 102.741C27.9389 102.818 27.5566 103.074 27.2667 103.419C26.8372 103.018 26.2468 102.825 25.5875 103.076C17.9749 105.978 10.7858 110.486 5.32141 116.594C-0.732557 123.36 -3.91225 131.777 -6.33292 140.4C-8.95341 149.735 -10.6281 159.302 -12.0346 168.885C-13.4598 178.595 -14.8636 188.343 -15.8442 198.109C-16.3961 203.605 -16.6066 209.151 -16.3567 214.671C-16.2322 217.43 -15.9802 220.18 -15.5789 222.912C-15.4854 223.552 -15.3875 224.288 -15.2298 225.023C-15.709 224.93 -16.2797 225.335 -16.1826 225.983C-15.5062 230.499 -10.0464 231.815 -6.2809 232.335C-0.121521 233.185 6.06987 233.657 12.2885 233.693C18.3994 233.729 24.5094 233.336 30.6076 232.985C36.8598 232.625 43.1117 232.263 49.3637 231.897C74.4126 230.428 99.4629 228.975 124.512 227.506C126.801 227.372 129.414 227.19 131.374 225.863C134.061 224.043 134.199 221.152 134.04 218.196Z" fill="white"/>
<path fill-rule="evenodd" clip-rule="evenodd" d="M11.9237 167.686C11.8367 167.523 12.0385 167.376 12.1723 167.494C15.2132 170.162 16.8053 174.448 17.1391 178.409C17.4928 182.61 16.9913 186.959 16.7997 191.158C16.5864 195.835 16.3948 200.513 16.1345 205.188C15.8701 209.931 15.5854 214.673 15.3413 219.417L14.7922 230.088C14.7339 231.225 14.8604 232.624 14.4239 233.685C13.7475 235.331 11.7382 235.076 11.3161 233.701L11.303 233.655L11.2644 233.685C10.8919 232.446 11.1707 230.974 11.2338 229.693L11.8091 218.033C12.2154 209.792 12.5781 201.551 13.0145 193.311L13.1631 190.565C13.367 186.868 13.5235 183.179 13.6492 179.483L13.6901 178.251C13.8095 174.54 13.7147 171.036 11.9237 167.686ZM85.6391 99.2713C87.3332 99.1104 88.6125 99.6722 90.1505 100.264C90.8205 100.522 91.455 100.819 92.0978 101.127C92.9026 101.513 93.4201 102.195 93.9156 102.917L94.1805 103.305C96.244 106.329 97.6321 109.817 99.1983 113.108C101.03 116.958 102.881 120.8 104.674 124.669L105.559 126.575C106.001 127.528 106.442 128.481 106.876 129.438L107.627 131.103C108.381 132.792 109.057 134.578 107.983 136.32C106.983 137.94 105.211 139.193 103.808 140.445C102.638 141.49 101.467 142.535 100.296 143.58C102.717 146.004 104.342 149.056 105.297 152.329C106.654 151.763 108.31 151.655 109.713 151.41C111.678 151.068 111.918 154.041 110.064 154.005C108.695 153.978 107.089 154.118 105.685 153.83C105.929 154.905 106.106 155.997 106.219 157.092C106.809 162.83 105.519 168.601 104.175 174.153L104.064 174.609C102.603 180.618 101.218 186.643 99.9793 192.702C98.7376 198.774 97.6206 204.871 96.629 210.989C95.6198 217.216 94.9057 223.477 94.1382 229.737C94.022 230.684 93.4259 231.496 92.379 231.496C91.5068 231.496 90.5099 230.682 90.6195 229.737C91.4115 222.92 92.5347 216.139 93.6505 209.368C95.5726 197.709 97.9915 186.151 100.774 174.669L101.26 172.67C102.512 167.484 103.648 162.14 103.02 156.791C102.509 152.435 100.687 147.791 97.0879 145.086L96.9783 145.004C96.1375 144.388 95.814 143.209 96.6421 142.397C97.1692 141.88 97.6968 141.363 98.2246 140.848L101.393 137.754L102.032 137.13C102.565 136.609 103.1 136.093 103.651 135.592C103.985 135.288 104.889 134.711 104.955 134.212C104.998 133.887 104.613 133.315 104.457 133.016L103.742 131.572C103.336 130.749 102.942 129.92 102.546 129.092C101.724 127.377 100.89 125.667 100.086 123.944L95.2566 113.595C93.8942 110.676 92.6804 107.594 90.8991 104.895L90.548 104.368C90.2549 103.925 89.996 103.499 89.8105 102.957C89.6324 102.436 89.4088 101.864 89.0795 101.419C88.308 100.375 86.8334 99.7826 85.5996 99.564C85.4213 99.5322 85.486 99.286 85.6391 99.2713ZM48.4938 96.5532C48.601 96.5532 48.6173 96.7063 48.5184 96.7361C47.0298 97.1837 45.6074 97.906 44.4469 98.9485C43.8916 99.4473 43.3326 100.014 42.9899 100.685C42.8586 100.942 42.7861 101.214 42.7329 101.495L42.7158 101.589C42.6275 102.098 42.5008 102.381 42.2424 102.788L42.1981 102.857C40.7233 105.135 39.6896 107.664 38.7446 110.197L36.6865 115.72L34.6298 121.244C33.9671 123.023 33.304 124.803 32.6412 126.583C32.275 127.565 31.8985 128.544 31.5222 129.522C31.3593 129.946 31.1842 130.367 31.0352 130.796C31.0148 130.855 30.9497 131.208 30.9008 131.294L30.9175 131.323C31.3323 132.021 32.4386 132.604 33.0657 133.111L35.2251 134.857C36.7647 136.102 38.3438 137.312 39.8372 138.612C40.7753 139.429 40.1917 140.891 39.1455 141.232C37.3924 141.803 35.6749 142.487 33.948 143.133C33.2504 143.394 32.5242 143.621 31.8347 143.909L31.4149 144.09C31.2511 144.164 31.3299 144.163 31.3365 144.466C31.343 144.783 31.433 145.114 31.4846 145.425C32.0663 148.942 32.6829 152.453 33.3336 155.958C35.6356 168.352 38.3858 180.655 41.5224 192.863C43.1066 199.029 44.8057 205.164 46.4247 211.32C48.0398 217.46 50.1648 223.511 52.1939 229.525C52.7665 231.22 50.0775 231.951 49.5191 230.262C47.1805 223.19 45.0412 216.056 42.832 208.943C38.9068 196.306 35.8137 183.393 33.0781 170.45C31.7221 164.035 30.482 157.595 29.3588 151.136C29.1461 149.912 28.9376 148.689 28.7333 147.464L28.4356 145.663C28.2315 144.38 28.1153 143.043 29.1132 142.027C30.0874 141.035 31.7601 140.684 33.0421 140.219L33.1352 140.185C33.951 139.88 34.7728 139.587 35.5913 139.284C34.3855 138.335 33.1946 137.365 31.9918 136.416C31.0215 135.651 30.036 134.901 29.0796 134.118C28.291 133.472 27.648 132.643 27.5658 131.593C27.482 130.52 27.9419 129.524 28.3129 128.54L28.3484 128.445C28.7126 127.462 29.0778 126.48 29.4524 125.501L31.7698 119.44C33.2425 115.589 34.653 111.707 36.2019 107.886C36.8148 106.373 37.4826 104.885 38.2718 103.456C38.6522 102.766 39.0603 102.092 39.5038 101.441C40.0006 100.712 40.4516 100.356 41.2215 99.9533C42.4525 99.3097 43.4186 98.2306 44.6548 97.5672C45.8681 96.9158 47.1164 96.5683 48.4938 96.5532ZM52.49 89.6826C52.5371 89.6018 52.6618 89.6377 52.6634 89.7296C52.6956 91.6436 52.2408 93.5994 51.961 95.4919C51.68 97.3911 51.5899 99.3958 51.1834 101.275C51.175 101.362 51.1581 101.449 51.1341 101.533L51.1147 101.598C50.9431 102.124 50.4969 102.57 49.9494 102.71C50.1215 103.664 50.2838 104.619 50.4202 105.58C50.6545 107.231 50.8684 108.885 51.0787 110.54L51.3305 112.525C51.5682 114.396 51.7994 116.268 52.0279 118.14C52.6092 118.383 53.2023 118.583 53.8098 118.757C55.2088 119.157 56.6418 119.32 58.0855 119.462C61.0257 119.75 63.9883 119.884 66.9387 120.048L67.5707 120.083C70.8879 120.273 74.223 120.307 77.5318 119.967C79.1725 119.798 80.8003 119.515 82.4002 119.113C83.2132 118.909 84.0034 118.605 84.8148 118.405C85.0839 118.339 85.3243 118.187 85.594 118.024C85.7138 117.873 85.8818 117.758 86.1006 117.714L86.16 117.703L86.2186 117.695L86.2388 117.686L86.2372 117.692C86.4033 117.67 86.5609 117.67 86.7097 117.69C86.7688 116.231 86.833 114.771 86.9134 113.312C87.1293 109.393 87.7252 105.304 86.9297 101.419C86.9031 101.288 87.0808 101.242 87.1271 101.365C88.6881 105.478 88.5128 109.975 88.5914 114.304C88.6683 118.537 88.6218 122.773 88.6008 127.007C88.904 127.136 89.1745 127.311 89.3887 127.556C89.8167 128.047 89.9398 128.9 89.3887 129.373C89.1445 129.583 88.8742 129.729 88.5875 129.83C88.5722 133.508 88.5461 137.187 88.5092 140.865C89.2088 141.406 89.2741 142.689 88.4828 143.222C88.3511 155.135 88.1347 167.047 87.9552 178.958L87.5791 203.947C87.529 207.277 87.446 210.606 87.4162 213.935L87.4398 213.944L87.5233 213.983C87.6633 214.049 87.872 214.155 87.915 214.264C87.9264 214.293 87.9293 214.312 87.928 214.327C88.1575 214.359 88.3849 214.467 88.5817 214.654C89.0674 215.116 88.9687 215.811 88.5817 216.281L88.4782 216.407C88.2369 216.7 87.7788 216.813 87.4047 216.753C87.4085 218.831 87.4218 220.909 87.4152 222.987C87.4132 223.621 87.4035 224.256 87.3926 224.891L87.3664 226.413C87.3491 227.281 87.272 228.384 86.3826 228.774C85.3792 229.215 84.4794 228.854 84.0731 227.835C83.9631 227.559 83.9867 227.302 84.0268 227.029C84.0143 226.619 83.9502 226.144 83.9581 225.763L83.9913 224.177C83.9964 223.932 84.0064 223.688 84.0133 223.443L83.9843 223.446C80.419 223.619 76.8286 223.535 73.2573 223.533L71.6689 223.535C70.3437 223.536 69.0156 223.529 67.6923 223.478L67.1962 223.457C66.2055 223.411 65.1635 223.396 64.1365 223.307C64.2673 224.361 64.3897 225.416 64.4987 226.473C64.6019 227.474 63.5683 228.325 62.6463 228.325C61.5513 228.325 60.925 227.464 60.7939 226.473C60.1752 221.795 59.922 217.073 59.3308 212.392C58.8014 208.2 58.3422 203.998 57.8756 199.798L57.7195 198.397C56.0117 183.111 54.3535 167.82 52.7674 152.52L52.0291 145.368C51.2833 138.16 50.533 130.951 49.9003 123.732C49.5385 119.604 49.2051 115.476 48.8913 111.345C48.6612 108.31 48.5166 105.292 48.4225 102.263C48.0513 101.881 47.8653 101.323 48.0297 100.747C48.1258 100.411 48.2376 100.077 48.3556 99.7433C48.3482 99.4155 48.3405 99.0878 48.3341 98.7596C48.3282 98.449 48.6435 98.2891 48.8959 98.3406C49.3546 97.2299 49.8598 96.1287 50.2814 95.0288C50.9637 93.2483 51.5261 91.3298 52.49 89.6826ZM14.3832 108.925C21.516 104.455 30.0066 101.239 38.5105 101.585C38.7039 101.593 38.7583 101.888 38.5575 101.932C34.0215 102.945 29.4357 104.179 25.1413 105.974C20.8345 107.775 16.7393 110.199 13.092 113.113C6.36244 118.489 1.13179 125.482 -2.31242 133.364C-4.32981 137.982 -5.74387 142.856 -6.97865 147.733C-8.28532 152.894 -9.36223 158.11 -10.2576 163.358C-12.0262 173.725 -13.0559 184.205 -13.6037 194.703C-14.1612 205.383 -13.9314 216.07 -14.329 226.751C-14.3977 228.601 -17.0428 228.565 -17.1772 226.751C-18.078 214.607 -17.579 202.27 -16.7459 190.135C-15.9969 179.226 -14.6888 168.34 -12.5824 157.606L-12.3989 156.676C-10.4298 146.746 -8.05475 136.575 -3.2944 127.582C0.769773 119.904 7.04417 113.525 14.3832 108.925ZM113.434 156.386C113.471 156.28 113.612 156.281 113.649 156.386C114.462 158.662 114.491 161.23 114.708 163.63L114.724 163.814C114.932 166.003 115.088 168.194 115.233 170.387L115.287 171.209C115.869 180.155 116.597 189.091 117.694 197.991C118.788 206.856 120.266 215.66 121.864 224.446C122.042 225.424 121.609 226.421 120.583 226.702C119.679 226.951 118.518 226.394 118.327 225.421C117.334 220.378 116.532 215.328 115.816 210.241C114.556 201.284 113.615 192.285 113.011 183.26C112.707 178.727 112.52 174.195 112.446 169.653C112.412 167.545 112.466 165.432 112.579 163.327L112.606 162.841C112.729 160.689 112.717 158.438 113.434 156.386ZM36.3588 213.367C36.4541 213.316 36.5721 213.422 36.5117 213.52C35.1306 215.765 33.2621 217.7 31.4562 219.608C29.5683 221.602 27.7271 223.656 25.801 225.611C24.4094 227.023 22.1707 224.745 23.6395 223.449C25.7045 221.628 27.8629 219.897 29.9647 218.116L30.8837 217.337C32.607 215.881 34.3815 214.438 36.3588 213.367ZM101.959 212.243C101.855 212.047 102.091 211.888 102.251 212.018C103.365 212.924 104.364 214.004 105.439 214.96C106.505 215.907 107.61 216.791 108.745 217.652C109.885 218.517 111.05 219.348 112.246 220.133C113.239 220.785 114.261 221.307 115.3 221.848C115.782 221.91 116.227 222.146 116.584 222.594C117.148 223.302 117.208 224.638 116.426 225.252L116.285 225.363C115.372 226.08 114.289 226.167 113.39 225.363C112.387 224.464 111.438 223.476 110.475 222.526L110.185 222.242C109.15 221.236 108.14 220.197 107.187 219.111L106.325 218.13C104.726 216.307 103.061 214.341 101.959 212.243ZM96.8268 107.087C96.6415 106.965 96.7557 106.634 96.9845 106.713L97.4041 106.858C99.157 107.467 100.961 108.143 102.553 109.081C104.264 110.089 105.843 111.289 107.352 112.577C110.475 115.243 113.132 118.522 115.39 121.939C119.921 128.795 122.723 136.648 124.985 144.505C127.397 152.883 129.254 161.441 130.771 170.024C132.311 178.746 133.5 187.546 134.281 196.369C134.666 200.715 134.925 205.064 135.054 209.425C135.121 211.669 135.119 213.911 135.1 216.155C135.096 216.732 135.1 217.309 135.106 217.886L135.128 219.617C135.14 220.711 135.271 221.861 135.011 222.93C134.592 224.652 131.746 224.33 131.84 222.571C131.754 221.986 131.751 221.381 131.773 220.775C131.76 220.697 131.745 220.618 131.729 220.536C131.682 220.304 131.722 220.089 131.813 219.903C131.828 219.613 131.841 219.324 131.846 219.04C131.864 217.884 131.863 216.733 131.831 215.578C131.764 213.142 131.667 210.707 131.569 208.272C131.374 203.407 131.101 198.539 130.707 193.686C129.335 176.792 126.437 159.803 121.57 143.55C119.31 136.003 116.194 128.594 111.724 122.072C109.741 119.177 107.502 116.503 105.021 114.021C102.524 111.523 99.7726 109.038 96.8268 107.087ZM63.1497 215.99L63.4871 218.429C63.6555 219.649 63.8225 220.87 63.981 222.091C65.0575 221.943 66.1588 221.882 67.1962 221.79C69.0122 221.629 70.8408 221.551 72.6622 221.476C76.4287 221.32 80.2141 221.051 83.9843 221.07C84.023 221.07 84.0596 221.073 84.0961 221.076L84.2832 216.262L81.6341 216.258C79.3897 216.254 77.1458 216.235 74.9014 216.216C72.88 216.199 70.8581 216.196 68.8371 216.154L67.9709 216.133C66.4382 216.092 64.7459 216.177 63.1497 215.99ZM84.5054 209.003C84.3974 209.016 84.2874 209.027 84.1704 209.031C83.6457 209.054 83.1169 209.038 82.5919 209.043C81.4739 209.052 80.356 209.06 79.2378 209.06C77.0018 209.059 74.766 209.073 72.5303 209.1C70.2288 209.128 67.9288 209.168 65.627 209.172C64.5118 209.174 63.4001 209.145 62.2853 209.113C62.4656 210.698 62.6541 212.281 62.8622 213.86C64.5934 213.626 66.4555 213.744 68.1474 213.728L68.3671 213.725C70.6764 213.686 72.9877 213.715 75.2976 213.718C77.6738 213.72 80.0498 213.728 82.4263 213.748L84.3785 213.764L84.3823 213.665C84.4395 212.113 84.4764 210.558 84.5054 209.003ZM61.4264 201.424C61.6429 203.294 61.846 205.167 62.0531 207.04C62.1908 207.019 62.3302 207 62.4721 206.985C63.589 206.869 64.7034 206.769 65.8242 206.699C68.0585 206.561 70.2925 206.488 72.5303 206.428C74.8315 206.366 77.133 206.319 79.435 206.286C80.5534 206.27 81.6709 206.272 82.7893 206.28C83.3139 206.283 83.8439 206.267 84.3676 206.302C84.4299 206.306 84.4897 206.313 84.5489 206.319L84.5882 203.508C84.595 203.039 84.6021 202.571 84.6097 202.103C82.8812 202.209 81.124 202.168 79.3967 202.169L78.9985 202.17C76.8282 202.18 74.6571 202.15 72.4872 202.105C70.2486 202.058 68.0146 201.985 65.7799 201.842C64.8746 201.784 63.9758 201.707 63.0754 201.607L62.6251 201.556C62.2333 201.51 61.8297 201.472 61.4264 201.424ZM84.788 193.49C80.6251 193.82 76.4845 193.958 72.3105 193.999L71.6842 194.005C67.9957 194.033 64.2769 194.185 60.5797 194.087C60.8007 196.004 61.0211 197.92 61.2433 199.836C61.7727 199.812 62.3047 199.812 62.8223 199.793C63.8749 199.755 64.924 199.745 65.9773 199.743C68.1472 199.738 70.3171 199.757 72.4872 199.753C74.7237 199.748 76.9597 199.71 79.1957 199.668C81.0086 199.634 82.8407 199.498 84.6585 199.503L84.788 193.49ZM84.9641 185.313C84.4818 185.474 83.9122 185.484 83.2879 185.513L81.6764 185.593C80.9296 185.629 80.1825 185.664 79.435 185.691C76.9446 185.782 74.4542 185.867 71.9634 185.947C69.411 186.028 66.8463 186.075 64.2935 185.994C63.0431 185.955 61.8031 185.889 60.5564 185.785C60.2482 185.759 59.9341 185.742 59.6193 185.72C59.9094 188.259 60.2008 190.798 60.4931 193.337C64.1726 192.886 67.8805 192.604 71.5555 192.137L74.8786 191.713C78.1998 191.289 81.5185 190.873 84.8519 190.523L84.9641 185.313ZM85.1415 177.047C84.4337 177.221 83.6271 177.213 82.9473 177.256L82.8214 177.264C81.5336 177.362 80.2425 177.411 78.9517 177.443C76.4217 177.505 73.8902 177.536 71.3595 177.552L69.8378 177.561C67.809 177.573 65.7815 177.578 63.752 177.531C62.4503 177.501 61.1516 177.437 59.8509 177.372C59.4613 177.352 59.0629 177.339 58.6633 177.319C58.9352 179.723 59.2098 182.127 59.4839 184.53C59.9112 184.462 60.3406 184.411 60.7498 184.342C61.7982 184.164 62.8445 184.023 63.9004 183.897C66.1872 183.623 68.486 183.425 70.7836 183.259C73.1423 183.088 75.5031 182.943 77.8622 182.778L79.5331 182.66C80.0901 182.621 80.647 182.584 81.2042 182.55C82.1558 182.492 83.2619 182.558 84.2057 182.35C84.4613 182.244 84.7451 182.22 85.0293 182.28L85.1415 177.047ZM85.3557 167.37C85.1109 167.681 84.7451 167.844 84.309 167.901C82.0374 168.195 79.7075 168.243 77.4166 168.382L77.0127 168.407C74.6474 168.563 72.2807 168.685 69.9136 168.811C67.482 168.94 65.0507 169.045 62.6171 169.13C61.5841 169.166 60.5457 169.17 59.5109 169.157L59.0677 169.15C58.6427 169.143 58.1977 169.144 57.7517 169.13C57.9985 171.378 58.2477 173.626 58.5005 175.873C58.9553 175.823 59.4098 175.785 59.8509 175.739C61.1508 175.601 62.4491 175.466 63.752 175.363C66.2208 175.168 68.6913 175.051 71.1647 174.929C73.6952 174.804 76.2271 174.72 78.758 174.602C79.9851 174.545 81.2117 174.473 82.4352 174.361C83.2927 174.282 84.3112 173.99 85.2058 174.097C85.2546 171.855 85.3055 169.613 85.3557 167.37ZM85.5553 158.702C85.5166 158.762 85.4713 158.82 85.4163 158.874C84.4162 159.862 83.1836 159.786 81.8583 159.89L81.7771 159.896C80.4782 160.006 79.1786 160.109 77.8783 160.203C75.2791 160.391 72.6747 160.522 70.0717 160.639C67.4077 160.759 64.7267 160.841 62.0601 160.787C60.3525 160.752 58.5641 160.758 56.8223 160.592C57.0898 163.067 57.3589 165.543 57.6299 168.018C58.1196 167.926 58.6125 167.855 59.0794 167.782C60.256 167.597 61.4338 167.41 62.6171 167.274C64.9818 167.002 67.3471 166.747 69.7164 166.518C71.7427 166.321 73.7683 166.122 75.7958 165.942L77.0127 165.837C79.432 165.634 81.8819 165.298 84.309 165.248C84.7089 165.24 85.1613 165.458 85.3905 165.801C85.4441 163.435 85.4997 161.069 85.5553 158.702ZM85.7233 151.685C85.1055 151.76 84.4399 151.717 83.8698 151.736C82.4282 151.783 80.9865 151.827 79.5448 151.869L70.8944 152.125C67.9492 152.211 64.9937 152.277 62.0474 152.235C60.7514 152.217 59.4495 152.215 58.154 152.144L57.7223 152.118C57.1891 152.082 56.5347 152.077 55.8957 152.012L56.6501 159C58.3835 158.75 60.1698 158.656 61.8883 158.509L62.2555 158.477C64.7902 158.246 67.337 158.093 69.8763 157.921C72.4811 157.745 75.0821 157.531 77.6833 157.312C78.9834 157.202 80.2834 157.093 81.5825 156.974L81.7429 156.958C82.9702 156.83 84.1241 156.557 85.211 157.281C85.37 157.386 85.4945 157.528 85.5797 157.686C85.6272 155.686 85.6737 153.685 85.7233 151.685ZM85.9249 143.53C80.6567 143.742 75.3877 143.903 70.1156 143.974C67.148 144.014 64.1841 143.986 61.2169 143.924C59.9303 143.897 58.633 143.835 57.3474 143.737L56.8658 143.698C56.2545 143.646 55.6123 143.609 54.9729 143.547C55.2372 145.95 55.4993 148.353 55.7595 150.756C56.3886 150.639 57.0459 150.585 57.5972 150.515L57.7223 150.498C59.0919 150.31 60.4744 150.2 61.8508 150.079C64.5308 149.843 67.2242 149.69 69.9114 149.561C72.6632 149.429 75.4163 149.316 78.1685 149.194L80.921 149.071C81.3795 149.051 81.8383 149.031 82.297 149.011C82.9525 148.984 83.6078 148.957 84.2631 148.93C84.5864 148.917 84.9224 148.873 85.2461 148.89L85.3383 148.877C85.3808 148.872 85.4183 148.868 85.4526 148.864C85.5408 148.797 85.6355 148.741 85.736 148.699L85.7968 148.675L85.9249 143.53ZM54.1091 135.802C54.3537 137.965 54.5956 140.128 54.8343 142.292C55.5857 142.206 56.3461 142.159 57.0636 142.094C58.5102 141.964 59.9637 141.851 61.4147 141.784L64.3148 141.649C66.248 141.56 68.181 141.474 70.1156 141.403C75.4102 141.21 80.7045 140.988 85.996 140.718C86.0333 139.251 86.0718 137.783 86.1111 136.316C85.8571 136.588 85.4902 136.767 85.008 136.766C79.4529 136.751 73.8934 136.783 68.3389 136.692C65.5585 136.646 62.7813 136.579 60.0042 136.436C58.6453 136.366 57.2788 136.224 55.9303 136.037C55.3552 135.958 54.7259 135.901 54.1091 135.802ZM53.22 128.095C53.4812 130.311 53.7373 132.527 53.9893 134.744C54.6792 134.62 55.3919 134.555 56.0355 134.467C57.4184 134.279 58.8099 134.13 60.2028 134.051C62.913 133.898 65.6248 133.82 68.3389 133.763C73.893 133.645 79.4527 133.646 85.008 133.602C85.5299 133.598 85.9173 133.804 86.1717 134.112C86.2102 132.729 86.2509 131.345 86.2928 129.962C85.7563 129.905 85.2243 129.825 84.732 129.79C83.219 129.685 81.7054 129.588 80.1912 129.501C77.0314 129.32 73.8686 129.165 70.7065 129.028C67.5437 128.89 64.3799 128.756 61.2161 128.639L59.8326 128.588C57.6323 128.506 55.3949 128.403 53.22 128.095ZM52.2251 119.752C52.497 121.995 52.7647 124.24 53.0318 126.484L53.113 127.179C55.7591 126.664 58.5478 126.514 61.2161 126.4C64.3805 126.266 67.5394 126.196 70.7065 126.206C73.8706 126.216 77.0298 126.291 80.1912 126.421C81.7709 126.486 83.3505 126.562 84.9292 126.648C85.3633 126.671 85.8722 126.659 86.3961 126.666C86.4074 126.313 86.4171 125.961 86.4293 125.608C86.4773 124.18 86.5244 122.751 86.5734 121.323C85.5057 121.871 84.1174 122.092 83.0443 122.326L82.9217 122.353C81.1498 122.751 79.3405 123.009 77.5318 123.167C73.98 123.476 70.3912 123.361 66.8427 123.061L66.2212 123.007C63.1052 122.737 59.8747 122.395 56.8539 121.624C55.4149 121.256 53.9274 120.743 52.638 119.998C52.5039 119.92 52.3655 119.838 52.2251 119.752ZM82.2285 93.0869C82.2592 92.9656 82.441 92.938 82.5007 93.0514C82.9203 93.8485 83.0764 94.8052 83.3677 95.6593C83.6813 96.5776 83.9738 97.5026 84.3197 98.4097C85.0424 100.305 85.8949 102.126 86.9112 103.882C87.9178 105.62 85.0994 106.861 84.3586 104.958C83.5939 102.994 82.9654 100.963 82.5851 98.8879C82.3995 97.8753 82.234 96.8488 82.1804 95.82C82.1341 94.9363 82.0098 93.949 82.2285 93.0869Z" fill="#282828"/>
</g>
<path fill-rule="evenodd" clip-rule="evenodd" d="M61.3798 16.4171C91.4788 14.9369 93.5812 23.6852 97.7143 29.2624C99.7654 32.0302 105.061 36.1291 105.94 45.5947C106.55 52.1654 102.668 59.7387 102.668 65.61C102.668 68.607 106.337 75.0413 104.629 79.4093C100.826 89.1316 92.776 99.9216 82.5172 99.9216C72.2585 99.9216 53.3213 94.2676 41.9857 78.0373C38.2728 72.721 31.2808 17.8973 61.3798 16.4171Z" fill="white"/>
<path fill-rule="evenodd" clip-rule="evenodd" d="M105.188 66.1961C104.531 65.4713 104.02 64.8755 103.85 63.8787C103.778 63.4634 103.746 63.0367 103.732 62.6077C106.372 58.9181 108.938 50.2029 108.937 45.4362C108.937 38.7112 106.457 32.2406 102.386 26.8888C94.4507 16.4651 81.241 11.1213 68.3133 11.5405C55.9337 11.9394 42.7662 16.5028 35.0438 26.2575C9.42193 58.6214 30.926 93.9722 46.6758 101.327C48.0469 101.967 52.4748 101.745 51.8578 100.378C50.0857 96.4499 48.6895 89.2157 48.3638 87.5872C48.8682 87.9269 49.3766 88.2586 49.8869 88.6021C50.7905 89.2076 52.0018 89.9007 53.1377 89.7001C53.1913 89.6904 53.2251 89.6328 53.2271 89.5831C53.2787 88.5165 52.5161 87.4204 51.8449 86.6598C50.9136 85.6033 50.0279 84.5211 49.0251 83.5301C48.5981 83.1072 48.1652 82.6881 47.7323 82.2691C47.6767 79.7551 47.8455 77.2293 48.2963 74.7014C49.0767 70.3187 50.4231 66.0492 51.97 61.8472C53.2628 60.8938 54.5178 59.8911 55.6796 58.7948C58.4776 56.1556 60.6123 52.9269 62.4432 49.5311C62.4651 49.521 62.4889 49.5091 62.5108 49.4994C66.0594 47.8489 69.5783 46.1354 73.0694 44.368C74.8705 43.4563 76.6597 42.523 78.449 41.5898C79.422 41.0813 80.4248 40.6186 81.4197 40.14C81.1517 41.5142 80.7902 42.8685 80.3514 44.201C79.9899 45.2954 81.0941 46.1034 82.0711 45.9227C85.3973 45.3073 88.6124 44.0701 91.5057 42.3186C92.9395 41.4508 94.3037 40.448 95.5687 39.3476C96.8337 41.2322 98.3707 42.9996 99.9216 44.5209C100.968 45.5476 102.062 46.5244 103.198 47.45C102.684 50.9907 102.243 54.5392 101.685 58.0721C101.393 59.9189 101.042 61.7656 100.821 63.6223C100.581 65.6459 101.25 67.0876 102.583 68.567C104.445 70.6344 104.443 73.6249 103.73 76.1927C103.643 76.5103 103.534 76.8203 103.421 77.1279C103.397 77.1914 103.327 77.3642 103.301 77.4319C103.301 77.4339 103.301 77.4359 103.299 77.4396C103.299 77.4416 103.298 77.4438 103.298 77.4456C103.296 77.4456 103.296 77.4476 103.294 77.4498V77.4535V77.4555L103.292 77.4575C103.208 77.6521 103.119 77.8428 103.029 78.0334C102.622 78.8933 102.168 79.7335 101.695 80.5595C99.3715 84.6382 96.4365 88.3696 93.0924 91.6621C91.5355 93.1951 89.9171 94.6211 88.0881 95.7888C87.7029 96.0331 87.3097 96.2692 86.9066 96.4856C86.6901 96.6028 86.4677 96.7122 86.2453 96.8232C85.9196 96.9841 86.0546 96.9205 85.8561 96.9999C85.4966 97.1411 85.1292 97.2641 84.7539 97.3614C84.5534 97.413 84.3508 97.4569 84.1463 97.4944C84.1443 97.4944 84.1403 97.4964 84.1344 97.4964C84.1324 97.4964 84.1304 97.4984 84.1284 97.4964C84.1264 97.4984 84.1224 97.4984 84.1185 97.4984C84.043 97.5043 83.908 97.5163 83.8822 97.5163C81.0305 97.5264 78.2027 97.1431 75.4424 96.4342C73.9471 96.0489 72.4538 95.5821 71.0478 94.9409C70.3329 94.6132 69.6339 94.2498 68.9647 93.8385C68.6648 93.654 68.3808 93.4314 68.0651 93.2708C67.5925 93.0283 67.1298 93.0543 66.6194 93.0325C65.841 93.0005 65.2889 93.8149 65.4796 94.5298C65.7119 95.4014 66.0773 95.9157 66.8279 96.4342C67.4277 96.8472 68.0631 97.2124 68.7105 97.5441C70.1204 98.2691 71.6118 98.8587 73.121 99.3412C75.9468 100.243 78.9216 100.797 81.8804 101C84.0351 101.147 85.9017 100.858 87.8637 99.9509C89.9349 98.9917 91.7917 97.56 93.5094 96.0746C97.3559 92.7503 100.702 88.7171 103.54 84.5091C106.207 80.5534 108.276 76.2462 107.595 71.3352C107.323 69.3653 106.52 67.6696 105.188 66.1961Z" fill="#282828"/>
<path fill-rule="evenodd" clip-rule="evenodd" d="M89.1956 85.7658C87.7326 86.1894 86.1624 86.2273 84.6713 85.7898C83.3187 85.3928 81.93 84.5193 80.9345 83.3635C80.0503 82.3367 79.4776 81.089 79.5002 79.7571C79.5028 79.605 79.5572 79.4779 79.6408 79.3794C79.7307 79.2733 79.8566 79.2005 79.9915 79.1689C80.1301 79.1363 80.2764 79.1478 80.4014 79.2046C80.5143 79.2559 80.6111 79.343 80.6716 79.4703C80.8245 79.6713 80.9768 79.8693 81.13 80.0617C82.36 81.5807 83.5511 82.7156 85.4007 83.1227C86.4041 83.3437 87.4063 83.2458 88.326 82.9086C89.3103 82.5478 90.2004 81.9135 90.8976 81.1015C91.2128 80.7347 91.5849 80.585 91.9485 80.5824C92.361 80.5796 92.7684 80.771 93.0752 81.0773C93.3771 81.3783 93.5791 81.7872 93.5975 82.2151C93.6136 82.5907 93.4911 82.9828 93.1652 83.3328C92.0917 84.4853 90.7006 85.3299 89.1956 85.7658ZM89.1503 66.7432C90.65 67.6547 92.9349 69.7801 91.3216 72.04C89.4227 74.0324 86.6887 71.7479 85.3415 70.7147C84.0922 69.914 82.6886 71.9733 83.8477 72.9084C93.583 80.1159 97.5338 66.9815 89.9089 65.6715C89.0693 65.5271 88.7575 66.4612 89.1503 66.7432ZM75.1227 62.7325C74.6407 62.4243 74.0737 62.3184 73.4454 62.6044C72.9543 62.8276 72.0931 63.5721 71.4938 64.5505C71.0838 65.2201 70.793 66.0053 70.8535 66.8234C70.8676 67.0135 70.7974 67.1535 70.6866 67.2571C70.5992 67.339 70.4729 67.3989 70.3245 67.4178C70.1985 67.4337 70.0575 67.4194 69.9429 67.3836C69.7248 67.3155 69.6094 67.1739 69.5659 67.0586C69.1463 65.9441 69.3271 64.7004 69.7974 63.5784C70.4321 62.0642 71.5848 60.7959 72.34 60.3868C73.6323 59.6868 75.1568 59.6546 76.451 60.3677C77.5525 60.9748 78.2414 61.9546 78.9265 62.9535C79.072 63.166 79.2166 63.3767 79.3661 63.5838C79.6654 63.9986 79.6952 64.4103 79.5792 64.7632C79.4509 65.154 79.1233 65.4838 78.7138 65.6566C78.3353 65.8162 77.896 65.8387 77.5072 65.6746C77.1788 65.536 76.8775 65.2662 76.6867 64.808C76.3656 64.0363 75.8304 63.1852 75.1227 62.7325ZM99.601 64.449C99.271 64.621 99.0126 64.673 98.6465 64.5632C98.4441 64.5024 98.2439 64.3859 98.0873 64.2292C97.932 64.0739 97.82 63.8809 97.7763 63.6666C97.6692 63.1378 97.3799 62.6429 96.9679 62.3204C96.6154 62.0446 96.1707 61.8984 95.6775 61.9808C95.1451 62.0698 94.6381 62.4112 94.2888 62.8137C94.172 62.9483 94.0805 63.1012 93.9885 63.2531C93.8164 63.5373 93.6492 63.8014 93.4118 64.0099C93.3219 64.0894 93.1863 64.1444 93.055 64.1444C93.0016 64.1444 92.9474 64.1356 92.8959 64.1196C92.3661 63.5879 92.2642 63.1844 92.2813 62.7843C92.2992 62.3649 92.4646 61.9399 92.7319 61.5437C93.3588 60.614 94.5495 59.8516 95.3528 59.6789C96.4531 59.4426 97.5457 59.7263 98.4219 60.3407C99.3232 60.973 99.9911 61.9548 100.199 63.0611C100.249 63.3276 100.228 63.6152 100.127 63.8646C100.028 64.1082 99.8548 64.3169 99.601 64.449ZM77.5491 52.8198C76.8888 53.4631 76.1074 53.5627 75.3169 53.6513C74.8775 53.7011 74.5268 53.7411 74.1817 53.819C73.2332 54.0331 72.2957 54.3556 71.4403 54.82C70.5462 55.3055 69.5718 55.891 68.8707 56.641C68.704 56.8195 68.5469 57.0068 68.3896 57.1945C68.2461 57.3656 68.1078 57.5304 67.9622 57.6893C67.7949 57.8718 67.636 58.063 67.478 58.2538C67.3803 58.4147 67.361 58.4544 67.3413 58.4955C67.3117 58.5575 67.2773 58.6268 67.2379 58.701C67.184 58.8029 67.1209 58.9143 67.0548 59.0154C66.9449 59.2003 66.8859 59.2511 66.8349 59.2738C66.7503 59.3115 66.6701 59.3302 66.5922 59.32C66.5192 59.3107 66.4505 59.2755 66.3825 59.2182C66.0436 58.9318 65.9436 58.4618 65.9538 57.9627C65.9694 57.2056 66.2486 56.3673 66.5061 55.852C67.1047 54.6546 67.9349 53.4099 68.9331 52.5162C70.0722 51.4961 71.3184 50.7238 72.7497 50.1916C73.6392 49.8608 74.6692 49.5572 75.6382 49.5955C76.3358 49.6231 77.0016 49.8305 77.5517 50.3483C77.8893 50.6662 78.0513 51.1183 78.0513 51.5701C78.0513 52.031 77.8831 52.4945 77.5491 52.8198ZM100.944 58.7108C100.902 58.7795 100.844 58.8269 100.779 58.8553C100.711 58.8853 100.636 58.8939 100.563 58.8816C100.491 58.8694 100.422 58.8367 100.367 58.7866C100.315 58.7386 100.275 58.6748 100.258 58.597C99.8193 56.6715 98.968 55.239 97.1511 54.3153C96.2575 53.8609 95.2299 53.5721 94.257 53.3419C93.9742 53.275 93.6756 53.2317 93.3747 53.1878C92.4318 53.0501 91.4822 52.8924 90.8676 52.1303C90.4973 51.6713 90.3418 51.0842 90.4295 50.5472C90.5124 50.0417 90.8078 49.5781 91.3448 49.3003C92.6817 48.6091 94.3432 49.2874 95.6934 49.8652C95.7934 49.9081 95.8917 49.9502 95.9879 49.9907C97.3082 50.548 98.5124 51.2837 99.5024 52.3357C100.288 53.1703 101.015 54.4042 101.308 55.6734C101.552 56.7294 101.495 57.8074 100.944 58.7108Z" fill="#282828"/>
<defs>
<clipPath id="clip0_5216_1514">
<rect width="162.44" height="153.901" fill="white" transform="translate(-25 81.0991)"/>
</clipPath>
</defs>
</svg>
