<svg width="265" height="189" viewBox="0 0 265 189" fill="none" xmlns="http://www.w3.org/2000/svg">
<g clip-path="url(#clip0_5867_1142)">
<mask id="mask0_5867_1142" style="mask-type:luminance" maskUnits="userSpaceOnUse" x="1" y="36" width="297" height="344">
<path d="M213.147 37.1688L5.05986 96.8367C2.26538 97.638 0.647887 100.547 1.4471 103.334L79.5903 375.852C80.3895 378.639 83.3028 380.249 86.0972 379.448L294.184 319.78C296.978 318.978 298.596 316.069 297.797 313.282L219.653 40.7645C218.854 37.9774 215.941 36.3675 213.147 37.1688Z" fill="white"/>
</mask>
<g mask="url(#mask0_5867_1142)">
<path d="M213.147 37.1688L5.05986 96.8367C2.26538 97.638 0.647887 100.547 1.4471 103.334L79.5903 375.852C80.3895 378.639 83.3028 380.249 86.0972 379.448L294.184 319.78C296.978 318.978 298.596 316.069 297.797 313.282L219.653 40.7645C218.854 37.9774 215.941 36.3675 213.147 37.1688Z" fill="white"/>
<path d="M20.3403 115.668L16.5345 110.247L16.49 110.26C16.5385 110.392 16.6028 110.572 16.6829 110.802C16.7629 111.031 16.8461 111.278 16.9323 111.541C17.0185 111.804 17.0964 112.058 17.1662 112.301L18.2995 116.253L17.2223 116.562L15.1563 109.357L16.8215 108.879L20.4719 114.057L20.5015 114.048L20.9227 107.703L22.583 107.227L24.6491 114.432L23.5175 114.757L22.3672 110.745C22.3041 110.525 22.239 110.286 22.1722 110.028C22.1086 109.769 22.0487 109.523 21.9926 109.29C21.9399 109.056 21.897 108.869 21.864 108.729L21.8245 108.741L21.3878 115.368L20.3403 115.668ZM26.9833 107.747C27.6751 107.548 28.241 107.552 28.6811 107.756C29.1245 107.96 29.439 108.385 29.6246 109.032L30.6774 112.704L29.8522 112.94L29.408 112.23L29.3685 112.242C29.2702 112.483 29.157 112.692 29.0291 112.867C28.9011 113.043 28.7374 113.193 28.5378 113.317C28.3426 113.444 28.0901 113.552 27.7804 113.641C27.4543 113.735 27.1458 113.759 26.8549 113.715C26.5632 113.667 26.3078 113.541 26.0889 113.337C25.87 113.133 25.7064 112.842 25.598 112.464C25.4369 111.902 25.5251 111.42 25.8624 111.018C26.2031 110.614 26.7941 110.276 27.6355 110.003L28.5743 109.696L28.4923 109.41C28.384 109.032 28.2178 108.788 27.9938 108.679C27.773 108.568 27.5029 108.558 27.1833 108.65C26.9099 108.728 26.656 108.843 26.4217 108.996C26.1873 109.148 25.9648 109.317 25.754 109.502L25.1439 108.792C25.3702 108.574 25.6403 108.372 25.9541 108.186C26.2713 107.999 26.6144 107.853 26.9833 107.747ZM28.7785 110.427L28.079 110.654C27.5049 110.84 27.1263 111.055 26.9433 111.3C26.7603 111.544 26.7131 111.821 26.8016 112.13C26.8789 112.399 27.0161 112.573 27.2133 112.652C27.4096 112.727 27.6395 112.727 27.903 112.651C28.3049 112.536 28.6051 112.327 28.8036 112.025C29.0045 111.719 29.0414 111.344 28.9142 110.9L28.7785 110.427ZM33.4811 105.884C33.5733 105.857 33.6752 105.833 33.7867 105.812C33.8983 105.791 33.9959 105.777 34.0797 105.771L34.2819 106.886C34.207 106.886 34.1172 106.896 34.0122 106.915C33.9106 106.934 33.8202 106.954 33.7411 106.977C33.5336 107.037 33.3458 107.128 33.1778 107.251C33.009 107.37 32.8718 107.52 32.7664 107.699C32.6601 107.876 32.595 108.077 32.571 108.305C32.5471 108.532 32.5737 108.78 32.651 109.05L33.4692 111.903L32.3031 112.238L30.7387 106.782L31.6479 106.521L32.0815 107.437L32.1359 107.421C32.1891 107.196 32.2732 106.98 32.3885 106.773C32.5037 106.566 32.6515 106.385 32.8317 106.23C33.0142 106.071 33.2307 105.955 33.4811 105.884ZM36.268 105.197L37.8323 110.652L36.6712 110.985L35.1068 105.53L36.268 105.197ZM35.0956 103.271C35.2735 103.22 35.4403 103.224 35.5961 103.282C35.7552 103.34 35.8682 103.485 35.9351 103.719C36.0011 103.949 35.9823 104.132 35.8787 104.268C35.7776 104.4 35.6381 104.492 35.4602 104.543C35.2757 104.596 35.1056 104.593 34.9498 104.534C34.7964 104.472 34.6867 104.325 34.6207 104.095C34.5538 103.862 34.5693 103.68 34.6672 103.549C34.7683 103.417 34.9111 103.324 35.0956 103.271ZM40.048 104.001C40.7398 103.802 41.3057 103.805 41.7458 104.01C42.1892 104.213 42.5037 104.639 42.6893 105.286L43.7421 108.958L42.9169 109.194L42.4727 108.484L42.4331 108.496C42.3348 108.737 42.2217 108.946 42.0938 109.121C41.9658 109.296 41.802 109.446 41.6026 109.571C41.4073 109.698 41.1548 109.806 40.8452 109.895C40.519 109.988 40.2105 110.013 39.9197 109.968C39.6279 109.92 39.3725 109.795 39.1536 109.591C38.9348 109.387 38.7711 109.096 38.6628 108.718C38.5017 108.156 38.5898 107.674 38.9271 107.271C39.2677 106.868 39.8588 106.53 40.7002 106.256L41.639 105.95L41.5571 105.664C41.4487 105.286 41.2826 105.042 41.0585 104.932C40.8377 104.821 40.5676 104.812 40.248 104.903C39.9746 104.982 39.7207 105.097 39.4864 105.25C39.2521 105.402 39.0295 105.571 38.8187 105.756L38.2086 105.045C38.4349 104.828 38.705 104.626 39.0189 104.44C39.336 104.253 39.679 104.106 40.048 104.001ZM41.8433 106.681L41.1437 106.908C40.5696 107.094 40.191 107.309 40.008 107.554C39.825 107.798 39.7778 108.075 39.8663 108.384C39.9436 108.653 40.0808 108.827 40.278 108.906C40.4743 108.981 40.7042 108.981 40.9677 108.905C41.3696 108.79 41.6698 108.581 41.8684 108.279C42.0692 107.972 42.1061 107.597 41.9789 107.154L41.8433 106.681ZM47.791 109.967C47.6098 110.019 47.4484 110.053 47.3068 110.069C47.1627 110.089 47.0361 110.095 46.927 110.087L46.6429 109.097C46.7558 109.093 46.8761 109.083 47.0036 109.068C47.1311 109.053 47.2641 109.025 47.4025 108.985C47.5837 108.933 47.7385 108.852 47.8669 108.74C47.9953 108.629 48.0765 108.47 48.1104 108.265C48.1475 108.059 48.1189 107.791 48.0247 107.463L46.0293 100.504L47.2152 100.164L49.1993 107.083C49.3529 107.619 49.3921 108.079 49.3168 108.463C49.2426 108.851 49.0733 109.168 48.8088 109.414C48.5453 109.664 48.2061 109.848 47.791 109.967ZM55.0872 102.739C55.2172 103.192 55.2733 103.612 55.2555 103.997C55.2378 104.383 55.1501 104.73 54.9925 105.038C54.834 105.343 54.6133 105.606 54.3305 105.825C54.0468 106.042 53.704 106.208 53.3021 106.323C52.9265 106.431 52.5644 106.467 52.2157 106.432C51.866 106.393 51.5414 106.287 51.2421 106.114C50.9451 105.936 50.6836 105.689 50.4576 105.373C50.2316 105.058 50.0536 104.673 49.9236 104.22C49.7512 103.618 49.7089 103.079 49.7968 102.603C49.887 102.122 50.095 101.715 50.4205 101.384C50.7462 101.052 51.1774 100.809 51.7144 100.655C52.2184 100.511 52.6946 100.493 53.1432 100.603C53.5917 100.713 53.985 100.946 54.323 101.305C54.661 101.663 54.9158 102.141 55.0872 102.739ZM51.1193 103.877C51.2334 104.274 51.3787 104.601 51.5552 104.856C51.7351 105.11 51.9487 105.283 52.1963 105.376C52.443 105.465 52.7277 105.464 53.0505 105.371C53.3734 105.278 53.6157 105.129 53.7775 104.923C53.9385 104.713 54.0261 104.453 54.0407 104.143C54.0551 103.833 54.0055 103.479 53.8914 103.082C53.7775 102.684 53.6331 102.361 53.4584 102.113C53.2828 101.861 53.0722 101.692 52.8264 101.606C52.5798 101.517 52.2935 101.519 51.9673 101.612C51.4864 101.75 51.1817 102.012 51.0533 102.397C50.9249 102.782 50.9469 103.275 51.1193 103.877ZM56.1694 97.0951L56.7219 99.0221C56.7794 99.2225 56.8289 99.4199 56.8703 99.6142C56.9151 99.8076 56.946 99.9588 56.9629 100.068L57.0271 100.049C57.0878 99.8257 57.1847 99.629 57.3179 99.4593C57.45 99.2862 57.611 99.1387 57.8006 99.0168C57.9935 98.8939 58.2086 98.7985 58.4458 98.7305C58.8641 98.6105 59.2402 98.5791 59.5738 98.6363C59.9066 98.6903 60.1923 98.8412 60.431 99.0893C60.6729 99.3363 60.8608 99.6931 60.9946 100.16L62.0149 103.718L60.8538 104.051L59.8956 100.709C59.7741 100.286 59.5959 99.9936 59.361 99.8334C59.1252 99.6699 58.8244 99.6406 58.4588 99.7455C58.1063 99.8465 57.8475 100.001 57.6823 100.208C57.5195 100.411 57.4346 100.668 57.4277 100.98C57.4198 101.288 57.4742 101.646 57.591 102.053L58.3683 104.764L57.2071 105.097L55.0082 97.4281L56.1694 97.0951ZM64.8976 96.8751C65.5137 96.6984 66.0387 96.7204 66.4727 96.9408C66.909 97.157 67.2275 97.6151 67.4282 98.3149L68.4485 101.873L67.2872 102.206L66.3291 98.8647C66.2076 98.4409 66.0294 98.1488 65.7945 97.9886C65.5586 97.8252 65.258 97.7958 64.8922 97.9007C64.3619 98.0528 64.0396 98.3212 63.9253 98.7059C63.8144 99.0898 63.8475 99.5906 64.0246 100.208L64.8018 102.919L63.6406 103.252L62.0762 97.7962L62.9805 97.5369L63.3555 98.2293L63.4197 98.2109C63.4837 97.9864 63.5856 97.7883 63.7253 97.6166C63.8673 97.4407 64.0382 97.2904 64.2377 97.1656C64.4405 97.04 64.6605 96.9431 64.8976 96.8751ZM73.3039 98.7955C73.4066 99.1536 73.406 99.4809 73.3021 99.7774C73.1982 100.074 72.9963 100.334 72.6972 100.559C72.4003 100.779 72.0096 100.959 71.5252 101.098C71.1431 101.207 70.8063 101.274 70.5132 101.297C70.2249 101.323 69.9427 101.315 69.6665 101.273L69.3796 100.273C69.6751 100.32 69.9968 100.341 70.3448 100.337C70.6966 100.332 71.0173 100.289 71.307 100.205C71.689 100.096 71.9472 99.9579 72.0815 99.7914C72.2149 99.6216 72.2522 99.4366 72.1947 99.2362C72.1608 99.1179 72.0965 99.0226 72.0006 98.9505C71.9075 98.8741 71.7544 98.8131 71.5415 98.7675C71.3314 98.7175 71.0296 98.6725 70.6368 98.6322C70.2513 98.5934 69.9202 98.5391 69.6434 98.469C69.3667 98.3991 69.1395 98.2847 68.9618 98.1258C68.7838 97.9635 68.6504 97.7297 68.5628 97.4242C68.4243 96.9412 68.5109 96.5199 68.8213 96.1607C69.134 95.7972 69.6068 95.5247 70.2393 95.3434C70.5752 95.2471 70.9013 95.1909 71.2177 95.1749C71.5364 95.1546 71.857 95.1676 72.1803 95.2135L72.0648 96.1907C71.787 96.1529 71.5124 96.1357 71.2428 96.1383C70.9748 96.137 70.7127 96.1731 70.4553 96.2469C70.1555 96.3328 69.9397 96.4445 69.808 96.5818C69.68 96.718 69.6399 96.8718 69.6889 97.0426C69.7256 97.1707 69.7947 97.2683 69.896 97.3352C69.9974 97.4022 70.1524 97.4537 70.3626 97.4895C70.5758 97.5243 70.8674 97.5598 71.2377 97.5958C71.5999 97.6272 71.919 97.6779 72.1958 97.7478C72.4754 97.8135 72.707 97.9266 72.8919 98.0869C73.0768 98.2472 73.2144 98.4834 73.3039 98.7955ZM79.0625 95.8642C79.1925 96.3176 79.2484 96.7371 79.2303 97.1228C79.2129 97.5082 79.1249 97.8553 78.9675 98.1635C78.8092 98.4685 78.5881 98.731 78.3054 98.9507C78.0218 99.1672 77.6792 99.3329 77.277 99.4483C76.9013 99.556 76.5393 99.5923 76.1904 99.5572C75.8412 99.5186 75.5165 99.4127 75.2169 99.239C74.9201 99.061 74.6584 98.8142 74.4323 98.4986C74.2069 98.1827 74.0289 97.7982 73.8989 97.3448C73.7265 96.7435 73.6842 96.2045 73.772 95.7278C73.862 95.2469 74.07 94.8406 74.3958 94.5089C74.721 94.1774 75.1524 93.9346 75.6894 93.7806C76.1935 93.6361 76.6697 93.6186 77.118 93.7283C77.5669 93.8378 77.9599 94.0718 78.298 94.43C78.6362 94.7881 78.891 95.2662 79.0625 95.8642ZM75.0943 97.002C75.2083 97.3996 75.3539 97.7259 75.5304 97.981C75.7101 98.2353 75.9241 98.4086 76.1717 98.5012C76.4177 98.5907 76.7027 98.5889 77.0259 98.4962C77.3484 98.4037 77.591 98.2542 77.7529 98.0478C77.9132 97.8382 78.0009 97.5785 78.0154 97.2685C78.0299 96.9585 77.9805 96.6047 77.8664 96.2071C77.7525 95.8096 77.6078 95.4866 77.4332 95.238C77.2576 94.9861 77.0469 94.8171 76.8018 94.731C76.5551 94.6417 76.2683 94.644 75.9426 94.7374C75.4612 94.8754 75.157 95.1369 75.0286 95.5221C74.9002 95.9075 74.9219 96.4008 75.0943 97.002ZM82.4393 91.8451C83.0553 91.6685 83.5804 91.6903 84.014 91.9109C84.4504 92.1271 84.7693 92.5851 84.9699 93.2849L85.9902 96.8431L84.829 97.1761L83.8709 93.8347C83.7493 93.4108 83.5711 93.1188 83.3363 92.9586C83.1005 92.7951 82.7992 92.766 82.4336 92.8708C81.9036 93.0228 81.5808 93.2913 81.4666 93.676C81.3556 94.0599 81.389 94.5606 81.5661 95.1783L82.3433 97.8889L81.1821 98.2219L79.6177 92.7662L80.5222 92.5069L80.8967 93.1994L80.9612 93.1809C81.0255 92.9563 81.1268 92.7584 81.2665 92.5867C81.4091 92.4107 81.5796 92.2605 81.7792 92.1357C81.9821 92.01 82.2021 91.9131 82.4393 91.8451Z" fill="#282828"/>
<path d="M32.8568 150.308L31.4931 150.699L28.3064 148.072L27.7602 148.852L28.5332 151.548L27.3473 151.888L25.2813 144.683L26.4672 144.343L27.455 147.788C27.5491 147.569 27.6448 147.349 27.7421 147.129C27.8395 146.91 27.9369 146.69 28.0342 146.47L29.3875 143.506L30.7266 143.122L28.9331 147.049L32.8568 150.308ZM34.2424 143.895C34.9341 143.696 35.5001 143.7 35.9402 143.904C36.3835 144.108 36.6981 144.533 36.8837 145.18L37.9365 148.852L37.1113 149.088L36.667 148.378L36.6275 148.39C36.5292 148.631 36.4161 148.84 36.2881 149.015C36.1602 149.19 35.9964 149.341 35.7969 149.465C35.6016 149.592 35.3492 149.7 35.0395 149.789C34.7134 149.883 34.4049 149.907 34.114 149.863C33.8222 149.815 33.5669 149.689 33.348 149.485C33.1291 149.281 32.9655 148.99 32.8571 148.612C32.696 148.05 32.7841 147.568 33.1215 147.166C33.4621 146.762 34.0531 146.424 34.8946 146.151L35.8334 145.844L35.7514 145.558C35.6431 145.18 35.4769 144.936 35.2528 144.826C35.0321 144.716 34.7619 144.706 34.4424 144.798C34.169 144.876 33.9151 144.991 33.6807 145.144C33.4464 145.296 33.2238 145.465 33.0131 145.65L32.403 144.94C32.6293 144.722 32.8993 144.52 33.2132 144.334C33.5303 144.147 33.8734 144.001 34.2424 143.895ZM36.0376 146.575L35.338 146.802C34.7639 146.988 34.3854 147.203 34.2023 147.448C34.0193 147.692 33.9721 147.969 34.0607 148.278C34.1379 148.547 34.2751 148.721 34.4724 148.8C34.6686 148.875 34.8986 148.875 35.1621 148.799C35.564 148.684 35.8642 148.475 36.0627 148.173C36.2636 147.867 36.3005 147.492 36.1733 147.048L36.0376 146.575ZM41.3577 146.964C41.5092 146.921 41.6553 146.864 41.7961 146.796C41.9358 146.724 42.061 146.65 42.1716 146.576L42.4231 147.453C42.3107 147.546 42.158 147.641 41.9651 147.739C41.7721 147.837 41.5653 147.918 41.3445 147.981C41.0349 148.07 40.7419 148.099 40.4657 148.068C40.1885 148.034 39.9411 147.911 39.7236 147.699C39.5062 147.488 39.3334 147.159 39.2052 146.712L38.3644 143.78L37.6182 143.994L37.4699 143.476L38.153 142.837L38.1986 141.56L38.9299 141.351L39.2775 142.563L40.8439 142.114L41.0969 142.996L39.5305 143.445L40.3671 146.363C40.4462 146.639 40.5743 146.824 40.7513 146.919C40.9283 147.014 41.1304 147.029 41.3577 146.964ZM44.1496 141.054C44.6372 140.914 45.0842 140.894 45.4909 140.995C45.8976 141.095 46.2475 141.302 46.5408 141.616C46.8341 141.931 47.0542 142.344 47.2012 142.856L47.3793 143.477L43.7276 144.524C43.8925 145.05 44.151 145.416 44.5031 145.625C44.8585 145.832 45.2816 145.866 45.7724 145.725C46.1216 145.625 46.4251 145.502 46.683 145.357C46.9432 145.208 47.2027 145.025 47.4615 144.808L47.7314 145.75C47.4947 145.956 47.2432 146.13 46.9768 146.27C46.7105 146.411 46.3797 146.537 45.9844 146.651C45.4474 146.805 44.9451 146.837 44.4773 146.747C44.0118 146.653 43.6044 146.432 43.2551 146.084C42.9091 145.735 42.648 145.254 42.4718 144.639C42.2966 144.028 42.2515 143.479 42.3365 142.993C42.4216 142.506 42.6199 142.097 42.9313 141.766C43.2428 141.435 43.6489 141.198 44.1496 141.054ZM44.3997 141.926C44.0341 142.031 43.7716 142.234 43.6121 142.536C43.4559 142.837 43.4235 143.221 43.5149 143.689L46.0053 142.975C45.9239 142.704 45.8085 142.475 45.6592 142.29C45.5133 142.105 45.3344 141.978 45.1226 141.911C44.9141 141.843 44.6731 141.848 44.3997 141.926ZM58.62 135.123L58.7985 142.87L57.5039 143.241L55.0602 139.269C55.0005 139.173 54.9318 139.057 54.8541 138.923C54.7764 138.789 54.6977 138.652 54.6182 138.511C54.5419 138.369 54.4727 138.24 54.4105 138.122C54.3507 138.001 54.306 137.907 54.2763 137.841C54.2895 137.912 54.3025 138.013 54.3152 138.144C54.328 138.276 54.3395 138.422 54.3499 138.582C54.3627 138.739 54.3721 138.896 54.3783 139.054C54.3835 139.209 54.3873 139.347 54.3897 139.467L54.4403 144.119L53.1507 144.489L49.2019 137.824L50.3928 137.482L52.6465 141.407C52.718 141.532 52.7929 141.669 52.8711 141.817C52.9516 141.961 53.0293 142.108 53.1042 142.257C53.1823 142.405 53.2562 142.551 53.326 142.695C53.3947 142.835 53.4547 142.964 53.506 143.081C53.4867 142.951 53.4686 142.807 53.4516 142.648C53.4337 142.486 53.417 142.322 53.4013 142.156C53.3881 141.985 53.3768 141.822 53.3674 141.664C53.3612 141.506 53.3593 141.363 53.3616 141.234L53.318 136.644L54.4742 136.312L56.8988 140.236C56.9699 140.347 57.0436 140.473 57.1199 140.615C57.1994 140.756 57.2783 140.9 57.3565 141.048C57.4347 141.197 57.5081 141.341 57.5768 141.481C57.6456 141.622 57.7052 141.748 57.7556 141.862C57.7325 141.694 57.7093 141.502 57.6862 141.285C57.6631 141.067 57.644 140.845 57.6288 140.618C57.6138 140.392 57.6034 140.181 57.5977 139.987L57.4242 135.466L58.62 135.123ZM61.1872 136.281L62.7516 141.736L61.5903 142.069L60.0259 136.614L61.1872 136.281ZM60.0148 134.355C60.1927 134.304 60.3595 134.308 60.5153 134.366C60.6744 134.424 60.7874 134.569 60.8543 134.803C60.9202 135.033 60.9014 135.216 60.7979 135.352C60.6968 135.484 60.5573 135.576 60.3794 135.627C60.1949 135.68 60.0247 135.677 59.8689 135.618C59.7155 135.556 59.6058 135.409 59.5398 135.179C59.4729 134.946 59.4885 134.764 59.5863 134.633C59.6874 134.501 59.8303 134.408 60.0148 134.355ZM65.5829 140.924L64.4167 141.259L62.2179 133.59L63.384 133.256L65.5829 140.924ZM68.4093 140.114L67.2431 140.448L65.0442 132.78L66.2104 132.445L68.4093 140.114ZM69.6664 133.849L71.2307 139.305L70.0696 139.638L68.5052 134.182L69.6664 133.849ZM68.494 131.924C68.6719 131.873 68.8387 131.877 68.9945 131.935C69.1536 131.993 69.2666 132.138 69.3335 132.371C69.3994 132.601 69.3807 132.784 69.2771 132.921C69.176 133.053 69.0365 133.144 68.8586 133.195C68.6741 133.248 68.504 133.246 68.3482 133.187C68.1948 133.124 68.085 132.978 68.0191 132.748C67.9522 132.515 67.9677 132.333 68.0656 132.201C68.1667 132.069 68.3095 131.977 68.494 131.924ZM73.4464 132.653C74.1382 132.455 74.7041 132.458 75.1442 132.662C75.5876 132.866 75.9021 133.291 76.0877 133.939L77.1405 137.61L76.3153 137.847L75.8711 137.137L75.8315 137.148C75.7332 137.39 75.6201 137.598 75.4922 137.774C75.3642 137.949 75.2004 138.099 75.001 138.224C74.8057 138.351 74.5531 138.459 74.2435 138.548C73.9174 138.641 73.6089 138.666 73.3181 138.621C73.0263 138.573 72.7709 138.447 72.552 138.243C72.3331 138.039 72.1695 137.749 72.0611 137.371C71.9 136.809 71.9882 136.327 72.3255 135.924C72.6661 135.521 73.2571 135.182 74.0986 134.909L75.0374 134.602L74.9555 134.317C74.8471 133.939 74.6809 133.695 74.4569 133.585C74.2361 133.474 73.9659 133.464 73.6464 133.556C73.373 133.634 73.1191 133.75 72.8848 133.902C72.6504 134.055 72.4279 134.224 72.2171 134.408L71.6069 133.698C71.8333 133.48 72.1034 133.278 72.4173 133.092C72.7344 132.905 73.0774 132.759 73.4464 132.653ZM75.2416 135.333L74.5421 135.56C73.968 135.746 73.5894 135.962 73.4064 136.206C73.2234 136.451 73.1762 136.727 73.2647 137.036C73.342 137.306 73.4792 137.48 73.6764 137.558C73.8727 137.633 74.1025 137.633 74.3661 137.558C74.768 137.442 75.0682 137.234 75.2667 136.932C75.4676 136.625 75.5044 136.25 75.3772 135.806L75.2416 135.333ZM83.3534 129.812C83.9663 129.637 84.4726 129.662 84.873 129.889C85.2765 130.114 85.5778 130.576 85.7775 131.272L86.8007 134.84L85.6394 135.173L84.6757 131.812C84.5569 131.398 84.3865 131.109 84.1649 130.945C83.9433 130.781 83.6678 130.746 83.3383 130.841C82.8772 130.973 82.5869 131.216 82.4674 131.571C82.3501 131.921 82.3715 132.375 82.5317 132.934L83.3612 135.826L82.2006 136.159L81.2369 132.798C81.1577 132.522 81.0551 132.303 80.9302 132.139C80.8069 131.972 80.66 131.863 80.4888 131.813C80.3166 131.759 80.1202 131.764 79.8995 131.827C79.5794 131.919 79.3453 132.064 79.1957 132.263C79.0493 132.462 78.9752 132.714 78.974 133.02C78.9718 133.323 79.0292 133.678 79.146 134.086L79.9275 136.811L78.7662 137.144L77.2018 131.688L78.1063 131.429L78.4794 132.117L78.5439 132.098C78.6012 131.876 78.695 131.68 78.8246 131.511C78.957 131.338 79.1166 131.193 79.3039 131.075C79.4903 130.954 79.6939 130.862 79.9146 130.799C80.3232 130.681 80.688 130.655 81.0096 130.719C81.3297 130.78 81.6013 130.937 81.8236 131.19L81.9122 131.164C81.9988 130.82 82.1752 130.533 82.4408 130.303C82.7071 130.074 83.0113 129.911 83.3534 129.812ZM91.6511 131.764C91.7539 132.122 91.7532 132.449 91.6493 132.746C91.5454 133.042 91.3436 133.303 91.0445 133.527C90.7476 133.748 90.3569 133.927 89.8724 134.066C89.4904 134.176 89.1535 134.242 88.8605 134.266C88.5722 134.291 88.2899 134.283 88.0138 134.242L87.7269 133.241C88.0223 133.288 88.344 133.31 88.6921 133.306C89.0439 133.301 89.3646 133.257 89.6543 133.174C90.0363 133.064 90.2945 132.926 90.4288 132.76C90.5622 132.59 90.5995 132.405 90.542 132.205C90.5081 132.086 90.4438 131.991 90.3479 131.919C90.2548 131.843 90.1017 131.782 89.8888 131.736C89.6787 131.686 89.3769 131.641 88.9841 131.601C88.5986 131.562 88.2674 131.508 87.9907 131.438C87.7139 131.368 87.4867 131.253 87.3091 131.094C87.1311 130.932 86.9977 130.698 86.9101 130.393C86.7716 129.91 86.8582 129.488 87.1686 129.129C87.4812 128.766 87.9541 128.493 88.5866 128.312C88.9225 128.216 89.2486 128.159 89.565 128.143C89.8836 128.123 90.2043 128.136 90.5275 128.182L90.4121 129.159C90.1343 129.121 89.8597 129.104 89.5901 129.107C89.3221 129.105 89.06 129.142 88.8025 129.215C88.5027 129.301 88.287 129.413 88.1552 129.55C88.0273 129.686 87.9872 129.84 88.0362 130.011C88.0729 130.139 88.1419 130.237 88.2433 130.304C88.3446 130.371 88.4997 130.422 88.7098 130.458C88.9231 130.493 89.2146 130.528 89.585 130.564C89.9472 130.596 90.2663 130.646 90.543 130.716C90.8227 130.782 91.0543 130.895 91.2392 131.055C91.4241 131.216 91.5617 131.452 91.6511 131.764Z" fill="#282828"/>
<path d="M157.286 75.7158L156.686 75.888L155.588 72.0586C155.546 71.9132 155.511 71.7888 155.481 71.6853C155.453 71.5786 155.428 71.4818 155.406 71.3948C155.386 71.3046 155.366 71.2131 155.347 71.1197C155.293 71.2205 155.241 71.3088 155.19 71.3847C155.139 71.4579 155.076 71.5495 155.001 71.6591L154.523 72.3319L154.081 72.0067L155.226 70.4585L155.737 70.3119L157.286 75.7158ZM161.63 74.4704L161.029 74.6425L159.931 70.8132C159.89 70.6678 159.854 70.5434 159.824 70.4399C159.796 70.3332 159.771 70.2364 159.749 70.1494C159.729 70.0592 159.709 69.9675 159.69 69.8743C159.636 69.9751 159.584 70.0634 159.533 70.1393C159.483 70.2125 159.419 70.3041 159.344 70.4137L158.867 71.0865L158.425 70.7612L159.569 69.213L160.08 69.0665L161.63 74.4704ZM166.591 68.5835C166.673 68.5601 166.76 68.5406 166.852 68.5248C166.942 68.5068 167.025 68.4953 167.099 68.4901L167.184 69.0816C167.112 69.0836 167.034 69.0912 166.95 69.1048C166.865 69.1183 166.787 69.1354 166.716 69.1559C166.553 69.2026 166.408 69.2801 166.281 69.3886C166.156 69.4936 166.057 69.6236 165.984 69.7778C165.91 69.9297 165.866 70.1008 165.854 70.291C165.841 70.4787 165.865 70.6773 165.925 70.8868L166.548 73.0602L165.929 73.2377L164.767 69.1866L165.279 69.0399L165.559 69.7675L165.585 69.7601C165.626 69.5856 165.688 69.4198 165.772 69.2625C165.854 69.1029 165.963 68.9638 166.097 68.8452C166.234 68.726 166.399 68.6386 166.591 68.5835ZM169.415 67.7737C169.761 67.6745 170.08 67.6658 170.37 67.7479C170.662 67.8297 170.912 67.9899 171.122 68.2284C171.332 68.4643 171.489 68.766 171.594 69.1332L171.703 69.5139L168.898 70.3182C169.042 70.7916 169.264 71.1199 169.565 71.303C169.867 71.4858 170.225 71.5176 170.643 71.3979C170.9 71.3241 171.121 71.2355 171.305 71.132C171.489 71.0286 171.674 70.9008 171.861 70.7487L172.015 71.2884C171.837 71.4383 171.652 71.5633 171.461 71.6634C171.273 71.7626 171.042 71.8515 170.767 71.9302C170.377 72.0421 170.014 72.061 169.677 71.9869C169.342 71.9096 169.05 71.7399 168.801 71.4779C168.552 71.216 168.364 70.862 168.236 70.416C168.111 69.9798 168.076 69.582 168.131 69.2222C168.187 68.8594 168.323 68.5535 168.541 68.3045C168.761 68.0548 169.052 67.8778 169.415 67.7737ZM169.552 68.2786C169.224 68.3727 168.993 68.555 168.859 68.8254C168.725 69.0956 168.695 69.4284 168.768 69.8235L170.918 69.2071C170.846 68.9663 170.746 68.7655 170.62 68.6043C170.496 68.44 170.345 68.3287 170.168 68.27C169.989 68.2091 169.785 68.2118 169.552 68.2786ZM174.022 66.4528C174.528 66.3076 174.982 66.3654 175.383 66.6265C175.784 66.8875 176.085 67.3667 176.285 68.0641C176.417 68.5249 176.459 68.9315 176.41 69.2842C176.361 69.6368 176.234 69.9293 176.028 70.1618C175.825 70.3934 175.552 70.5582 175.211 70.656C174.996 70.7176 174.799 70.7435 174.62 70.7336C174.441 70.7236 174.279 70.6873 174.135 70.6245C173.992 70.5616 173.865 70.4846 173.756 70.3932L173.712 70.4059C173.747 70.4998 173.788 70.6133 173.837 70.746C173.888 70.878 173.928 70.9945 173.957 71.0955L174.434 72.7588L173.816 72.9362L172.135 67.0739L172.642 66.9285L172.895 67.5039L172.925 67.4953C172.969 67.3495 173.033 67.2096 173.118 67.0761C173.202 66.94 173.317 66.819 173.463 66.713C173.611 66.6041 173.797 66.5172 174.022 66.4528ZM174.063 67.0011C173.781 67.0818 173.57 67.2012 173.427 67.3593C173.288 67.5165 173.21 67.7151 173.193 67.9546C173.175 68.1916 173.211 68.4734 173.299 68.8001L173.333 68.9184C173.431 69.261 173.552 69.5398 173.694 69.7551C173.838 69.9698 174.014 70.1139 174.223 70.1874C174.433 70.2604 174.686 70.2547 174.98 70.1704C175.232 70.098 175.423 69.97 175.551 69.7864C175.681 69.6027 175.751 69.3785 175.764 69.1135C175.778 68.8455 175.739 68.5538 175.649 68.2384C175.512 67.7604 175.309 67.4077 175.041 67.1807C174.774 66.9504 174.448 66.8905 174.063 67.0011ZM180.863 66.7552C180.958 67.0879 181 67.3974 180.988 67.6834C180.977 67.9693 180.915 68.2257 180.804 68.4522C180.692 68.6789 180.534 68.8737 180.33 69.0363C180.127 69.1958 179.88 69.3173 179.588 69.401C179.316 69.4789 179.053 69.5036 178.799 69.4752C178.547 69.4435 178.312 69.3615 178.095 69.2292C177.88 69.0959 177.689 68.912 177.523 68.6769C177.359 68.4413 177.23 68.1571 177.135 67.8244C177.007 67.3808 176.975 66.9823 177.036 66.6286C177.097 66.2723 177.244 65.9728 177.477 65.7302C177.711 65.4844 178.022 65.3057 178.41 65.1945C178.781 65.0883 179.127 65.0782 179.452 65.1638C179.778 65.2489 180.063 65.4259 180.306 65.695C180.55 65.9609 180.737 66.3142 180.863 66.7552ZM177.772 67.6415C177.865 67.9669 177.989 68.2366 178.144 68.4508C178.3 68.665 178.486 68.8115 178.704 68.8904C178.922 68.9694 179.172 68.9681 179.456 68.8867C179.738 68.8058 179.951 68.6743 180.093 68.492C180.239 68.309 180.32 68.0855 180.339 67.8217C180.356 67.558 180.319 67.2634 180.225 66.938C180.133 66.6152 180.009 66.3493 179.856 66.1399C179.702 65.9282 179.516 65.7841 179.299 65.7076C179.082 65.6312 178.83 65.634 178.543 65.7164C178.121 65.8375 177.851 66.0657 177.733 66.4007C177.618 66.7352 177.631 67.1487 177.772 67.6415ZM183.172 63.8291C183.253 63.8057 183.34 63.7862 183.432 63.7706C183.523 63.7524 183.605 63.7409 183.678 63.7359L183.764 64.3274C183.692 64.3292 183.615 64.3368 183.53 64.3504C183.446 64.3639 183.368 64.381 183.296 64.4015C183.133 64.4483 182.988 64.5258 182.861 64.6342C182.737 64.7392 182.637 64.8692 182.564 65.0236C182.49 65.1753 182.447 65.3464 182.434 65.5366C182.421 65.7245 182.445 65.923 182.505 66.1324L183.128 68.3058L182.509 68.4833L181.348 64.4322L181.859 64.2855L182.14 65.0131L182.166 65.0057C182.207 64.8312 182.269 64.6654 182.352 64.5081C182.434 64.3486 182.543 64.2094 182.677 64.0909C182.814 63.9716 182.979 63.8844 183.172 63.8291ZM186.804 66.7877C186.905 66.7587 187.007 66.7203 187.108 66.6726C187.209 66.625 187.289 66.5793 187.349 66.5355L187.486 67.0122C187.424 67.0648 187.331 67.1207 187.209 67.1798C187.089 67.238 186.969 67.2845 186.848 67.3193C186.633 67.3809 186.427 67.3998 186.231 67.3761C186.033 67.3502 185.856 67.2623 185.698 67.1129C185.543 66.9628 185.419 66.7289 185.328 66.411L184.639 64.0084L184.061 64.1742L183.975 63.8748L184.488 63.4677L184.48 62.5178L184.851 62.4115L185.12 63.3504L186.31 63.0093L186.448 63.4898L185.258 63.8309L185.942 66.215C186.014 66.4688 186.127 66.6419 186.279 66.7344C186.434 66.8259 186.609 66.8438 186.804 66.7877ZM190.63 64.9547C190.704 65.2134 190.701 65.4504 190.621 65.6654C190.542 65.8771 190.395 66.0621 190.178 66.2203C189.964 66.3776 189.69 66.5043 189.357 66.5998C189.073 66.6813 188.82 66.7296 188.6 66.7447C188.38 66.7599 188.18 66.7491 188.002 66.7124L187.839 66.1469C188.028 66.1808 188.247 66.198 188.496 66.1987C188.745 66.1992 188.989 66.1652 189.229 66.0965C189.579 65.996 189.818 65.8662 189.943 65.7075C190.069 65.5489 190.104 65.3722 190.048 65.1775C190.016 65.0666 189.956 64.9785 189.868 64.9132C189.782 64.8446 189.653 64.7922 189.482 64.7559C189.31 64.717 189.08 64.6871 188.791 64.6661C188.502 64.642 188.25 64.6091 188.032 64.5676C187.816 64.5228 187.636 64.4451 187.492 64.3343C187.351 64.2229 187.247 64.0553 187.183 63.831C187.085 63.4885 187.148 63.1864 187.373 62.9246C187.599 62.6598 187.938 62.4625 188.39 62.3328C188.635 62.2627 188.87 62.2218 189.097 62.2102C189.325 62.1953 189.543 62.2021 189.752 62.2303L189.686 62.7814C189.497 62.758 189.301 62.7491 189.097 62.7542C188.892 62.7596 188.691 62.7906 188.494 62.8472C188.209 62.9288 188.004 63.0381 187.878 63.1757C187.754 63.3127 187.715 63.4624 187.762 63.625C187.798 63.7507 187.862 63.8442 187.955 63.9057C188.049 63.9666 188.185 64.0103 188.361 64.0372C188.537 64.064 188.767 64.0889 189.049 64.1121C189.33 64.1328 189.578 64.167 189.792 64.2149C190.006 64.2603 190.182 64.3405 190.322 64.4549C190.464 64.5663 190.566 64.7329 190.63 64.9547Z" fill="#888787"/>
<path d="M215.678 55.5576C214.48 51.3768 210.11 48.962 205.918 50.164C201.726 51.366 199.3 55.7295 200.499 59.9103C201.698 64.091 206.067 66.5058 210.259 65.3039C214.451 64.1019 216.877 59.7384 215.678 55.5576Z" fill="#282828"/>
<path d="M205.922 54.9424L209.989 57.1897L207.731 61.2507" stroke="white" stroke-linecap="round" stroke-linejoin="round"/>
<path d="M10.1328 133.614L228.339 71.0441" stroke="#DFDFDF"/>
<path d="M167.592 111.673L166.992 111.846L165.894 108.016C165.852 107.871 165.816 107.746 165.787 107.643C165.759 107.536 165.734 107.439 165.712 107.352C165.691 107.262 165.671 107.171 165.653 107.077C165.599 107.178 165.547 107.266 165.496 107.342C165.445 107.416 165.382 107.507 165.306 107.617L164.829 108.29L164.387 107.964L165.531 106.416L166.042 106.27L167.592 111.673ZM172.448 107.349C172.574 107.788 172.653 108.189 172.685 108.553C172.718 108.917 172.696 109.239 172.621 109.519C172.547 109.799 172.414 110.035 172.222 110.226C172.031 110.414 171.775 110.554 171.456 110.645C171.054 110.761 170.689 110.747 170.361 110.603C170.037 110.459 169.75 110.199 169.5 109.822C169.252 109.443 169.044 108.96 168.876 108.373C168.71 107.797 168.627 107.285 168.624 106.837C168.623 106.387 168.722 106.013 168.92 105.716C169.118 105.417 169.432 105.206 169.861 105.083C170.269 104.966 170.637 104.98 170.965 105.126C171.292 105.27 171.58 105.531 171.828 105.911C172.075 106.288 172.281 106.767 172.448 107.349ZM169.495 108.196C169.639 108.698 169.797 109.106 169.97 109.42C170.142 109.733 170.338 109.949 170.557 110.067C170.777 110.183 171.027 110.201 171.306 110.121C171.585 110.04 171.786 109.893 171.91 109.679C172.035 109.465 172.088 109.179 172.069 108.822C172.052 108.464 171.971 108.033 171.826 107.527C171.684 107.032 171.527 106.629 171.354 106.318C171.182 106.005 170.986 105.789 170.768 105.67C170.549 105.549 170.297 105.529 170.013 105.611C169.729 105.693 169.526 105.843 169.404 106.062C169.282 106.278 169.23 106.565 169.25 106.922C169.271 107.276 169.353 107.7 169.495 108.196ZM176.897 104.541C176.979 104.518 177.065 104.498 177.157 104.482C177.248 104.464 177.33 104.453 177.404 104.448L177.49 105.039C177.418 105.041 177.34 105.049 177.255 105.062C177.171 105.076 177.093 105.093 177.021 105.113C176.858 105.16 176.713 105.238 176.586 105.346C176.462 105.451 176.362 105.581 176.289 105.735C176.215 105.887 176.172 106.058 176.159 106.249C176.147 106.436 176.17 106.635 176.23 106.844L176.853 109.018L176.234 109.195L175.073 105.144L175.584 104.997L175.865 105.725L175.891 105.718C175.932 105.543 175.994 105.377 176.077 105.22C176.16 105.061 176.268 104.921 176.403 104.803C176.54 104.684 176.705 104.596 176.897 104.541ZM179.721 103.731C180.067 103.632 180.386 103.623 180.676 103.705C180.967 103.787 181.218 103.947 181.428 104.186C181.637 104.422 181.794 104.724 181.899 105.091L182.009 105.471L179.204 106.276C179.348 106.749 179.57 107.078 179.871 107.261C180.172 107.443 180.531 107.475 180.949 107.356C181.206 107.282 181.426 107.193 181.611 107.09C181.795 106.986 181.98 106.858 182.166 106.706L182.321 107.246C182.142 107.396 181.958 107.521 181.767 107.621C181.579 107.72 181.348 107.809 181.073 107.888C180.683 108 180.319 108.019 179.983 107.945C179.648 107.867 179.356 107.698 179.107 107.436C178.858 107.174 178.67 106.82 178.542 106.374C178.417 105.937 178.381 105.54 178.436 105.18C178.492 104.817 178.629 104.511 178.847 104.262C179.067 104.012 179.358 103.835 179.721 103.731ZM179.858 104.236C179.529 104.33 179.298 104.513 179.164 104.783C179.031 105.053 179 105.386 179.073 105.781L181.223 105.165C181.151 104.924 181.052 104.723 180.926 104.562C180.801 104.398 180.65 104.286 180.473 104.228C180.295 104.167 180.09 104.169 179.858 104.236ZM184.327 102.41C184.834 102.265 185.288 102.323 185.689 102.584C186.09 102.845 186.39 103.324 186.59 104.022C186.722 104.482 186.764 104.889 186.716 105.242C186.667 105.594 186.54 105.887 186.333 106.119C186.13 106.351 185.858 106.516 185.517 106.614C185.302 106.675 185.105 106.701 184.925 106.691C184.746 106.681 184.585 106.645 184.441 106.582C184.297 106.519 184.171 106.442 184.062 106.351L184.017 106.364C184.053 106.457 184.094 106.571 184.143 106.704C184.194 106.836 184.234 106.952 184.263 107.053L184.74 108.716L184.121 108.894L182.44 103.032L182.948 102.886L183.201 103.461L183.231 103.453C183.274 103.307 183.339 103.167 183.423 103.034C183.507 102.898 183.623 102.777 183.769 102.671C183.916 102.562 184.103 102.475 184.327 102.41ZM184.368 102.959C184.087 103.039 183.875 103.159 183.733 103.317C183.594 103.474 183.515 103.673 183.499 103.912C183.481 104.149 183.517 104.431 183.605 104.758L183.639 104.876C183.737 105.219 183.857 105.497 183.999 105.713C184.144 105.927 184.32 106.071 184.528 106.145C184.739 106.218 184.991 106.212 185.285 106.128C185.538 106.056 185.728 105.928 185.857 105.744C185.986 105.56 186.057 105.336 186.069 105.071C186.083 104.803 186.045 104.511 185.954 104.196C185.817 103.718 185.615 103.365 185.347 103.138C185.08 102.908 184.754 102.848 184.368 102.959ZM191.169 102.713C191.264 103.046 191.306 103.355 191.294 103.641C191.283 103.927 191.221 104.183 191.11 104.41C190.998 104.636 190.84 104.831 190.635 104.994C190.432 105.153 190.185 105.275 189.894 105.359C189.622 105.437 189.359 105.461 189.105 105.433C188.852 105.401 188.617 105.319 188.4 105.187C188.186 105.053 187.995 104.87 187.829 104.635C187.665 104.399 187.536 104.115 187.44 103.782C187.313 103.338 187.28 102.94 187.342 102.586C187.403 102.23 187.55 101.93 187.782 101.688C188.016 101.442 188.328 101.263 188.716 101.152C189.086 101.046 189.433 101.036 189.757 101.121C190.084 101.207 190.369 101.384 190.611 101.653C190.856 101.918 191.042 102.272 191.169 102.713ZM188.078 103.599C188.171 103.924 188.295 104.194 188.45 104.408C188.605 104.623 188.792 104.769 189.009 104.848C189.227 104.927 189.478 104.926 189.762 104.844C190.044 104.763 190.256 104.632 190.399 104.45C190.544 104.267 190.626 104.043 190.644 103.779C190.662 103.516 190.624 103.221 190.531 102.896C190.439 102.573 190.315 102.307 190.162 102.097C190.007 101.886 189.822 101.742 189.605 101.665C189.388 101.589 189.136 101.592 188.849 101.674C188.426 101.795 188.156 102.023 188.039 102.358C187.923 102.693 187.936 103.106 188.078 103.599ZM193.478 99.7867C193.559 99.7633 193.646 99.7438 193.737 99.7282C193.829 99.71 193.911 99.6985 193.984 99.6935L194.069 100.285C193.998 100.287 193.92 100.294 193.836 100.308C193.751 100.322 193.673 100.339 193.602 100.359C193.439 100.406 193.294 100.483 193.167 100.592C193.042 100.697 192.943 100.827 192.869 100.981C192.796 101.133 192.752 101.304 192.74 101.494C192.727 101.682 192.751 101.881 192.811 102.09L193.434 104.263L192.815 104.441L191.653 100.39L192.165 100.243L192.445 100.971L192.471 100.963C192.512 100.789 192.574 100.623 192.658 100.466C192.74 100.306 192.849 100.167 192.983 100.048C193.12 99.9292 193.285 99.842 193.478 99.7867ZM197.11 102.745C197.211 102.716 197.312 102.678 197.414 102.63C197.515 102.583 197.595 102.537 197.655 102.493L197.792 102.97C197.729 103.022 197.636 103.078 197.514 103.137C197.395 103.196 197.275 103.242 197.153 103.277C196.938 103.339 196.733 103.357 196.536 103.334C196.339 103.308 196.162 103.22 196.004 103.07C195.848 102.92 195.725 102.686 195.633 102.369L194.945 99.966L194.366 100.132L194.281 99.8324L194.794 99.4253L194.786 98.4754L195.157 98.3691L195.426 99.308L196.616 98.9668L196.753 99.4473L195.564 99.7885L196.247 102.173C196.32 102.426 196.433 102.599 196.584 102.692C196.739 102.784 196.914 102.801 197.11 102.745ZM200.935 100.912C201.01 101.171 201.006 101.408 200.926 101.623C200.848 101.835 200.701 102.02 200.484 102.178C200.27 102.335 199.996 102.462 199.662 102.557C199.378 102.639 199.126 102.687 198.906 102.702C198.686 102.717 198.486 102.707 198.307 102.67L198.145 102.104C198.333 102.138 198.553 102.156 198.801 102.156C199.051 102.157 199.295 102.123 199.534 102.054C199.885 101.954 200.124 101.824 200.249 101.665C200.375 101.506 200.41 101.33 200.354 101.135C200.322 101.024 200.262 100.936 200.173 100.871C200.087 100.802 199.959 100.75 199.787 100.714C199.616 100.675 199.386 100.645 199.096 100.624C198.808 100.6 198.556 100.567 198.338 100.525C198.122 100.48 197.942 100.403 197.798 100.292C197.656 100.181 197.553 100.013 197.489 99.7886C197.39 99.4461 197.454 99.144 197.678 98.8822C197.904 98.6173 198.243 98.4201 198.696 98.2904C198.94 98.2202 199.176 98.1794 199.402 98.1678C199.631 98.1529 199.849 98.1597 200.058 98.1879L199.991 98.739C199.803 98.7155 199.606 98.7067 199.402 98.7118C199.198 98.7171 198.997 98.7482 198.799 98.8047C198.515 98.8864 198.31 98.9957 198.184 99.1333C198.059 99.2703 198.021 99.42 198.067 99.5826C198.103 99.7083 198.168 99.8018 198.26 99.8633C198.355 99.9242 198.491 99.9679 198.667 99.9948C198.843 100.022 199.072 100.046 199.354 100.07C199.635 100.09 199.883 100.125 200.098 100.172C200.311 100.218 200.488 100.298 200.628 100.413C200.769 100.524 200.872 100.691 200.935 100.912Z" fill="#888787"/>
<path d="M225.811 90.8838C224.612 86.703 220.242 84.2882 216.051 85.4902C211.859 86.6921 209.433 91.0557 210.632 95.2364C211.83 99.4172 216.2 101.832 220.392 100.63C224.584 99.4281 227.01 95.0645 225.811 90.8838Z" fill="#282828"/>
<path d="M216.055 90.2686L220.122 92.5159L217.864 96.5768" stroke="white" stroke-linecap="round" stroke-linejoin="round"/>
<path d="M20.2578 168.94L238.464 106.371" stroke="#DFDFDF"/>
<path d="M40.5981 186.321L36.7923 180.9L36.7478 180.912C36.7962 181.044 36.8606 181.225 36.9407 181.455C37.0208 181.684 37.104 181.931 37.19 182.193C37.2762 182.457 37.3542 182.71 37.4239 182.953L38.5573 186.906L37.4801 187.215L35.414 180.009L37.0792 179.532L40.7296 184.709L40.7593 184.701L41.1805 178.356L42.8408 177.88L44.9068 185.085L43.7753 185.41L42.625 181.398C42.5619 181.178 42.4968 180.939 42.43 180.681C42.3664 180.422 42.3065 180.175 42.2505 179.943C42.1977 179.709 42.1547 179.522 42.1219 179.382L42.0824 179.394L41.6456 186.02L40.5981 186.321ZM47.2412 178.4C47.933 178.202 48.4989 178.204 48.9389 178.409C49.3822 178.612 49.6968 179.038 49.8824 179.685L50.9352 183.357L50.11 183.593L49.6657 182.883L49.6262 182.894C49.528 183.136 49.4149 183.345 49.2869 183.52C49.1589 183.695 48.9951 183.845 48.7956 183.97C48.6003 184.097 48.3478 184.205 48.0382 184.294C47.712 184.387 47.4035 184.412 47.1127 184.367C46.8209 184.319 46.5657 184.194 46.3467 183.99C46.1277 183.785 45.9642 183.495 45.8559 183.117C45.6947 182.555 45.7829 182.073 46.1202 181.671C46.4608 181.267 47.0518 180.928 47.8933 180.656L48.8321 180.349L48.7501 180.063C48.6418 179.685 48.4756 179.441 48.2516 179.331C48.0307 179.22 47.7607 179.211 47.4412 179.302C47.1677 179.381 46.9137 179.496 46.6794 179.648C46.4451 179.801 46.2226 179.97 46.0118 180.155L45.4016 179.444C45.6279 179.226 45.8981 179.025 46.2118 178.838C46.5291 178.652 46.8722 178.506 47.2412 178.4ZM49.0362 181.079L48.3367 181.307C47.7628 181.493 47.3841 181.708 47.201 181.953C47.018 182.197 46.9709 182.474 47.0594 182.782C47.1366 183.052 47.2739 183.226 47.4711 183.305C47.6673 183.379 47.8973 183.38 48.1608 183.304C48.5627 183.189 48.8628 182.98 49.0615 182.678C49.2623 182.371 49.2991 181.996 49.1719 181.553L49.0362 181.079ZM53.739 176.537C53.8312 176.51 53.9329 176.486 54.0445 176.465C54.1561 176.444 54.2536 176.429 54.3374 176.423L54.5396 177.539C54.4648 177.539 54.375 177.549 54.27 177.568C54.1683 177.586 54.0779 177.607 53.9988 177.63C53.7913 177.689 53.6036 177.78 53.4355 177.903C53.2668 178.023 53.1295 178.172 53.0242 178.352C52.9178 178.528 52.8528 178.73 52.8289 178.958C52.8048 179.184 52.8314 179.433 52.9089 179.703L53.727 182.556L52.5609 182.89L50.9966 177.435L51.9057 177.174L52.3393 178.09L52.3937 178.074C52.4469 177.849 52.5309 177.633 52.6462 177.426C52.7615 177.218 52.9093 177.037 53.0895 176.883C53.2721 176.724 53.4886 176.608 53.739 176.537ZM59.161 181.104C58.6438 181.253 58.167 181.281 57.7309 181.189C57.2945 181.097 56.9149 180.874 56.592 180.519C56.2689 180.163 56.0161 179.667 55.8334 179.029C55.6431 178.366 55.5996 177.791 55.703 177.307C55.8064 176.822 56.0271 176.423 56.3649 176.109C56.7059 175.794 57.1336 175.563 57.6475 175.416C57.9736 175.322 58.2778 175.271 58.5602 175.261C58.8449 175.247 59.0926 175.259 59.3035 175.298L59.2233 176.324C58.9987 176.299 58.7731 176.289 58.5464 176.294C58.3194 176.298 58.1089 176.329 57.9145 176.385C57.595 176.476 57.3484 176.623 57.1748 176.826C57.0045 177.028 56.9067 177.283 56.8814 177.593C56.8592 177.901 56.9076 178.263 57.0263 178.676C57.1413 179.078 57.291 179.401 57.4754 179.646C57.6592 179.889 57.875 180.051 58.123 180.133C58.3702 180.211 58.6452 180.207 58.9482 180.12C59.248 180.034 59.5062 179.921 59.7226 179.781C59.9392 179.641 60.1362 179.483 60.3141 179.307L60.6025 180.313C60.4288 180.49 60.2313 180.641 60.0103 180.765C59.7899 180.892 59.5068 181.005 59.161 181.104ZM67.2117 178.689L66.0209 179.031L64.2431 172.831L62.1282 173.437L61.8399 172.432L67.2556 170.879L67.5439 171.885L65.434 172.49L67.2117 178.689ZM69.2722 169.8L69.8247 171.726C69.8822 171.927 69.9317 172.124 69.9731 172.319C70.0179 172.512 70.0489 172.663 70.0657 172.772L70.1299 172.753C70.1906 172.53 70.2876 172.333 70.4207 172.164C70.5528 171.99 70.7139 171.843 70.9035 171.721C71.0964 171.598 71.3113 171.503 71.5485 171.435C71.9669 171.315 72.3429 171.283 72.6766 171.341C73.0095 171.395 73.2951 171.546 73.5339 171.794C73.7757 172.041 73.9637 172.398 74.0974 172.864L75.1177 176.422L73.9566 176.755L72.9984 173.414C72.8769 172.99 72.6988 172.698 72.4637 172.538C72.228 172.374 71.9273 172.345 71.5617 172.45C71.2092 172.551 70.9504 172.705 70.7851 172.912C70.6223 173.115 70.5374 173.373 70.5304 173.684C70.5225 173.992 70.577 174.35 70.6938 174.757L71.4711 177.468L70.3099 177.801L68.111 170.133L69.2722 169.8ZM80.8001 171.827C80.9302 172.281 80.9863 172.7 80.9684 173.086C80.9508 173.472 80.863 173.818 80.7054 174.126C80.547 174.432 80.3262 174.694 80.0434 174.914C79.7597 175.13 79.4169 175.296 79.015 175.411C78.6394 175.519 78.2773 175.555 77.9285 175.52C77.5789 175.482 77.2545 175.376 76.9549 175.202C76.658 175.024 76.3966 174.778 76.1705 174.462C75.9446 174.146 75.7665 173.762 75.6365 173.308C75.4641 172.707 75.4219 172.168 75.5097 171.691C75.6 171.21 75.8079 170.804 76.1335 170.472C76.4591 170.141 76.8904 169.898 77.4274 169.744C77.9314 169.6 78.4076 169.582 78.8561 169.691C79.3047 169.801 79.698 170.035 80.0359 170.393C80.3739 170.751 80.6286 171.229 80.8001 171.827ZM76.8322 172.965C76.9462 173.362 77.0917 173.689 77.2681 173.944C77.4479 174.198 77.6616 174.372 77.9093 174.465C78.1559 174.554 78.4406 174.552 78.7634 174.459C79.0863 174.367 79.3286 174.217 79.4905 174.011C79.6514 173.801 79.739 173.541 79.7535 173.231C79.7682 172.922 79.7183 172.568 79.6043 172.17C79.4904 171.773 79.346 171.45 79.1714 171.201C78.9957 170.949 78.7851 170.78 78.5394 170.694C78.2927 170.605 78.0064 170.607 77.6802 170.7C77.1992 170.838 76.8947 171.1 76.7663 171.485C76.6378 171.87 76.6599 172.364 76.8322 172.965ZM87.5076 166.854C88.1203 166.678 88.6266 166.703 89.027 166.93C89.4299 167.156 89.7318 167.617 89.9315 168.313L90.9546 171.881L89.7934 172.214L88.8296 168.853C88.7109 168.439 88.5404 168.15 88.319 167.986C88.0972 167.822 87.8217 167.788 87.4923 167.882C87.0311 168.014 86.7408 168.257 86.6213 168.612C86.5041 168.961 86.5258 169.416 86.6859 169.974L87.5154 172.867L86.3542 173.2L85.3904 169.839C85.3112 169.563 85.2091 169.344 85.0839 169.18C84.9609 169.013 84.8139 168.904 84.6426 168.854C84.4703 168.8 84.2739 168.805 84.0532 168.868C83.7337 168.96 83.499 169.105 83.3493 169.304C83.203 169.503 83.1292 169.755 83.1279 170.061C83.1257 170.364 83.1829 170.719 83.2998 171.127L84.0812 173.852L82.9201 174.185L81.3557 168.73L82.2599 168.47L82.6335 169.158L82.6978 169.139C82.7552 168.917 82.8487 168.721 82.9785 168.552C83.1109 168.379 83.2706 168.234 83.4578 168.116C83.6441 167.995 83.8477 167.903 84.0685 167.84C84.4769 167.723 84.8418 167.696 85.1632 167.76C85.4837 167.821 85.7551 167.978 85.9773 168.231L86.0662 168.205C86.1528 167.861 86.3289 167.573 86.5947 167.344C86.8606 167.115 87.165 166.952 87.5076 166.854ZM93.1258 165.243C93.8177 165.044 94.3833 165.047 94.8238 165.251C95.2668 165.455 95.5813 165.881 95.7668 166.528L96.8196 170.199L95.9948 170.436L95.5503 169.726L95.5111 169.737C95.4127 169.979 95.2994 170.187 95.1716 170.363C95.0433 170.538 94.8796 170.688 94.6806 170.813C94.485 170.94 94.2325 171.048 93.9226 171.137C93.5969 171.23 93.2883 171.254 92.997 171.21C92.7053 171.162 92.4503 171.037 92.2316 170.832C92.0122 170.628 91.8489 170.338 91.7405 169.96C91.5793 169.398 91.6677 168.916 92.0047 168.513C92.3455 168.11 92.9363 167.771 93.7781 167.498L94.7168 167.192L94.6349 166.906C94.5265 166.528 94.3601 166.284 94.1363 166.174C93.9154 166.063 93.6451 166.054 93.3257 166.145C93.0525 166.224 92.7981 166.339 92.5639 166.491C92.3297 166.644 92.1071 166.813 91.8965 166.997L91.2862 166.287C91.5126 166.069 91.7826 165.867 92.0961 165.681C92.4136 165.495 92.7571 165.348 93.1258 165.243ZM94.9209 167.922L94.2215 168.149C93.6473 168.336 93.2688 168.551 93.0856 168.795C92.9024 169.04 92.8552 169.317 92.9437 169.625C93.0209 169.895 93.1585 170.069 93.3556 170.147C93.5516 170.222 93.7817 170.223 94.0454 170.147C94.447 170.032 94.7478 169.823 94.946 169.521C95.1468 169.214 95.1837 168.839 95.0565 168.395L94.9209 167.922ZM101.675 167.122C101.778 167.48 101.777 167.807 101.673 168.104C101.569 168.4 101.368 168.66 101.068 168.885C100.772 169.105 100.381 169.285 99.897 169.423C99.5144 169.533 99.1775 169.6 98.8844 169.623C98.5962 169.649 98.3139 169.641 98.0384 169.599L97.7515 168.599C98.0464 168.646 98.368 168.667 98.7161 168.664C99.0679 168.659 99.3886 168.615 99.6783 168.532C100.06 168.422 100.318 168.284 100.453 168.118C100.586 167.948 100.624 167.763 100.566 167.562C100.532 167.444 100.468 167.349 100.372 167.277C100.279 167.2 100.126 167.139 99.9134 167.094C99.7028 167.044 99.4009 166.999 99.0081 166.958C98.6225 166.92 98.2914 166.865 98.0147 166.796C97.7379 166.725 97.5108 166.611 97.3338 166.452C97.1551 166.29 97.0224 166.056 96.9347 165.75C96.7963 165.267 96.8822 164.846 97.1926 164.487C97.5052 164.123 97.9782 163.851 98.6107 163.67C98.9465 163.574 99.2725 163.517 99.5891 163.501C99.9077 163.481 100.228 163.494 100.551 163.539L100.436 164.517C100.158 164.479 99.8843 164.462 99.614 164.464C99.3461 164.463 99.084 164.5 98.8266 164.573C98.5268 164.659 98.3109 164.77 98.1792 164.908C98.0512 165.044 98.0111 165.198 98.0601 165.369C98.0968 165.497 98.1659 165.594 98.2673 165.661C98.3687 165.729 98.5237 165.78 98.7339 165.816C98.947 165.85 99.2386 165.886 99.6096 165.922C99.9711 165.953 100.29 166.004 100.567 166.074C100.847 166.14 101.078 166.253 101.263 166.413C101.449 166.573 101.586 166.809 101.675 167.122Z" fill="#282828"/>
<path d="M177.724 147L177.124 147.172L176.026 143.343C175.984 143.197 175.948 143.073 175.919 142.969C175.891 142.863 175.866 142.766 175.843 142.679C175.823 142.588 175.803 142.497 175.784 142.404C175.73 142.504 175.679 142.593 175.628 142.668C175.577 142.742 175.513 142.834 175.438 142.943L174.961 143.616L174.519 143.291L175.663 141.743L176.174 141.596L177.724 147ZM180.478 146.21L181.312 140.73L178.359 141.577L178.198 141.016L181.811 139.98L181.947 140.453L181.152 146.017L180.478 146.21ZM187.029 139.867C187.11 139.844 187.197 139.825 187.289 139.808C187.38 139.791 187.462 139.779 187.536 139.774L187.621 140.365C187.549 140.367 187.472 140.375 187.387 140.389C187.303 140.402 187.225 140.42 187.153 140.44C186.99 140.487 186.845 140.564 186.718 140.673C186.594 140.777 186.494 140.908 186.421 141.062C186.347 141.213 186.304 141.385 186.291 141.575C186.279 141.763 186.302 141.961 186.362 142.171L186.985 144.344L186.366 144.522L185.204 140.47L185.716 140.324L185.997 141.052L186.023 141.044C186.063 140.869 186.126 140.704 186.209 140.546C186.291 140.387 186.4 140.248 186.534 140.129C186.671 140.01 186.837 139.923 187.029 139.867ZM189.853 139.058C190.199 138.958 190.517 138.95 190.808 139.032C191.099 139.113 191.349 139.274 191.56 139.512C191.769 139.748 191.926 140.05 192.031 140.417L192.14 140.798L189.335 141.602C189.479 142.076 189.701 142.404 190.002 142.587C190.304 142.77 190.663 142.801 191.08 142.682C191.338 142.608 191.558 142.519 191.743 142.416C191.927 142.313 192.112 142.185 192.298 142.033L192.453 142.572C192.274 142.722 192.089 142.847 191.898 142.948C191.711 143.046 191.479 143.135 191.205 143.214C190.815 143.326 190.451 143.345 190.114 143.271C189.779 143.193 189.488 143.024 189.239 142.762C188.99 142.5 188.801 142.146 188.673 141.7C188.548 141.264 188.513 140.866 188.568 140.506C188.624 140.143 188.761 139.838 188.978 139.588C189.198 139.339 189.49 139.162 189.853 139.058ZM189.989 139.563C189.661 139.657 189.43 139.839 189.296 140.11C189.163 140.379 189.132 140.712 189.205 141.107L191.355 140.491C191.283 140.25 191.184 140.05 191.058 139.889C190.933 139.724 190.782 139.613 190.605 139.554C190.427 139.493 190.222 139.496 189.989 139.563ZM194.459 137.737C194.966 137.592 195.42 137.649 195.82 137.91C196.222 138.171 196.522 138.651 196.722 139.348C196.854 139.809 196.896 140.215 196.847 140.568C196.799 140.921 196.672 141.213 196.465 141.446C196.262 141.677 195.99 141.842 195.649 141.94C195.434 142.001 195.236 142.027 195.057 142.017C194.878 142.008 194.716 141.971 194.573 141.908C194.429 141.846 194.303 141.769 194.193 141.677L194.149 141.69C194.184 141.783 194.226 141.897 194.275 142.03C194.326 142.162 194.366 142.278 194.395 142.379L194.872 144.043L194.253 144.22L192.572 138.358L193.079 138.212L193.333 138.788L193.362 138.779C193.406 138.633 193.471 138.493 193.555 138.36C193.639 138.224 193.754 138.103 193.901 137.997C194.048 137.888 194.235 137.801 194.459 137.737ZM194.5 138.285C194.219 138.366 194.007 138.485 193.865 138.643C193.726 138.8 193.647 138.999 193.63 139.238C193.613 139.475 193.648 139.757 193.737 140.084L193.771 140.202C193.869 140.545 193.989 140.824 194.131 141.039C194.275 141.254 194.451 141.398 194.66 141.472C194.871 141.544 195.123 141.539 195.417 141.455C195.669 141.382 195.86 141.254 195.989 141.07C196.118 140.886 196.189 140.663 196.201 140.398C196.215 140.129 196.177 139.838 196.086 139.522C195.949 139.044 195.747 138.691 195.478 138.465C195.212 138.234 194.886 138.174 194.5 138.285ZM201.3 138.039C201.396 138.372 201.437 138.681 201.426 138.967C201.415 139.254 201.352 139.51 201.241 139.736C201.13 139.963 200.971 140.157 200.767 140.321C200.564 140.48 200.317 140.601 200.025 140.685C199.753 140.763 199.491 140.788 199.236 140.759C198.984 140.727 198.749 140.645 198.532 140.513C198.318 140.38 198.127 140.196 197.961 139.961C197.797 139.725 197.667 139.441 197.572 139.108C197.445 138.665 197.412 138.266 197.473 137.912C197.535 137.556 197.682 137.257 197.914 137.014C198.148 136.768 198.46 136.59 198.847 136.479C199.218 136.372 199.565 136.362 199.889 136.448C200.215 136.533 200.5 136.71 200.743 136.979C200.988 137.245 201.174 137.598 201.3 138.039ZM198.209 138.925C198.303 139.251 198.427 139.52 198.582 139.735C198.737 139.949 198.924 140.095 199.141 140.174C199.359 140.253 199.61 140.252 199.894 140.171C200.176 140.09 200.388 139.958 200.531 139.776C200.676 139.593 200.758 139.369 200.776 139.106C200.793 138.842 200.756 138.547 200.663 138.222C200.57 137.899 200.447 137.633 200.294 137.424C200.139 137.212 199.953 137.068 199.737 136.992C199.52 136.915 199.268 136.918 198.981 137C198.558 137.121 198.288 137.35 198.171 137.684C198.055 138.019 198.068 138.433 198.209 138.925ZM203.609 135.113C203.691 135.09 203.778 135.07 203.869 135.054C203.96 135.036 204.043 135.025 204.116 135.02L204.201 135.611C204.13 135.613 204.052 135.621 203.968 135.634C203.883 135.648 203.805 135.665 203.734 135.686C203.571 135.732 203.426 135.809 203.299 135.918C203.174 136.023 203.075 136.153 203.001 136.307C202.927 136.459 202.884 136.63 202.872 136.82C202.858 137.008 202.883 137.207 202.943 137.416L203.566 139.59L202.947 139.767L201.785 135.716L202.297 135.569L202.577 136.297L202.603 136.29C202.644 136.115 202.706 135.95 202.79 135.792C202.872 135.632 202.981 135.493 203.115 135.375C203.252 135.256 203.416 135.168 203.609 135.113ZM207.241 138.071C207.343 138.042 207.444 138.005 207.545 137.956C207.647 137.909 207.727 137.863 207.787 137.82L207.923 138.296C207.861 138.349 207.768 138.404 207.646 138.463C207.527 138.522 207.407 138.568 207.285 138.603C207.07 138.665 206.865 138.684 206.668 138.66C206.47 138.634 206.293 138.546 206.136 138.397C205.98 138.247 205.856 138.013 205.765 137.695L205.076 135.292L204.498 135.458L204.412 135.159L204.925 134.751L204.918 133.802L205.289 133.696L205.558 134.634L206.747 134.293L206.885 134.774L205.696 135.115L206.379 137.499C206.452 137.752 206.564 137.926 206.716 138.018C206.871 138.11 207.046 138.128 207.241 138.071ZM211.067 136.239C211.141 136.497 211.138 136.734 211.058 136.949C210.98 137.161 210.832 137.346 210.616 137.504C210.402 137.662 210.127 137.788 209.794 137.884C209.51 137.965 209.258 138.014 209.038 138.029C208.817 138.044 208.618 138.033 208.439 137.996L208.277 137.431C208.465 137.465 208.684 137.482 208.933 137.483C209.182 137.483 209.427 137.449 209.666 137.38C210.017 137.28 210.255 137.15 210.381 136.992C210.507 136.833 210.541 136.656 210.486 136.461C210.454 136.35 210.394 136.262 210.305 136.197C210.219 136.129 210.09 136.076 209.919 136.04C209.748 136.001 209.517 135.971 209.228 135.95C208.94 135.926 208.687 135.893 208.469 135.852C208.253 135.807 208.074 135.729 207.93 135.619C207.788 135.507 207.685 135.339 207.62 135.115C207.522 134.772 207.585 134.47 207.81 134.208C208.036 133.943 208.375 133.746 208.827 133.617C209.072 133.547 209.307 133.506 209.534 133.494C209.763 133.479 209.981 133.486 210.19 133.514L210.123 134.065C209.935 134.042 209.738 134.033 209.534 134.038C209.33 134.044 209.128 134.075 208.931 134.131C208.646 134.213 208.442 134.322 208.315 134.459C208.191 134.597 208.153 134.746 208.199 134.909C208.235 135.035 208.3 135.128 208.392 135.19C208.487 135.251 208.622 135.294 208.799 135.321C208.975 135.348 209.204 135.373 209.486 135.396C209.767 135.417 210.015 135.451 210.23 135.499C210.443 135.544 210.619 135.624 210.76 135.739C210.901 135.851 211.004 136.017 211.067 136.239Z" fill="#888787"/>
<path d="M235.944 126.21C234.745 122.029 230.375 119.614 226.184 120.816C221.992 122.018 219.566 126.382 220.764 130.563C221.963 134.743 226.333 137.158 230.525 135.956C234.717 134.754 237.143 130.391 235.944 126.21Z" fill="#282828"/>
<path d="M226.18 125.595L230.247 127.843L227.989 131.903" stroke="white" stroke-linecap="round" stroke-linejoin="round"/>
<path d="M30.3906 204.267L248.597 141.697" stroke="#DFDFDF"/>
<path d="M187.855 182.326L187.255 182.498L186.157 178.669C186.115 178.523 186.08 178.399 186.05 178.295C186.022 178.189 185.997 178.092 185.975 178.005C185.955 177.915 185.935 177.823 185.916 177.73C185.862 177.831 185.81 177.919 185.759 177.994C185.708 178.068 185.645 178.16 185.57 178.269L185.092 178.942L184.65 178.617L185.795 177.069L186.306 176.922L187.855 182.326ZM192.071 176.633C192.14 176.874 192.153 177.097 192.11 177.302C192.067 177.506 191.978 177.689 191.842 177.851C191.706 178.01 191.531 178.144 191.316 178.253L191.325 178.283C191.77 178.214 192.132 178.26 192.41 178.419C192.692 178.579 192.884 178.839 192.987 179.198C193.077 179.511 193.082 179.81 193.003 180.094C192.926 180.377 192.756 180.631 192.492 180.856C192.229 181.079 191.862 181.257 191.39 181.392C191.104 181.474 190.831 181.527 190.573 181.551C190.318 181.576 190.064 181.567 189.812 181.525L189.647 180.948C189.903 180.995 190.173 181.012 190.456 181C190.738 180.986 191.002 180.944 191.249 180.873C191.743 180.731 192.072 180.532 192.236 180.274C192.4 180.013 192.432 179.714 192.335 179.374C192.268 179.14 192.152 178.969 191.988 178.861C191.825 178.75 191.619 178.695 191.37 178.694C191.123 178.69 190.839 178.734 190.518 178.826L189.977 178.981L189.826 178.457L190.371 178.3C190.665 178.216 190.902 178.102 191.082 177.956C191.263 177.811 191.384 177.646 191.445 177.46C191.509 177.272 191.51 177.07 191.449 176.855C191.37 176.582 191.219 176.398 190.993 176.302C190.768 176.204 190.497 176.2 190.184 176.29C189.991 176.346 189.821 176.415 189.674 176.5C189.528 176.585 189.395 176.682 189.276 176.79C189.158 176.899 189.042 177.019 188.93 177.149L188.498 176.817C188.652 176.608 188.855 176.407 189.107 176.215C189.359 176.022 189.666 175.875 190.027 175.771C190.58 175.613 191.031 175.619 191.38 175.791C191.729 175.963 191.959 176.243 192.071 176.633ZM197.16 175.194C197.242 175.17 197.329 175.151 197.421 175.135C197.511 175.117 197.594 175.105 197.668 175.1L197.753 175.691C197.681 175.694 197.603 175.702 197.519 175.715C197.434 175.728 197.356 175.746 197.285 175.766C197.122 175.813 196.977 175.89 196.85 175.999C196.725 176.103 196.626 176.234 196.553 176.388C196.479 176.539 196.435 176.711 196.423 176.901C196.41 177.089 196.434 177.288 196.494 177.497L197.117 179.67L196.498 179.848L195.336 175.797L195.848 175.65L196.128 176.378L196.154 176.37C196.195 176.195 196.257 176.03 196.341 175.872C196.423 175.713 196.532 175.574 196.666 175.455C196.803 175.336 196.968 175.249 197.16 175.194ZM199.984 174.384C200.33 174.285 200.649 174.276 200.939 174.358C201.23 174.44 201.481 174.6 201.691 174.839C201.901 175.074 202.058 175.376 202.163 175.743L202.272 176.124L199.467 176.928C199.611 177.402 199.833 177.73 200.134 177.913C200.436 178.096 200.794 178.128 201.212 178.008C201.469 177.934 201.69 177.846 201.874 177.742C202.058 177.639 202.243 177.511 202.43 177.359L202.584 177.898C202.406 178.049 202.221 178.173 202.03 178.274C201.842 178.373 201.611 178.461 201.336 178.54C200.946 178.652 200.583 178.671 200.246 178.597C199.911 178.52 199.619 178.35 199.37 178.088C199.121 177.826 198.933 177.472 198.805 177.026C198.68 176.59 198.645 176.192 198.7 175.832C198.756 175.469 198.893 175.164 199.11 174.914C199.33 174.665 199.621 174.488 199.984 174.384ZM200.121 174.889C199.793 174.983 199.562 175.165 199.428 175.436C199.294 175.705 199.264 176.038 199.337 176.433L201.486 175.817C201.415 175.577 201.316 175.376 201.189 175.215C201.065 175.05 200.914 174.939 200.737 174.88C200.558 174.819 200.354 174.822 200.121 174.889ZM204.591 173.063C205.097 172.918 205.551 172.975 205.952 173.237C206.353 173.498 206.654 173.977 206.854 174.674C206.986 175.135 207.028 175.541 206.979 175.894C206.93 176.247 206.803 176.539 206.597 176.772C206.394 177.003 206.121 177.168 205.78 177.266C205.565 177.328 205.368 177.353 205.189 177.343C205.01 177.334 204.848 177.297 204.704 177.234C204.561 177.172 204.434 177.095 204.325 177.003L204.281 177.016C204.316 177.11 204.357 177.223 204.406 177.356C204.457 177.488 204.497 177.604 204.526 177.705L205.003 179.369L204.385 179.546L202.704 173.684L203.211 173.538L203.464 174.114L203.494 174.105C203.538 173.96 203.602 173.819 203.687 173.686C203.771 173.55 203.886 173.429 204.032 173.323C204.18 173.214 204.366 173.127 204.591 173.063ZM204.632 173.611C204.35 173.692 204.139 173.811 203.997 173.969C203.857 174.127 203.779 174.325 203.762 174.564C203.744 174.801 203.78 175.083 203.868 175.41L203.902 175.528C204 175.871 204.121 176.15 204.263 176.365C204.407 176.58 204.583 176.724 204.792 176.798C205.002 176.87 205.255 176.865 205.549 176.781C205.801 176.708 205.992 176.58 206.12 176.396C206.25 176.212 206.32 175.989 206.333 175.724C206.347 175.455 206.308 175.164 206.218 174.849C206.081 174.37 205.878 174.018 205.61 173.791C205.343 173.561 205.017 173.5 204.632 173.611ZM211.432 173.365C211.528 173.698 211.569 174.007 211.557 174.293C211.546 174.58 211.484 174.836 211.373 175.062C211.261 175.289 211.103 175.484 210.899 175.647C210.696 175.806 210.449 175.927 210.157 176.011C209.885 176.089 209.623 176.114 209.368 176.086C209.116 176.053 208.881 175.971 208.664 175.839C208.449 175.706 208.259 175.522 208.092 175.287C207.928 175.051 207.799 174.767 207.704 174.434C207.576 173.991 207.544 173.593 207.605 173.238C207.666 172.882 207.813 172.583 208.046 172.341C208.28 172.095 208.591 171.916 208.979 171.805C209.35 171.698 209.697 171.688 210.021 171.774C210.347 171.859 210.632 172.036 210.875 172.305C211.119 172.571 211.306 172.924 211.432 173.365ZM208.341 174.251C208.434 174.577 208.558 174.847 208.713 175.061C208.869 175.275 209.055 175.422 209.273 175.5C209.491 175.579 209.741 175.578 210.025 175.497C210.308 175.416 210.52 175.284 210.662 175.102C210.808 174.919 210.889 174.696 210.908 174.432C210.925 174.168 210.888 173.873 210.794 173.548C210.702 173.226 210.578 172.959 210.425 172.75C210.271 172.538 210.085 172.394 209.868 172.318C209.651 172.241 209.399 172.244 209.112 172.326C208.69 172.447 208.42 172.676 208.302 173.01C208.187 173.345 208.2 173.759 208.341 174.251ZM213.741 170.439C213.823 170.416 213.909 170.396 214.001 170.38C214.092 170.362 214.174 170.351 214.247 170.346L214.333 170.937C214.261 170.939 214.184 170.947 214.099 170.96C214.015 170.974 213.937 170.991 213.865 171.012C213.702 171.059 213.557 171.136 213.43 171.244C213.306 171.349 213.206 171.479 213.133 171.634C213.059 171.785 213.016 171.957 213.003 172.147C212.99 172.335 213.014 172.533 213.074 172.743L213.697 174.916L213.078 175.093L211.917 171.042L212.428 170.895L212.709 171.623L212.735 171.616C212.776 171.441 212.838 171.276 212.921 171.118C213.003 170.959 213.112 170.82 213.247 170.701C213.384 170.582 213.548 170.494 213.741 170.439ZM217.373 173.398C217.474 173.369 217.576 173.331 217.677 173.283C217.778 173.235 217.858 173.19 217.918 173.146L218.055 173.623C217.993 173.675 217.9 173.731 217.778 173.789C217.658 173.848 217.538 173.894 217.417 173.929C217.202 173.991 216.996 174.01 216.8 173.986C216.602 173.96 216.425 173.872 216.267 173.723C216.112 173.573 215.988 173.339 215.897 173.021L215.208 170.619L214.63 170.784L214.544 170.485L215.057 170.078L215.05 169.128L215.42 169.022L215.689 169.96L216.879 169.619L217.017 170.1L215.827 170.441L216.511 172.825C216.583 173.079 216.696 173.252 216.848 173.344C217.003 173.436 217.178 173.454 217.373 173.398ZM221.199 171.565C221.273 171.823 221.27 172.06 221.19 172.275C221.112 172.487 220.964 172.672 220.747 172.83C220.534 172.988 220.259 173.114 219.926 173.21C219.642 173.291 219.389 173.34 219.169 173.355C218.949 173.37 218.75 173.359 218.571 173.323L218.408 172.757C218.597 172.791 218.816 172.808 219.065 172.809C219.314 172.809 219.558 172.775 219.798 172.706C220.148 172.606 220.387 172.476 220.513 172.318C220.638 172.159 220.673 171.982 220.617 171.787C220.585 171.676 220.525 171.588 220.437 171.523C220.351 171.455 220.222 171.402 220.051 171.366C219.879 171.327 219.649 171.297 219.36 171.276C219.072 171.252 218.819 171.219 218.601 171.178C218.385 171.133 218.205 171.055 218.061 170.945C217.92 170.833 217.816 170.665 217.752 170.441C217.654 170.098 217.717 169.796 217.942 169.534C218.168 169.27 218.507 169.073 218.959 168.943C219.204 168.873 219.439 168.832 219.666 168.82C219.894 168.805 220.112 168.812 220.321 168.84L220.255 169.391C220.067 169.368 219.87 169.359 219.666 169.364C219.461 169.37 219.26 169.401 219.063 169.457C218.778 169.539 218.573 169.648 218.447 169.785C218.323 169.923 218.284 170.072 218.331 170.235C218.367 170.361 218.431 170.454 218.524 170.516C218.618 170.577 218.754 170.62 218.93 170.647C219.106 170.674 219.336 170.699 219.618 170.722C219.899 170.743 220.147 170.777 220.361 170.825C220.575 170.87 220.751 170.95 220.891 171.065C221.033 171.177 221.135 171.343 221.199 171.565Z" fill="#888787"/>
<path d="M246.069 161.537C244.87 157.356 240.5 154.941 236.309 156.143C232.117 157.345 229.691 161.709 230.889 165.889C232.088 170.07 236.458 172.485 240.65 171.283C244.842 170.081 247.268 165.717 246.069 161.537Z" fill="#282828"/>
<path d="M236.312 160.921L240.379 163.169L238.121 167.23" stroke="white" stroke-linecap="round" stroke-linejoin="round"/>
<path d="M40.5156 239.593L258.722 177.024" stroke="#DFDFDF"/>
</g>
<path d="M213.237 37.4841L5.14987 97.152C2.53004 97.9032 1.01364 100.63 1.7629 103.243L79.9061 375.761C80.6553 378.374 83.3865 379.883 86.0064 379.132L294.093 319.464C296.713 318.713 298.229 315.986 297.48 313.373L219.337 40.8551C218.588 38.2421 215.856 36.7329 213.237 37.4841Z" stroke="#DFDFDF"/>
</g>
<g clip-path="url(#clip1_5867_1142)">
<path d="M225.635 1.76877L17.5483 61.4367C14.9285 62.1879 13.4162 64.9295 14.1706 67.5603L21.4553 92.965C22.2096 95.5958 24.9449 97.1195 27.5648 96.3682L235.651 36.7003C238.271 35.9491 239.784 33.2075 239.029 30.5767L231.744 5.17196C230.99 2.54121 228.255 1.01755 225.635 1.76877Z" fill="white"/>
<path d="M225.635 1.76877L17.5483 61.4367C14.9285 62.1879 13.4162 64.9295 14.1706 67.5603L21.4553 92.965C22.2096 95.5958 24.9449 97.1195 27.5648 96.3682L235.651 36.7003C238.271 35.9491 239.784 33.2075 239.029 30.5767L231.744 5.17196C230.99 2.54121 228.255 1.01755 225.635 1.76877Z" stroke="#DFDFDF"/>
<path d="M32.168 80.2718L30.9771 80.6132L29.1873 74.3712L27.0724 74.9776L26.7822 73.9654L32.1978 72.4125L32.4881 73.4247L30.3781 74.0298L32.168 80.2718ZM34.2135 71.3298L34.7698 73.2698C34.8276 73.4716 34.8775 73.6703 34.9194 73.8659C34.9645 74.0607 34.9956 74.2128 35.0128 74.3224L35.077 74.304C35.1373 74.0791 35.2339 73.8814 35.3668 73.7108C35.4988 73.5369 35.6595 73.3888 35.849 73.2665C36.0419 73.1431 36.2568 73.0475 36.494 72.9795C36.9124 72.8595 37.2885 72.8286 37.6225 72.8868C37.9555 72.9417 38.2416 73.0941 38.4809 73.3441C38.7234 73.5932 38.912 73.9526 39.0467 74.4223L40.074 78.0048L38.9128 78.3377L37.9482 74.9736C37.8258 74.5468 37.647 74.2526 37.4117 74.091C37.1754 73.9261 36.8745 73.896 36.5088 74.0009C36.1564 74.1019 35.8977 74.2567 35.7329 74.465C35.5703 74.6691 35.4859 74.9279 35.4794 75.2411C35.4721 75.5511 35.5272 75.9112 35.6448 76.3214L36.4274 79.0504L35.2662 79.3834L33.0523 71.6627L34.2135 71.3298ZM42.2739 71.3168C42.7614 71.177 43.2087 71.1579 43.6157 71.2596C44.0228 71.3612 44.3733 71.5704 44.6673 71.887C44.9613 72.2037 45.1823 72.62 45.3303 73.136L45.5096 73.7612L41.8579 74.8083C42.0239 75.3371 42.2831 75.7066 42.6357 75.917C42.9917 76.1264 43.4151 76.1607 43.9059 76.0199C44.2551 75.9198 44.5586 75.797 44.8163 75.6515C45.0764 75.5017 45.3357 75.3182 45.5942 75.1009L45.866 76.0486C45.6296 76.256 45.3782 76.4301 45.112 76.5708C44.8458 76.7117 44.515 76.8387 44.1197 76.952C43.5827 77.106 43.0802 77.1374 42.6119 77.0461C42.1461 76.9506 41.7381 76.7275 41.3879 76.3768C41.0411 76.0252 40.779 75.5401 40.6016 74.9215C40.4252 74.3062 40.3791 73.7538 40.4633 73.2643C40.5476 72.7747 40.7452 72.3637 41.0562 72.0311C41.3673 71.6984 41.7732 71.4603 42.2739 71.3168ZM42.5257 72.195C42.16 72.2999 41.8977 72.5039 41.7387 72.8073C41.583 73.1097 41.5513 73.4965 41.6436 73.9676L44.134 73.2535C44.052 72.9799 43.9362 72.7499 43.7865 72.5638C43.6401 72.3767 43.461 72.249 43.249 72.181C43.0402 72.1119 42.7992 72.1166 42.5257 72.195ZM48.07 69.6548C48.7618 69.4564 49.328 69.4605 49.7687 69.6671C50.2127 69.8726 50.5281 70.3013 50.7149 70.953L51.7749 74.6496L50.9497 74.8862L50.504 74.1709L50.4645 74.1822C50.3666 74.4251 50.2538 74.6347 50.1261 74.8109C49.9983 74.9872 49.8348 75.1379 49.6353 75.2631C49.4402 75.3907 49.1878 75.4988 48.8781 75.5876C48.552 75.6811 48.2434 75.7052 47.9523 75.6598C47.6603 75.611 47.4046 75.4839 47.1852 75.2783C46.9658 75.0727 46.8016 74.7797 46.6925 74.3993C46.5303 73.8337 46.6176 73.3486 46.9544 72.9442C47.2945 72.5388 47.8852 72.1993 48.7265 71.9259L49.6653 71.6191L49.5828 71.3313C49.4737 70.9509 49.307 70.7052 49.0827 70.5941C48.8616 70.4821 48.5913 70.4719 48.2718 70.5635C47.9983 70.6419 47.7445 70.7576 47.5103 70.9106C47.2761 71.0637 47.0538 71.2331 46.8432 71.4188L46.2315 70.7028C46.4575 70.4841 46.7274 70.2814 47.0411 70.0948C47.3581 69.9072 47.701 69.7605 48.07 69.6548ZM49.8709 72.3549L49.1714 72.5823C48.5974 72.7684 48.219 72.9843 48.0364 73.23C47.8537 73.4756 47.807 73.754 47.8961 74.0649C47.9739 74.3362 48.1115 74.5115 48.309 74.591C48.5055 74.6671 48.7355 74.6673 48.999 74.5917C49.4009 74.4765 49.7009 74.267 49.899 73.9632C50.0994 73.6551 50.1356 73.2778 50.0075 72.8312L49.8709 72.3549ZM61.8452 71.762L60.6643 72.1006L59.7252 68.8258L56.3948 69.7808L57.3339 73.0556L56.148 73.3956L54.0678 66.1414L55.2537 65.8013L56.1046 68.7685L59.435 67.8135L58.5841 64.8463L59.7651 64.5077L61.8452 71.762ZM64.1785 65.0357C64.8703 64.8373 65.4365 64.8415 65.8772 65.048C66.3212 65.2536 66.6366 65.6822 66.8235 66.3339L67.8835 70.0305L67.0583 70.2671L66.6125 69.5519L66.573 69.5632C66.4751 69.8061 66.3623 70.0157 66.2346 70.1919C66.1068 70.3681 65.9433 70.5188 65.7439 70.644C65.5487 70.7716 65.2964 70.8797 64.9867 70.9685C64.6606 71.062 64.3519 71.0861 64.0609 71.0407C63.7688 70.992 63.5131 70.8648 63.2937 70.6593C63.0744 70.4537 62.9102 70.1607 62.8011 69.7802C62.6389 69.2146 62.7261 68.7295 63.063 68.3251C63.403 67.9197 63.9937 67.5803 64.8351 67.3068L65.7739 67L65.6913 66.7123C65.5823 66.3319 65.4156 66.0861 65.1912 65.9751C64.9701 65.863 64.6998 65.8528 64.3803 65.9445C64.1068 66.0229 63.8531 66.1385 63.6188 66.2916C63.3847 66.4447 63.1623 66.6141 62.9517 66.7998L62.34 66.0837C62.566 65.865 62.8359 65.6624 63.1496 65.4757C63.4666 65.2882 63.8095 65.1415 64.1785 65.0357ZM65.9795 67.7358L65.28 67.9632C64.7059 68.1493 64.3276 68.3653 64.1449 68.6109C63.9622 68.8566 63.9155 69.135 64.0046 69.4459C64.0824 69.7171 64.22 69.8924 64.4175 69.9719C64.614 70.048 64.844 70.0482 65.1075 69.9727C65.5095 69.8574 65.8094 69.6479 66.0075 69.3441C66.2079 69.0361 66.2441 68.6587 66.1161 68.2122L65.9795 67.7358ZM70.6753 69.23L69.5091 69.5644L67.2953 61.8437L68.4615 61.5093L70.6753 69.23ZM73.5017 68.4195L72.3356 68.7539L70.1217 61.0333L71.2878 60.6989L73.5017 68.4195Z" fill="#282828"/>
<path d="M169.727 40.1398L169.126 40.3119L168.021 36.4566C167.979 36.3102 167.943 36.1849 167.913 36.0807C167.885 35.9733 167.86 35.8758 167.837 35.7883C167.817 35.6975 167.797 35.6053 167.778 35.5113C167.724 35.6126 167.672 35.7013 167.622 35.7777C167.571 35.8513 167.508 35.9433 167.432 36.0535L166.956 36.7296L166.513 36.4016L167.656 34.8457L168.167 34.6991L169.727 40.1398ZM174.07 38.8944L173.47 39.0665L172.364 35.2111C172.322 35.0647 172.286 34.9395 172.256 34.8353C172.228 34.7279 172.203 34.6304 172.181 34.5429C172.16 34.452 172.141 34.3597 172.121 34.2659C172.067 34.3672 172.015 34.4559 171.965 34.5323C171.914 34.6059 171.851 34.6979 171.776 34.808L171.299 35.4842L170.857 35.156L171.999 33.6003L172.51 33.4537L174.07 38.8944ZM179.024 32.9794C179.105 32.956 179.192 32.9365 179.284 32.9208C179.375 32.9029 179.457 32.8914 179.531 32.8863L179.617 33.4817C179.545 33.4836 179.467 33.4911 179.383 33.5046C179.299 33.5181 179.221 33.5351 179.149 33.5556C178.986 33.6024 178.841 33.6801 178.714 33.789C178.59 33.8944 178.49 34.025 178.418 34.1801C178.344 34.3328 178.301 34.5049 178.289 34.6963C178.276 34.8852 178.3 35.0851 178.361 35.296L178.988 37.4841L178.369 37.6617L177.199 33.583L177.711 33.4363L177.993 34.169L178.019 34.1615C178.06 33.9861 178.121 33.8194 178.205 33.6612C178.287 33.5008 178.395 33.361 178.529 33.2419C178.666 33.1221 178.831 33.0345 179.024 32.9794ZM181.848 32.1696C182.194 32.0704 182.512 32.0622 182.803 32.1453C183.094 32.2282 183.345 32.3898 183.556 32.6302C183.766 32.868 183.924 33.1719 184.03 33.5415L184.139 33.9248L181.334 34.7292C181.479 35.2058 181.702 35.5366 182.004 35.7214C182.306 35.9059 182.665 35.9385 183.082 35.8188C183.34 35.745 183.56 35.6563 183.744 35.5524C183.928 35.4487 184.113 35.3204 184.299 35.1677L184.455 35.7111C184.277 35.8616 184.092 35.987 183.901 36.0874C183.713 36.1869 183.482 36.276 183.208 36.3547C182.818 36.4666 182.454 36.485 182.117 36.4098C181.782 36.3314 181.489 36.1601 181.24 35.896C180.99 35.632 180.801 35.2755 180.672 34.8264C180.546 34.3872 180.51 33.9868 180.565 33.6249C180.62 33.26 180.756 32.9523 180.974 32.7022C181.193 32.4513 181.485 32.2737 181.848 32.1696ZM181.985 32.6779C181.657 32.772 181.426 32.955 181.292 33.2269C181.16 33.4986 181.13 33.8334 181.203 34.2311L183.353 33.6147C183.281 33.3723 183.181 33.17 183.054 33.0076C182.93 32.842 182.778 32.7297 182.601 32.6704C182.423 32.6088 182.218 32.6111 181.985 32.6779ZM186.454 30.8487C186.961 30.7035 187.415 30.7625 187.816 31.026C188.218 31.2893 188.52 31.7721 188.721 32.4742C188.854 32.9382 188.897 33.3474 188.849 33.7022C188.8 34.057 188.674 34.351 188.468 34.5846C188.265 34.8173 187.993 34.9827 187.652 35.0804C187.437 35.1421 187.239 35.1678 187.06 35.1575C186.881 35.1471 186.719 35.1103 186.575 35.0468C186.431 34.9833 186.304 34.9056 186.195 34.8134L186.151 34.8261C186.186 34.9207 186.228 35.0349 186.277 35.1685C186.328 35.3015 186.369 35.4188 186.398 35.5205L186.878 37.1951L186.26 37.3725L184.567 31.4703L185.074 31.3249L185.329 31.9043L185.359 31.8958C185.402 31.7491 185.466 31.6085 185.55 31.4743C185.634 31.3375 185.75 31.2159 185.896 31.1095C186.043 31.0002 186.229 30.9131 186.454 30.8487ZM186.496 31.4006C186.214 31.4813 186.003 31.601 185.861 31.7599C185.722 31.9178 185.644 32.1175 185.627 32.3584C185.61 32.5969 185.646 32.8806 185.735 33.2095L185.769 33.3286C185.868 33.6735 185.989 33.9543 186.131 34.1712C186.276 34.3874 186.453 34.5328 186.662 34.6071C186.872 34.6809 187.125 34.6757 187.419 34.5914C187.671 34.519 187.862 34.3906 187.99 34.206C188.119 34.0214 188.19 33.7959 188.201 33.5293C188.215 33.2596 188.176 32.966 188.085 32.6485C187.947 32.1672 187.744 31.8119 187.475 31.583C187.208 31.3508 186.882 31.2899 186.496 31.4006ZM193.299 31.1654C193.395 31.5003 193.437 31.8118 193.426 32.0996C193.416 32.3872 193.354 32.6452 193.243 32.8729C193.132 33.1008 192.974 33.2965 192.77 33.4598C192.567 33.62 192.32 33.7418 192.028 33.8254C191.756 33.9034 191.494 33.9277 191.239 33.8987C190.987 33.8664 190.751 33.7834 190.534 33.6499C190.319 33.5154 190.128 33.33 189.961 33.0931C189.797 32.8557 189.667 32.5695 189.571 32.2345C189.443 31.7879 189.409 31.3868 189.47 31.031C189.531 30.6726 189.677 30.3715 189.909 30.1278C190.143 29.8809 190.454 29.7016 190.842 29.5904C191.213 29.4842 191.56 29.4746 191.884 29.5614C192.211 29.6476 192.496 29.8263 192.74 30.0974C192.985 30.3654 193.172 30.7213 193.299 31.1654ZM190.208 32.0517C190.302 32.3792 190.427 32.6509 190.582 32.8667C190.738 33.0825 190.925 33.2303 191.143 33.3101C191.361 33.39 191.612 33.3891 191.896 33.3077C192.178 33.2268 192.39 33.0949 192.532 32.9117C192.677 32.7278 192.759 32.5031 192.776 32.2376C192.793 31.9722 192.756 31.6757 192.662 31.3482C192.569 31.0232 192.445 30.7554 192.291 30.5443C192.136 30.331 191.95 30.1857 191.733 30.1084C191.515 30.0311 191.263 30.0334 190.976 30.1158C190.554 30.2369 190.284 30.466 190.167 30.803C190.052 31.1393 190.066 31.5555 190.208 32.0517ZM195.604 28.225C195.686 28.2016 195.773 28.1821 195.864 28.1666C195.955 28.1485 196.037 28.137 196.111 28.1321L196.197 28.7275C196.126 28.7292 196.048 28.7367 195.963 28.7502C195.879 28.7637 195.801 28.7807 195.73 28.8012C195.566 28.848 195.422 28.9257 195.295 29.0346C195.17 29.1401 195.071 29.2706 194.998 29.4259C194.924 29.5785 194.881 29.7505 194.869 29.942C194.856 30.131 194.881 30.3307 194.941 30.5416L195.569 32.7297L194.949 32.9073L193.78 28.8286L194.292 28.6819L194.573 29.4146L194.599 29.4071C194.64 29.2317 194.702 29.065 194.785 28.9068C194.867 28.7464 194.976 28.6066 195.11 28.4875C195.247 28.3677 195.411 28.2803 195.604 28.225ZM199.244 31.2088C199.345 31.1798 199.446 31.1413 199.547 31.0935C199.649 31.0457 199.728 31 199.788 30.9559L199.926 31.4359C199.864 31.4887 199.771 31.5448 199.649 31.604C199.53 31.6624 199.41 31.7089 199.288 31.7438C199.073 31.8054 198.868 31.8241 198.671 31.7999C198.473 31.7734 198.296 31.6846 198.138 31.534C197.982 31.3826 197.858 31.1471 197.766 30.827L197.072 28.4081L196.494 28.5739L196.408 28.2725L196.92 27.8638L196.911 26.9078L197.282 26.8016L197.553 27.7468L198.742 27.4057L198.881 27.8894L197.691 28.2306L198.38 30.6309C198.453 30.8864 198.566 31.0608 198.718 31.1541C198.873 31.2466 199.048 31.2648 199.244 31.2088ZM203.068 29.3712C203.143 29.6316 203.14 29.87 203.06 30.0862C202.982 30.2992 202.835 30.4851 202.618 30.6438C202.405 30.8017 202.13 30.9287 201.797 31.0243C201.513 31.1057 201.261 31.1539 201.04 31.1688C200.82 31.1836 200.621 31.1724 200.441 31.1351L200.278 30.5658C200.467 30.6003 200.686 30.618 200.935 30.6191C201.184 30.6201 201.429 30.5863 201.668 30.5176C202.019 30.4171 202.257 30.2869 202.383 30.1274C202.508 29.968 202.543 29.7903 202.486 29.5943C202.454 29.4826 202.394 29.3939 202.305 29.328C202.219 29.2588 202.09 29.2058 201.919 29.169C201.747 29.1296 201.517 29.099 201.227 29.0774C200.939 29.0526 200.686 29.019 200.468 28.9769C200.252 28.9315 200.072 28.8529 199.927 28.7412C199.786 28.6289 199.682 28.4599 199.617 28.2341C199.518 27.8893 199.581 27.5854 199.805 27.3224C200.031 27.0563 200.37 26.8584 200.822 26.7287C201.067 26.6586 201.302 26.6179 201.529 26.6066C201.758 26.592 201.976 26.5993 202.185 26.628L202.119 27.1824C201.931 27.1585 201.734 27.1493 201.53 27.1541C201.325 27.159 201.124 27.1899 200.927 27.2465C200.642 27.3281 200.437 27.4378 200.311 27.576C200.187 27.7136 200.149 27.8642 200.196 28.0279C200.232 28.1545 200.297 28.2487 200.389 28.3108C200.484 28.3721 200.62 28.4164 200.796 28.4437C200.973 28.4711 201.202 28.4965 201.484 28.5204C201.766 28.5417 202.014 28.5766 202.228 28.6251C202.442 28.6713 202.619 28.7522 202.759 28.8677C202.901 28.98 203.004 29.1479 203.068 29.3712Z" fill="#888787"/>
<path d="M228.115 19.9597C226.908 15.7505 222.532 13.3126 218.34 14.5146C214.148 15.7165 211.728 20.1031 212.935 24.3123C214.142 28.5216 218.519 30.9594 222.711 29.7574C226.902 28.5555 229.322 24.1689 228.115 19.9597Z" fill="#282828"/>
<path d="M218.352 19.3232L222.425 21.592L220.173 25.6744" stroke="white" stroke-linecap="round" stroke-linejoin="round"/>
</g>
<defs>
<clipPath id="clip0_5867_1142">
<rect y="98.2876" width="227" height="294" rx="5" transform="rotate(-16 0 98.2876)" fill="white"/>
</clipPath>
<clipPath id="clip1_5867_1142">
<rect x="12.3984" y="62.5698" width="227" height="37" rx="5" transform="rotate(-16 12.3984 62.5698)" fill="white"/>
</clipPath>
</defs>
</svg>
