<svg width="202" height="146" viewBox="0 0 202 146" fill="none" xmlns="http://www.w3.org/2000/svg">
<g clip-path="url(#clip0_5716_1144)">
<mask id="mask0_5716_1144" style="mask-type:luminance" maskUnits="userSpaceOnUse" x="0" y="0" width="172" height="81">
<path d="M166.429 0H5.57085C2.49415 0 0 2.50103 0 5.58621V75.4138C0 78.499 2.49415 81 5.57085 81H166.429C169.506 81 172 78.499 172 75.4138V5.58621C172 2.50103 169.506 0 166.429 0Z" fill="white"/>
</mask>
<g mask="url(#mask0_5716_1144)">
<path d="M166.429 0H5.57085C2.49415 0 0 2.50103 0 5.58621V75.4138C0 78.499 2.49415 81 5.57085 81H166.429C169.506 81 172 78.499 172 75.4138V5.58621C172 2.50103 169.506 0 166.429 0Z" fill="#FFA14D"/>
<path d="M15.404 48.1813H14.7206L12.9288 45.7571L12.3983 46.2344V48.1813H11.8203V43.1965H12.3983V45.6821C12.5275 45.5343 12.6601 45.3877 12.7961 45.2422C12.9321 45.0945 13.067 44.9456 13.2008 44.7956L14.6526 43.1965H15.3293L13.3503 45.3581L15.404 48.1813ZM16.5635 44.4444V48.1813H15.9991V44.4444H16.5635ZM16.2881 43.0465C16.381 43.0465 16.4604 43.0771 16.5261 43.1385C16.5941 43.1977 16.6282 43.2908 16.6282 43.4181C16.6282 43.5431 16.5941 43.6363 16.5261 43.6977C16.4604 43.7591 16.381 43.7897 16.2881 43.7897C16.1906 43.7897 16.109 43.7591 16.0433 43.6977C15.9799 43.6363 15.9481 43.5431 15.9481 43.4181C15.9481 43.2908 15.9799 43.1977 16.0433 43.1385C16.109 43.0771 16.1906 43.0465 16.2881 43.0465ZM19.5251 44.3762C19.9671 44.3762 20.3014 44.4853 20.5281 44.7035C20.7548 44.9195 20.8681 45.2672 20.8681 45.7469V48.1813H20.3105V45.7844C20.3105 45.4729 20.2391 45.24 20.0963 45.0854C19.9558 44.9309 19.7393 44.8536 19.4469 44.8536C19.0344 44.8536 18.7442 44.9706 18.5764 45.2047C18.4087 45.4389 18.3248 45.7786 18.3248 46.2242V48.1813H17.7604V44.4444H18.216L18.301 44.9831H18.3316C18.411 44.8513 18.5118 44.741 18.6342 44.6524C18.7566 44.5615 18.8938 44.4933 19.0456 44.4478C19.1975 44.4001 19.3573 44.3762 19.5251 44.3762ZM23.3571 48.2495C22.8856 48.2495 22.5116 48.088 22.235 47.7653C21.9607 47.4426 21.8236 46.9629 21.8236 46.3265C21.8236 45.6832 21.9641 45.1979 22.2453 44.8706C22.5263 44.541 22.9003 44.3762 23.3673 44.3762C23.5645 44.3762 23.7368 44.4023 23.8841 44.4546C24.0315 44.5069 24.1584 44.5774 24.265 44.666C24.3715 44.7524 24.461 44.8513 24.5335 44.9626H24.5744C24.5653 44.8922 24.5563 44.7956 24.5471 44.6728C24.5381 44.5501 24.5335 44.4501 24.5335 44.3728V42.876H25.0979V48.1813H24.6423L24.5574 47.6494H24.5335C24.4633 47.7608 24.3737 47.8619 24.265 47.9529C24.1584 48.0438 24.0303 48.1165 23.8807 48.1711C23.7334 48.2233 23.5589 48.2495 23.3571 48.2495ZM23.4455 47.7789C23.8444 47.7789 24.1267 47.6653 24.2921 47.438C24.4576 47.2107 24.5404 46.8731 24.5404 46.4254V46.3231C24.5404 45.848 24.461 45.4832 24.3024 45.2286C24.146 44.974 23.8603 44.8467 23.4455 44.8467C23.0987 44.8467 22.8391 44.9809 22.6668 45.2491C22.4945 45.515 22.4084 45.8787 22.4084 46.3401C22.4084 46.7992 22.4934 47.1538 22.6635 47.4039C22.8357 47.6539 23.0964 47.7789 23.4455 47.7789ZM27.7297 44.3762C28.0471 44.3762 28.3191 44.4467 28.5457 44.5876C28.7724 44.7285 28.9459 44.9263 29.066 45.1808C29.1861 45.4332 29.2462 45.7286 29.2462 46.0674V46.4185H26.6723C26.6791 46.8572 26.7879 47.1914 26.9987 47.4209C27.2095 47.6505 27.5064 47.7653 27.8895 47.7653C28.1253 47.7653 28.3338 47.7437 28.5152 47.7005C28.6965 47.6574 28.8847 47.5937 29.0796 47.5096V48.0074C28.8914 48.0915 28.7044 48.1528 28.5186 48.1915C28.335 48.2301 28.1173 48.2495 27.8658 48.2495C27.5076 48.2495 27.1947 48.1767 26.9273 48.0313C26.662 47.8835 26.4558 47.6675 26.3084 47.3834C26.1611 47.0993 26.0874 46.7515 26.0874 46.3401C26.0874 45.9378 26.1543 45.59 26.288 45.2968C26.424 45.0013 26.6145 44.774 26.8592 44.6149C27.1064 44.4558 27.3965 44.3762 27.7297 44.3762ZM27.7229 44.8399C27.4214 44.8399 27.1812 44.9388 27.0021 45.1365C26.823 45.3343 26.7165 45.6105 26.6824 45.9651H28.6546C28.6523 45.7423 28.6172 45.5468 28.5492 45.3786C28.4834 45.2081 28.3825 45.0763 28.2465 44.9831C28.1105 44.8876 27.936 44.8399 27.7229 44.8399ZM31.8984 44.3762C31.9731 44.3762 32.0513 44.3808 32.133 44.3898C32.2146 44.3967 32.2871 44.4069 32.3506 44.4206L32.2791 44.9456C32.218 44.9297 32.1499 44.9172 32.0752 44.9081C32.0004 44.899 31.93 44.8945 31.8643 44.8945C31.7147 44.8945 31.573 44.9251 31.4393 44.9865C31.3078 45.0456 31.1923 45.132 31.0925 45.2456C30.9927 45.357 30.9145 45.4923 30.8579 45.6514C30.8012 45.8082 30.7729 45.9832 30.7729 46.1764V48.1813H30.205V44.4444H30.6743L30.7354 45.1332H30.7593C30.8363 44.9945 30.9293 44.8683 31.0381 44.7547C31.1469 44.6388 31.2727 44.5467 31.4155 44.4785C31.5606 44.4103 31.7215 44.3762 31.8984 44.3762ZM34.0949 49.8587C33.6052 49.8587 33.2278 49.7667 32.9626 49.5826C32.6974 49.4007 32.5648 49.145 32.5648 48.8154C32.5648 48.5813 32.6384 48.3813 32.7858 48.2153C32.9354 48.0494 33.1417 47.9392 33.4046 47.8846C33.3072 47.8392 33.2232 47.771 33.153 47.68C33.085 47.5891 33.051 47.4846 33.051 47.3664C33.051 47.23 33.0884 47.1107 33.1632 47.0084C33.2403 46.9038 33.357 46.8038 33.5134 46.7083C33.3185 46.6288 33.1598 46.4946 33.0374 46.306C32.9173 46.1151 32.8572 45.8934 32.8572 45.6411C32.8572 45.3729 32.9127 45.1445 33.0238 44.9559C33.1349 44.7649 33.2958 44.6194 33.5066 44.5194C33.7174 44.4194 33.9725 44.3694 34.2717 44.3694C34.3374 44.3694 34.4031 44.3728 34.4689 44.3796C34.5368 44.3842 34.6015 44.3921 34.6627 44.4035C34.7239 44.4126 34.7772 44.4239 34.8225 44.4376H36.1009V44.8024L35.4141 44.8876C35.4822 44.9763 35.5388 45.0832 35.5841 45.2081C35.6294 45.3331 35.6521 45.4718 35.6521 45.6241C35.6521 45.9968 35.5263 46.2935 35.2747 46.514C35.0231 46.7322 34.6774 46.8413 34.2376 46.8413C34.1334 46.8413 34.0268 46.8322 33.9181 46.814C33.807 46.8754 33.722 46.9436 33.6631 47.0186C33.6064 47.0936 33.578 47.18 33.578 47.2778C33.578 47.3505 33.5996 47.4084 33.6427 47.4516C33.688 47.4948 33.7525 47.5266 33.8365 47.5471C33.9203 47.5652 34.0212 47.5744 34.139 47.5744H34.7953C35.201 47.5744 35.5116 47.6596 35.7269 47.8301C35.9445 48.0006 36.0534 48.2495 36.0534 48.5768C36.0534 48.9905 35.8856 49.3076 35.5501 49.528C35.2146 49.7485 34.7295 49.8587 34.0949 49.8587ZM34.1119 49.4155C34.4201 49.4155 34.6751 49.3837 34.8769 49.3201C35.0809 49.2587 35.2328 49.1689 35.3325 49.0507C35.4345 48.9348 35.4855 48.7961 35.4855 48.6347C35.4855 48.4847 35.4515 48.3711 35.3835 48.2938C35.3155 48.2188 35.2158 48.1688 35.0843 48.1438C34.9529 48.1165 34.7919 48.1029 34.6015 48.1029H33.9555C33.7877 48.1029 33.6415 48.129 33.5168 48.1813C33.3922 48.2336 33.2958 48.3108 33.2278 48.4131C33.162 48.5154 33.1292 48.6427 33.1292 48.795C33.1292 48.9973 33.2142 49.1507 33.3842 49.2553C33.5542 49.3621 33.7968 49.4155 34.1119 49.4155ZM34.258 46.4287C34.5278 46.4287 34.7307 46.3606 34.8667 46.2242C35.0027 46.0878 35.0707 45.8889 35.0707 45.6275C35.0707 45.3479 35.0016 45.1388 34.8633 45.0001C34.725 44.8592 34.521 44.7888 34.2513 44.7888C33.9929 44.7888 33.7934 44.8615 33.6528 45.007C33.5145 45.1502 33.4454 45.3604 33.4454 45.6377C33.4454 45.8923 33.5157 46.0878 33.6562 46.2242C33.7968 46.3606 33.9974 46.4287 34.258 46.4287ZM38.2295 44.383C38.6738 44.383 39.0036 44.4831 39.2189 44.683C39.4343 44.8831 39.5419 45.2024 39.5419 45.6411V48.1813H39.1305L39.0217 47.6289H38.9945C38.8903 47.7653 38.7814 47.8801 38.6681 47.9733C38.5548 48.0642 38.4233 48.1335 38.2736 48.1813C38.1264 48.2267 37.945 48.2495 37.7296 48.2495C37.503 48.2495 37.3012 48.2097 37.1244 48.1302C36.9499 48.0506 36.8116 47.9301 36.7096 47.7687C36.6098 47.6074 36.56 47.4028 36.56 47.155C36.56 46.7822 36.7073 46.4958 37.002 46.2958C37.2966 46.0957 37.7455 45.9867 38.3485 45.9685L38.9911 45.9412V45.7127C38.9911 45.39 38.9219 45.1638 38.7837 45.0343C38.6454 44.9047 38.4505 44.8399 38.1988 44.8399C38.0039 44.8399 37.818 44.8683 37.6412 44.9251C37.4644 44.982 37.2966 45.049 37.138 45.1263L36.9646 44.6967C37.1323 44.6104 37.325 44.5365 37.5426 44.4751C37.7602 44.4137 37.9892 44.383 38.2295 44.383ZM38.9843 46.3401L38.4165 46.364C37.9518 46.3822 37.6242 46.4583 37.4338 46.5924C37.2434 46.7265 37.1482 46.9163 37.1482 47.1618C37.1482 47.3755 37.2128 47.5335 37.3421 47.6358C37.4712 47.738 37.6424 47.7892 37.8555 47.7892C38.1864 47.7892 38.4573 47.6971 38.6681 47.513C38.8789 47.3289 38.9843 47.0527 38.9843 46.6844V46.3401ZM42.3981 44.3762C42.4729 44.3762 42.5511 44.3808 42.6327 44.3898C42.7143 44.3967 42.7869 44.4069 42.8503 44.4206L42.7789 44.9456C42.7177 44.9297 42.6497 44.9172 42.5749 44.9081C42.5001 44.899 42.4298 44.8945 42.3641 44.8945C42.2145 44.8945 42.0728 44.9251 41.939 44.9865C41.8076 45.0456 41.692 45.132 41.5923 45.2456C41.4925 45.357 41.4143 45.4923 41.3577 45.6514C41.301 45.8082 41.2726 45.9832 41.2726 46.1764V48.1813H40.7048V44.4444H41.174L41.2352 45.1332H41.2591C41.3361 44.9945 41.429 44.8683 41.5378 44.7547C41.6466 44.6388 41.7725 44.5467 41.9152 44.4785C42.0604 44.4103 42.2213 44.3762 42.3981 44.3762ZM44.7578 47.7858C44.8507 47.7858 44.9459 47.7778 45.0434 47.7619C45.1409 47.746 45.2202 47.7267 45.2814 47.7039V48.1438C45.2157 48.1733 45.1239 48.1983 45.006 48.2188C44.8904 48.2392 44.7771 48.2495 44.666 48.2495C44.4688 48.2495 44.2897 48.2153 44.1287 48.1472C43.9678 48.0767 43.8386 47.9585 43.7411 47.7926C43.646 47.6266 43.5983 47.3971 43.5983 47.1038V44.8876H43.0679V44.6115L43.6017 44.3898L43.8262 43.5784H44.1662V44.4444H45.2576V44.8876H44.1662V47.0868C44.1662 47.3209 44.2195 47.496 44.3259 47.6119C44.4348 47.7278 44.5787 47.7858 44.7578 47.7858ZM47.4712 44.3762C47.7885 44.3762 48.0605 44.4467 48.2872 44.5876C48.5138 44.7285 48.6873 44.9263 48.8074 45.1808C48.9275 45.4332 48.9876 45.7286 48.9876 46.0674V46.4185H46.4137C46.4205 46.8572 46.5293 47.1914 46.7401 47.4209C46.9509 47.6505 47.2479 47.7653 47.6309 47.7653C47.8667 47.7653 48.0753 47.7437 48.2566 47.7005C48.4379 47.6574 48.6261 47.5937 48.821 47.5096V48.0074C48.6328 48.0915 48.4459 48.1528 48.26 48.1915C48.0764 48.2301 47.8588 48.2495 47.6072 48.2495C47.249 48.2495 46.9362 48.1767 46.6687 48.0313C46.4035 47.8835 46.1972 47.6675 46.0498 47.3834C45.9025 47.0993 45.8289 46.7515 45.8289 46.3401C45.8289 45.9378 45.8957 45.59 46.0294 45.2968C46.1655 45.0013 46.3559 44.774 46.6007 44.6149C46.8478 44.4558 47.1379 44.3762 47.4712 44.3762ZM47.4644 44.8399C47.1628 44.8399 46.9226 44.9388 46.7435 45.1365C46.5645 45.3343 46.4579 45.6105 46.4239 45.9651H48.396C48.3937 45.7423 48.3586 45.5468 48.2906 45.3786C48.2248 45.2081 48.124 45.0763 47.9879 44.9831C47.8519 44.8876 47.6774 44.8399 47.4644 44.8399ZM51.7112 44.3762C52.1532 44.3762 52.4875 44.4853 52.7142 44.7035C52.9409 44.9195 53.0542 45.2672 53.0542 45.7469V48.1813H52.4966V45.7844C52.4966 45.4729 52.4252 45.24 52.2824 45.0854C52.1419 44.9309 51.9254 44.8536 51.633 44.8536C51.2204 44.8536 50.9303 44.9706 50.7625 45.2047C50.5948 45.4389 50.5109 45.7786 50.5109 46.2242V48.1813H49.9464V44.4444H50.4021L50.4871 44.9831H50.5177C50.5971 44.8513 50.6979 44.741 50.8203 44.6524C50.9427 44.5615 51.0798 44.4933 51.2317 44.4478C51.3836 44.4001 51.5434 44.3762 51.7112 44.3762ZM54.6625 43.1965L54.7135 43.2715C54.6727 43.4375 54.6206 43.6159 54.5571 43.8068C54.4937 43.9955 54.4245 44.1841 54.3497 44.3728C54.2749 44.5615 54.2001 44.7388 54.1253 44.9047H53.7105C53.7444 44.7751 53.7785 44.6365 53.8125 44.4887C53.8488 44.341 53.8827 44.191 53.9145 44.0387C53.9462 43.8864 53.9745 43.7386 53.9995 43.5954C54.0267 43.4522 54.0494 43.3192 54.0675 43.1965H54.6625ZM57.8111 47.1584C57.8111 47.3971 57.751 47.5982 57.6309 47.7619C57.513 47.9233 57.343 48.0449 57.1209 48.1267C56.901 48.2086 56.638 48.2495 56.332 48.2495C56.0713 48.2495 55.8458 48.229 55.6554 48.1881C55.4649 48.1472 55.2984 48.0892 55.1555 48.0142V47.4926C55.3074 47.5676 55.4888 47.6358 55.6996 47.6971C55.9104 47.7585 56.1257 47.7892 56.3456 47.7892C56.6675 47.7892 56.901 47.7369 57.0461 47.6323C57.1911 47.5277 57.2637 47.3857 57.2637 47.2061C57.2637 47.1038 57.2342 47.0141 57.1753 46.9368C57.1186 46.8572 57.0223 46.7811 56.8863 46.7083C56.7502 46.6333 56.5621 46.5515 56.3218 46.4629C56.0838 46.372 55.8775 46.2822 55.7029 46.1935C55.5307 46.1026 55.397 45.9923 55.3018 45.8628C55.2088 45.7332 55.1624 45.565 55.1624 45.3581C55.1624 45.0422 55.2893 44.8001 55.5431 44.6319C55.7993 44.4615 56.1348 44.3762 56.5496 44.3762C56.774 44.3762 56.9837 44.3989 57.1787 44.4444C57.3759 44.4876 57.5595 44.5467 57.7295 44.6217L57.5391 45.0752C57.3849 45.0093 57.2206 44.9536 57.0461 44.9081C56.8715 44.8626 56.6936 44.8399 56.5122 44.8399C56.2515 44.8399 56.0509 44.8831 55.9104 44.9695C55.7721 45.0559 55.7029 45.1741 55.7029 45.3241C55.7029 45.44 55.7347 45.5354 55.7982 45.6105C55.8639 45.6855 55.9682 45.7559 56.111 45.8219C56.2538 45.8878 56.4419 45.9651 56.6754 46.0537C56.9089 46.1401 57.1106 46.2299 57.2807 46.3231C57.4507 46.414 57.581 46.5254 57.6717 46.6572C57.7646 46.7867 57.8111 46.9538 57.8111 47.1584ZM62.2925 44.3762C62.7345 44.3762 63.0689 44.4853 63.2956 44.7035C63.5223 44.9195 63.6356 45.2672 63.6356 45.7469V48.1813H63.078V45.7844C63.078 45.4729 63.0065 45.24 62.8637 45.0854C62.7232 44.9309 62.5067 44.8536 62.2143 44.8536C61.8018 44.8536 61.5116 44.9706 61.3439 45.2047C61.1761 45.4389 61.0923 45.7786 61.0923 46.2242V48.1813H60.5279V44.4444H60.9834L61.0684 44.9831H61.0991C61.1784 44.8513 61.2793 44.741 61.4016 44.6524C61.5241 44.5615 61.6613 44.4933 61.8131 44.4478C61.965 44.4001 62.1247 44.3762 62.2925 44.3762ZM66.1925 44.383C66.6368 44.383 66.9667 44.4831 67.182 44.683C67.3974 44.8831 67.505 45.2024 67.505 45.6411V48.1813H67.0936L66.9848 47.6289H66.9575C66.8533 47.7653 66.7445 47.8801 66.6311 47.9733C66.5178 48.0642 66.3863 48.1335 66.2367 48.1813C66.0894 48.2267 65.9081 48.2495 65.6927 48.2495C65.466 48.2495 65.2643 48.2097 65.0875 48.1302C64.913 48.0506 64.7747 47.9301 64.6726 47.7687C64.5729 47.6074 64.5231 47.4028 64.5231 47.155C64.5231 46.7822 64.6703 46.4958 64.965 46.2958C65.2597 46.0957 65.7085 45.9867 66.3115 45.9685L66.9542 45.9412V45.7127C66.9542 45.39 66.885 45.1638 66.7467 45.0343C66.6084 44.9047 66.4135 44.8399 66.1619 44.8399C65.967 44.8399 65.7811 44.8683 65.6043 44.9251C65.4275 44.982 65.2597 45.049 65.101 45.1263L64.9277 44.6967C65.0954 44.6104 65.2881 44.5365 65.5057 44.4751C65.7233 44.4137 65.9523 44.383 66.1925 44.383ZM66.9474 46.3401L66.3796 46.364C65.9149 46.3822 65.5873 46.4583 65.3969 46.5924C65.2065 46.7265 65.1113 46.9163 65.1113 47.1618C65.1113 47.3755 65.1759 47.5335 65.3051 47.6358C65.4343 47.738 65.6054 47.7892 65.8185 47.7892C66.1495 47.7892 66.4204 47.6971 66.6311 47.513C66.8419 47.3289 66.9474 47.0527 66.9474 46.6844V46.3401ZM72.7142 44.3762C73.1243 44.3762 73.4335 44.4842 73.6424 44.7001C73.8506 44.9138 73.9551 45.2581 73.9551 45.7332V48.1813H73.3973V45.7605C73.3973 45.4582 73.3318 45.232 73.2002 45.082C73.0714 44.9297 72.8785 44.8536 72.6222 44.8536C72.2615 44.8536 71.9997 44.9581 71.8368 45.1672C71.6738 45.3764 71.5923 45.6844 71.5923 46.0912V48.1813H71.0311V45.7605C71.0311 45.5582 71.0018 45.39 70.9426 45.2558C70.8862 45.1218 70.7999 45.0218 70.6843 44.9559C70.5708 44.8876 70.4266 44.8536 70.2525 44.8536C70.0053 44.8536 69.8069 44.9047 69.6572 45.007C69.5077 45.1093 69.3989 45.2616 69.3309 45.4639C69.2652 45.6639 69.2323 45.9105 69.2323 46.2037V48.1813H68.6678V44.4444H69.1235L69.2085 44.9729H69.2391C69.3139 44.8433 69.4079 44.7342 69.5213 44.6455C69.6349 44.5569 69.7616 44.4898 69.9023 44.4444C70.0429 44.3989 70.192 44.3762 70.3507 44.3762C70.6342 44.3762 70.8709 44.4296 71.0617 44.5365C71.2539 44.641 71.3939 44.8013 71.4795 45.0172H71.5102C71.6327 44.8013 71.8005 44.641 72.0136 44.5365C72.2267 44.4296 72.46 44.3762 72.7142 44.3762ZM76.5497 44.3762C76.8665 44.3762 77.1388 44.4467 77.3658 44.5876C77.5921 44.7285 77.7655 44.9263 77.886 45.1808C78.0058 45.4332 78.0657 45.7286 78.0657 46.0674V46.4185H75.4919C75.4989 46.8572 75.6075 47.1914 75.8185 47.4209C76.0295 47.6505 76.3262 47.7653 76.7092 47.7653C76.9452 47.7653 77.1534 47.7437 77.3352 47.7005C77.5162 47.6574 77.7043 47.5937 77.8992 47.5096V48.0074C77.7112 48.0915 77.5239 48.1528 77.338 48.1915C77.1548 48.2301 76.9369 48.2495 76.6855 48.2495C76.3276 48.2495 76.0142 48.1767 75.7468 48.0313C75.4815 47.8835 75.2754 47.6675 75.1284 47.3834C74.9808 47.0993 74.907 46.7515 74.907 46.3401C74.907 45.9378 74.9738 45.59 75.1075 45.2968C75.244 45.0013 75.4341 44.774 75.6793 44.6149C75.9258 44.4558 76.2161 44.3762 76.5497 44.3762ZM76.5427 44.8399C76.2412 44.8399 76.001 44.9388 75.822 45.1365C75.643 45.3343 75.5365 45.6105 75.5024 45.9651H77.4745C77.4724 45.7423 77.4369 45.5468 77.3686 45.3786C77.3032 45.2081 77.2022 45.0763 77.0664 44.9831C76.9306 44.8876 76.7558 44.8399 76.5427 44.8399Z" fill="white"/>
<path d="M12.7564 20.2501C12.5113 20.2501 12.3219 20.1868 12.1882 20.0602C12.062 19.9261 11.9988 19.7362 11.9988 19.4904V13.1333C11.9988 12.8875 12.062 12.7013 12.1882 12.5747C12.3219 12.4406 12.5113 12.3736 12.7564 12.3736H16.734C16.9197 12.3736 17.0608 12.4219 17.1574 12.5188C17.2614 12.6157 17.3134 12.7534 17.3134 12.9322C17.3134 13.1184 17.2614 13.2637 17.1574 13.3679C17.0608 13.4648 16.9197 13.5131 16.734 13.5131H13.3692V15.6806H16.4889C16.682 15.6806 16.8268 15.729 16.9234 15.8258C17.02 15.9227 17.0683 16.0642 17.0683 16.2504C17.0683 16.4366 17.02 16.5781 16.9234 16.6749C16.8268 16.7718 16.682 16.8202 16.4889 16.8202H13.3692V19.1105H16.734C16.9197 19.1105 17.0608 19.1589 17.1574 19.2558C17.2614 19.3526 17.3134 19.4941 17.3134 19.6803C17.3134 19.8665 17.2614 20.008 17.1574 20.1049C17.0608 20.2017 16.9197 20.2501 16.734 20.2501H12.7564ZM20.3738 20.3618C19.7573 20.3618 19.2931 20.1868 18.9811 19.8367C18.6691 19.4792 18.5131 18.9578 18.5131 18.2726V12.988C18.5131 12.7571 18.5725 12.5821 18.6914 12.4629C18.8102 12.3437 18.9811 12.2842 19.2039 12.2842C19.4268 12.2842 19.5976 12.3437 19.7164 12.4629C19.8427 12.5821 19.9059 12.7571 19.9059 12.988V18.2056C19.9059 18.5482 19.9764 18.8014 20.1175 18.9653C20.2661 19.1292 20.4741 19.2111 20.7415 19.2111C20.8009 19.2111 20.8566 19.2111 20.9086 19.2111C20.9606 19.2036 21.0126 19.1962 21.0646 19.1887C21.1686 19.1739 21.2391 19.2036 21.2763 19.2781C21.3134 19.3451 21.332 19.4867 21.332 19.7027C21.332 19.8889 21.2948 20.0341 21.2206 20.1384C21.1463 20.2426 21.0237 20.306 20.8529 20.3283C20.7786 20.3358 20.7006 20.3432 20.6189 20.3507C20.5372 20.3581 20.4555 20.3618 20.3738 20.3618ZM24.7018 20.3618C24.0853 20.3618 23.5542 20.2464 23.1085 20.0155C22.6629 19.7846 22.3175 19.4569 22.0724 19.0323C21.8347 18.6078 21.7158 18.105 21.7158 17.524C21.7158 16.958 21.831 16.4627 22.0612 16.0381C22.299 15.6136 22.6221 15.2821 23.0305 15.0438C23.4465 14.798 23.9182 14.6751 24.4455 14.6751C24.8318 14.6751 25.1772 14.7384 25.4817 14.865C25.7937 14.9916 26.0574 15.1741 26.2728 15.4125C26.4956 15.6508 26.6627 15.9413 26.7742 16.2839C26.893 16.6191 26.9524 16.9989 26.9524 17.4235C26.9524 17.5576 26.9042 17.6618 26.8076 17.7363C26.7184 17.8034 26.5885 17.8369 26.4176 17.8369H22.8411V17.0325H25.972L25.7937 17.2C25.7937 16.8574 25.7417 16.5707 25.6377 16.3398C25.5412 16.1088 25.3963 15.9339 25.2032 15.8147C25.0175 15.6881 24.7836 15.6247 24.5012 15.6247C24.1893 15.6247 23.9219 15.6992 23.699 15.8482C23.4837 15.9897 23.3165 16.1945 23.1977 16.4627C23.0863 16.7233 23.0305 17.0362 23.0305 17.4011V17.4794C23.0305 18.0901 23.1717 18.5482 23.4539 18.8536C23.7436 19.1515 24.167 19.3005 24.7241 19.3005C24.9173 19.3005 25.1326 19.2781 25.3703 19.2334C25.6154 19.1813 25.8457 19.0957 26.0611 18.9765C26.2171 18.8871 26.3545 18.8499 26.4733 18.8647C26.5922 18.8722 26.685 18.9131 26.7519 18.9876C26.8262 19.0621 26.8707 19.1552 26.8856 19.2669C26.9005 19.3712 26.8782 19.4792 26.8187 19.5909C26.7668 19.7027 26.6739 19.7995 26.5402 19.8814C26.2802 20.0453 25.9794 20.1682 25.6377 20.2501C25.3035 20.3246 24.9915 20.3618 24.7018 20.3618ZM28.7462 20.3395C28.5233 20.3395 28.3525 20.2799 28.2336 20.1607C28.1148 20.0341 28.0554 19.8554 28.0554 19.6245V15.4013C28.0554 15.1704 28.1148 14.9954 28.2336 14.8762C28.3525 14.757 28.5196 14.6974 28.735 14.6974C28.9504 14.6974 29.1175 14.757 29.2364 14.8762C29.3553 14.9954 29.4147 15.1704 29.4147 15.4013V16.161L29.2921 15.8817C29.4555 15.487 29.708 15.189 30.0497 14.9879C30.3988 14.7793 30.7925 14.6751 31.2308 14.6751C31.669 14.6751 32.0293 14.757 32.3115 14.9209C32.5937 15.0848 32.8054 15.3342 32.9466 15.6694C33.0877 15.9971 33.1583 16.4143 33.1583 16.9207V19.6245C33.1583 19.8554 33.0989 20.0341 32.98 20.1607C32.8611 20.2799 32.6903 20.3395 32.4675 20.3395C32.2447 20.3395 32.0701 20.2799 31.9438 20.1607C31.825 20.0341 31.7656 19.8554 31.7656 19.6245V16.9878C31.7656 16.5632 31.6839 16.2541 31.5204 16.0605C31.3645 15.8668 31.1193 15.77 30.7851 15.77C30.3765 15.77 30.0497 15.9003 29.8046 16.161C29.567 16.4143 29.4481 16.7531 29.4481 17.1777V19.6245C29.4481 20.1012 29.2141 20.3395 28.7462 20.3395ZM36.3667 20.3618C35.973 20.3618 35.6202 20.2873 35.3082 20.1384C35.0036 19.982 34.7623 19.7734 34.584 19.5127C34.4131 19.2521 34.3277 18.9578 34.3277 18.6301C34.3277 18.2279 34.4317 17.9114 34.6397 17.6805C34.8476 17.4421 35.1857 17.2708 35.6536 17.1665C36.1216 17.0623 36.7492 17.0101 37.5366 17.0101H38.0936V17.8145H37.5477C37.0871 17.8145 36.7194 17.8369 36.4447 17.8816C36.1698 17.9262 35.973 18.0045 35.8542 18.1162C35.7427 18.2204 35.687 18.3694 35.687 18.5631C35.687 18.8089 35.7724 19.01 35.9433 19.1664C36.1141 19.3228 36.3518 19.401 36.6564 19.401C36.9015 19.401 37.1169 19.3451 37.3026 19.2334C37.4957 19.1142 37.648 18.9541 37.7594 18.753C37.8708 18.5519 37.9265 18.321 37.9265 18.0603V16.7755C37.9265 16.4031 37.8448 16.135 37.6814 15.9711C37.518 15.8072 37.2431 15.7253 36.8569 15.7253C36.6415 15.7253 36.4075 15.7513 36.155 15.8035C35.9099 15.8557 35.6498 15.945 35.3751 16.0716C35.2339 16.1387 35.1077 16.1573 34.9962 16.1275C34.8922 16.0977 34.8105 16.0381 34.7511 15.9487C34.6917 15.8519 34.662 15.7476 34.662 15.6359C34.662 15.5242 34.6917 15.4162 34.7511 15.3119C34.8105 15.2002 34.9108 15.1183 35.052 15.0661C35.3936 14.9246 35.7205 14.824 36.0324 14.7645C36.3518 14.7049 36.6415 14.6751 36.9015 14.6751C37.4363 14.6751 37.8745 14.757 38.2162 14.9209C38.5653 15.0848 38.8252 15.3342 38.9961 15.6694C39.1669 15.9971 39.2524 16.4217 39.2524 16.9431V19.6245C39.2524 19.8554 39.1967 20.0341 39.0852 20.1607C38.9738 20.2799 38.8141 20.3395 38.6062 20.3395C38.3982 20.3395 38.2347 20.2799 38.1159 20.1607C38.0045 20.0341 37.9488 19.8554 37.9488 19.6245V19.0882H38.0379C37.9859 19.3488 37.8819 19.5761 37.726 19.7697C37.5774 19.9559 37.3879 20.1012 37.1577 20.2054C36.9274 20.3097 36.6637 20.3618 36.3667 20.3618ZM14.7619 35.7016C14.5614 35.7016 14.398 35.6532 14.2717 35.5563C14.1528 35.4595 14.0563 35.3068 13.982 35.0983L11.6534 28.4954C11.5717 28.257 11.5866 28.0559 11.698 27.892C11.8168 27.7282 12.0136 27.6462 12.2885 27.6462C12.489 27.6462 12.645 27.6946 12.7564 27.7915C12.8678 27.8809 12.957 28.0261 13.0238 28.2272L15.0293 34.1933H14.5837L16.6783 28.2384C16.7526 28.0373 16.8454 27.8883 16.9569 27.7915C17.0683 27.6946 17.2131 27.6462 17.3914 27.6462C17.5696 27.6462 17.7108 27.6946 17.8148 27.7915C17.9187 27.8883 18.0079 28.041 18.0822 28.2496L20.11 34.1933H19.72L21.7589 28.2272C21.8258 28.0336 21.9149 27.8883 22.0263 27.7915C22.1377 27.6946 22.29 27.6462 22.4831 27.6462C22.7208 27.6462 22.8954 27.7282 23.0068 27.892C23.1182 28.0559 23.133 28.257 23.0514 28.4954L20.7005 35.1094C20.6262 35.3105 20.5296 35.4595 20.4108 35.5563C20.2919 35.6532 20.1322 35.7016 19.9317 35.7016C19.7311 35.7016 19.5715 35.6532 19.4526 35.5563C19.3337 35.4595 19.2372 35.3068 19.1629 35.0983L17.2243 29.5567H17.4805L15.5196 35.1094C15.4453 35.3105 15.3488 35.4595 15.2299 35.5563C15.1185 35.6532 14.9625 35.7016 14.7619 35.7016ZM25.5147 35.6904C25.2918 35.6904 25.1209 35.6234 25.0021 35.4893C24.8833 35.3552 24.8239 35.169 24.8239 34.9307V30.8304C24.8239 30.5846 24.8833 30.3984 25.0021 30.2718C25.1209 30.1377 25.2918 30.0707 25.5147 30.0707C25.7375 30.0707 25.9083 30.1377 26.0272 30.2718C26.1534 30.3984 26.2166 30.5846 26.2166 30.8304V34.9307C26.2166 35.169 26.1571 35.3552 26.0383 35.4893C25.9194 35.6234 25.7449 35.6904 25.5147 35.6904ZM25.5147 29.0316C25.2546 29.0316 25.0504 28.9683 24.9019 28.8417C24.7607 28.7076 24.6902 28.5252 24.6902 28.2943C24.6902 28.0559 24.7607 27.8734 24.9019 27.7468C25.0504 27.6202 25.2546 27.5569 25.5147 27.5569C25.7821 27.5569 25.9863 27.6202 26.1274 27.7468C26.2685 27.8734 26.3391 28.0559 26.3391 28.2943C26.3391 28.5252 26.2685 28.7076 26.1274 28.8417C25.9863 28.9683 25.7821 29.0316 25.5147 29.0316ZM29.5243 35.7239C28.9079 35.7239 28.4436 35.5488 28.1316 35.1988C27.8197 34.8413 27.6637 34.3199 27.6637 33.6347V28.3501C27.6637 28.1192 27.7231 27.9442 27.8419 27.825C27.9608 27.7058 28.1316 27.6462 28.3545 27.6462C28.5773 27.6462 28.7481 27.7058 28.867 27.825C28.9932 27.9442 29.0564 28.1192 29.0564 28.3501V33.5676C29.0564 33.9103 29.1269 34.1635 29.2681 34.3274C29.4166 34.4912 29.6246 34.5731 29.892 34.5731C29.9514 34.5731 30.0071 34.5731 30.0591 34.5731C30.1112 34.5657 30.1631 34.5583 30.2151 34.5508C30.3191 34.5359 30.3897 34.5657 30.4268 34.6402C30.4639 34.7072 30.4825 34.8488 30.4825 35.0647C30.4825 35.251 30.4454 35.3962 30.3711 35.5005C30.2968 35.6047 30.1743 35.668 30.0034 35.6904C29.9291 35.6979 29.8511 35.7053 29.7695 35.7127C29.6878 35.7202 29.606 35.7239 29.5243 35.7239ZM33.1616 35.7239C32.8422 35.7239 32.5043 35.6904 32.1477 35.6234C31.7912 35.5563 31.4718 35.4409 31.1895 35.277C31.0707 35.2025 30.9852 35.1169 30.9333 35.02C30.8887 34.9158 30.8701 34.8152 30.8776 34.7184C30.8924 34.6141 30.9295 34.5248 30.989 34.4503C31.0558 34.3757 31.1375 34.3274 31.2341 34.305C31.3381 34.2827 31.4495 34.3013 31.5684 34.3609C31.8654 34.5024 32.144 34.603 32.404 34.6625C32.6639 34.7147 32.9202 34.7407 33.1728 34.7407C33.5293 34.7407 33.7929 34.6812 33.9638 34.562C34.1421 34.4354 34.2312 34.2715 34.2312 34.0704C34.2312 33.8991 34.1718 33.7687 34.053 33.6794C33.9415 33.5825 33.7707 33.5118 33.5404 33.4671L32.4263 33.2548C31.9657 33.1654 31.6129 32.9978 31.3678 32.752C31.1301 32.4988 31.0113 32.1748 31.0113 31.78C31.0113 31.4225 31.1078 31.1134 31.301 30.8527C31.5015 30.5921 31.7763 30.391 32.1254 30.2494C32.4745 30.1079 32.8756 30.0371 33.3287 30.0371C33.6555 30.0371 33.9601 30.0744 34.2424 30.1489C34.5321 30.2159 34.8106 30.3239 35.078 30.4729C35.1894 30.5324 35.2636 30.6106 35.3008 30.7075C35.3454 30.8043 35.3565 30.9049 35.3343 31.0091C35.312 31.106 35.2674 31.1954 35.2006 31.2773C35.1337 31.3518 35.0483 31.4002 34.9443 31.4225C34.8477 31.4374 34.7363 31.4151 34.61 31.3555C34.3798 31.2363 34.1569 31.1507 33.9415 31.0985C33.7335 31.0464 33.533 31.0203 33.3399 31.0203C32.9759 31.0203 32.7048 31.0837 32.5265 31.2103C32.3557 31.3368 32.2703 31.5044 32.2703 31.713C32.2703 31.8694 32.3222 31.9998 32.4263 32.104C32.5302 32.2083 32.6899 32.2791 32.9054 32.3163L34.0195 32.5286C34.5023 32.618 34.8663 32.7819 35.1114 33.0202C35.3639 33.2585 35.4902 33.5788 35.4902 33.981C35.4902 34.5248 35.2785 34.953 34.8552 35.2658C34.4318 35.5712 33.8672 35.7239 33.1616 35.7239ZM39.0921 35.7239C38.5276 35.7239 38.0374 35.6085 37.6214 35.3776C37.2054 35.1466 36.8823 34.8189 36.6521 34.3944C36.4218 33.9624 36.3067 33.4559 36.3067 32.8749C36.3067 32.4355 36.3698 32.0445 36.4961 31.7018C36.6298 31.3518 36.8192 31.0538 37.0644 30.808C37.3095 30.5548 37.6028 30.3648 37.9445 30.2383C38.2862 30.1042 38.6688 30.0371 39.0921 30.0371C39.6566 30.0371 40.1468 30.1526 40.5628 30.3835C40.9788 30.6144 41.3019 30.9421 41.5322 31.3667C41.7624 31.7912 41.8776 32.294 41.8776 32.8749C41.8776 33.3144 41.8107 33.7092 41.677 34.0592C41.5507 34.4093 41.365 34.7109 41.1199 34.9642C40.8748 35.21 40.5814 35.3999 40.2397 35.534C39.898 35.6606 39.5155 35.7239 39.0921 35.7239ZM39.0921 34.6625C39.3669 34.6625 39.6083 34.5955 39.8164 34.4614C40.0243 34.3274 40.184 34.13 40.2954 33.8693C40.4142 33.6011 40.4737 33.2697 40.4737 32.8749C40.4737 32.2791 40.3474 31.8359 40.0949 31.5454C39.8423 31.2475 39.5081 31.0985 39.0921 31.0985C38.8173 31.0985 38.5759 31.1656 38.3679 31.2996C38.1599 31.4262 37.9965 31.6236 37.8777 31.8918C37.7663 32.1524 37.7106 32.4802 37.7106 32.8749C37.7106 33.4634 37.8368 33.9103 38.0894 34.2156C38.3419 34.5136 38.6761 34.6625 39.0921 34.6625ZM43.7178 35.7016C43.495 35.7016 43.3242 35.642 43.2053 35.5228C43.0864 35.3962 43.027 35.2174 43.027 34.9865V30.7634C43.027 30.5324 43.0864 30.3574 43.2053 30.2383C43.3242 30.1191 43.4913 30.0595 43.7067 30.0595C43.9221 30.0595 44.0892 30.1191 44.2081 30.2383C44.3269 30.3574 44.3863 30.5324 44.3863 30.7634V31.5231L44.2638 31.2438C44.4272 30.849 44.6797 30.5511 45.0214 30.35C45.3705 30.1414 45.7642 30.0371 46.2024 30.0371C46.6406 30.0371 47.0009 30.1191 47.2832 30.2829C47.5654 30.4468 47.7771 30.6963 47.9183 31.0315C48.0594 31.3592 48.1299 31.7763 48.1299 32.2828V34.9865C48.1299 35.2174 48.0705 35.3962 47.9517 35.5228C47.8328 35.642 47.662 35.7016 47.4392 35.7016C47.2163 35.7016 47.0417 35.642 46.9155 35.5228C46.7966 35.3962 46.7372 35.2174 46.7372 34.9865V32.3498C46.7372 31.9253 46.6555 31.6162 46.4921 31.4225C46.3361 31.2289 46.091 31.132 45.7568 31.132C45.3482 31.132 45.0214 31.2624 44.7763 31.5231C44.5386 31.7763 44.4198 32.1152 44.4198 32.5398V34.9865C44.4198 35.4632 44.1858 35.7016 43.7178 35.7016Z" fill="white"/>
<path d="M27.8532 67.0346C27.8532 62.4068 24.1119 58.6553 19.4969 58.6553C14.8819 58.6553 11.1406 62.4068 11.1406 67.0346C11.1406 71.6623 14.8819 75.4139 19.4969 75.4139C24.1119 75.4139 27.8532 71.6623 27.8532 67.0346Z" fill="#282828"/>
<path d="M18.1016 63.543L21.5833 67.0343L18.1016 70.5257" stroke="white" stroke-width="2" stroke-linecap="round" stroke-linejoin="round"/>
<path fill-rule="evenodd" clip-rule="evenodd" d="M169.354 131.115C168.853 128.268 168.394 125.413 167.977 122.553C167.779 121.195 167.586 119.836 167.412 118.475C167.29 117.521 167.104 116.43 167.75 115.723C168.657 114.729 169.482 113.878 169.593 112.453C169.698 111.113 169.247 109.652 168.965 108.351C168.375 105.623 167.639 102.929 166.827 100.26C166.001 97.5486 165.097 94.8623 164.178 92.1816C163.32 89.6748 162.495 87.1457 161.377 84.7408C159.255 80.1776 155.666 76.7979 151.23 74.5411C150.127 73.9797 147.876 71.9763 146.723 71.5273C145.664 71.1154 145.668 72.3199 144.625 71.866C143.791 71.5036 143.015 71.0197 142.548 70.2097C142.041 69.3303 140.77 68.1003 140.576 67.0767C140.167 64.9069 140.61 63.06 139.071 61.4269C137.705 59.9767 135.868 58.9832 133.968 58.4499C129.787 57.2767 124.212 58.0969 121.689 62.0054C120.485 63.8719 120.064 66.1281 118.438 67.6514C117.019 68.9814 117.337 69.8906 115.498 70.5763C115.394 70.6154 112.571 70.0058 112.468 70.0449C110.457 69.612 108.534 70.8242 106.689 71.5273C103.938 72.5761 101.319 73.9406 98.8587 75.5627C93.8972 78.8334 89.6473 83.081 86.144 87.8865C82.612 92.7326 79.8712 98.1638 77.92 103.84C77.4458 105.219 77.0203 106.614 76.645 108.024C76.4347 108.812 76.2097 109.631 76.466 110.438C76.6749 111.099 77.1408 111.59 77.6874 111.987C78.4283 112.524 79.9151 112.873 79.8865 113.954C79.8642 114.776 79.5871 115.64 79.452 116.452C79.2911 117.419 79.1588 118.392 79.0265 119.363C78.4249 123.784 77.9569 128.229 77.7494 132.687C77.5461 137.077 77.3768 141.556 77.6791 145.944C77.6992 146.233 77.7849 146.499 77.9235 146.723C77.794 146.773 77.7842 147.015 77.9451 147.049C78.0579 147.074 78.17 147.098 78.2828 147.122C78.5168 147.3 78.8078 147.409 79.1442 147.419C79.3712 147.427 79.5989 147.437 79.8259 147.449C82.2249 147.954 84.6238 148.43 87.0541 148.791C90.008 149.229 92.971 149.587 95.9424 149.878C102.049 150.475 108.108 150.277 114.223 149.955C120.329 149.634 126.431 149.558 132.543 149.718C138.66 149.879 144.775 150.146 150.894 150.256C157.729 150.378 164.554 150.19 171.371 149.643C172.306 149.569 172.883 148.82 172.699 147.887C171.595 142.291 170.343 136.734 169.354 131.115Z" fill="white"/>
<path fill-rule="evenodd" clip-rule="evenodd" d="M110.555 69.9073C111.187 69.8801 111.832 69.9827 112.462 70.0449C112.517 70.0505 112.538 70.1357 112.476 70.1489C111.348 70.3863 110.231 70.7103 109.123 71.0399L108.648 71.1817C107.399 71.5532 106.185 71.9372 104.975 72.4337C102.564 73.4224 100.273 74.7568 98.1648 76.291C90.0474 82.1956 84.1723 91.1363 80.4649 100.393C79.4579 102.906 78.6049 105.482 77.9134 108.102C77.7456 108.74 77.5875 109.379 77.4378 110.021C77.3939 110.21 77.2017 110.692 77.3069 110.884C77.4002 111.054 77.7616 111.159 77.9294 111.248L78.4963 111.543C79.6021 112.117 81.4439 113.059 81.6285 113.152L81.9168 113.294C86.6283 115.619 91.663 117.589 96.9657 117.725L97.0068 117.27C97.2436 114.751 97.5534 112.219 98.231 109.778C98.2672 109.647 98.4329 109.691 98.4483 109.808C98.8257 112.698 98.7052 115.61 98.5736 118.514C98.3403 123.656 98.0311 128.796 97.7561 133.936C97.6182 136.507 97.4399 139.077 97.2791 141.647C97.1182 144.222 97.066 146.859 96.699 149.413C96.6169 149.982 95.9539 150.292 95.4525 150.232C94.8968 150.165 94.47 149.673 94.4672 149.109C94.4602 147.621 94.6462 146.116 94.7499 144.632C94.8474 143.222 94.9533 141.812 95.0605 140.403C95.4553 135.26 95.9087 130.122 96.3279 124.981C96.4769 123.158 96.637 121.335 96.8028 119.514C91.186 119.332 85.9382 117.239 80.9321 114.792C80.8597 116.448 80.6842 118.1 80.515 119.749C80.0422 124.349 79.6251 128.947 79.3131 133.561C79.1557 135.892 79.0408 138.226 78.9405 140.56C78.8918 141.706 78.8514 142.853 78.8208 144.001C78.811 144.383 78.8013 144.766 78.7929 145.149L78.7762 146.025C78.7623 146.58 78.7059 147.095 78.2414 147.499C77.77 147.91 77.1328 147.931 76.6662 147.499C76.0409 146.92 76.1516 146.131 76.1704 145.354C76.1858 144.698 76.2039 144.042 76.2254 143.386C76.2686 142.075 76.3236 140.764 76.3905 139.454C76.6252 134.872 77.0938 130.309 77.7059 125.765L77.9447 124.01C78.3911 120.749 78.8807 117.413 79.8785 114.272C79.49 114.077 79.1028 113.881 78.717 113.685C78.0325 113.337 77.325 113.009 76.66 112.624C76.1321 112.319 75.6767 111.9 75.5298 111.282C75.3661 110.594 75.6168 109.841 75.7833 109.17L75.7979 109.111C75.9608 108.435 76.1363 107.761 76.3222 107.091C77.0736 104.372 78.0039 101.707 79.0917 99.1064C81.2705 93.9001 84.0831 88.9542 87.5183 84.4824C90.6101 80.4569 94.2632 76.8063 98.5444 74.069C100.638 72.7304 102.868 71.6314 105.227 70.8542C106.33 70.4911 107.529 70.1748 108.683 70.0449C109.306 69.975 109.93 69.9345 110.555 69.9073ZM121.755 61.6579C122.507 60.8463 123.999 61.6862 123.638 62.7609C122.79 65.2893 121.438 67.5956 119.331 69.257C117.349 70.8186 114.985 71.8332 112.44 71.6167C112.421 71.6146 112.403 71.6097 112.388 71.6027L112.607 71.9023C114.329 74.2457 116.146 76.557 118.336 78.4724C122.797 82.375 128.871 84.4803 134.736 82.9832C139.351 81.8052 143.416 78.1337 144.612 73.4546C144.441 73.5321 144.236 73.5586 144.013 73.5097C143.056 73.3002 142.109 72.2884 141.492 71.5622C140.825 70.7774 140.303 69.9297 139.922 68.971C139.222 67.2171 138.998 64.9588 139.952 63.2597C140.071 63.0502 140.342 63.1676 140.365 63.3721L140.402 63.6913C140.586 65.2835 140.815 66.8239 141.561 68.2754C141.927 68.9857 142.364 69.679 142.897 70.2739C143.182 70.5923 143.491 70.8961 143.825 71.1628C144.15 71.4233 144.544 71.6111 144.835 71.9093L144.889 71.9665L144.89 71.9561C144.964 71.3262 145.404 71.0483 145.833 71.0658C146.249 71.0825 146.738 71.2669 146.927 71.3548L146.945 71.3632C149.848 72.7654 152.52 74.5927 155.036 76.6198C160.238 80.8116 164.136 86.2924 166.025 92.7458C166.952 95.9132 167.484 99.1769 168.045 102.425L168.391 104.415C168.915 107.415 169.5 110.472 170.683 113.262C170.989 113.984 170.753 114.661 170.003 114.945C169.066 115.299 168.126 115.642 167.184 115.981C167.646 117.977 167.928 120.042 168.275 122.048C169.011 126.313 169.914 130.549 170.688 134.808C171.083 136.985 171.44 139.17 171.835 141.347C172.025 142.396 172.224 143.443 172.417 144.492C172.521 145.056 172.616 145.623 172.715 146.19L172.732 146.283C172.789 146.582 172.861 146.891 172.779 147.19C172.686 147.53 172.422 147.771 172.185 148.016C171.991 148.217 171.711 148.218 171.472 148.109L171.394 148.072C170.969 147.872 170.636 147.672 170.486 147.19C170.39 146.885 170.355 146.54 170.293 146.225C170.174 145.622 170.06 145.018 169.953 144.412C169.738 143.2 169.529 141.987 169.325 140.773L169.134 139.636C168.479 135.718 167.857 131.777 167.542 127.818C167.403 126.061 167.255 124.307 167.106 122.551L166.994 121.235C166.852 119.569 166.679 117.86 166.654 116.171L166.092 116.373L163.343 117.35C162.662 117.592 161.794 118.088 161.061 117.998C160.702 117.954 160.428 117.84 160.217 117.634C160.47 121.227 160.813 124.813 161.269 128.382C161.684 131.629 162.145 134.872 162.689 138.1C162.958 139.699 163.235 141.295 163.536 142.888C163.686 143.684 163.841 144.48 164.001 145.274C164.081 145.67 164.175 146.068 164.237 146.467C164.309 146.924 164.184 147.206 163.929 147.583C163.721 147.892 163.303 148.051 162.964 147.838C162.517 147.554 162.283 147.309 162.151 146.794C162.031 146.326 161.958 145.837 161.865 145.363C161.694 144.488 161.529 143.612 161.369 142.735C161.035 140.9 160.728 139.06 160.453 137.216C159.483 130.717 158.869 124.164 158.558 117.6C158.405 114.362 158.358 111.12 158.385 107.879C158.399 106.217 158.453 104.55 158.57 102.893C158.688 101.215 158.934 99.5708 159.154 97.9089C159.161 97.8509 159.244 97.8474 159.247 97.9089C159.351 99.7719 159.514 101.633 159.594 103.501C159.671 105.283 159.704 107.069 159.765 108.852C159.844 111.195 159.955 113.54 160.101 115.884C160.365 115.592 160.765 115.424 161.164 115.489C161.743 115.368 162.366 115.062 162.918 114.876L164.998 114.177C166.091 113.81 167.184 113.446 168.282 113.091C167.3 109.771 166.629 106.401 166.055 102.982L165.799 101.444C165.292 98.4172 164.746 95.3895 163.828 92.4581C162.864 89.3766 161.42 86.5116 159.505 83.9175C157.618 81.3604 155.322 79.1092 152.957 77.0032C150.933 75.2002 148.767 73.5726 146.702 71.8192C146.724 71.9358 146.729 72.0636 146.71 72.2039C146.271 75.437 144.595 78.4472 142.259 80.6859C137.567 85.1842 130.621 86.1178 124.615 84.0083C118.805 81.9679 113.669 77.1359 111.854 71.1558C111.822 71.0539 111.959 71.0134 112.013 71.0881C112.114 71.2271 112.215 71.366 112.317 71.505C112.31 71.4498 112.338 71.3898 112.406 71.3632C114.523 70.5406 116.602 69.3742 118.19 67.7239C118.963 66.9194 119.638 66.0081 120.171 65.0252C120.427 64.5543 120.656 64.0668 120.839 63.5629L120.886 63.4326C121.107 62.8014 121.292 62.1579 121.755 61.6579Z" fill="#282828"/>
<path fill-rule="evenodd" clip-rule="evenodd" d="M150.745 22.7008C146.742 17.097 139.373 15.4855 132.981 16.8484C120.486 19.1652 108.548 28.8616 106.34 42.0486C102.895 50.0264 105.095 62.5923 115.113 63.5311C116.539 63.6129 117.951 63.279 119.38 63.4593C128.1 64.8761 138.404 70.9405 146.122 63.7886C146.51 64.0705 147.019 64.2068 147.452 64.0363C150.738 62.7448 150.892 59.0091 151.172 55.9381C151.534 51.9702 151.874 48 152.19 44.0282C152.303 37.1787 154.972 28.6194 150.745 22.7008Z" fill="white"/>
<path fill-rule="evenodd" clip-rule="evenodd" d="M126.519 8.42145C131.78 8.13697 141.473 10.5879 146.062 13.4613C153.54 18.143 154.119 27.4819 153.814 29.0966C153.699 29.7129 153.328 30.2832 152.749 30.0937C153.241 34.3364 153.202 36.7614 153.284 41.0286L153.341 43.8775C153.378 45.7769 153.41 47.6765 153.417 49.5765C153.607 49.5049 153.793 49.5928 153.862 49.7772C153.88 49.8219 153.82 49.8462 153.791 49.8205C153.458 49.525 153.695 50.1983 153.809 50.3353C153.967 50.5236 154.231 50.7011 154.417 50.8622L154.919 51.3049L155.422 51.7469C156.071 52.3168 156.7 52.8879 157.306 53.5019L157.47 53.6705C158.575 54.8111 159.958 55.9151 160.646 57.3905C161.302 58.7992 161.1 60.3964 160.009 61.5194C159.612 61.9272 159.148 62.2389 158.645 62.4746C159.541 63.9756 159.672 65.9602 158.737 67.5044C157.8 69.0543 156 69.8658 154.266 69.7411C154.213 69.9622 154.13 70.1772 154.021 70.3818C153.333 71.6667 151.965 71.8336 150.668 71.7651L150.618 71.7623C147.699 71.5913 144.89 70.8476 142.333 69.4024C141.446 69.4634 140.655 68.7222 140.481 67.9094C140.015 67.8919 139.547 67.8525 139.068 67.797C137.65 67.6305 136.196 67.3203 134.945 66.5874C134.753 66.4749 134.843 66.1783 135.056 66.1727C136.579 66.1375 138.105 66.2446 139.625 66.0767C141.021 65.9235 142.508 65.5321 143.81 64.9997C146.148 64.0406 148.154 62.4136 149.261 60.1593C150.694 57.2413 150.564 53.7369 150.719 50.5669C150.892 47.058 151.104 43.5524 151.332 40.0472L151.442 38.3668C151.663 35.0919 151.845 33.3399 152.404 29.9406C150.719 30.0937 143.721 27.5314 141.545 23.3405C137.414 32.2561 116.486 28.6074 115.558 42.3332C115.55 42.4496 115.368 42.4172 115.362 42.306L115.345 41.993C115.336 41.8385 115.329 41.6863 115.323 41.5354L115.319 41.385L114.99 41.389C114.99 41.4308 114.932 41.4459 114.917 41.4012C114.607 40.5056 113.128 40.7942 112.485 41.007C111.906 41.1992 111.36 41.4945 110.869 41.8591C109.885 42.5906 109.122 43.5755 108.869 44.8067C108.388 47.145 109.852 49.5266 111.795 50.655C113.02 51.3662 114.363 51.8254 115.538 52.6315C116.575 53.3427 117.542 54.1758 118.38 55.1227C121.698 58.8738 123.651 64.5635 122.081 69.5149C121.961 69.893 121.644 70.3246 121.225 70.386C120.531 70.4873 119.837 70.3846 119.448 69.7126C119.296 69.4499 119.224 69.1504 119.24 68.8551C118.971 69.7951 118.099 70.7247 117.295 71.0738C116.199 71.5508 114.964 71.4083 113.997 70.7938L113.875 70.8853C112.302 72.0626 110.546 73.1358 108.531 72.9194C107.071 72.7623 105.638 72.006 104.831 70.8141C103.757 71.4279 102.611 71.9167 101.428 72.2497L101.302 72.2846C99.6754 72.7357 97.5996 73.1484 96.0808 72.2337C94.6226 71.3545 94.138 69.4348 94.4799 67.8322C94.5217 67.6413 94.5732 67.4557 94.6373 67.2756C93.5398 67.3351 92.4437 67.2281 91.402 66.9003C90.338 66.5656 89.3234 65.9221 88.8129 64.8791C88.2377 63.6991 88.3909 62.3581 88.8199 61.1565C89.5058 59.2286 90.6088 57.5136 91.9814 56.0196C93.3023 54.5814 94.8949 53.3615 96.5501 52.3445L96.8294 52.1746C98.3196 51.2707 100.116 50.2113 101.877 50.2811C101.872 50.2581 101.868 50.2362 101.865 50.2134C101.599 48.2179 101.629 46.1832 101.567 44.1715C101.51 42.321 101.444 40.4705 101.402 38.6187C101.333 35.4703 101.355 32.3086 101.759 29.182C102.117 26.4076 102.762 23.7022 103.937 21.1621C105.172 18.4935 107.031 16.2163 109.328 14.4254C114.146 10.6661 120.51 8.74657 126.519 8.42145ZM110.152 45.4C110.676 44.3936 111.871 44.0765 112.919 44.2581C114.388 44.5127 115.387 45.8188 116.245 46.9418C117.145 48.1189 115.268 49.2284 114.784 48.0878L114.669 47.8185C114.281 46.9139 113.823 45.9602 113.031 45.3702C112.19 44.7444 111.002 44.6523 110.259 45.4841C110.205 45.545 110.116 45.4665 110.152 45.4Z" fill="#282828"/>
<path fill-rule="evenodd" clip-rule="evenodd" d="M140.137 53.6728C140.341 53.3115 140.811 52.9768 141.242 53.0282C143.17 53.2582 143.166 55.6362 142.422 57.0245C141.762 58.2555 140.396 58.978 139.028 58.8725C137.591 58.7616 136.367 57.9024 135.828 56.5354C135.472 55.6311 135.307 53.9618 136.255 53.3542C136.273 53.3428 136.302 53.3457 136.316 53.3621C136.77 53.8998 136.788 54.707 137.186 55.3056C137.556 55.8624 138.131 56.3222 138.804 56.3932C139.307 56.4463 139.816 56.2618 140.013 55.8026C140.119 55.5541 140.107 55.4193 140.067 55.2483L140.031 55.0998C139.905 54.5794 139.848 54.1831 140.137 53.6728ZM140.652 43.2439C141.657 43.8656 143.19 45.3156 142.108 46.8572C140.834 48.2164 139.001 46.6579 138.098 45.953C137.26 45.4068 136.318 46.8116 137.096 47.4496C143.625 52.3664 146.274 43.4064 141.16 42.5127C140.598 42.4142 140.389 43.0515 140.652 43.2439ZM130.032 38.9801C130.649 38.0381 132.058 38.1768 132.398 39.2947C132.582 39.9002 132.328 40.4445 132.341 41.0493C132.352 41.5601 132.319 42.1293 132.165 42.6241C131.814 43.7523 130.817 44.5491 129.636 44.516C128.46 44.4831 127.424 43.7258 126.932 42.6593C126.437 41.5887 126.542 40.4807 126.902 39.3921C126.92 39.3398 126.987 39.3145 127.028 39.3584C127.455 39.8196 127.767 40.3065 128.09 40.8229L128.421 41.3522C128.675 41.7507 129.042 42.2598 129.515 42.2278L129.585 42.2208C129.717 42.2093 129.697 42.2358 129.798 42.0537C129.845 41.9695 129.837 41.8129 129.859 41.7135L129.867 41.6799L129.863 41.6617C129.853 41.6135 129.843 41.5228 129.835 41.3653L129.833 41.3306C129.799 40.5941 129.594 39.6475 130.032 38.9801ZM145.68 39.6072C145.569 38.4024 147.234 38.1348 147.787 39.0263C148.076 39.4913 148.161 40.0752 148.225 40.6285L148.254 40.8912C148.319 41.4594 148.346 42.0507 148.103 42.5807C147.721 43.4156 146.891 43.857 145.994 43.7871C145.139 43.7202 144.358 43.2155 143.946 42.4494C143.579 41.7659 143.215 40.4313 143.661 39.7183C143.687 39.675 143.741 39.6695 143.778 39.7028C144.199 40.0831 144.268 40.7767 144.518 41.2721C144.776 41.7831 145.168 42.2811 145.762 42.3587C146.33 42.433 146.547 42.1174 146.402 41.5667C146.215 40.8558 145.75 40.3722 145.68 39.6072ZM130.482 31.8169L130.754 31.7109C131.687 31.3524 132.968 30.9379 133.727 31.7097C134.195 32.1856 134.284 32.8866 133.949 33.4674C133.545 34.1709 132.819 34.1882 132.118 34.2918C131.32 34.4097 130.509 34.6338 129.767 34.9532C128.931 35.3131 128.155 35.7618 127.395 36.2629C126.672 36.7391 125.952 37.5173 125.087 37.664C125.051 37.67 125.011 37.6546 125.002 37.6151C124.806 36.7549 125.352 35.9083 125.839 35.2373C126.428 34.4247 127.143 33.7578 127.941 33.1599C128.711 32.5827 129.592 32.1655 130.482 31.8169ZM147.431 34.8754L147.514 34.8605C148.08 34.7647 148.593 34.7868 149.019 35.2426C149.345 35.5903 149.471 36.0411 149.315 36.5008C149.172 36.925 148.852 37.3559 148.387 37.4448C146.818 37.7449 145.081 37.6954 143.504 37.468C142.783 37.364 142.055 37.2368 141.352 37.036L141.029 36.9407C140.442 36.7702 139.771 36.5922 139.345 36.1534C139.192 35.9957 139.28 35.77 139.463 35.697C140.207 35.4008 141.226 35.5584 142.019 35.5353C142.941 35.5084 143.864 35.4381 144.782 35.3413C145.679 35.2464 146.547 35.0404 147.431 34.8754Z" fill="#282828"/>
</g>
</g>
<g clip-path="url(#clip1_5716_1144)">
<mask id="mask1_5716_1144" style="mask-type:luminance" maskUnits="userSpaceOnUse" x="30" y="65" width="172" height="81">
<path d="M196.429 65H35.5709C32.4942 65 30 67.501 30 70.5862V140.414C30 143.499 32.4942 146 35.5709 146H196.429C199.506 146 202 143.499 202 140.414V70.5862C202 67.501 199.506 65 196.429 65Z" fill="white"/>
</mask>
<g mask="url(#mask1_5716_1144)">
<path d="M196.429 65H35.5709C32.4942 65 30 67.501 30 70.5862V140.414C30 143.499 32.4942 146 35.5709 146H196.429C199.506 146 202 143.499 202 140.414V70.5862C202 67.501 199.506 65 196.429 65Z" fill="#DFDFDF"/>
<path d="M45.404 113.181H44.7206L42.9288 110.757L42.3983 111.234V113.181H41.8203V108.196H42.3983V110.682C42.5275 110.534 42.6601 110.388 42.7961 110.242C42.9321 110.094 43.067 109.946 43.2008 109.796L44.6526 108.196H45.3293L43.3503 110.358L45.404 113.181ZM46.5635 109.444V113.181H45.9991V109.444H46.5635ZM46.2881 108.046C46.381 108.046 46.4604 108.077 46.5261 108.139C46.5941 108.198 46.6282 108.291 46.6282 108.418C46.6282 108.543 46.5941 108.636 46.5261 108.698C46.4604 108.759 46.381 108.79 46.2881 108.79C46.1906 108.79 46.109 108.759 46.0433 108.698C45.9799 108.636 45.9481 108.543 45.9481 108.418C45.9481 108.291 45.9799 108.198 46.0433 108.139C46.109 108.077 46.1906 108.046 46.2881 108.046ZM49.5251 109.376C49.9671 109.376 50.3014 109.485 50.5281 109.704C50.7548 109.919 50.8681 110.267 50.8681 110.747V113.181H50.3105V110.784C50.3105 110.473 50.2391 110.24 50.0963 110.085C49.9558 109.931 49.7393 109.854 49.4469 109.854C49.0344 109.854 48.7442 109.971 48.5764 110.205C48.4087 110.439 48.3248 110.779 48.3248 111.224V113.181H47.7604V109.444H48.216L48.301 109.983H48.3316C48.411 109.851 48.5118 109.741 48.6342 109.652C48.7566 109.561 48.8938 109.493 49.0456 109.448C49.1975 109.4 49.3573 109.376 49.5251 109.376ZM53.3571 113.249C52.8856 113.249 52.5116 113.088 52.235 112.765C51.9607 112.443 51.8236 111.963 51.8236 111.327C51.8236 110.683 51.9641 110.198 52.2453 109.871C52.5263 109.541 52.9003 109.376 53.3673 109.376C53.5645 109.376 53.7368 109.402 53.8841 109.455C54.0315 109.507 54.1584 109.577 54.265 109.666C54.3715 109.752 54.461 109.851 54.5335 109.963H54.5744C54.5653 109.892 54.5563 109.796 54.5471 109.673C54.5381 109.55 54.5335 109.45 54.5335 109.373V107.876H55.0979V113.181H54.6423L54.5574 112.649H54.5335C54.4633 112.761 54.3737 112.862 54.265 112.953C54.1584 113.044 54.0303 113.116 53.8807 113.171C53.7334 113.223 53.5589 113.249 53.3571 113.249ZM53.4455 112.779C53.8444 112.779 54.1267 112.665 54.2921 112.438C54.4576 112.211 54.5404 111.873 54.5404 111.425V111.323C54.5404 110.848 54.461 110.483 54.3024 110.229C54.146 109.974 53.8603 109.847 53.4455 109.847C53.0987 109.847 52.8391 109.981 52.6668 110.249C52.4945 110.515 52.4084 110.879 52.4084 111.34C52.4084 111.799 52.4934 112.154 52.6635 112.404C52.8357 112.654 53.0964 112.779 53.4455 112.779ZM57.7297 109.376C58.0471 109.376 58.3191 109.447 58.5457 109.588C58.7724 109.729 58.9459 109.926 59.066 110.181C59.1861 110.433 59.2462 110.729 59.2462 111.067V111.419H56.6723C56.6791 111.857 56.7879 112.191 56.9987 112.421C57.2095 112.651 57.5064 112.765 57.8895 112.765C58.1253 112.765 58.3338 112.744 58.5152 112.701C58.6965 112.657 58.8847 112.594 59.0796 112.51V113.007C58.8914 113.091 58.7044 113.153 58.5186 113.191C58.335 113.23 58.1173 113.249 57.8658 113.249C57.5076 113.249 57.1947 113.177 56.9273 113.031C56.662 112.884 56.4558 112.668 56.3084 112.383C56.1611 112.099 56.0874 111.752 56.0874 111.34C56.0874 110.938 56.1543 110.59 56.288 110.297C56.424 110.001 56.6145 109.774 56.8592 109.615C57.1064 109.456 57.3965 109.376 57.7297 109.376ZM57.7229 109.84C57.4214 109.84 57.1812 109.939 57.0021 110.137C56.823 110.334 56.7165 110.61 56.6824 110.965H58.6546C58.6523 110.742 58.6172 110.547 58.5492 110.379C58.4834 110.208 58.3825 110.076 58.2465 109.983C58.1105 109.888 57.936 109.84 57.7229 109.84ZM61.8984 109.376C61.9731 109.376 62.0513 109.381 62.133 109.39C62.2146 109.397 62.2871 109.407 62.3506 109.421L62.2791 109.946C62.218 109.93 62.1499 109.917 62.0752 109.908C62.0004 109.899 61.93 109.894 61.8643 109.894C61.7147 109.894 61.573 109.925 61.4393 109.987C61.3078 110.046 61.1923 110.132 61.0925 110.246C60.9927 110.357 60.9145 110.492 60.8579 110.651C60.8012 110.808 60.7729 110.983 60.7729 111.176V113.181H60.205V109.444H60.6743L60.7354 110.133H60.7593C60.8363 109.994 60.9293 109.868 61.0381 109.755C61.1469 109.639 61.2727 109.547 61.4155 109.479C61.5606 109.41 61.7215 109.376 61.8984 109.376ZM64.0949 114.859C63.6052 114.859 63.2278 114.767 62.9626 114.583C62.6974 114.401 62.5648 114.145 62.5648 113.815C62.5648 113.581 62.6384 113.381 62.7858 113.215C62.9354 113.049 63.1417 112.939 63.4046 112.885C63.3072 112.839 63.2232 112.771 63.153 112.68C63.085 112.589 63.051 112.485 63.051 112.366C63.051 112.23 63.0884 112.111 63.1632 112.008C63.2403 111.904 63.357 111.804 63.5134 111.708C63.3185 111.629 63.1598 111.495 63.0374 111.306C62.9173 111.115 62.8572 110.893 62.8572 110.641C62.8572 110.373 62.9127 110.144 63.0238 109.956C63.1349 109.765 63.2958 109.619 63.5066 109.519C63.7174 109.419 63.9725 109.369 64.2717 109.369C64.3374 109.369 64.4031 109.373 64.4689 109.38C64.5368 109.384 64.6015 109.392 64.6627 109.403C64.7239 109.413 64.7772 109.424 64.8225 109.438H66.1009V109.802L65.4141 109.888C65.4822 109.976 65.5388 110.083 65.5841 110.208C65.6294 110.333 65.6521 110.472 65.6521 110.624C65.6521 110.997 65.5263 111.293 65.2747 111.514C65.0231 111.732 64.6774 111.841 64.2376 111.841C64.1334 111.841 64.0268 111.832 63.9181 111.814C63.807 111.875 63.722 111.944 63.6631 112.019C63.6064 112.094 63.578 112.18 63.578 112.278C63.578 112.35 63.5996 112.408 63.6427 112.452C63.688 112.495 63.7525 112.527 63.8365 112.547C63.9203 112.565 64.0212 112.574 64.139 112.574H64.7953C65.201 112.574 65.5116 112.66 65.7269 112.83C65.9445 113.001 66.0534 113.249 66.0534 113.577C66.0534 113.99 65.8856 114.308 65.5501 114.528C65.2146 114.749 64.7295 114.859 64.0949 114.859ZM64.1119 114.416C64.4201 114.416 64.6751 114.384 64.8769 114.32C65.0809 114.259 65.2328 114.169 65.3325 114.051C65.4345 113.935 65.4855 113.796 65.4855 113.635C65.4855 113.485 65.4515 113.371 65.3835 113.294C65.3155 113.219 65.2158 113.169 65.0843 113.144C64.9529 113.116 64.7919 113.103 64.6015 113.103H63.9555C63.7877 113.103 63.6415 113.129 63.5168 113.181C63.3922 113.234 63.2958 113.311 63.2278 113.413C63.162 113.515 63.1292 113.643 63.1292 113.795C63.1292 113.997 63.2142 114.151 63.3842 114.255C63.5542 114.362 63.7968 114.416 64.1119 114.416ZM64.258 111.429C64.5278 111.429 64.7307 111.361 64.8667 111.224C65.0027 111.088 65.0707 110.889 65.0707 110.628C65.0707 110.348 65.0016 110.139 64.8633 110C64.725 109.859 64.521 109.789 64.2513 109.789C63.9929 109.789 63.7934 109.862 63.6528 110.007C63.5145 110.15 63.4454 110.36 63.4454 110.638C63.4454 110.892 63.5157 111.088 63.6562 111.224C63.7968 111.361 63.9974 111.429 64.258 111.429ZM68.2295 109.383C68.6738 109.383 69.0036 109.483 69.2189 109.683C69.4343 109.883 69.5419 110.202 69.5419 110.641V113.181H69.1305L69.0217 112.629H68.9945C68.8903 112.765 68.7814 112.88 68.6681 112.973C68.5548 113.064 68.4233 113.134 68.2736 113.181C68.1264 113.227 67.945 113.249 67.7296 113.249C67.503 113.249 67.3012 113.21 67.1244 113.13C66.9499 113.051 66.8116 112.93 66.7096 112.769C66.6098 112.607 66.56 112.403 66.56 112.155C66.56 111.782 66.7073 111.496 67.002 111.296C67.2966 111.096 67.7455 110.987 68.3485 110.968L68.9911 110.941V110.713C68.9911 110.39 68.9219 110.164 68.7837 110.034C68.6454 109.905 68.4505 109.84 68.1988 109.84C68.0039 109.84 67.818 109.868 67.6412 109.925C67.4644 109.982 67.2966 110.049 67.138 110.126L66.9646 109.697C67.1323 109.61 67.325 109.536 67.5426 109.475C67.7602 109.414 67.9892 109.383 68.2295 109.383ZM68.9843 111.34L68.4165 111.364C67.9518 111.382 67.6242 111.458 67.4338 111.592C67.2434 111.727 67.1482 111.916 67.1482 112.162C67.1482 112.375 67.2128 112.533 67.3421 112.636C67.4712 112.738 67.6424 112.789 67.8555 112.789C68.1864 112.789 68.4573 112.697 68.6681 112.513C68.8789 112.329 68.9843 112.053 68.9843 111.684V111.34ZM72.3981 109.376C72.4729 109.376 72.5511 109.381 72.6327 109.39C72.7143 109.397 72.7869 109.407 72.8503 109.421L72.7789 109.946C72.7177 109.93 72.6497 109.917 72.5749 109.908C72.5001 109.899 72.4298 109.894 72.3641 109.894C72.2145 109.894 72.0728 109.925 71.939 109.987C71.8076 110.046 71.692 110.132 71.5923 110.246C71.4925 110.357 71.4143 110.492 71.3577 110.651C71.301 110.808 71.2726 110.983 71.2726 111.176V113.181H70.7048V109.444H71.174L71.2352 110.133H71.2591C71.3361 109.994 71.429 109.868 71.5378 109.755C71.6466 109.639 71.7725 109.547 71.9152 109.479C72.0604 109.41 72.2213 109.376 72.3981 109.376ZM74.7578 112.786C74.8507 112.786 74.9459 112.778 75.0434 112.762C75.1409 112.746 75.2202 112.727 75.2814 112.704V113.144C75.2157 113.173 75.1239 113.198 75.006 113.219C74.8904 113.239 74.7771 113.249 74.666 113.249C74.4688 113.249 74.2897 113.215 74.1287 113.147C73.9678 113.077 73.8386 112.959 73.7411 112.793C73.646 112.627 73.5983 112.397 73.5983 112.104V109.888H73.0679V109.611L73.6017 109.39L73.8262 108.578H74.1662V109.444H75.2576V109.888H74.1662V112.087C74.1662 112.321 74.2195 112.496 74.3259 112.612C74.4348 112.728 74.5787 112.786 74.7578 112.786ZM77.4712 109.376C77.7885 109.376 78.0605 109.447 78.2872 109.588C78.5138 109.729 78.6873 109.926 78.8074 110.181C78.9275 110.433 78.9876 110.729 78.9876 111.067V111.419H76.4137C76.4205 111.857 76.5293 112.191 76.7401 112.421C76.9509 112.651 77.2479 112.765 77.6309 112.765C77.8667 112.765 78.0753 112.744 78.2566 112.701C78.4379 112.657 78.6261 112.594 78.821 112.51V113.007C78.6328 113.091 78.4459 113.153 78.26 113.191C78.0764 113.23 77.8588 113.249 77.6072 113.249C77.249 113.249 76.9362 113.177 76.6687 113.031C76.4035 112.884 76.1972 112.668 76.0498 112.383C75.9025 112.099 75.8289 111.752 75.8289 111.34C75.8289 110.938 75.8957 110.59 76.0294 110.297C76.1655 110.001 76.3559 109.774 76.6007 109.615C76.8478 109.456 77.1379 109.376 77.4712 109.376ZM77.4644 109.84C77.1628 109.84 76.9226 109.939 76.7435 110.137C76.5645 110.334 76.4579 110.61 76.4239 110.965H78.396C78.3937 110.742 78.3586 110.547 78.2906 110.379C78.2248 110.208 78.124 110.076 77.9879 109.983C77.8519 109.888 77.6774 109.84 77.4644 109.84ZM81.7112 109.376C82.1532 109.376 82.4875 109.485 82.7142 109.704C82.9409 109.919 83.0542 110.267 83.0542 110.747V113.181H82.4966V110.784C82.4966 110.473 82.4252 110.24 82.2824 110.085C82.1419 109.931 81.9254 109.854 81.633 109.854C81.2204 109.854 80.9303 109.971 80.7625 110.205C80.5948 110.439 80.5109 110.779 80.5109 111.224V113.181H79.9464V109.444H80.4021L80.4871 109.983H80.5177C80.5971 109.851 80.6979 109.741 80.8203 109.652C80.9427 109.561 81.0798 109.493 81.2317 109.448C81.3836 109.4 81.5434 109.376 81.7112 109.376ZM84.6625 108.196L84.7135 108.272C84.6727 108.437 84.6206 108.616 84.5571 108.807C84.4937 108.995 84.4245 109.184 84.3497 109.373C84.2749 109.561 84.2001 109.739 84.1253 109.905H83.7105C83.7444 109.775 83.7785 109.636 83.8125 109.489C83.8488 109.341 83.8827 109.191 83.9145 109.039C83.9462 108.886 83.9745 108.739 83.9995 108.595C84.0267 108.452 84.0494 108.319 84.0675 108.196H84.6625ZM87.8111 112.158C87.8111 112.397 87.751 112.598 87.6309 112.762C87.513 112.923 87.343 113.045 87.1209 113.127C86.901 113.209 86.638 113.249 86.332 113.249C86.0713 113.249 85.8458 113.229 85.6554 113.188C85.4649 113.147 85.2984 113.089 85.1555 113.014V112.493C85.3074 112.568 85.4888 112.636 85.6996 112.697C85.9104 112.758 86.1257 112.789 86.3456 112.789C86.6675 112.789 86.901 112.737 87.0461 112.632C87.1911 112.528 87.2637 112.386 87.2637 112.206C87.2637 112.104 87.2342 112.014 87.1753 111.937C87.1186 111.857 87.0223 111.781 86.8863 111.708C86.7502 111.633 86.5621 111.551 86.3218 111.463C86.0838 111.372 85.8775 111.282 85.7029 111.193C85.5307 111.103 85.397 110.992 85.3018 110.863C85.2088 110.733 85.1624 110.565 85.1624 110.358C85.1624 110.042 85.2893 109.8 85.5431 109.632C85.7993 109.461 86.1348 109.376 86.5496 109.376C86.774 109.376 86.9837 109.399 87.1787 109.444C87.3759 109.488 87.5595 109.547 87.7295 109.622L87.5391 110.075C87.3849 110.009 87.2206 109.954 87.0461 109.908C86.8715 109.863 86.6936 109.84 86.5122 109.84C86.2515 109.84 86.0509 109.883 85.9104 109.969C85.7721 110.056 85.7029 110.174 85.7029 110.324C85.7029 110.44 85.7347 110.535 85.7982 110.61C85.8639 110.685 85.9682 110.756 86.111 110.822C86.2538 110.888 86.4419 110.965 86.6754 111.054C86.9089 111.14 87.1106 111.23 87.2807 111.323C87.4507 111.414 87.581 111.525 87.6717 111.657C87.7646 111.787 87.8111 111.954 87.8111 112.158ZM92.2925 109.376C92.7345 109.376 93.0689 109.485 93.2956 109.704C93.5223 109.919 93.6356 110.267 93.6356 110.747V113.181H93.078V110.784C93.078 110.473 93.0065 110.24 92.8637 110.085C92.7232 109.931 92.5067 109.854 92.2143 109.854C91.8018 109.854 91.5116 109.971 91.3439 110.205C91.1761 110.439 91.0923 110.779 91.0923 111.224V113.181H90.5279V109.444H90.9834L91.0684 109.983H91.0991C91.1784 109.851 91.2793 109.741 91.4016 109.652C91.5241 109.561 91.6613 109.493 91.8131 109.448C91.965 109.4 92.1247 109.376 92.2925 109.376ZM96.1925 109.383C96.6368 109.383 96.9667 109.483 97.182 109.683C97.3974 109.883 97.505 110.202 97.505 110.641V113.181H97.0936L96.9848 112.629H96.9575C96.8533 112.765 96.7445 112.88 96.6311 112.973C96.5178 113.064 96.3863 113.134 96.2367 113.181C96.0894 113.227 95.9081 113.249 95.6927 113.249C95.466 113.249 95.2643 113.21 95.0875 113.13C94.913 113.051 94.7747 112.93 94.6726 112.769C94.5729 112.607 94.5231 112.403 94.5231 112.155C94.5231 111.782 94.6703 111.496 94.965 111.296C95.2597 111.096 95.7085 110.987 96.3115 110.968L96.9542 110.941V110.713C96.9542 110.39 96.885 110.164 96.7467 110.034C96.6084 109.905 96.4135 109.84 96.1619 109.84C95.967 109.84 95.7811 109.868 95.6043 109.925C95.4275 109.982 95.2597 110.049 95.101 110.126L94.9277 109.697C95.0954 109.61 95.2881 109.536 95.5057 109.475C95.7233 109.414 95.9523 109.383 96.1925 109.383ZM96.9474 111.34L96.3796 111.364C95.9149 111.382 95.5873 111.458 95.3969 111.592C95.2065 111.727 95.1113 111.916 95.1113 112.162C95.1113 112.375 95.1759 112.533 95.3051 112.636C95.4343 112.738 95.6054 112.789 95.8185 112.789C96.1495 112.789 96.4204 112.697 96.6311 112.513C96.8419 112.329 96.9474 112.053 96.9474 111.684V111.34ZM102.714 109.376C103.124 109.376 103.434 109.484 103.642 109.7C103.851 109.914 103.955 110.258 103.955 110.733V113.181H103.397V110.76C103.397 110.458 103.332 110.232 103.2 110.082C103.071 109.93 102.879 109.854 102.622 109.854C102.262 109.854 102 109.958 101.837 110.167C101.674 110.376 101.592 110.684 101.592 111.091V113.181H101.031V110.76C101.031 110.558 101.002 110.39 100.943 110.256C100.886 110.122 100.8 110.022 100.684 109.956C100.571 109.888 100.427 109.854 100.253 109.854C100.005 109.854 99.8069 109.905 99.6572 110.007C99.5077 110.109 99.3989 110.262 99.3309 110.464C99.2652 110.664 99.2323 110.91 99.2323 111.204V113.181H98.6678V109.444H99.1235L99.2085 109.973H99.2391C99.3139 109.843 99.4079 109.734 99.5213 109.646C99.6349 109.557 99.7616 109.49 99.9023 109.444C100.043 109.399 100.192 109.376 100.351 109.376C100.634 109.376 100.871 109.43 101.062 109.536C101.254 109.641 101.394 109.801 101.48 110.017H101.51C101.633 109.801 101.801 109.641 102.014 109.536C102.227 109.43 102.46 109.376 102.714 109.376ZM106.55 109.376C106.867 109.376 107.139 109.447 107.366 109.588C107.592 109.729 107.766 109.926 107.886 110.181C108.006 110.433 108.066 110.729 108.066 111.067V111.419H105.492C105.499 111.857 105.608 112.191 105.819 112.421C106.03 112.651 106.326 112.765 106.709 112.765C106.945 112.765 107.153 112.744 107.335 112.701C107.516 112.657 107.704 112.594 107.899 112.51V113.007C107.711 113.091 107.524 113.153 107.338 113.191C107.155 113.23 106.937 113.249 106.685 113.249C106.328 113.249 106.014 113.177 105.747 113.031C105.481 112.884 105.275 112.668 105.128 112.383C104.981 112.099 104.907 111.752 104.907 111.34C104.907 110.938 104.974 110.59 105.108 110.297C105.244 110.001 105.434 109.774 105.679 109.615C105.926 109.456 106.216 109.376 106.55 109.376ZM106.543 109.84C106.241 109.84 106.001 109.939 105.822 110.137C105.643 110.334 105.537 110.61 105.502 110.965H107.474C107.472 110.742 107.437 110.547 107.369 110.379C107.303 110.208 107.202 110.076 107.066 109.983C106.931 109.888 106.756 109.84 106.543 109.84Z" fill="#888787"/>
<path d="M42.6673 85.3395C42.4593 85.3395 42.2996 85.28 42.1882 85.1608C42.0768 85.0416 42.0211 84.8777 42.0211 84.6692V77.9545C42.0211 77.7386 42.0805 77.5747 42.1993 77.463C42.3182 77.3438 42.4816 77.2842 42.6896 77.2842C42.8753 77.2842 43.0201 77.3214 43.1241 77.3959C43.2355 77.463 43.3358 77.5822 43.4249 77.7534L46.1769 82.8592H45.8204L48.5724 77.7534C48.6615 77.5822 48.7581 77.463 48.8621 77.3959C48.9661 77.3214 49.1109 77.2842 49.2966 77.2842C49.5046 77.2842 49.6643 77.3438 49.7757 77.463C49.8871 77.5747 49.9428 77.7386 49.9428 77.9545V84.6692C49.9428 84.8777 49.8871 85.0416 49.7757 85.1608C49.6717 85.28 49.512 85.3395 49.2966 85.3395C49.0886 85.3395 48.9289 85.28 48.8175 85.1608C48.7061 85.0416 48.6504 84.8777 48.6504 84.6692V79.4963H48.8955L46.5558 83.7754C46.4815 83.902 46.4035 83.9951 46.3218 84.0547C46.2401 84.1142 46.1287 84.1441 45.9875 84.1441C45.8464 84.1441 45.7313 84.1142 45.6421 84.0547C45.553 83.9877 45.475 83.8946 45.4082 83.7754L43.0461 79.4852H43.3135V84.6692C43.3135 84.8777 43.2578 85.0416 43.1464 85.1608C43.0424 85.28 42.8827 85.3395 42.6673 85.3395ZM52.2287 85.3283C52.0059 85.3283 51.835 85.2613 51.7162 85.1272C51.5974 84.9932 51.5379 84.8069 51.5379 84.5686V80.4683C51.5379 80.2225 51.5974 80.0363 51.7162 79.9097C51.835 79.7757 52.0059 79.7086 52.2287 79.7086C52.4515 79.7086 52.6224 79.7757 52.7412 79.9097C52.8675 80.0363 52.9306 80.2225 52.9306 80.4683V84.5686C52.9306 84.8069 52.8712 84.9932 52.7523 85.1272C52.6336 85.2613 52.459 85.3283 52.2287 85.3283ZM52.2287 78.6696C51.9687 78.6696 51.7645 78.6062 51.6159 78.4797C51.4748 78.3456 51.4042 78.1631 51.4042 77.9322C51.4042 77.6939 51.4748 77.5114 51.6159 77.3848C51.7645 77.2582 51.9687 77.1948 52.2287 77.1948C52.4961 77.1948 52.7004 77.2582 52.8415 77.3848C52.9826 77.5114 53.0532 77.6939 53.0532 77.9322C53.0532 78.1631 52.9826 78.3456 52.8415 78.4797C52.7004 78.6062 52.4961 78.6696 52.2287 78.6696ZM56.8958 85.3619C56.3238 85.3619 55.8262 85.2464 55.4028 85.0155C54.9794 84.7772 54.6526 84.442 54.4224 84.01C54.1921 83.578 54.077 83.0715 54.077 82.4905C54.077 82.0511 54.14 81.6601 54.2664 81.3174C54.4001 80.9674 54.5895 80.6731 54.8346 80.4348C55.0797 80.189 55.3768 80.0028 55.7259 79.8762C56.075 79.7421 56.465 79.6751 56.8958 79.6751C57.1409 79.6751 57.4046 79.7086 57.6869 79.7757C57.9766 79.8427 58.2476 79.9544 58.5002 80.1108C58.619 80.1853 58.697 80.2747 58.7342 80.379C58.7713 80.4832 58.7788 80.5912 58.7565 80.703C58.7342 80.8072 58.6859 80.9004 58.6116 80.9823C58.5448 81.0568 58.4593 81.1052 58.3554 81.1275C58.2513 81.1424 58.1362 81.1163 58.01 81.0493C57.8465 80.9525 57.6794 80.8817 57.5086 80.837C57.3377 80.7849 57.1744 80.7588 57.0184 80.7588C56.7733 80.7588 56.5578 80.7998 56.3721 80.8817C56.1864 80.9562 56.0268 81.068 55.8931 81.2169C55.7667 81.3584 55.6702 81.5372 55.6034 81.7532C55.5365 81.9691 55.5031 82.2187 55.5031 82.5017C55.5031 83.0529 55.633 83.4886 55.8931 83.8089C56.1605 84.1217 56.5355 84.2781 57.0184 84.2781C57.1744 84.2781 57.334 84.2558 57.4975 84.2111C57.6683 84.1664 57.8391 84.0957 58.01 83.9988C58.1362 83.9318 58.2476 83.9094 58.3442 83.9318C58.4482 83.9541 58.5336 84.0063 58.6005 84.0882C58.6673 84.1627 58.7081 84.2558 58.723 84.3675C58.7379 84.4718 58.723 84.5761 58.6785 84.6803C58.6413 84.7846 58.5671 84.8703 58.4556 84.9373C58.2105 85.0862 57.9505 85.1943 57.6757 85.2613C57.4009 85.3283 57.1409 85.3619 56.8958 85.3619ZM60.3238 85.3395C60.101 85.3395 59.9302 85.28 59.8113 85.1608C59.6925 85.0342 59.633 84.8554 59.633 84.6245V77.9881C59.633 77.7571 59.6925 77.5822 59.8113 77.463C59.9302 77.3438 60.101 77.2842 60.3238 77.2842C60.5467 77.2842 60.7176 77.3438 60.8364 77.463C60.9627 77.5822 61.0258 77.7571 61.0258 77.9881V80.8817H60.8698C61.0332 80.487 61.2858 80.189 61.6274 79.9879C61.9766 79.7794 62.3702 79.6751 62.8084 79.6751C63.2467 79.6751 63.6069 79.757 63.8892 79.9209C64.1715 80.0848 64.3832 80.3343 64.5243 80.6694C64.6654 80.9971 64.7359 81.4143 64.7359 81.9208V84.6245C64.7359 84.8554 64.6765 85.0342 64.5577 85.1608C64.4389 85.28 64.268 85.3395 64.0452 85.3395C63.8223 85.3395 63.6478 85.28 63.5215 85.1608C63.4027 85.0342 63.3432 84.8554 63.3432 84.6245V81.9878C63.3432 81.5632 63.2616 81.2541 63.0981 81.0605C62.9421 80.8668 62.697 80.77 62.3628 80.77C61.9543 80.77 61.6274 80.9004 61.3823 81.161C61.1446 81.4143 61.0258 81.7532 61.0258 82.1777V84.6245C61.0258 85.1012 60.7918 85.3395 60.3238 85.3395ZM67.9443 85.3619C67.5507 85.3619 67.1978 85.2874 66.8859 85.1384C66.5814 84.982 66.3399 84.7734 66.1617 84.5128C65.9909 84.2521 65.9054 83.9578 65.9054 83.6301C65.9054 83.2279 66.0094 82.9114 66.2174 82.6805C66.4254 82.4422 66.7633 82.2708 67.2313 82.1665C67.6992 82.0623 68.3268 82.0101 69.1142 82.0101H69.6713V82.8145H69.1254C68.6649 82.8145 68.2972 82.8369 68.0223 82.8816C67.7475 82.9263 67.5507 83.0045 67.4318 83.1162C67.3204 83.2205 67.2647 83.3695 67.2647 83.5631C67.2647 83.8089 67.3501 84.01 67.521 84.1664C67.6918 84.3228 67.9295 84.401 68.234 84.401C68.4791 84.401 68.6945 84.3452 68.8802 84.2334C69.0733 84.1142 69.2256 83.9541 69.3371 83.753C69.4485 83.5519 69.5042 83.321 69.5042 83.0603V81.7755C69.5042 81.4031 69.4225 81.135 69.2591 80.9711C69.0956 80.8072 68.8208 80.7253 68.4346 80.7253C68.2192 80.7253 67.9852 80.7514 67.7326 80.8035C67.4875 80.8557 67.2276 80.9451 66.9527 81.0717C66.8116 81.1387 66.6853 81.1573 66.5739 81.1275C66.4699 81.0977 66.3882 81.0381 66.3288 80.9488C66.2694 80.8519 66.2397 80.7477 66.2397 80.6359C66.2397 80.5242 66.2694 80.4162 66.3288 80.3119C66.3882 80.2002 66.4885 80.1183 66.6296 80.0661C66.9713 79.9246 67.2981 79.824 67.6101 79.7645C67.9295 79.7049 68.2192 79.6751 68.4791 79.6751C69.0139 79.6751 69.4522 79.757 69.7939 79.9209C70.1429 80.0848 70.403 80.3343 70.5738 80.6694C70.7446 80.9971 70.83 81.4217 70.83 81.9431V84.6245C70.83 84.8554 70.7743 85.0342 70.6629 85.1608C70.5515 85.28 70.3918 85.3395 70.1838 85.3395C69.9758 85.3395 69.8125 85.28 69.6936 85.1608C69.5822 85.0342 69.5265 84.8554 69.5265 84.6245V84.0882H69.6156C69.5636 84.3489 69.4596 84.5761 69.3036 84.7697C69.1551 84.956 68.9657 85.1012 68.7354 85.2054C68.5051 85.3097 68.2415 85.3619 67.9443 85.3619ZM74.9288 85.3619C74.3123 85.3619 73.7812 85.2464 73.3355 85.0155C72.8899 84.7846 72.5445 84.4569 72.2994 84.0323C72.0617 83.6078 71.9428 83.105 71.9428 82.5241C71.9428 81.958 72.0579 81.4627 72.2882 81.0381C72.5259 80.6136 72.849 80.2821 73.2575 80.0438C73.6735 79.798 74.1452 79.6751 74.6725 79.6751C75.0588 79.6751 75.4042 79.7384 75.7087 79.865C76.0207 79.9916 76.2844 80.1742 76.4998 80.4125C76.7226 80.6508 76.8897 80.9413 77.0012 81.2839C77.12 81.6191 77.1794 81.999 77.1794 82.4235C77.1794 82.5576 77.1312 82.6618 77.0346 82.7363C76.9454 82.8034 76.8154 82.8369 76.6446 82.8369H73.0681V82.0325H76.1989L76.0207 82.2001C76.0207 81.8574 75.9687 81.5707 75.8647 81.3398C75.7681 81.1089 75.6233 80.9339 75.4302 80.8147C75.2444 80.6881 75.0105 80.6248 74.7282 80.6248C74.4163 80.6248 74.1489 80.6993 73.926 80.8482C73.7107 80.9897 73.5435 81.1945 73.4247 81.4627C73.3132 81.7234 73.2575 82.0362 73.2575 82.4012V82.4794C73.2575 83.0902 73.3987 83.5482 73.6809 83.8536C73.9706 84.1515 74.394 84.3005 74.9511 84.3005C75.1442 84.3005 75.3596 84.2781 75.5973 84.2334C75.8424 84.1813 76.0727 84.0957 76.2881 83.9765C76.4441 83.8871 76.5815 83.8499 76.7003 83.8648C76.8192 83.8722 76.912 83.9131 76.9789 83.9877C77.0532 84.0622 77.0977 84.1552 77.1126 84.267C77.1274 84.3712 77.1051 84.4792 77.0457 84.591C76.9937 84.7027 76.9009 84.7995 76.7672 84.8814C76.5072 85.0453 76.2064 85.1682 75.8647 85.2501C75.5304 85.3246 75.2185 85.3619 74.9288 85.3619ZM80.143 85.3619C79.5265 85.3619 79.0623 85.1868 78.7503 84.8368C78.4384 84.4792 78.2824 83.9578 78.2824 83.2726V77.9881C78.2824 77.7571 78.3418 77.5822 78.4606 77.463C78.5794 77.3438 78.7503 77.2842 78.9732 77.2842C79.196 77.2842 79.3668 77.3438 79.4857 77.463C79.6119 77.5822 79.6751 77.7571 79.6751 77.9881V83.2056C79.6751 83.5482 79.7456 83.8014 79.8868 83.9653C80.0353 84.1292 80.2433 84.2111 80.5107 84.2111C80.5701 84.2111 80.6258 84.2111 80.6778 84.2111C80.7298 84.2036 80.7818 84.1962 80.8338 84.1888C80.9378 84.1739 81.0083 84.2036 81.0455 84.2781C81.0826 84.3452 81.1012 84.4867 81.1012 84.7027C81.1012 84.8889 81.064 85.0342 80.9898 85.1384C80.9155 85.2427 80.7929 85.306 80.6221 85.3283C80.5478 85.3358 80.4698 85.3432 80.3882 85.3507C80.3064 85.3582 80.2247 85.3619 80.143 85.3619ZM44.7619 100.702C44.5614 100.702 44.398 100.653 44.2717 100.556C44.1528 100.459 44.0563 100.307 43.982 100.098L41.6534 93.4954C41.5717 93.2571 41.5866 93.056 41.698 92.8921C41.8168 92.7282 42.0136 92.6463 42.2885 92.6463C42.489 92.6463 42.645 92.6947 42.7564 92.7915C42.8678 92.8809 42.957 93.0261 43.0238 93.2272L45.0293 99.1933H44.5837L46.6783 93.2384C46.7526 93.0373 46.8454 92.8884 46.9569 92.7915C47.0683 92.6947 47.2131 92.6463 47.3914 92.6463C47.5696 92.6463 47.7108 92.6947 47.8148 92.7915C47.9187 92.8884 48.0079 93.041 48.0822 93.2496L50.11 99.1933H49.72L51.7589 93.2272C51.8258 93.0336 51.9149 92.8884 52.0263 92.7915C52.1377 92.6947 52.29 92.6463 52.4831 92.6463C52.7208 92.6463 52.8954 92.7282 53.0068 92.8921C53.1182 93.056 53.133 93.2571 53.0514 93.4954L50.7005 100.109C50.6262 100.311 50.5297 100.459 50.4108 100.556C50.2919 100.653 50.1322 100.702 49.9317 100.702C49.7311 100.702 49.5715 100.653 49.4526 100.556C49.3337 100.459 49.2372 100.307 49.1629 100.098L47.2243 94.5568H47.4805L45.5196 100.109C45.4453 100.311 45.3488 100.459 45.2299 100.556C45.1185 100.653 44.9625 100.702 44.7619 100.702ZM55.5147 100.69C55.2918 100.69 55.1209 100.623 55.0021 100.489C54.8833 100.355 54.8239 100.169 54.8239 99.9307V95.8304C54.8239 95.5846 54.8833 95.3984 55.0021 95.2718C55.1209 95.1377 55.2918 95.0707 55.5147 95.0707C55.7375 95.0707 55.9083 95.1377 56.0272 95.2718C56.1534 95.3984 56.2166 95.5846 56.2166 95.8304V99.9307C56.2166 100.169 56.1571 100.355 56.0383 100.489C55.9194 100.623 55.7449 100.69 55.5147 100.69ZM55.5147 94.0317C55.2546 94.0317 55.0504 93.9683 54.9019 93.8417C54.7607 93.7077 54.6902 93.5252 54.6902 93.2943C54.6902 93.056 54.7607 92.8734 54.9019 92.7468C55.0504 92.6202 55.2546 92.5569 55.5147 92.5569C55.7821 92.5569 55.9863 92.6202 56.1274 92.7468C56.2685 92.8734 56.3391 93.056 56.3391 93.2943C56.3391 93.5252 56.2685 93.7077 56.1274 93.8417C55.9863 93.9683 55.7821 94.0317 55.5147 94.0317ZM59.5243 100.724C58.9079 100.724 58.4436 100.549 58.1316 100.199C57.8197 99.8413 57.6637 99.3199 57.6637 98.6347V93.3501C57.6637 93.1192 57.7231 92.9442 57.8419 92.825C57.9608 92.7058 58.1316 92.6463 58.3545 92.6463C58.5773 92.6463 58.7481 92.7058 58.867 92.825C58.9932 92.9442 59.0564 93.1192 59.0564 93.3501V98.5677C59.0564 98.9103 59.1269 99.1635 59.2681 99.3274C59.4166 99.4913 59.6246 99.5732 59.892 99.5732C59.9514 99.5732 60.0071 99.5732 60.0591 99.5732C60.1112 99.5657 60.1631 99.5583 60.2151 99.5508C60.3191 99.536 60.3897 99.5657 60.4268 99.6402C60.4639 99.7072 60.4825 99.8488 60.4825 100.065C60.4825 100.251 60.4454 100.396 60.3711 100.5C60.2968 100.605 60.1743 100.668 60.0034 100.69C59.9291 100.698 59.8511 100.705 59.7695 100.713C59.6878 100.72 59.606 100.724 59.5243 100.724ZM63.1616 100.724C62.8422 100.724 62.5043 100.69 62.1477 100.623C61.7912 100.556 61.4718 100.441 61.1895 100.277C61.0707 100.203 60.9852 100.117 60.9333 100.02C60.8887 99.9158 60.8701 99.8153 60.8776 99.7184C60.8924 99.6142 60.9295 99.5248 60.989 99.4503C61.0558 99.3758 61.1375 99.3274 61.2341 99.305C61.3381 99.2827 61.4495 99.3013 61.5684 99.3609C61.8654 99.5024 62.144 99.603 62.404 99.6625C62.6639 99.7147 62.9202 99.7408 63.1728 99.7408C63.5293 99.7408 63.7929 99.6812 63.9638 99.562C64.1421 99.4354 64.2312 99.2715 64.2312 99.0704C64.2312 98.8991 64.1718 98.7688 64.053 98.6794C63.9415 98.5825 63.7707 98.5118 63.5404 98.4671L62.4263 98.2548C61.9657 98.1654 61.6129 97.9979 61.3678 97.7521C61.1301 97.4988 61.0113 97.1748 61.0113 96.7801C61.0113 96.4226 61.1078 96.1134 61.301 95.8528C61.5015 95.5921 61.7763 95.391 62.1254 95.2494C62.4745 95.1079 62.8756 95.0372 63.3288 95.0372C63.6556 95.0372 63.9601 95.0744 64.2424 95.1489C64.5321 95.2159 64.8106 95.324 65.078 95.4729C65.1894 95.5325 65.2636 95.6107 65.3008 95.7075C65.3454 95.8044 65.3565 95.9049 65.3343 96.0092C65.312 96.106 65.2674 96.1954 65.2006 96.2773C65.1337 96.3518 65.0483 96.4002 64.9443 96.4226C64.8477 96.4374 64.7363 96.4151 64.61 96.3555C64.3798 96.2363 64.1569 96.1507 63.9415 96.0985C63.7335 96.0464 63.533 96.0203 63.3399 96.0203C62.9759 96.0203 62.7048 96.0837 62.5265 96.2103C62.3557 96.3369 62.2703 96.5045 62.2703 96.713C62.2703 96.8694 62.3222 96.9998 62.4263 97.1041C62.5302 97.2083 62.6899 97.2791 62.9054 97.3163L64.0195 97.5286C64.5023 97.618 64.8663 97.7819 65.1114 98.0202C65.3639 98.2585 65.4902 98.5788 65.4902 98.981C65.4902 99.5248 65.2785 99.953 64.8552 100.266C64.4318 100.571 63.8672 100.724 63.1616 100.724ZM69.0921 100.724C68.5276 100.724 68.0374 100.609 67.6214 100.378C67.2054 100.147 66.8823 99.819 66.6521 99.3944C66.4218 98.9624 66.3067 98.4559 66.3067 97.875C66.3067 97.4355 66.3698 97.0445 66.4961 96.7019C66.6298 96.3518 66.8192 96.0539 67.0644 95.8081C67.3095 95.5548 67.6028 95.3649 67.9445 95.2383C68.2862 95.1042 68.6688 95.0372 69.0921 95.0372C69.6566 95.0372 70.1468 95.1526 70.5628 95.3835C70.9788 95.6144 71.3019 95.9421 71.5322 96.3667C71.7624 96.7912 71.8776 97.294 71.8776 97.875C71.8776 98.3144 71.8107 98.7092 71.677 99.0592C71.5507 99.4093 71.365 99.7109 71.1199 99.9642C70.8748 100.21 70.5814 100.4 70.2397 100.534C69.898 100.661 69.5155 100.724 69.0921 100.724ZM69.0921 99.6625C69.3669 99.6625 69.6084 99.5955 69.8164 99.4614C70.0243 99.3274 70.184 99.13 70.2954 98.8693C70.4142 98.6012 70.4737 98.2697 70.4737 97.875C70.4737 97.2791 70.3474 96.8359 70.0949 96.5454C69.8423 96.2475 69.5081 96.0985 69.0921 96.0985C68.8173 96.0985 68.5759 96.1656 68.3679 96.2997C68.1599 96.4263 67.9965 96.6237 67.8777 96.8918C67.7663 97.1525 67.7106 97.4802 67.7106 97.875C67.7106 98.4634 67.8368 98.9103 68.0894 99.2157C68.3419 99.5136 68.6761 99.6625 69.0921 99.6625ZM73.7178 100.702C73.495 100.702 73.3242 100.642 73.2053 100.523C73.0864 100.396 73.027 100.217 73.027 99.9865V95.7634C73.027 95.5325 73.0864 95.3575 73.2053 95.2383C73.3242 95.1191 73.4913 95.0595 73.7067 95.0595C73.9221 95.0595 74.0892 95.1191 74.2081 95.2383C74.3269 95.3575 74.3863 95.5325 74.3863 95.7634V96.5231L74.2638 96.2438C74.4272 95.8491 74.6797 95.5511 75.0214 95.35C75.3705 95.1414 75.7642 95.0372 76.2024 95.0372C76.6406 95.0372 77.0009 95.1191 77.2832 95.283C77.5654 95.4468 77.7771 95.6963 77.9183 96.0315C78.0594 96.3592 78.1299 96.7764 78.1299 97.2828V99.9865C78.1299 100.217 78.0705 100.396 77.9517 100.523C77.8328 100.642 77.662 100.702 77.4392 100.702C77.2163 100.702 77.0417 100.642 76.9155 100.523C76.7966 100.396 76.7372 100.217 76.7372 99.9865V97.3499C76.7372 96.9253 76.6555 96.6162 76.4921 96.4226C76.3361 96.2289 76.091 96.1321 75.7568 96.1321C75.3482 96.1321 75.0214 96.2624 74.7763 96.5231C74.5386 96.7764 74.4198 97.1152 74.4198 97.5398V99.9865C74.4198 100.463 74.1858 100.702 73.7178 100.702Z" fill="#282828"/>
<mask id="mask2_5716_1144" style="mask-type:luminance" maskUnits="userSpaceOnUse" x="94" y="123" width="115" height="109">
<path d="M208.265 123.347H94.0625V231.116H208.265V123.347Z" fill="white"/>
</mask>
<g mask="url(#mask2_5716_1144)">
<path fill-rule="evenodd" clip-rule="evenodd" d="M204.464 228.272C207.163 228.142 206.077 223.41 205.884 221.673C203.748 215.326 204.25 208.402 203.409 201.75C202.886 195.541 202.214 189.35 201.648 183.146C200.537 170.55 192.559 144.909 183.454 140.785C182.307 135.74 177.57 131.031 171.576 131.031C167.489 126.18 162.568 122.766 156.257 123.456C153.649 123.575 151.12 126.348 148.621 126.883C147.222 127.076 134.805 126.579 132.318 128.059C130.585 128.951 129.021 130.599 129.53 132.697C130.343 135.24 127.817 132.489 122.548 135.202C111.803 141.672 118.223 150.326 118.508 150.594C111.803 159.947 105.942 167.534 103.23 178.965C101.473 187.453 101.671 196.214 100.198 204.744C99.6781 207.702 98.8808 210.559 98.0177 213.431C97.0823 217.19 96.6274 226.56 96.1119 226.643C95.1727 226.877 96.6547 228.81 97.6498 228.811C125.241 233.4 153.266 229.002 181.005 228.284C188.822 228.011 196.648 227.948 204.464 228.272Z" fill="white"/>
<path fill-rule="evenodd" clip-rule="evenodd" d="M162.645 151.42C162.657 151.293 162.828 151.293 162.84 151.42L163.035 153.305C163.273 155.607 163.501 157.905 163.666 160.218C163.873 163.103 164.01 165.986 164.077 168.877C164.308 178.946 164.354 189.019 164.374 199.09C165.732 198.995 167.092 198.905 168.451 198.817C169.373 198.756 170.296 198.699 171.218 198.643L173.57 198.5L174.539 198.441C175.192 198.4 175.936 198.235 176.394 198.816C176.577 199.048 176.669 199.351 176.498 199.627C176.104 200.264 175.499 200.242 174.815 200.27C174.17 200.295 173.524 200.321 172.878 200.346C171.495 200.4 170.112 200.451 168.727 200.49C167.276 200.531 165.824 200.564 164.372 200.589C164.357 204.84 164.182 209.086 163.992 213.333L163.907 215.244C163.674 220.412 163.425 225.585 163.07 230.746C163.04 231.168 162.444 231.168 162.416 230.746C162.016 224.933 161.752 219.108 161.491 213.288C161.302 209.069 161.191 204.848 161.139 200.626C160.946 200.627 160.755 200.63 160.563 200.631C155.114 200.654 149.667 200.678 144.219 200.627C144.228 200.638 144.237 200.649 144.242 200.663C144.637 201.596 144.674 202.787 144.665 203.788C144.654 204.937 144.499 206.071 144.235 207.188C143.29 211.189 140.852 214.773 138.075 217.736L137.984 217.832C137.329 218.526 136.577 219.223 136.175 220.107C135.764 221.01 135.621 222.065 135.419 223.035L135.395 223.147L134.603 226.817C134.35 227.983 134.279 229.683 133.358 230.524C132.5 231.309 131.362 230.899 130.958 229.888C130.642 229.1 130.956 228.234 131.143 227.446L132.608 221.273C132.848 220.267 133.112 219.254 133.631 218.349C134.163 217.424 134.943 216.752 135.739 216.065C137.246 214.764 138.63 213.275 139.799 211.663C140.969 210.051 141.969 208.275 142.67 206.406C143.021 205.471 143.308 204.499 143.507 203.52C143.696 202.591 143.694 201.628 143.895 200.708C143.909 200.645 143.963 200.601 144.024 200.582C144.01 200.541 144.032 200.485 144.089 200.482L148.545 200.195C152.506 199.939 156.467 199.676 160.425 199.376L161.124 199.325C161.07 193.693 161.116 188.059 161.217 182.424C161.31 177.257 161.312 172.089 161.465 166.922C161.542 164.358 161.706 161.8 161.889 159.241C162.076 156.624 162.375 154.029 162.645 151.42ZM120.804 181.38C120.756 181.093 121.117 180.916 121.283 181.178C123.18 184.176 124.095 187.433 124.48 190.941C124.821 194.038 124.721 197.179 124.551 200.284C124.37 203.596 124.159 206.906 123.946 210.215L123.618 215.291L122.794 228.014C122.736 228.924 122.53 229.752 121.748 230.175C121.649 230.258 121.546 230.333 121.425 230.397C121.003 230.623 120.444 230.508 120.199 230.074L120.297 230.138C120.382 230.193 120.286 230.117 120.01 229.914L119.774 229.608C119.604 229.351 119.495 229.099 119.451 228.793C119.383 228.317 119.471 227.796 119.502 227.319L120.042 218.976C120.461 212.489 120.951 206.005 121.32 199.516C121.492 196.491 121.613 193.464 121.531 190.434C121.45 187.421 121.297 184.357 120.804 181.38ZM137.219 125.529L137.324 125.511C141.093 124.884 145.191 125.001 148.636 126.822C148.664 126.837 148.651 126.885 148.619 126.883L147.51 126.839C144.001 126.701 140.501 126.62 137.051 127.446L136.697 127.532C135.455 127.835 134.157 128.207 133.158 129.03C132.204 129.817 131.729 131.03 131.273 132.147L131.211 132.295C130.748 133.398 130.161 134.444 129.145 135.134C127.83 136.027 126.247 135.918 124.739 136.039C122.082 136.253 119.91 138.183 118.829 140.545C118.175 141.975 117.896 143.578 117.841 145.142C117.812 145.938 117.809 146.766 117.914 147.557C117.948 147.81 118.26 148.731 118.419 148.709C118.772 148.659 119.095 148.844 119.205 149.128C120.078 148.282 120.976 147.461 121.903 146.67C124.214 144.697 126.702 142.91 129.323 141.374C131.323 140.201 133.433 139.039 135.618 138.161C135.444 138.157 135.274 138.192 135.109 138.278C135.036 138.316 134.965 138.225 135.022 138.164C135.71 137.439 136.534 137.335 137.365 137.529C137.542 137.472 137.719 137.418 137.898 137.366C137.986 137.34 138.031 137.463 137.958 137.51L137.754 137.641C138.661 137.945 139.551 138.543 140.256 139.016C142.279 140.372 144.061 142.029 145.867 143.656L146.195 143.951C147.785 145.374 149.415 146.757 151.221 147.898C152.167 148.496 153.16 149.048 154.201 149.46C155.095 149.812 156.55 150.034 156.968 150.981C157.34 151.434 157.185 152.012 156.749 152.317C156.014 153.127 154.545 152.604 153.669 152.266C152.614 151.859 151.592 151.37 150.617 150.796C148.723 149.682 146.978 148.297 145.352 146.824C143.654 145.285 142.052 143.65 140.4 142.062C139.685 141.374 138.986 140.67 138.27 139.984L137.91 139.642C137.543 139.298 137.022 138.762 136.465 138.438C135.415 139.066 134.35 139.668 133.309 140.311C131.858 141.21 130.448 142.174 129.06 143.169C126.389 145.086 123.858 147.231 121.508 149.532C117.197 153.751 113.525 158.568 110.317 163.669L110.073 164.058C108.251 166.977 106.527 169.991 105.305 173.217C103.96 176.767 103.306 180.5 102.95 184.269C102.598 188.01 102.479 191.77 102.085 195.508C101.68 199.342 100.884 203.091 99.9783 206.833L99.7625 207.72C98.9427 211.071 98.0967 214.422 97.6754 217.852C97.4505 219.685 97.3153 221.542 97.3458 223.39C97.3765 225.247 97.6678 227.064 97.9027 228.902C97.9927 229.607 97.3014 230.194 96.6828 230.288C95.9714 230.395 95.3601 229.94 95.1389 229.277C94.4495 227.212 94.3243 224.929 94.346 222.761C94.3677 220.56 94.6479 218.374 95.0422 216.211C95.8176 211.957 97.0142 207.79 98.0152 203.586C98.8975 199.881 99.4896 196.17 99.8084 192.374C100.14 188.437 100.338 184.486 100.943 180.576C101.54 176.717 102.662 173.03 104.355 169.511C105.896 166.307 107.817 163.29 109.832 160.367C112.278 156.817 114.965 153.44 117.967 150.362C117.698 150.351 117.421 150.263 117.166 150.104C116.388 149.617 116.026 148.666 115.914 147.796C115.653 145.763 115.717 143.64 116.238 141.653C117.079 138.446 119.263 135.597 122.428 134.441C123.243 134.143 124.109 134.035 124.972 134.013C125.792 133.993 126.686 134.1 127.477 133.84C128.735 133.425 129.274 131.939 129.747 130.813L129.768 130.762C130.374 129.327 131.101 128.097 132.413 127.201C133.813 126.244 135.567 125.81 137.219 125.529ZM173.029 131.204C174.161 130.81 175.577 131.168 176.685 131.511C177.919 131.895 179.059 132.601 180.036 133.44C181.068 134.325 181.92 135.417 182.522 136.637L182.579 136.754C183.13 137.886 183.756 139.44 183.479 140.684C183.471 140.719 183.462 140.753 183.451 140.786C185.698 141.894 187.774 143.283 189.581 145.044C191.685 147.094 193.467 149.426 194.975 151.946C200.963 161.954 202.017 173.973 202.724 185.387L202.9 188.281C203.285 194.53 203.734 200.764 204.902 206.927L204.987 207.372C206.235 213.825 208.021 220.326 207.84 226.945C207.786 228.928 204.862 228.915 204.777 226.945C204.458 219.532 202.733 212.373 201.563 205.075C199.507 192.235 200.538 178.997 197.624 166.286C196.481 161.298 194.709 156.459 192.18 152.006C190.931 149.807 189.501 147.681 187.826 145.783C186.386 144.151 184.889 142.579 183.205 141.206C182.667 141.746 181.592 141.471 181.311 140.684C181.118 140.143 181.174 139.51 181.051 138.943C180.936 138.416 180.777 137.895 180.566 137.4C180.146 136.412 179.528 135.464 178.815 134.665C178.045 133.801 177.159 133.083 176.169 132.491C175.172 131.894 174.08 131.716 173.029 131.28C172.993 131.265 172.99 131.217 173.029 131.204ZM177.428 199.825C177.431 199.772 177.492 199.748 177.529 199.783C177.926 200.15 178.167 200.675 178.458 201.126C178.795 201.645 179.15 202.154 179.52 202.649C180.264 203.643 181.092 204.579 181.926 205.496C182.702 206.349 183.529 207.166 184.387 207.936C185.317 208.77 186.359 209.515 187.203 210.439C188.965 212.367 189.25 215.013 189.622 217.498L189.662 217.767C189.889 219.241 190.092 220.72 190.276 222.2C190.365 222.92 190.453 223.642 190.526 224.364L190.548 224.593C190.613 225.299 190.63 226.016 190.225 226.634C189.792 227.295 188.806 227.526 188.221 226.893C187.214 225.804 187.402 223.871 187.271 222.471C187.164 221.313 187.04 220.157 186.903 219.002L186.833 218.424C186.671 217.111 186.54 215.771 186.24 214.48C185.976 213.343 185.472 212.485 184.646 211.662C183.813 210.832 182.948 210.058 182.18 209.164C181.366 208.217 180.63 207.201 179.968 206.141C179.401 205.234 178.947 204.247 178.532 203.261L178.463 203.097C178.06 202.135 177.397 200.884 177.428 199.825ZM191.964 158.531C191.973 158.397 192.17 158.395 192.174 158.531C192.198 159.684 192.223 160.837 192.246 161.991C192.438 171.284 192.32 180.6 193.25 189.861C193.689 194.228 194.497 198.531 195.431 202.816C195.91 205.008 196.411 207.195 196.888 209.388C197.353 211.525 197.851 213.672 198.22 215.829C198.582 217.949 198.906 220.085 199.052 222.233L199.07 222.513C199.132 223.553 199.432 225.082 198.86 226.005C198.241 227.003 197.056 227.021 196.393 226.067C195.77 225.172 195.925 223.58 195.815 222.513C195.703 221.425 195.585 220.336 195.45 219.251C195.188 217.134 194.843 215.021 194.484 212.918C193.736 208.539 192.652 204.216 191.851 199.844C191.03 195.364 190.447 190.851 190.422 186.29C190.398 181.69 190.883 177.099 191.129 172.509C191.378 167.847 191.661 163.189 191.964 158.531ZM148.17 129.625C148.42 128.785 149.298 128.259 150.155 128.495C150.94 128.712 151.589 129.667 151.282 130.485C150.947 131.377 150.361 132.137 149.867 132.948C149.411 133.697 148.746 134.287 148.282 135.023L148.794 135.576C149.05 135.852 149.306 136.127 149.566 136.396L150.459 137.323C151.154 138.043 151.854 138.761 152.573 139.455C154.689 141.501 156.837 143.48 159.207 145.232C159.746 145.63 160.29 146.026 160.848 146.398L161.056 146.536C161.44 146.787 161.868 147.034 162.331 146.992C163.456 146.889 164.473 145.69 165.246 144.945L165.286 144.906C167.202 143.079 168.977 141.08 170.528 138.932C170.872 138.454 171.206 137.969 171.53 137.477C170.78 136.599 170.959 134.884 170.918 133.82C170.889 133.071 170.887 132.322 170.883 131.572L170.881 131.421C170.872 130.936 170.85 130.471 171.164 130.072C171.182 130.048 171.22 130.049 171.243 130.061C171.674 130.287 171.806 130.666 171.99 131.09L172.009 131.134C172.232 131.643 172.446 132.157 172.663 132.67C172.889 133.206 173.096 133.75 173.307 134.293C173.405 134.545 173.499 134.799 173.59 135.053C173.646 135.216 173.704 135.378 173.763 135.54L173.777 135.553C173.855 135.619 173.921 135.689 173.978 135.762C174.218 135.882 174.409 136.102 174.498 136.424C174.693 137.125 174.29 137.696 173.931 138.254C172.47 140.515 170.805 142.67 168.955 144.625C168.036 145.597 167.069 146.524 166.063 147.405L165.887 147.557C164.982 148.336 164.001 149.074 162.793 149.256C161.38 149.469 160.23 148.765 159.148 147.953L159.04 147.872C158.014 147.093 157.009 146.288 156.036 145.445C154.05 143.727 152.162 141.882 150.486 139.858C148.856 137.89 147.244 135.688 146.239 133.32C146.178 133.175 146.339 133.024 146.465 133.145C146.956 133.613 147.428 134.107 147.895 134.607C147.908 133.871 147.773 133.128 147.848 132.387C147.94 131.487 147.913 130.492 148.17 129.625Z" fill="#282828"/>
</g>
<path fill-rule="evenodd" clip-rule="evenodd" d="M184.307 105.644C184.006 102.993 184.395 97.4522 184.421 97.1156C184.586 94.9874 183.593 86.5835 181.716 87.3579C178.568 84.8546 174.374 84.3019 170.453 84.0378C162.309 83.4893 153.644 84.7485 147.355 90.2536C144.245 93.1126 141.217 97.2707 141.46 101.6C138.635 105.704 134.651 111.334 138.172 116.131C139.369 117.664 141.27 118.235 142.774 119.396C145.798 121.846 147.696 125.361 150.748 127.797C158.836 135.097 172.569 136.621 180.516 128.319C186.66 122.306 185.667 113.31 184.586 105.644C183.859 100.49 184.893 110.816 184.307 105.644Z" fill="white"/>
<path fill-rule="evenodd" clip-rule="evenodd" d="M159.57 72.7961C161.749 72.3546 163.985 72.0799 166.21 72.1626L166.381 72.1693C168.055 72.2365 170.174 72.3851 171.635 73.3626C171.718 73.278 171.853 73.2345 171.976 73.2932C173.711 74.125 175.62 74.7264 177.447 75.324C179.265 75.9186 181.152 76.3112 183.058 76.4694C183.775 76.529 184.389 77.3067 183.934 78.0042C183.827 78.1704 183.721 78.3384 183.616 78.5066C183.792 78.4883 183.967 78.4694 184.142 78.4516C184.719 78.3933 185.295 79.0115 185.261 79.5754C185.239 79.9302 185.201 80.2807 185.145 80.627C185.365 80.6224 185.583 80.6555 185.794 80.745C186.863 81.1981 186.788 82.4761 186.708 83.4485C186.597 84.7979 186.095 86.2271 185.161 87.2371C185.859 87.9637 186.352 88.8316 186.645 89.8622C186.859 90.6148 186.978 91.4165 186.919 92.1999L186.9 92.4345C186.828 93.2847 186.684 94.226 186.075 94.8376C185.762 95.1529 185.377 95.2679 185.01 95.2314C185.232 97.1907 185.375 99.1612 185.508 101.125L185.571 102.063C185.87 106.601 186.095 111.169 186.036 115.714C185.981 119.962 185.145 124.086 182.552 127.535C180.189 130.675 176.797 132.991 172.959 133.871C170.892 134.346 168.78 134.38 166.687 134.077C165.673 133.93 164.651 133.704 163.688 133.348C162.623 132.953 161.857 132.371 161.139 131.5C160.799 131.086 160.963 130.206 161.639 130.289C162.66 130.413 163.593 130.563 164.572 130.867L164.712 130.911C165.688 131.225 166.698 131.459 167.718 131.558C169.808 131.762 171.928 131.557 173.929 130.921C177.187 129.884 179.994 127.573 181.793 124.669C183.928 121.227 184.168 117.319 184.138 113.361C184.105 109.018 183.964 104.673 183.735 100.334L183.696 99.6111C183.574 97.3785 183.457 95.1445 183.354 92.9105C183.322 92.2098 183.273 91.5034 183.185 90.8041C182.38 90.3303 181.658 89.6772 181.188 88.8714C180.244 89.2638 179.25 89.5469 178.336 89.7725C176.218 90.2956 174.02 90.4225 171.865 90.095C171.284 90.3362 170.69 90.5483 170.089 90.7307C169.926 90.8032 169.763 90.8744 169.601 90.9442C168.149 91.5678 166.677 92.0962 165.145 92.4831L164.769 92.5773C163.962 92.777 163.087 92.9735 162.229 93.0353C162.088 93.0899 161.936 93.1362 161.769 93.1768C160.988 93.3674 160.178 93.4276 159.377 93.3604C158.596 93.2945 158.033 92.5027 158.462 91.7613C158.777 91.2203 159.093 90.6807 159.413 90.1425C158.301 90.6078 157.152 90.9946 155.994 91.3226C154.825 91.6534 153.639 91.9323 152.451 92.1887C151.816 92.3247 151.179 92.4452 150.545 92.5812C150.092 92.6779 149.395 92.7283 149.025 93.0282C148.617 93.3576 148.5 94.1256 148.346 94.5993C148.142 95.2146 147.951 95.8326 147.776 96.4577C147.429 97.7051 147.145 98.9706 146.924 100.249C146.703 101.528 146.555 102.821 146.473 104.117C146.391 105.412 146.427 106.715 146.294 108.005C146.223 108.689 145.492 109.04 144.952 108.563C144.889 108.506 144.825 108.45 144.762 108.393L144.668 108.306C144.205 107.886 143.758 107.44 143.388 106.938C143.321 106.846 143.257 106.749 143.197 106.651C143.187 106.651 143.179 106.648 143.169 106.641L143.066 106.564C141.938 105.72 140.052 104.62 138.952 106.022C138.601 106.468 138.422 107.037 138.273 107.585L138.011 108.567C137.842 109.208 137.683 109.852 137.59 110.508C137.379 111.977 137.485 113.67 138.492 114.847C138.893 115.318 139.447 115.654 140.065 115.742C140.41 115.79 140.751 115.731 141.093 115.688C141.44 115.644 141.775 115.714 142.122 115.681C142.675 115.626 142.916 116.29 142.71 116.708C142.598 116.932 142.466 117.126 142.317 117.29C142.437 117.393 142.552 117.506 142.662 117.623C142.989 117.728 143.282 117.954 143.501 118.253C143.678 118.494 143.77 118.756 143.785 119.032C143.805 119.1 143.822 119.171 143.837 119.242L144.136 119.73C144.202 119.837 144.268 119.943 144.334 120.046C145.096 121.252 145.941 122.272 146.992 123.233C148.004 124.158 149.102 124.987 150.053 125.979L150.164 126.097C151.05 127.035 151.984 128.17 151.637 129.533C151.548 129.884 151.061 130.136 150.743 129.899C149.72 129.137 149.205 127.929 148.337 127.004C147.444 126.051 146.455 125.194 145.559 124.244C144.712 123.347 144.044 122.331 143.54 121.213C143.339 121.435 143.046 121.594 142.64 121.655C141.942 121.761 141.292 121.35 140.988 120.743C140.792 120.83 140.593 120.908 140.392 120.97C139.334 121.295 138.669 120.114 139.068 119.241C139.281 118.772 139.547 118.366 139.878 118.024C138.844 117.881 137.792 117.344 137.113 116.674C135.408 114.991 135.173 112.462 135.557 110.212C135.761 109.019 136.112 107.813 136.568 106.693C136.648 106.498 136.733 106.302 136.827 106.108C136.775 106.107 136.722 106.085 136.688 106.041C136.38 105.618 136.005 105.272 135.776 104.798C135.565 104.364 135.331 103.924 135.164 103.471C134.823 102.544 134.655 101.499 134.544 100.519C134.314 98.5137 134.403 96.5208 134.708 94.5278C135.229 91.1334 136.485 87.885 138.338 85.0346C138.237 84.9813 138.14 84.9172 138.05 84.8412L138.006 84.8022L137.933 84.7366C137.405 84.2563 137.451 83.3562 137.933 82.8697L138.086 82.7162C138.279 82.5235 138.446 82.3709 138.758 82.1611C138.804 82.1301 138.85 82.101 138.898 82.0738C138.735 81.7707 138.678 81.4164 138.792 81.0256C139.188 79.6639 141.139 79.7121 142.375 80.3059C143.744 79.0797 145.26 78.0153 146.904 77.1534C150.82 75.1016 155.247 73.6707 159.57 72.7961ZM139.33 108.661C140.061 108.421 141.033 108.924 141.69 109.227C142.523 109.611 143.232 110.178 143.918 110.778C144.26 111.078 144.322 111.569 144.237 111.988C144.228 112.03 144.22 112.073 144.209 112.117C144.119 112.564 143.622 112.916 143.182 112.903C142.263 112.878 141.825 112.08 141.304 111.405C141.243 111.514 141.166 111.615 141.072 111.691L141.007 111.741C140.791 111.906 140.553 112.038 140.267 112.026C140.065 112.016 139.871 111.964 139.693 111.87C139.247 111.633 139.049 111.053 139.171 110.581C139.247 110.284 139.419 110.051 139.646 109.89L139.561 109.832C139.381 109.706 139.217 109.573 139.088 109.377L139.059 109.331H139.07C138.931 109.089 139.022 108.762 139.33 108.661Z" fill="#282828"/>
<path fill-rule="evenodd" clip-rule="evenodd" d="M174.318 118.432C174.794 117.582 176.217 117.72 176.435 118.711C176.876 120.722 174.504 122.578 172.702 122.624C170.911 122.67 168.902 121.13 169.161 119.185C169.225 118.704 169.862 118.763 170.078 119.064L170.163 119.18C170.752 119.979 171.528 120.807 172.621 120.612C173.074 120.531 173.486 120.245 173.759 119.877C174.09 119.433 174.053 118.903 174.318 118.432ZM162.932 103.725C163.175 103.658 163.42 103.684 163.634 103.776C164.115 103.865 164.516 104.27 164.656 104.731C164.668 104.771 164.68 104.811 164.694 104.85L164.715 104.908L164.658 104.76C164.684 104.906 164.801 105.059 164.844 105.206C164.896 105.385 164.909 105.59 164.891 105.788C165.044 105.789 165.196 105.795 165.349 105.808L165.496 105.821C166.319 105.898 167.222 106.04 167.711 106.759C167.985 107.163 167.727 107.89 167.224 107.968C166.449 108.088 165.781 107.654 165.009 107.568C164.278 107.485 163.514 107.532 162.794 107.666C161.306 107.941 159.938 108.55 158.488 108.932L158.29 108.983L158.291 108.982C158.042 109.043 157.76 108.694 158.006 108.489C159.168 107.525 160.655 106.744 162.12 106.268C161.907 105.925 161.841 105.473 161.987 105.104C162.01 105.028 162.037 104.954 162.067 104.88L162.129 104.728C162.135 104.656 162.148 104.585 162.168 104.515L162.171 104.494L162.173 104.495C162.282 104.137 162.567 103.827 162.932 103.725ZM177.754 103.781C178.072 103.46 178.518 103.507 178.85 103.76L178.893 103.795C179.206 103.935 179.465 104.241 179.635 104.526C179.811 104.821 179.928 105.121 179.933 105.446C180.702 105.448 181.439 105.682 182.003 106.309C182.186 106.512 182.31 106.824 182.21 107.098L182.15 107.262C181.96 107.78 181.108 108.079 180.818 107.469L180.805 107.439C180.497 106.715 179.315 106.791 178.687 106.865C178.249 106.917 177.817 107.027 177.394 107.15C177.245 107.194 177.098 107.241 176.95 107.289L176.803 107.337C176.724 107.363 176.314 107.588 176.569 107.534C176.638 107.52 176.689 107.621 176.619 107.655C176.316 107.801 175.992 107.509 176.012 107.18C176.047 106.607 176.946 106.293 177.38 106.096L177.405 106.084C177.571 106.006 177.745 105.932 177.925 105.863C177.824 105.712 177.74 105.543 177.671 105.362C177.605 105.191 177.561 105.025 177.538 104.844C177.514 104.755 177.514 104.666 177.538 104.577L177.541 104.552C177.529 104.493 177.523 104.433 177.524 104.371L177.522 104.348H177.524C177.532 104.134 177.616 103.92 177.754 103.781ZM172.677 109.876C173.898 110.257 175.912 111.296 175.275 112.898C174.387 114.37 172.032 113.288 170.89 112.813C169.864 112.47 169.33 113.922 170.322 114.36C178.517 117.635 178.487 108.99 172.974 109.117C172.367 109.131 172.348 109.75 172.677 109.876ZM161.835 98.6039L162.044 98.5425C163.126 98.2258 164.23 97.679 165.191 98.5323C165.568 98.8673 165.646 99.5636 165.376 99.9816C164.761 100.934 163.849 100.788 162.856 100.87C162.1 100.931 161.355 101.156 160.65 101.436C160.073 101.666 159.538 101.988 159.033 102.348C158.537 102.703 158.198 103.256 157.689 103.575C157.502 103.691 157.287 103.571 157.22 103.382C156.983 102.71 157.384 101.873 157.723 101.3C158.137 100.602 158.767 100.03 159.444 99.598C160.184 99.1246 161.003 98.8513 161.835 98.6039ZM177.602 97.8809C179.43 97.8803 181.19 98.9081 182.213 100.415C182.56 100.927 182.306 101.685 181.807 101.98C181.247 102.311 180.649 102.073 180.28 101.598L180.258 101.57C179.671 100.78 178.915 100.159 178.019 99.7538C177.581 99.5562 177.098 99.396 176.625 99.3147L176.472 99.2882C176.258 99.2519 176.009 99.2173 175.815 99.2512C175.711 99.265 175.616 99.2997 175.528 99.3525C175.57 99.4457 175.461 99.558 175.36 99.5022C174.906 99.25 174.962 98.8 175.337 98.4503C175.868 97.9556 176.916 97.881 177.602 97.8809Z" fill="#282828"/>
<path d="M57.8532 132.035C57.8532 127.407 54.1119 123.655 49.4969 123.655C44.8819 123.655 41.1406 127.407 41.1406 132.035C41.1406 136.662 44.8819 140.414 49.4969 140.414C54.1119 140.414 57.8532 136.662 57.8532 132.035Z" fill="#282828"/>
<path d="M48.1016 128.543L51.5833 132.034L48.1016 135.526" stroke="white" stroke-width="2" stroke-linecap="round" stroke-linejoin="round"/>
</g>
</g>
<defs>
<clipPath id="clip0_5716_1144">
<rect width="172" height="81" fill="white"/>
</clipPath>
<clipPath id="clip1_5716_1144">
<rect width="172" height="81" fill="white" transform="translate(30 65)"/>
</clipPath>
</defs>
</svg>
