<svg width="40" height="40" viewBox="0 0 40 40" fill="none" xmlns="http://www.w3.org/2000/svg">
<rect width="40" height="40" rx="20" fill="#FFA14D"/>
<path d="M25.25 11H14.75C13.9544 11 13.1913 11.3161 12.6287 11.8787C12.0661 12.4413 11.75 13.2044 11.75 14V27.5C11.75 27.8978 11.908 28.2794 12.1893 28.5607C12.4706 28.842 12.8522 29 13.25 29H15.5C15.8978 29 16.2794 28.842 16.5607 28.5607C16.842 28.2794 17 27.8978 17 27.5V26H23V27.5C23 27.8978 23.158 28.2794 23.4393 28.5607C23.7206 28.842 24.1022 29 24.5 29H26.75C27.1478 29 27.5294 28.842 27.8107 28.5607C28.092 28.2794 28.25 27.8978 28.25 27.5V14C28.25 13.2044 27.9339 12.4413 27.3713 11.8787C26.8087 11.3161 26.0457 11 25.25 11ZM13.25 24.5V19.25H26.75V24.5H13.25ZM13.25 15.5H26.75V17.75H13.25V15.5ZM14.75 12.5H25.25C25.6478 12.5 26.0294 12.658 26.3107 12.9393C26.592 13.2206 26.75 13.6022 26.75 14H13.25C13.25 13.6022 13.408 13.2206 13.6893 12.9393C13.9706 12.658 14.3522 12.5 14.75 12.5ZM15.5 27.5H13.25V26H15.5V27.5ZM24.5 27.5V26H26.75V27.5H24.5ZM17.75 21.875C17.75 22.0975 17.684 22.315 17.5604 22.5C17.4368 22.685 17.2611 22.8292 17.0555 22.9144C16.85 22.9995 16.6238 23.0218 16.4055 22.9784C16.1873 22.935 15.9868 22.8278 15.8295 22.6705C15.6722 22.5132 15.565 22.3127 15.5216 22.0945C15.4782 21.8762 15.5005 21.65 15.5856 21.4445C15.6708 21.2389 15.815 21.0632 16 20.9396C16.185 20.816 16.4025 20.75 16.625 20.75C16.9234 20.75 17.2095 20.8685 17.4205 21.0795C17.6315 21.2905 17.75 21.5766 17.75 21.875ZM24.5 21.875C24.5 22.0975 24.434 22.315 24.3104 22.5C24.1868 22.685 24.0111 22.8292 23.8055 22.9144C23.6 22.9995 23.3738 23.0218 23.1555 22.9784C22.9373 22.935 22.7368 22.8278 22.5795 22.6705C22.4222 22.5132 22.315 22.3127 22.2716 22.0945C22.2282 21.8762 22.2505 21.65 22.3356 21.4445C22.4208 21.2389 22.565 21.0632 22.75 20.9396C22.935 20.816 23.1525 20.75 23.375 20.75C23.6734 20.75 23.9595 20.8685 24.1705 21.0795C24.3815 21.2905 24.5 21.5766 24.5 21.875ZM31.25 15.5V17.75C31.25 17.9489 31.171 18.1397 31.0303 18.2803C30.8897 18.421 30.6989 18.5 30.5 18.5C30.3011 18.5 30.1103 18.421 29.9697 18.2803C29.829 18.1397 29.75 17.9489 29.75 17.75V15.5C29.75 15.3011 29.829 15.1103 29.9697 14.9697C30.1103 14.829 30.3011 14.75 30.5 14.75C30.6989 14.75 30.8897 14.829 31.0303 14.9697C31.171 15.1103 31.25 15.3011 31.25 15.5ZM10.25 15.5V17.75C10.25 17.9489 10.171 18.1397 10.0303 18.2803C9.88968 18.421 9.69891 18.5 9.5 18.5C9.30109 18.5 9.11032 18.421 8.96967 18.2803C8.82902 18.1397 8.75 17.9489 8.75 17.75V15.5C8.75 15.3011 8.82902 15.1103 8.96967 14.9697C9.11032 14.829 9.30109 14.75 9.5 14.75C9.69891 14.75 9.88968 14.829 10.0303 14.9697C10.171 15.1103 10.25 15.3011 10.25 15.5Z" fill="white"/>
</svg>
