<svg width="40" height="40" viewBox="0 0 40 40" fill="none" xmlns="http://www.w3.org/2000/svg">
<rect width="40" height="40" rx="20" fill="#FFA14D"/>
<path d="M17.5 18C19.433 18 21 16.433 21 14.5C21 12.567 19.433 11 17.5 11C15.567 11 14 12.567 14 14.5C14 16.433 15.567 18 17.5 18Z" stroke="white" stroke-width="2" stroke-linecap="round" stroke-linejoin="round"/>
<path d="M24.3047 11.5C25.3211 12.1125 26.0009 13.2269 26.0009 14.5C26.0009 15.7731 25.3211 16.8875 24.3047 17.5" stroke="white" stroke-width="2" stroke-linecap="round" stroke-linejoin="round"/>
<path d="M10 28.4V29H25V28.4C25 26.1598 25 25.0397 24.5641 24.184C24.1806 23.4314 23.5686 22.8195 22.816 22.436C21.9603 22 20.8402 22 18.6 22H16.4C14.1598 22 13.0397 22 12.184 22.436C11.4314 22.8195 10.8195 23.4314 10.436 24.184C10 25.0397 10 26.1598 10 28.4Z" stroke="white" stroke-width="2" stroke-linecap="round" stroke-linejoin="round"/>
<path d="M29.9965 29.0001V28.4001C29.9965 26.1599 29.9965 25.0398 29.5606 24.1841C29.1771 23.4315 28.5652 22.8195 27.8125 22.436" stroke="white" stroke-width="2" stroke-linecap="round" stroke-linejoin="round"/>
</svg>
