<svg width="373" height="572" viewBox="0 0 373 572" fill="none" xmlns="http://www.w3.org/2000/svg">
<path fill-rule="evenodd" clip-rule="evenodd" d="M370.212 530.325C369.439 515.899 368.489 501.485 367.351 487.082C365.087 458.394 362.121 429.685 357.184 401.326C352.313 373.345 345.495 346.137 335.676 319.476C331.12 307.105 326.186 296.553 319.028 285.433C312.261 274.92 303.623 267.796 292.864 261.448C283.169 255.731 271.907 245.81 262.609 239.405C258.728 236.733 250.742 236.91 248.081 232.958C244.594 227.777 246.853 219.852 243.341 214.692C239.324 208.791 233.697 204.205 227.351 200.876C220.425 196.166 212.27 194.033 204.089 194.326C192.029 193.591 179.884 197.449 172.139 207.307C168.275 212.23 166.02 217.905 165.708 224.193C165.626 225.826 166.149 227.116 167.009 228.047C166.5 228.733 165.991 229.42 165.486 230.108C163.903 227.752 160.2 226.501 157.734 228.279C149.663 234.098 140.941 238.725 131.734 242.116C129.581 241.093 126.973 241.565 125.128 243.237C124.379 243.915 123.585 244.495 122.754 244.988C119.341 245.916 115.875 246.693 112.357 247.294C111.256 247.48 110.323 248.109 109.615 248.954C108.567 247.971 107.126 247.499 105.517 248.114C86.9368 255.229 69.3907 266.28 56.0539 281.252C41.2783 297.838 33.5178 318.472 27.6098 339.612C21.214 362.496 17.1268 385.949 13.6939 409.443C10.2154 433.246 6.78913 457.143 4.39592 481.084C3.04905 494.556 2.53517 508.153 3.14494 521.685C3.44891 528.448 4.06396 535.19 5.04354 541.888C5.2718 543.454 5.51062 545.26 5.89557 547.061C4.72603 546.833 3.33305 547.826 3.57004 549.415C5.22088 560.485 18.5464 563.71 27.7366 564.986C42.7697 567.071 57.8807 568.227 73.0583 568.317C87.973 568.402 102.885 567.441 117.769 566.58C133.029 565.698 148.287 564.811 163.547 563.913C224.683 560.313 285.821 556.752 346.957 553.149C352.543 552.82 358.92 552.375 363.706 549.12C370.262 544.659 370.6 537.572 370.212 530.325Z" fill="white"/>
<path fill-rule="evenodd" clip-rule="evenodd" d="M72.1945 406.5C71.9823 406.099 72.4746 405.742 72.8013 406.03C80.2232 412.571 84.1087 423.077 84.9233 432.788C85.7866 443.086 84.5629 453.746 84.0951 464.04C83.5746 475.506 83.1068 486.974 82.4714 498.436C81.8263 510.063 81.1314 521.686 80.5356 533.315L79.1956 559.474C79.0532 562.264 79.3617 565.691 78.2966 568.294C76.6457 572.327 71.7421 571.703 70.7116 568.333L70.6794 568.22L70.5854 568.294C69.6762 565.256 70.3567 561.647 70.5108 558.507L71.9148 529.925C72.9068 509.722 73.7916 489.517 74.857 469.319L75.2193 462.586C75.7175 453.522 76.0995 444.482 76.4062 435.42L76.5056 432.401C76.7969 423.302 76.5657 414.713 72.1945 406.5ZM252.109 238.785C256.245 238.389 259.367 239.767 263.12 241.218C264.756 241.849 266.305 242.579 267.872 243.335C269.838 244.281 271.099 245.953 272.308 247.72L272.955 248.674C277.993 256.086 281.379 264.636 285.203 272.705C289.675 282.144 294.19 291.562 298.567 301.045L300.725 305.719C301.806 308.054 302.882 310.392 303.942 312.737L305.775 316.818C307.615 320.958 309.266 325.336 306.642 329.607C304.203 333.578 299.879 336.65 296.454 339.721C293.598 342.282 290.739 344.843 287.881 347.405C293.79 353.347 297.755 360.829 300.088 368.851C303.398 367.467 307.443 367.2 310.865 366.601C315.66 365.76 316.247 373.05 311.723 372.963C308.381 372.896 304.463 373.239 301.035 372.532C301.629 375.169 302.063 377.846 302.338 380.529C303.777 394.596 300.629 408.743 297.349 422.354L297.078 423.471C293.513 438.203 290.134 452.972 287.108 467.824C284.077 482.711 281.352 497.657 278.931 512.654C276.47 527.919 274.726 543.268 272.852 558.615C272.57 560.937 271.113 562.927 268.56 562.927C266.431 562.927 263.997 560.932 264.265 558.615C266.197 541.904 268.938 525.279 271.661 508.683C276.353 480.101 282.258 451.767 289.048 423.618L290.234 418.717C293.29 406.004 296.064 392.905 294.531 379.792C293.281 369.114 288.837 357.728 280.051 351.097L279.785 350.897C277.732 349.386 276.942 346.495 278.964 344.505C280.251 343.238 281.538 341.971 282.827 340.707L290.56 333.124L292.118 331.592C293.419 330.316 294.724 329.049 296.071 327.822C296.885 327.08 299.092 325.663 299.253 324.44C299.358 323.643 298.418 322.243 298.037 321.508L296.291 317.968C295.3 315.95 294.341 313.919 293.373 311.889C291.365 307.686 289.333 303.494 287.369 299.269L275.582 273.9C272.258 266.741 269.294 259.186 264.947 252.569L264.091 251.281C263.375 250.194 262.742 249.148 262.29 247.819C261.856 246.543 261.31 245.14 260.505 244.049C258.624 241.49 255.025 240.038 252.012 239.502C251.576 239.423 251.735 238.82 252.109 238.785ZM161.45 232.122C161.712 232.122 161.751 232.497 161.51 232.569C157.876 233.667 154.405 235.436 151.574 237.993C150.218 239.216 148.853 240.605 148.016 242.25C147.697 242.881 147.52 243.546 147.39 244.235L147.348 244.468C147.133 245.714 146.823 246.407 146.192 247.405L146.084 247.575C142.485 253.158 139.962 259.359 137.656 265.569L132.632 279.108L127.613 292.649C125.995 297.012 124.377 301.374 122.759 305.737C121.866 308.146 120.947 310.544 120.028 312.944C119.631 313.983 119.203 315.015 118.84 316.068C118.79 316.21 118.631 317.076 118.512 317.286L118.552 317.357C119.565 319.069 122.265 320.499 123.795 321.741L129.066 326.02C132.823 329.072 136.677 332.039 140.321 335.227C142.611 337.228 141.186 340.812 138.634 341.649C134.355 343.049 130.164 344.726 125.949 346.308C124.246 346.949 122.474 347.506 120.791 348.211L119.767 348.655C119.367 348.837 119.559 348.835 119.575 349.577C119.591 350.353 119.81 351.164 119.936 351.928C121.356 360.55 122.861 369.158 124.449 377.749C130.068 408.133 136.78 438.293 144.435 468.22C148.303 483.335 152.448 498.376 156.401 513.467C160.342 528.517 165.529 543.353 170.48 558.095C171.879 562.252 165.316 564.042 163.953 559.903C158.245 542.566 153.024 525.076 147.63 507.64C138.052 476.66 130.502 445.005 123.825 413.276C120.516 397.549 117.489 381.764 114.748 365.928C114.229 362.929 113.72 359.93 113.222 356.927L112.495 352.514C111.997 349.365 111.713 346.087 114.149 343.597C116.526 341.167 120.609 340.306 123.738 339.166L123.965 339.08C125.956 338.334 127.962 337.615 129.959 336.874C127.017 334.547 124.11 332.168 121.174 329.844C118.806 327.967 116.401 326.129 114.067 324.21C112.142 322.628 110.573 320.594 110.372 318.021C110.167 315.388 111.29 312.949 112.195 310.535L112.282 310.302C113.171 307.893 114.062 305.484 114.976 303.084L120.632 288.227C124.227 278.785 127.669 269.268 131.45 259.903C132.946 256.194 134.576 252.546 136.502 249.042C137.43 247.352 138.426 245.698 139.508 244.104C140.721 242.314 141.822 241.443 143.701 240.458C146.706 238.88 149.064 236.233 152.081 234.607C155.043 233.011 158.089 232.159 161.45 232.122ZM171.202 215.277C171.319 215.079 171.622 215.169 171.627 215.395C171.705 220.087 170.594 224.88 169.913 229.519C169.227 234.176 169.007 239.089 168.014 243.696C167.993 243.91 167.952 244.122 167.894 244.33L167.846 244.489C167.429 245.778 166.339 246.872 165.004 247.213C165.424 249.554 165.818 251.896 166.151 254.25C166.724 258.299 167.245 262.353 167.759 266.407L168.374 271.274C168.954 275.863 169.519 280.451 170.076 285.039C171.494 285.636 172.941 286.129 174.426 286.552C177.839 287.536 181.335 287.934 184.859 288.282C192.035 288.987 199.266 289.316 206.467 289.717L208.011 289.805C216.107 290.27 224.247 290.353 232.322 289.519C236.325 289.104 240.299 288.411 244.203 287.428C246.188 286.928 248.117 286.179 250.097 285.691C250.753 285.53 251.34 285.154 251.999 284.756C252.292 284.385 252.701 284.104 253.235 283.996L253.38 283.97L253.524 283.95L253.572 283.927L253.57 283.943C253.974 283.887 254.359 283.887 254.722 283.938C254.866 280.359 255.022 276.782 255.219 273.204C255.747 263.597 257.202 253.575 255.258 244.051C255.194 243.731 255.628 243.618 255.74 243.917C259.551 253.999 259.122 265.023 259.314 275.634C259.503 286.013 259.388 296.397 259.337 306.778C260.078 307.094 260.737 307.522 261.26 308.126C262.306 309.328 262.607 311.417 261.26 312.578C260.663 313.092 260.005 313.451 259.305 313.697C259.269 322.715 259.204 331.733 259.115 340.75C260.822 342.075 260.98 345.221 259.051 346.527C258.727 375.731 258.2 404.936 257.761 434.133L256.844 495.393C256.722 503.556 256.52 511.717 256.447 519.878L256.504 519.901L256.708 519.995C257.05 520.156 257.559 520.417 257.665 520.684C257.693 520.755 257.699 520.801 257.695 520.838C258.255 520.916 258.81 521.184 259.292 521.64C260.478 522.773 260.237 524.477 259.292 525.629L259.039 525.938C258.45 526.656 257.332 526.933 256.419 526.785C256.428 531.88 256.461 536.975 256.445 542.068C256.438 543.623 256.415 545.18 256.389 546.735L256.325 550.466C256.282 552.594 256.094 555.298 253.923 556.257C251.476 557.335 249.278 556.45 248.287 553.953C248.018 553.276 248.076 552.645 248.174 551.977C248.144 550.971 247.986 549.807 248.007 548.874L248.087 544.984C248.101 544.385 248.124 543.786 248.142 543.185L248.071 543.194C239.367 543.618 230.606 543.411 221.888 543.406L218.014 543.411C214.779 543.413 211.537 543.397 208.307 543.273L207.096 543.22C204.678 543.107 202.136 543.07 199.629 542.854C199.948 545.438 200.246 548.025 200.512 550.613C200.764 553.069 198.241 555.153 195.993 555.153C193.32 555.153 191.79 553.044 191.471 550.613C189.961 539.145 189.342 527.571 187.899 516.095C186.607 505.818 185.486 495.517 184.348 485.221L183.967 481.787C179.798 444.314 175.752 406.827 171.881 369.321L170.078 351.79C168.259 334.119 166.426 316.445 164.882 298.749C163.999 288.63 163.187 278.511 162.421 268.384C161.859 260.944 161.505 253.543 161.276 246.117C160.37 245.182 159.915 243.814 160.317 242.402C160.551 241.579 160.824 240.759 161.113 239.942C161.095 239.138 161.076 238.334 161.06 237.53C161.046 236.77 161.815 236.376 162.432 236.503C163.552 233.78 164.783 231.081 165.814 228.384C167.479 224.019 168.851 219.317 171.202 215.277ZM78.1974 262.45C95.6063 251.493 116.329 243.609 137.084 244.456C137.556 244.477 137.689 245.198 137.199 245.309C126.128 247.792 114.936 250.816 104.454 255.215C93.9428 259.631 83.9481 265.576 75.046 272.718C58.6216 285.896 45.8554 303.04 37.4493 322.363C32.5255 333.681 29.0742 345.631 26.0604 357.585C22.8714 370.238 20.243 383.026 18.0577 395.89C13.7411 421.303 11.2281 446.995 9.89086 472.732C8.53046 498.912 9.09114 525.111 8.12096 551.295C7.95326 555.831 1.49741 555.743 1.16913 551.295C-1.02932 521.524 0.188627 491.281 2.22189 461.534C4.05007 434.789 7.24255 408.103 12.3836 381.791L12.8312 379.511C17.6374 355.167 23.4341 330.233 35.0526 308.185C44.9719 289.365 60.2855 273.727 78.1974 262.45ZM319.945 378.799C320.037 378.537 320.379 378.541 320.471 378.799C322.455 384.378 322.526 390.675 323.054 396.556L323.095 397.007C323.602 402.374 323.983 407.746 324.336 413.122L324.469 415.137C325.89 437.067 327.667 458.975 330.345 480.79C333.013 502.524 336.621 524.106 340.521 545.645C340.957 548.043 339.9 550.484 337.394 551.175C335.188 551.786 332.354 550.42 331.889 548.036C329.466 535.672 327.507 523.293 325.761 510.823C322.685 488.863 320.388 466.804 318.913 444.678C318.172 433.566 317.716 422.457 317.534 411.32C317.452 406.154 317.585 400.974 317.86 395.814L317.924 394.623C318.227 389.346 318.197 383.83 319.945 378.799ZM131.832 518.486C132.064 518.36 132.352 518.62 132.205 518.862C128.834 524.364 124.274 529.107 119.866 533.785C115.259 538.673 110.765 543.708 106.064 548.501C102.667 551.961 97.2037 546.378 100.788 543.201C105.828 538.737 111.096 534.492 116.226 530.127L118.469 528.218C122.675 524.648 127.006 521.112 131.832 518.486ZM291.939 515.731C291.687 515.25 292.262 514.858 292.652 515.176C295.371 517.399 297.81 520.048 300.434 522.391C303.033 524.712 305.731 526.877 308.502 528.99C311.285 531.111 314.128 533.147 317.048 535.073C319.471 536.671 321.967 537.95 324.502 539.276C325.676 539.428 326.764 540.007 327.635 541.105C329.012 542.842 329.156 546.115 327.248 547.621L326.906 547.891C324.678 549.651 322.033 549.865 319.84 547.891C317.39 545.689 315.075 543.266 312.724 540.937L312.017 540.241C309.491 537.775 307.025 535.229 304.701 532.567L302.595 530.162C298.693 525.691 294.628 520.873 291.939 515.731ZM279.413 257.945C278.961 257.645 279.241 256.835 279.799 257.028L280.822 257.383C285.103 258.878 289.505 260.534 293.389 262.832C297.564 265.304 301.418 268.245 305.103 271.403C312.724 277.94 319.209 285.977 324.72 294.354C335.777 311.161 342.616 330.413 348.138 349.673C354.027 370.212 358.558 391.191 362.26 412.23C366.02 433.612 368.92 455.186 370.829 476.816C371.767 487.469 372.398 498.129 372.715 508.821C372.877 514.322 372.873 519.818 372.827 525.32C372.815 526.735 372.825 528.149 372.841 529.563L372.893 533.806C372.923 536.489 373.242 539.309 372.609 541.93C371.586 546.15 364.642 545.362 364.869 541.05C364.66 539.615 364.651 538.132 364.706 536.646C364.674 536.455 364.637 536.259 364.598 536.061C364.483 535.49 364.58 534.962 364.802 534.508C364.839 533.797 364.871 533.087 364.882 532.392C364.928 529.559 364.926 526.737 364.848 523.906C364.683 517.934 364.447 511.963 364.208 505.995C363.731 494.068 363.066 482.135 362.104 470.238C358.755 428.824 351.682 387.174 339.803 347.333C334.288 328.83 326.681 310.668 315.775 294.681C310.932 287.582 305.47 281.027 299.413 274.941C293.32 268.819 286.603 262.729 279.413 257.945ZM197.22 524.915L198.043 530.894C198.454 533.887 198.862 536.879 199.248 539.871C201.877 539.509 204.563 539.359 207.096 539.134C211.528 538.74 215.99 538.549 220.436 538.364C229.629 537.982 238.867 537.323 248.069 537.369C248.165 537.369 248.255 537.376 248.342 537.383L248.798 525.583L242.333 525.574C236.855 525.564 231.379 525.516 225.901 525.47C220.968 525.426 216.034 525.419 211.099 525.318L208.986 525.267C205.247 525.166 201.115 525.376 197.22 524.915ZM249.342 507.787C249.078 507.817 248.81 507.845 248.523 507.856C247.243 507.912 245.954 507.872 244.671 507.884C241.943 507.907 239.214 507.925 236.486 507.925C231.028 507.925 225.57 507.958 220.115 508.024C214.497 508.094 208.883 508.19 203.265 508.202C200.544 508.206 197.83 508.135 195.109 508.057C195.55 511.942 196.011 515.821 196.518 519.693C200.744 519.12 205.288 519.41 209.418 519.371L209.954 519.364C215.589 519.267 221.23 519.339 226.869 519.345C232.668 519.352 238.468 519.371 244.267 519.417L249.032 519.458L249.041 519.216C249.181 515.411 249.271 511.599 249.342 507.787ZM193.015 489.208C193.542 493.792 194.038 498.385 194.543 502.975C194.88 502.923 195.219 502.879 195.566 502.842C198.291 502.554 201.012 502.31 203.747 502.139C209.2 501.801 214.653 501.621 220.115 501.474C225.731 501.322 231.349 501.207 236.968 501.126C239.698 501.089 242.423 501.091 245.153 501.112C246.433 501.119 247.727 501.08 249.005 501.165C249.158 501.177 249.303 501.193 249.448 501.209L249.544 494.315C249.56 493.168 249.578 492.018 249.597 490.871C245.378 491.132 241.088 491.033 236.874 491.033L235.901 491.035C230.604 491.06 225.307 490.987 220.01 490.876C214.545 490.763 209.094 490.583 203.639 490.231C201.43 490.091 199.236 489.902 197.039 489.658L195.94 489.531C194.983 489.418 193.999 489.326 193.015 489.208ZM250.033 469.757C239.872 470.567 229.766 470.906 219.578 471.005L218.05 471.019C209.048 471.088 199.971 471.461 190.948 471.221C191.487 475.92 192.026 480.617 192.567 485.316C193.859 485.256 195.157 485.254 196.422 485.207C198.991 485.115 201.551 485.092 204.121 485.085C209.418 485.074 214.712 485.12 220.01 485.111C225.469 485.097 230.925 485.005 236.383 484.903C240.808 484.818 245.279 484.484 249.716 484.496L250.033 469.757ZM250.462 449.713C249.285 450.107 247.894 450.132 246.371 450.201L242.437 450.397C240.615 450.487 238.791 450.572 236.968 450.639C230.888 450.862 224.811 451.072 218.732 451.265C212.501 451.463 206.243 451.578 200.012 451.383C196.961 451.286 193.935 451.125 190.89 450.869C190.138 450.807 189.372 450.765 188.603 450.71C189.312 456.936 190.023 463.16 190.737 469.383C199.716 468.275 208.766 467.587 217.736 466.442L225.846 465.401C233.953 464.362 242.051 463.342 250.189 462.483L250.462 449.713ZM250.895 429.448C249.168 429.876 247.199 429.856 245.538 429.959L245.233 429.982C242.088 430.222 238.938 430.339 235.788 430.418C229.613 430.572 223.435 430.648 217.257 430.685L213.542 430.708C208.592 430.738 203.643 430.752 198.69 430.634C195.513 430.56 192.343 430.404 189.17 430.245C188.218 430.196 187.245 430.164 186.27 430.116C186.933 436.008 187.605 441.9 188.273 447.794C189.317 447.626 190.365 447.499 191.363 447.331C193.921 446.896 196.474 446.55 199.053 446.239C204.634 445.569 210.244 445.085 215.853 444.678C221.609 444.258 227.371 443.904 233.13 443.498L237.206 443.208C238.567 443.114 239.925 443.021 241.285 442.939C243.607 442.796 246.307 442.957 248.61 442.45C249.234 442.188 249.927 442.128 250.62 442.278L250.895 429.448ZM251.418 405.726C250.819 406.488 249.927 406.889 248.863 407.027C243.318 407.748 237.631 407.865 232.04 408.206L231.056 408.269C225.281 408.651 219.505 408.95 213.728 409.259C207.793 409.575 201.859 409.832 195.919 410.04C193.398 410.13 190.865 410.139 188.339 410.107L187.257 410.09C186.22 410.072 185.135 410.074 184.045 410.04C184.648 415.549 185.256 421.061 185.873 426.569C186.984 426.449 188.092 426.357 189.168 426.242C192.34 425.905 195.511 425.571 198.69 425.32C204.715 424.843 210.746 424.556 216.782 424.256C222.957 423.95 229.138 423.745 235.314 423.455C238.31 423.314 241.303 423.139 244.288 422.863C246.383 422.669 248.867 421.955 251.051 422.218C251.17 416.72 251.294 411.224 251.418 405.726ZM251.904 384.477C251.81 384.625 251.7 384.767 251.565 384.899C249.124 387.322 246.116 387.133 242.882 387.389L242.682 387.405C239.514 387.672 236.341 387.928 233.169 388.156C226.823 388.616 220.468 388.939 214.114 389.224C207.612 389.519 201.069 389.72 194.561 389.588C190.393 389.501 186.029 389.517 181.778 389.109C182.43 395.179 183.086 401.246 183.749 407.315C184.944 407.089 186.146 406.914 187.286 406.734C190.159 406.281 193.033 405.825 195.921 405.491C201.691 404.823 207.465 404.199 213.247 403.636C218.193 403.155 223.136 402.667 228.085 402.225L231.056 401.969C236.961 401.469 242.939 400.647 248.863 400.525C249.84 400.504 250.943 401.038 251.503 401.881C251.634 396.079 251.769 390.277 251.904 384.477ZM252.315 367.273C250.808 367.458 249.181 367.354 247.791 367.4C244.272 367.515 240.753 367.621 237.236 367.727L216.123 368.351C208.934 368.566 201.721 368.725 194.529 368.623C191.365 368.577 188.19 368.573 185.027 368.4L183.974 368.335C182.673 368.248 181.076 368.236 179.516 368.077L181.356 385.207C185.586 384.592 189.948 384.364 194.141 384.003L195.038 383.924C201.223 383.358 207.44 382.982 213.636 382.561C219.996 382.13 226.344 381.605 232.691 381.068C235.864 380.801 239.037 380.534 242.207 380.239L242.6 380.2C245.596 379.887 248.411 379.219 251.065 380.992C251.453 381.25 251.755 381.598 251.964 381.985C252.081 377.081 252.194 372.177 252.315 367.273ZM252.806 347.283C239.948 347.803 227.089 348.197 214.222 348.372C206.979 348.469 199.746 348.4 192.503 348.248C189.363 348.181 186.197 348.031 183.058 347.789L181.884 347.695C180.39 347.568 178.823 347.476 177.263 347.326C177.908 353.216 178.548 359.106 179.184 364.998C180.718 364.71 182.322 364.578 183.669 364.406L183.974 364.364C187.316 363.904 190.691 363.634 194.049 363.337C200.59 362.759 207.165 362.386 213.724 362.068C220.439 361.743 227.158 361.469 233.875 361.167L240.592 360.865C241.712 360.817 242.834 360.766 243.953 360.72C245.552 360.651 247.151 360.587 248.75 360.52C249.539 360.488 250.361 360.382 251.15 360.421L251.375 360.391C251.478 360.377 251.57 360.368 251.654 360.359C251.868 360.193 252.1 360.057 252.345 359.953L252.494 359.896L252.806 347.283ZM175.155 328.338C175.752 333.64 176.344 338.944 176.926 344.247C178.759 344.037 180.615 343.922 182.366 343.763C185.896 343.445 189.445 343.167 192.985 343.003L200.065 342.674C204.781 342.452 209.5 342.241 214.222 342.068C227.144 341.596 240.067 341.052 252.98 340.389C253.072 336.793 253.166 333.195 253.26 329.597C252.641 330.265 251.746 330.703 250.569 330.701C237.011 330.664 223.442 330.745 209.886 330.519C203.1 330.406 196.321 330.242 189.544 329.892C186.227 329.722 182.891 329.374 179.601 328.916C178.197 328.72 176.66 328.579 175.155 328.338ZM172.985 309.445C173.623 314.877 174.249 320.31 174.864 325.744C176.548 325.442 178.287 325.281 179.858 325.067C183.233 324.606 186.628 324.238 190.028 324.046C196.642 323.669 203.26 323.48 209.886 323.339C223.442 323.049 237.011 323.051 250.569 322.943C251.843 322.934 252.788 323.441 253.409 324.196C253.504 320.803 253.602 317.413 253.705 314.02C252.395 313.882 251.097 313.686 249.895 313.601C246.204 313.343 242.508 313.105 238.812 312.891C231.102 312.449 223.382 312.069 215.664 311.73C207.945 311.394 200.223 311.065 192.501 310.777L189.124 310.652C183.753 310.452 178.293 310.199 172.985 309.445ZM170.558 288.992C171.221 294.492 171.875 299.992 172.526 305.495L172.723 307.2C179.181 305.937 185.988 305.569 192.501 305.29C200.223 304.961 207.933 304.79 215.664 304.813C223.386 304.839 231.097 305.021 238.812 305.341C242.668 305.502 246.523 305.686 250.377 305.896C251.437 305.954 252.678 305.924 253.955 305.942C253.985 305.078 254.008 304.212 254.038 303.348C254.155 299.847 254.27 296.344 254.389 292.843C251.783 294.188 248.395 294.729 245.775 295.303L245.476 295.37C241.152 296.344 236.736 296.977 232.322 297.362C223.653 298.122 214.894 297.839 206.233 297.104L204.717 296.973C197.112 296.309 189.227 295.471 181.854 293.58C178.342 292.682 174.712 291.422 171.565 289.595C171.237 289.404 170.9 289.204 170.558 288.992ZM243.783 223.625C243.859 223.325 244.302 223.259 244.449 223.537C245.472 225.49 245.855 227.835 246.564 229.929C247.33 232.182 248.044 234.448 248.888 236.673C250.652 241.319 252.733 245.783 255.213 250.088C257.67 254.349 250.792 257.39 248.984 252.725C247.117 247.911 245.582 242.931 244.655 237.846C244.201 235.363 243.797 232.845 243.666 230.323C243.554 228.158 243.251 225.737 243.783 223.625Z" fill="#282828"/>
<path fill-rule="evenodd" clip-rule="evenodd" d="M293.985 129.1C293.792 118.194 293.579 107.071 291.966 96.2713C290.388 85.7132 286.045 76.1697 278.585 68.503C262.741 52.2176 239.773 48.2397 218.392 44.5944L181.84 38.3618C170.686 36.4608 158.789 33.422 147.522 36.1181C141.97 37.4467 137.256 40.5329 132.947 44.1847C128.793 47.7042 124.327 51.484 121.513 56.2192C118.693 60.9612 117.724 66.5046 116.807 71.8678C115.773 77.9145 114.97 84.0085 114.4 90.117C113.256 102.356 113.1 114.686 113.93 126.95C114.331 132.898 114.971 138.83 115.787 144.734C116.192 147.664 116.649 150.584 117.166 153.493C117.318 154.352 117.434 155.304 117.59 156.262C116.437 159.556 115.781 162.967 115.834 166.364C115.99 176.37 124.397 182.668 132.873 186.051C137.788 188.011 142.925 189.343 147.754 191.533C152.835 193.839 156.293 197.573 159.766 201.834C166.389 209.962 173.865 217.266 182.4 223.359C200.495 236.28 223.418 242.391 245.375 237.752C250.642 236.64 255.958 234.912 260.695 232.307C265.694 229.559 269.454 225.574 272.611 220.864C278.472 212.121 282.677 202.276 285.857 192.256C289.101 182.036 291.404 171.798 292.659 161.14C293.911 150.517 294.175 139.788 293.985 129.1Z" fill="white"/>
<path fill-rule="evenodd" clip-rule="evenodd" d="M177.332 0.372064C192.46 -1.71777 213.338 5.07458 220.87 18.7708C256.837 10.2544 302.198 9.97544 331.84 38.326C362.772 71.9562 323.921 116.298 298.158 126.295C300.035 135.451 297.11 194.103 276.417 220.267C259.993 242.435 221.751 252.666 204.054 226.187L203.916 225.97C202.019 222.911 203.652 223.01 205.598 225.284C222.928 240.59 246.49 240.852 264.646 224.699C298.672 195.174 295.164 122.779 278.973 80.898C232.866 75.8117 183.501 89.8481 151.654 124.708L153.808 137.729C154.176 139.949 154.593 142.165 154.91 144.39C155.114 145.818 155.137 147.235 154.153 148.391C150.904 152.203 145.428 146.474 140.925 144.196C139.594 144.008 138.261 143.936 136.955 144.028C115.31 146.829 119.575 189.001 143.363 181.61C145.362 180.359 147.08 180.739 147.855 182.554C153.524 187.771 157.263 197.075 166.685 206.037C170.007 209.398 173.033 212.21 176.772 214.907C178.968 217.137 185.593 219.412 183.494 223.229C179.521 231.915 156.096 204.632 151.955 197.086C138.979 202.232 124.599 200.484 111.152 199.226C40.2107 195.522 49.681 120.411 107.83 72.9901C118.776 64.8964 130.852 58.2938 143.405 53.2128C145.118 52.5191 144.37 49.6926 142.632 50.3961C134.326 53.7585 126.229 57.7606 118.51 62.3926L118.498 59.6235C118.487 54.9592 118.56 50.1031 119.367 45.8414C119.77 42.8885 120.448 39.7345 121.492 37.3616C122.782 30.0872 143.001 5.11743 177.332 0.372064ZM136.007 153.709C137.103 152.666 139.147 153.912 140.123 153.88C142.615 154.223 144.985 155.28 146.832 156.586C148.053 157.273 148.908 157.918 149.622 158.51L149.642 158.505C149.635 158.505 149.629 158.51 149.624 158.512L149.691 158.558C150.732 159.3 154.54 163.48 152.134 162.356C151.955 162.123 151.771 161.898 151.585 161.677C151.565 161.707 151.537 161.737 151.505 161.766L151.641 161.967C153.685 165.056 150.154 161.801 149.61 160.937C149.585 160.958 149.557 160.972 149.528 160.988L150.234 161.852C150.333 161.974 150.411 162.073 150.475 162.156L150.627 162.301C152.989 164.634 153.063 166.735 150.317 163.284C150.425 163.446 150.512 163.618 150.523 163.773L150.686 163.98C152.843 166.772 151.09 165.781 150.016 164.588L149.927 164.484L149.945 164.514C150.943 166.055 148.966 164.973 148.615 164.148L148.601 164.111C148.22 163.798 147.986 163.448 147.906 163.36L147.89 163.344C146.036 161.437 143.347 159.822 141.065 159.088C140.734 159.025 140.399 158.975 140.06 158.938C138.687 158.632 137.299 158.42 135.896 158.307C135.725 158.286 135.551 158.159 135.421 157.996C133.3 157.924 133.955 157.051 134.835 156.888L134.85 156.886L134.675 156.872C133.314 156.738 132.385 156.248 133.761 155.946L133.935 155.911C133.914 155.877 133.895 155.845 133.877 155.81C132.698 155.681 133.467 154.529 134.122 154.808C133.846 153.905 135.104 154.354 135.262 154.221C135.381 154.087 135.53 153.97 135.616 153.963C135.995 153.696 135.811 153.719 136.007 153.709ZM143.221 139.074L142.944 139.235C142.721 139.366 142.492 139.454 142.26 139.505C142.586 139.645 142.909 139.795 143.226 139.956C143.221 139.76 143.219 139.562 143.219 139.366L143.221 139.074Z" fill="#282828"/>
<path fill-rule="evenodd" clip-rule="evenodd" d="M251.085 198.701C247.516 199.739 243.684 199.831 240.044 198.758C236.742 197.786 233.354 195.644 230.925 192.811C228.766 190.293 227.369 187.234 227.424 183.971C227.428 183.597 227.561 183.286 227.766 183.045C227.986 182.784 228.293 182.605 228.621 182.529C228.961 182.448 229.319 182.476 229.624 182.616C229.899 182.741 230.135 182.955 230.282 183.266C230.656 183.759 231.028 184.245 231.402 184.717C234.402 188.439 237.309 191.222 241.824 192.221C244.274 192.762 246.72 192.523 248.963 191.696C251.367 190.812 253.538 189.257 255.24 187.267C256.011 186.366 256.917 186 257.805 185.993C258.812 185.986 259.807 186.456 260.555 187.207C261.292 187.944 261.785 188.946 261.831 189.996C261.87 190.915 261.569 191.878 260.776 192.735C258.156 195.561 254.76 197.632 251.085 198.701ZM250.977 152.067C254.636 154.301 260.213 159.511 256.277 165.051C251.643 169.936 244.969 164.334 241.682 161.803C238.633 159.841 235.205 164.887 238.036 167.179C261.796 184.848 271.439 152.652 252.829 149.439C250.78 149.086 250.018 151.376 250.977 152.067ZM216.74 142.234C215.563 141.478 214.18 141.22 212.647 141.921C211.448 142.469 209.346 144.293 207.885 146.691C206.882 148.333 206.173 150.259 206.32 152.263C206.355 152.73 206.185 153.073 205.914 153.327C205.701 153.527 205.391 153.675 205.031 153.721C204.724 153.76 204.379 153.725 204.1 153.635C203.567 153.47 203.285 153.122 203.18 152.841C202.154 150.107 202.595 147.059 203.744 144.309C205.293 140.596 208.105 137.487 209.95 136.485C213.104 134.769 216.825 134.69 219.982 136.439C222.67 137.927 224.352 140.329 226.024 142.777C226.38 143.298 226.733 143.814 227.098 144.321C227.828 145.339 227.901 146.348 227.619 147.211C227.304 148.172 226.506 148.98 225.506 149.402C224.581 149.793 223.51 149.849 222.56 149.448C221.76 149.107 221.023 148.446 220.558 147.322C219.775 145.431 218.468 143.344 216.74 142.234ZM276.483 146.442C275.676 146.864 275.047 146.993 274.152 146.723C273.659 146.573 273.171 146.288 272.787 145.903C272.409 145.523 272.136 145.049 272.028 144.523C271.767 143.229 271.062 142.015 270.055 141.225C269.195 140.548 268.11 140.191 266.905 140.391C265.607 140.61 264.37 141.446 263.517 142.434C263.232 142.764 263.008 143.139 262.785 143.512C262.363 144.208 261.957 144.855 261.377 145.366C261.156 145.562 260.826 145.696 260.505 145.696C260.376 145.696 260.243 145.675 260.117 145.636C258.823 144.332 258.575 143.342 258.617 142.363C258.66 141.333 259.064 140.292 259.718 139.32C261.248 137.042 264.152 135.172 266.114 134.748C268.8 134.17 271.466 134.865 273.604 136.372C275.804 137.922 277.435 140.329 277.942 143.04C278.066 143.694 278.013 144.399 277.766 145.009C277.522 145.608 277.103 146.12 276.483 146.442ZM222.661 117.934C221.051 119.511 219.144 119.755 217.213 119.973C216.141 120.094 215.286 120.193 214.444 120.384C212.129 120.908 209.839 121.699 207.752 122.837C205.57 124.028 203.191 125.463 201.482 127.302C201.074 127.739 200.691 128.198 200.307 128.658C199.956 129.078 199.619 129.482 199.264 129.871C198.855 130.319 198.468 130.788 198.082 131.255C197.844 131.65 197.795 131.747 197.747 131.848C197.676 132 197.591 132.17 197.495 132.352C197.364 132.601 197.21 132.875 197.05 133.122C196.781 133.575 196.637 133.7 196.513 133.756C196.307 133.848 196.109 133.894 195.921 133.869C195.742 133.846 195.575 133.76 195.407 133.619C194.581 132.917 194.336 131.765 194.361 130.542C194.4 128.686 195.081 126.631 195.71 125.367C197.171 122.432 199.197 119.381 201.633 117.19C204.414 114.689 207.456 112.796 210.948 111.491C213.12 110.68 215.632 109.936 217.997 110.03C219.702 110.098 221.326 110.606 222.668 111.875C223.492 112.655 223.889 113.763 223.889 114.87C223.889 116 223.478 117.136 222.661 117.934ZM279.762 132.375C279.658 132.544 279.516 132.66 279.358 132.73C279.193 132.803 279.009 132.824 278.83 132.794C278.653 132.765 278.486 132.684 278.353 132.561C278.227 132.444 278.128 132.288 278.085 132.096C277.016 127.376 274.937 123.865 270.505 121.6C268.323 120.486 265.813 119.778 263.439 119.214C262.751 119.05 262.021 118.944 261.287 118.836C258.986 118.499 256.667 118.112 255.169 116.244C254.265 115.119 253.884 113.679 254.1 112.363C254.302 111.124 255.022 109.987 256.332 109.306C259.596 107.612 263.65 109.275 266.947 110.691C267.19 110.796 267.431 110.899 267.665 110.999C270.888 112.365 273.827 114.168 276.242 116.747C278.158 118.793 279.936 121.818 280.649 124.93C281.246 127.518 281.106 130.161 279.762 132.375Z" fill="#282828"/>
<path fill-rule="evenodd" clip-rule="evenodd" d="M251.505 171.032C246.114 168.593 236.435 170.721 232.923 171.567C224.754 173.534 216.534 177.786 213.994 184.449C211.134 191.956 216.844 194.322 217.683 193.935C223.338 194.335 230.074 190.763 236 189.842C240.81 189.088 245.885 188.43 250.393 185.861C253.683 187.679 261.115 188.662 267.115 190.252C272.224 191.606 274.437 194.54 279.175 193.916C284.85 193.17 282.526 181.176 276.199 176.319C269.276 171.002 257.566 168.847 251.505 171.032ZM262.178 222.305C257.461 223.459 257.144 213.078 256.617 209.411C256.204 206.546 253.878 199.156 247.975 199.474C242.074 199.794 239.856 205.986 240.154 209.835C240.349 212.332 242.641 224.982 235.327 226.58C230.666 226.564 225.272 226.248 220.37 225.341C214.6 224.028 207.098 219.433 205.116 228.483C204.403 231.74 229.819 241.416 241.097 242.291C252.533 244.62 265.915 241.038 274.059 232.251C275.912 230.252 281.129 221.953 281.501 219.919C282.281 215.648 280.473 212.898 275.21 214.405C271.494 216.399 265.21 221.563 262.178 222.305Z" fill="#282828"/>
<path fill-rule="evenodd" clip-rule="evenodd" d="M284.98 160.353C277.706 163.873 267.556 158.681 262.665 153.245C260.885 151.266 259.513 145.602 260.197 142.012C262.053 132.284 269.022 126.446 276.38 124.453C286.579 121.689 296.843 128.691 295.648 136.953C294.512 144.785 292.794 156.145 284.98 160.353ZM235.469 141.668C234.886 152.268 226.412 161.546 216.281 164.297C199.961 168.871 191.894 157.347 188.242 144.932C187.877 143.7 187.024 139.934 189.316 136.705C198.323 124.001 220.236 126.167 231.181 129.654C234.384 132.731 235.694 137.172 235.469 141.668ZM292.883 123.385C292.879 123.392 292.872 123.397 292.867 123.403C292.831 123.38 292.794 123.357 292.755 123.335C292.796 123.352 292.842 123.367 292.883 123.385ZM306.538 124.611C305.59 113.818 271.874 117.95 267.933 118.835C257.176 122.013 247.884 130.659 235.856 126.858C223.393 112.905 181.426 116.906 172.629 124.014C170.963 123.358 168.937 123.71 166.792 124.329C155.774 123.93 105.473 127.745 115.762 141.869C117.323 142.958 118.884 141.85 118.927 139.609C172.562 120.162 167.364 138.377 173.723 136.251C174.696 136.532 175.707 136.709 176.595 136.896C181.518 138.487 183.191 137.995 183.838 143.546C188.293 186.411 245.125 171.617 240.463 136.456C245.079 136.202 249.114 134.196 253.994 136.154C257.382 169.276 283.92 170.612 291.906 159.13C297.928 151.163 295.54 139.135 303.817 132.866C307.084 135.613 307.295 126.343 306.538 124.611Z" fill="#282828"/>
</svg>
